#N canvas 640 344 450 300 10;
#X obj 234 139 print bytes;
#X obj 89 109 o.slip.encode;
#X obj 89 149 o.slip.decode;
#X obj 89 43 o.compose 123 44 binhex b#2F666F6F203A20312C0A2F626172203A
b#20322C0A2F7374657665202261626364 b#656667220A;
#X obj 58 201 o.compose 123 23 binhex b#;
#X connect 1 0 0 0;
#X connect 1 0 2 0;
#X connect 2 0 4 1;
#X connect 3 0 1 0;
