#N canvas 742 173 552 285 10;
#X obj 98 39 o.pack /foo;
#X floatatom 98 11 5 0 0 0 - - -, f 5;
#X msg 150 99 connect 127.0.0.1 8888;
#X obj 98 188 tgl 15 0 empty empty empty 17 7 0 10 -262144 -1 -1 0
1;
#X text 124 190 connected;
#X obj 98 65 o.timetag /time/sent;
#X obj 98 131 o.udp.send 127.0.0.1 8888;
#X text 189 190 << this isn't working for some reason;
#X connect 0 0 5 0;
#X connect 1 0 0 0;
#X connect 2 0 6 0;
#X connect 5 0 6 0;
#X connect 6 0 3 0;
