{
	"patcher" : 	{
		"fileversion" : 1,
		"appversion" : 		{
			"major" : 8,
			"minor" : 1,
			"revision" : 4,
			"architecture" : "x64",
			"modernui" : 1
		}
,
		"classnamespace" : "box",
		"rect" : [ 8.0, 56.0, 873.0, 751.0 ],
		"bglocked" : 0,
		"openinpresentation" : 0,
		"default_fontsize" : 14.0,
		"default_fontface" : 0,
		"default_fontname" : "Arial",
		"gridonopen" : 1,
		"gridsize" : [ 15.0, 15.0 ],
		"gridsnaponopen" : 1,
		"objectsnaponopen" : 1,
		"statusbarvisible" : 2,
		"toolbarvisible" : 0,
		"lefttoolbarpinned" : 0,
		"toptoolbarpinned" : 0,
		"righttoolbarpinned" : 0,
		"bottomtoolbarpinned" : 0,
		"toolbars_unpinned_last_save" : 0,
		"tallnewobj" : 0,
		"boxanimatetime" : 200,
		"enablehscroll" : 1,
		"enablevscroll" : 1,
		"devicewidth" : 0.0,
		"description" : "",
		"digest" : "",
		"tags" : "",
		"style" : "",
		"subpatcher_template" : "Untitled5_template",
		"assistshowspatchername" : 0,
		"boxes" : [ 			{
				"box" : 				{
					"bubble" : 1,
					"bubbleside" : 3,
					"bubbleusescolors" : 1,
					"fontface" : 2,
					"fontsize" : 12.0,
					"id" : "obj-39",
					"maxclass" : "comment",
					"numinlets" : 1,
					"numoutlets" : 0,
					"patching_rect" : [ 445.5, 284.0, 74.0, 24.0 ],
					"text" : "message"
				}

			}
, 			{
				"box" : 				{
					"bubble" : 1,
					"bubbleside" : 3,
					"bubbleusescolors" : 1,
					"fontface" : 2,
					"fontsize" : 12.0,
					"id" : "obj-38",
					"maxclass" : "comment",
					"numinlets" : 1,
					"numoutlets" : 0,
					"patching_rect" : [ 182.0, 284.0, 84.0, 24.0 ],
					"text" : "o.compose"
				}

			}
, 			{
				"box" : 				{
					"bubble" : 1,
					"bubbleside" : 3,
					"bubbleusescolors" : 1,
					"fontface" : 2,
					"fontsize" : 12.0,
					"id" : "obj-37",
					"maxclass" : "comment",
					"numinlets" : 1,
					"numoutlets" : 0,
					"patching_rect" : [ 190.0, 1463.0, 73.0, 24.0 ],
					"text" : "o.display"
				}

			}
, 			{
				"box" : 				{
					"bubble" : 1,
					"bubbleside" : 3,
					"bubbleusescolors" : 1,
					"fontface" : 2,
					"fontsize" : 12.0,
					"id" : "obj-36",
					"maxclass" : "comment",
					"numinlets" : 1,
					"numoutlets" : 0,
					"patching_rect" : [ 179.0, 1371.0, 84.0, 24.0 ],
					"text" : "o.compose"
				}

			}
, 			{
				"box" : 				{
					"bubble" : 1,
					"bubbleside" : 3,
					"bubbleusescolors" : 1,
					"fontface" : 2,
					"fontsize" : 12.0,
					"id" : "obj-35",
					"maxclass" : "comment",
					"numinlets" : 1,
					"numoutlets" : 0,
					"patching_rect" : [ 156.0, 1413.0, 107.0, 24.0 ],
					"text" : "o.expr.codebox"
				}

			}
, 			{
				"box" : 				{
					"id" : "obj-15",
					"linecount" : 2,
					"maxclass" : "comment",
					"numinlets" : 1,
					"numoutlets" : 0,
					"patching_rect" : [ 25.5, 1796.0, 813.0, 38.0 ],
					"text" : "o.expr.codebox has a number of built-in functions and some nice features that simplify common tasks like list manipulation, which we'll encounter as we go",
					"textjustification" : 1
				}

			}
, 			{
				"box" : 				{
					"id" : "obj-18",
					"linecount" : 2,
					"maxclass" : "comment",
					"numinlets" : 1,
					"numoutlets" : 0,
					"patching_rect" : [ 25.5, 1544.0, 813.0, 38.0 ],
					"text" : "o.expr.codebox operates on a copy of the input and produces a modified copy containing whatever came in with any changes made during computation.",
					"textjustification" : 1
				}

			}
, 			{
				"box" : 				{
					"fontface" : 2,
					"fontsize" : 12.0,
					"id" : "obj-22",
					"linecount" : 3,
					"maxclass" : "comment",
					"numinlets" : 1,
					"numoutlets" : 0,
					"patching_rect" : [ 367.0, 1664.0, 302.0, 47.0 ],
					"text" : "You can assign a value to an address using the \"=\" operator. This creates a new message and appends it to the copy of our input"
				}

			}
, 			{
				"box" : 				{
					"fontface" : 0,
					"fontsize" : 12.0,
					"id" : "obj-26",
					"maxclass" : "o.display",
					"numinlets" : 1,
					"numoutlets" : 1,
					"outlettype" : [ "" ],
					"patching_rect" : [ 278.0, 1720.0, 251.0, 34.0 ]
				}

			}
, 			{
				"box" : 				{
					"fontface" : 0,
					"fontsize" : 12.0,
					"id" : "obj-28",
					"maxclass" : "o.expr.codebox",
					"numinlets" : 1,
					"numoutlets" : 2,
					"outlettype" : [ "FullPacket", "FullPacket" ],
					"patching_rect" : [ 278.0, 1671.0, 80.0, 33.0 ],
					"text" : "/foo = 10"
				}

			}
, 			{
				"box" : 				{
					"fontface" : 0,
					"fontsize" : 12.0,
					"id" : "obj-29",
					"maxclass" : "o.compose",
					"numinlets" : 2,
					"numoutlets" : 1,
					"outlettype" : [ "" ],
					"patching_rect" : [ 278.0, 1633.0, 251.0, 24.0 ],
					"saved_bundle_data" : [ 35, 98, 117, 110, 100, 108, 101, 0, 0, 0, 0, 0, 0, 0, 0, 0, 0, 0, 0, 40, 47, 109, 121, 108, 105, 115, 116, 0, 44, 105, 105, 115, 115, 100, 0, 0, 0, 0, 0, 1, 0, 0, 0, 2, 97, 0, 0, 0, 98, 0, 0, 0, 64, 9, 30, -72, 81, -21, -123, 31 ],
					"saved_bundle_length" : 60,
					"text" : "/mylist : [1, 2, \"a\", \"b\", 3.14]"
				}

			}
, 			{
				"box" : 				{
					"fontface" : 0,
					"fontsize" : 12.0,
					"id" : "obj-30",
					"maxclass" : "o.display",
					"numinlets" : 1,
					"numoutlets" : 1,
					"outlettype" : [ "" ],
					"patching_rect" : [ 278.0, 1458.0, 251.0, 34.0 ]
				}

			}
, 			{
				"box" : 				{
					"fontface" : 2,
					"fontsize" : 12.0,
					"id" : "obj-31",
					"linecount" : 2,
					"maxclass" : "comment",
					"numinlets" : 1,
					"numoutlets" : 0,
					"patching_rect" : [ 450.0, 1409.0, 297.0, 33.0 ],
					"text" : "Sending a bundle through an empty o.expr.compose simply produces a copy of the bundle"
				}

			}
, 			{
				"box" : 				{
					"fontface" : 0,
					"fontsize" : 12.0,
					"id" : "obj-32",
					"maxclass" : "o.expr.codebox",
					"numinlets" : 1,
					"numoutlets" : 2,
					"outlettype" : [ "FullPacket", "FullPacket" ],
					"patching_rect" : [ 278.0, 1409.0, 150.0, 32.0 ]
				}

			}
, 			{
				"box" : 				{
					"fontface" : 0,
					"fontsize" : 12.0,
					"id" : "obj-33",
					"maxclass" : "o.compose",
					"numinlets" : 2,
					"numoutlets" : 1,
					"outlettype" : [ "" ],
					"patching_rect" : [ 278.0, 1371.0, 251.0, 24.0 ],
					"saved_bundle_data" : [ 35, 98, 117, 110, 100, 108, 101, 0, 0, 0, 0, 0, 0, 0, 0, 0, 0, 0, 0, 40, 47, 109, 121, 108, 105, 115, 116, 0, 44, 105, 105, 115, 115, 100, 0, 0, 0, 0, 0, 1, 0, 0, 0, 2, 97, 0, 0, 0, 98, 0, 0, 0, 64, 9, 30, -72, 81, -21, -123, 31 ],
					"saved_bundle_length" : 60,
					"text" : "/mylist : [1, 2, \"a\", \"b\", 3.14]"
				}

			}
, 			{
				"box" : 				{
					"id" : "obj-34",
					"linecount" : 2,
					"maxclass" : "comment",
					"numinlets" : 1,
					"numoutlets" : 0,
					"patching_rect" : [ 25.5, 1280.0, 813.0, 38.0 ],
					"text" : "Before continuing with our tutorial, let's introduce o.expr.codebox, which allows you to write expressions that manipulate OSC data in a Javascript-like language.",
					"textjustification" : 1
				}

			}
, 			{
				"box" : 				{
					"fontsize" : 12.0,
					"id" : "obj-12",
					"linecount" : 2,
					"maxclass" : "comment",
					"numinlets" : 1,
					"numoutlets" : 0,
					"patching_rect" : [ 19.5, 1141.5, 834.0, 33.0 ],
					"style" : "default",
					"text" : "The Max message box serves two functions: creation and display. \nWhile o.compose can also be used to accomplish both of those tasks, its primary purpose is creation, with display being handled by o.display.",
					"textjustification" : 1
				}

			}
, 			{
				"box" : 				{
					"fontface" : 0,
					"fontsize" : 12.0,
					"id" : "obj-8",
					"linecount" : 2,
					"maxclass" : "o.compose",
					"numinlets" : 2,
					"numoutlets" : 1,
					"outlettype" : [ "" ],
					"patching_rect" : [ 278.0, 1199.0, 309.0, 38.0 ],
					"saved_bundle_data" : [ 35, 98, 117, 110, 100, 108, 101, 0, 0, 0, 0, 0, 0, 0, 0, 0, 0, 0, 0, 44, 47, 109, 121, 108, 105, 115, 116, 47, 49, 0, 0, 0, 44, 105, 105, 115, 115, 100, 0, 0, 0, 0, 0, 1, 0, 0, 0, 2, 97, 0, 0, 0, 98, 0, 0, 0, 64, 9, 30, -72, 81, -21, -123, 31, 0, 0, 0, 44, 47, 109, 121, 108, 105, 115, 116, 47, 50, 0, 0, 0, 44, 115, 115, 115, 0, 0, 0, 0, 97, 112, 112, 108, 101, 0, 0, 0, 111, 114, 97, 110, 103, 101, 0, 0, 103, 114, 97, 112, 101, 0, 0, 0 ],
					"saved_bundle_length" : 112,
					"text" : "/mylist/1 : [1, 2, \"a\", \"b\", 3.14],\n/mylist/2 : [\"apple\", \"orange\", \"grape\"]"
				}

			}
, 			{
				"box" : 				{
					"fontface" : 0,
					"fontsize" : 14.0,
					"id" : "obj-27",
					"linecount" : 3,
					"maxclass" : "comment",
					"numinlets" : 1,
					"numoutlets" : 0,
					"patching_rect" : [ 57.5, 382.5, 748.5, 53.0 ],
					"style" : "default",
					"text" : "[o.print] requires a name, just like print.  We can use this name to identify data that is sent to the Max console.  The curly braces in the Max console indicate the beginning and end of a bundle.  We also see an address (/name) and data (\"data\") printed next to the name.",
					"textjustification" : 1
				}

			}
, 			{
				"box" : 				{
					"fontface" : 2,
					"fontsize" : 12.0,
					"id" : "obj-14",
					"linecount" : 2,
					"maxclass" : "comment",
					"numinlets" : 1,
					"numoutlets" : 0,
					"patching_rect" : [ 142.0, 219.5, 592.0, 33.0 ],
					"style" : "default",
					"text" : "Let's print the contents of an ODOT bundle as compared to a Max [message].  \nTry clicking on each box below and look at the result in the Max console (command-m)",
					"textjustification" : 1
				}

			}
, 			{
				"box" : 				{
					"fontsize" : 12.0,
					"id" : "obj-19",
					"maxclass" : "newobj",
					"numinlets" : 1,
					"numoutlets" : 0,
					"patching_rect" : [ 521.5, 319.038461538461547, 84.0, 22.0 ],
					"text" : "print message"
				}

			}
, 			{
				"box" : 				{
					"fontsize" : 12.0,
					"id" : "obj-20",
					"maxclass" : "newobj",
					"numinlets" : 1,
					"numoutlets" : 1,
					"outlettype" : [ "" ],
					"patching_rect" : [ 269.0, 319.038461538461547, 93.0, 22.0 ],
					"text" : "o.print o.display"
				}

			}
, 			{
				"box" : 				{
					"fontsize" : 12.0,
					"id" : "obj-23",
					"maxclass" : "message",
					"numinlets" : 2,
					"numoutlets" : 1,
					"outlettype" : [ "" ],
					"patching_rect" : [ 521.5, 284.0, 65.0, 22.0 ],
					"text" : "name data"
				}

			}
, 			{
				"box" : 				{
					"fontface" : 0,
					"fontsize" : 12.0,
					"id" : "obj-25",
					"maxclass" : "o.compose",
					"numinlets" : 2,
					"numoutlets" : 1,
					"outlettype" : [ "" ],
					"patching_rect" : [ 269.0, 284.0, 121.0, 24.0 ],
					"saved_bundle_data" : [ 35, 98, 117, 110, 100, 108, 101, 0, 0, 0, 0, 0, 0, 0, 0, 0, 0, 0, 0, 20, 47, 110, 97, 109, 101, 0, 0, 0, 44, 115, 0, 0, 100, 97, 116, 97, 0, 0, 0, 0 ],
					"saved_bundle_length" : 40,
					"text" : "/name : \"data\""
				}

			}
, 			{
				"box" : 				{
					"fontface" : 2,
					"id" : "obj-13",
					"maxclass" : "comment",
					"numinlets" : 1,
					"numoutlets" : 0,
					"patching_rect" : [ 763.5, 714.5, 88.0, 22.0 ],
					"style" : "default",
					"text" : "(scroll down)"
				}

			}
, 			{
				"box" : 				{
					"fontface" : 2,
					"fontsize" : 12.0,
					"id" : "obj-4",
					"maxclass" : "comment",
					"numinlets" : 1,
					"numoutlets" : 0,
					"patching_rect" : [ 51.0, 472.5, 774.0, 20.0 ],
					"style" : "default",
					"text" : "Below there are two ways to create two lists, named \"mylist 1\" and \"mylist 2\".  Click on the boxes below and note the differences and similarities."
				}

			}
, 			{
				"box" : 				{
					"args" : [ 1 ],
					"bgmode" : 0,
					"border" : 0,
					"clickthrough" : 0,
					"enablehscroll" : 0,
					"enablevscroll" : 0,
					"id" : "obj-10",
					"lockeddragscroll" : 0,
					"maxclass" : "bpatcher",
					"name" : "banner.maxpat",
					"numinlets" : 0,
					"numoutlets" : 0,
					"offset" : [ -4.0, -5.0 ],
					"patching_rect" : [ 18.0, 9.0, 645.0, 91.0 ],
					"viewvisibility" : 1
				}

			}
, 			{
				"box" : 				{
					"hidden" : 1,
					"id" : "obj-11",
					"maxclass" : "newobj",
					"numinlets" : 1,
					"numoutlets" : 0,
					"patching_rect" : [ 790.5, 47.5, 61.0, 24.0 ],
					"text" : "onecopy"
				}

			}
, 			{
				"box" : 				{
					"args" : [ 1 ],
					"bgmode" : 0,
					"border" : 0,
					"clickthrough" : 0,
					"enablehscroll" : 0,
					"enablevscroll" : 0,
					"id" : "obj-2",
					"lockeddragscroll" : 0,
					"maxclass" : "bpatcher",
					"name" : "advance.maxpat",
					"numinlets" : 0,
					"numoutlets" : 0,
					"offset" : [ -1.0, -2.0 ],
					"patching_rect" : [ 663.0, 9.0, 195.0, 28.0 ],
					"viewvisibility" : 1
				}

			}
, 			{
				"box" : 				{
					"fontsize" : 12.0,
					"id" : "obj-17",
					"maxclass" : "newobj",
					"numinlets" : 1,
					"numoutlets" : 0,
					"patching_rect" : [ 552.5, 634.076923076923094, 65.0, 22.0 ],
					"text" : "print max2"
				}

			}
, 			{
				"box" : 				{
					"fontsize" : 12.0,
					"id" : "obj-16",
					"maxclass" : "newobj",
					"numinlets" : 1,
					"numoutlets" : 0,
					"patching_rect" : [ 475.5, 634.076923076923094, 65.0, 22.0 ],
					"text" : "print max1"
				}

			}
, 			{
				"box" : 				{
					"fontsize" : 12.0,
					"id" : "obj-1",
					"maxclass" : "newobj",
					"numinlets" : 3,
					"numoutlets" : 3,
					"outlettype" : [ "", "", "" ],
					"patching_rect" : [ 475.5, 591.038461538461547, 173.0, 22.0 ],
					"text" : "route mylist1 mylist2"
				}

			}
, 			{
				"box" : 				{
					"fontface" : 2,
					"id" : "obj-24",
					"maxclass" : "comment",
					"numinlets" : 1,
					"numoutlets" : 0,
					"patching_rect" : [ 19.5, 714.5, 489.0, 22.0 ],
					"style" : "default",
					"text" : "Let's look closer at the similarities and differences between these two objects:"
				}

			}
, 			{
				"box" : 				{
					"fontsize" : 12.0,
					"id" : "obj-21",
					"maxclass" : "newobj",
					"numinlets" : 1,
					"numoutlets" : 2,
					"outlettype" : [ "", "FullPacket" ],
					"patching_rect" : [ 115.0, 591.038461538461547, 83.0, 22.0 ],
					"text" : "o.route /mylist"
				}

			}
, 			{
				"box" : 				{
					"fontsize" : 12.0,
					"id" : "obj-9",
					"maxclass" : "newobj",
					"numinlets" : 1,
					"numoutlets" : 1,
					"outlettype" : [ "" ],
					"patching_rect" : [ 115.0, 634.076923076923094, 105.0, 22.0 ],
					"text" : "o.print one_&_two"
				}

			}
, 			{
				"box" : 				{
					"fontsize" : 13.0,
					"id" : "obj-7",
					"linecount" : 23,
					"maxclass" : "comment",
					"numinlets" : 1,
					"numoutlets" : 0,
					"patching_rect" : [ 19.5, 754.5, 834.0, 341.0 ],
					"style" : "default",
					"text" : "1. In the Max message box, the comma separates two messages, which will be output separately when the button is clicked. In o.compose, the comma also separates messages, but when clicked, o.compose outputs a single \"bundle\" which contains all of the messages. The comma also serves a second purpose in o.compose as a list item separator.\n\n2. Strings, whether a part of lists or not, are surrounded in \"quotes\".  You'll see them appear in [o.display], [o.expr.codebox], [o.message], and objects where expressions can be input (such as [o.cond] and [o.if]).*\n\n3. Lists are contained within brackets: [ to start a list, and ] to end one.  list items are separated by commas.  You can also create a list within a list, a task which normally takes place in Max via the [dict] object.  You cannot create a list within a list (2d-array).\n\n4. Every piece of data (value) requires an address (name).  We see this occur in /msg/1, /msg/2, and so on.\n\n5. While the Max message box can contain any combination of symbols (strings), and numbers in any order, o.compose can only contain messages that begin with an address and contain 0 or more values (we'll talk more about the types of these values later).\n\n6. o.compose looks like a note of paper, rather than a rounded-rectangle\n\n7. We bind data to an address with the colon (:) operator.  Anything on the left of the operator is an address; anything to the right is data.\n\n8. There are no $n-style substitutions, nor # substitutions\n\n* caveat: if a string argument is typed with quotes into [o.if], [o.cond], or similar, Max will remove these quotes when you click out of the box, unless the string contains a space character."
				}

			}
, 			{
				"box" : 				{
					"fontsize" : 14.0,
					"id" : "obj-6",
					"linecount" : 2,
					"maxclass" : "comment",
					"numinlets" : 1,
					"numoutlets" : 0,
					"patching_rect" : [ 18.0, 153.5, 840.0, 38.0 ],
					"style" : "default",
					"text" : "The odot equivalent of the Max message box is called o.compose. Both objects are used to create data to be used somewhere in a patch, as well as to display their contents.",
					"textjustification" : 1
				}

			}
, 			{
				"box" : 				{
					"fontsize" : 12.0,
					"id" : "obj-5",
					"maxclass" : "message",
					"numinlets" : 2,
					"numoutlets" : 1,
					"outlettype" : [ "" ],
					"patching_rect" : [ 475.5, 532.0, 264.0, 22.0 ],
					"text" : "mylist1 1 2 a b 3.14, mylist2 apple orange grape"
				}

			}
, 			{
				"box" : 				{
					"fontface" : 0,
					"fontsize" : 12.0,
					"id" : "obj-3",
					"linecount" : 2,
					"maxclass" : "o.compose",
					"numinlets" : 2,
					"numoutlets" : 1,
					"outlettype" : [ "" ],
					"patching_rect" : [ 115.0, 532.0, 309.0, 38.0 ],
					"saved_bundle_data" : [ 35, 98, 117, 110, 100, 108, 101, 0, 0, 0, 0, 0, 0, 0, 0, 0, 0, 0, 0, 44, 47, 109, 121, 108, 105, 115, 116, 47, 49, 0, 0, 0, 44, 105, 105, 115, 115, 100, 0, 0, 0, 0, 0, 1, 0, 0, 0, 2, 97, 0, 0, 0, 98, 0, 0, 0, 64, 9, 30, -72, 81, -21, -123, 31, 0, 0, 0, 44, 47, 109, 121, 108, 105, 115, 116, 47, 50, 0, 0, 0, 44, 115, 115, 115, 0, 0, 0, 0, 97, 112, 112, 108, 101, 0, 0, 0, 111, 114, 97, 110, 103, 101, 0, 0, 103, 114, 97, 112, 101, 0, 0, 0 ],
					"saved_bundle_length" : 112,
					"text" : "/mylist/1 : [1, 2, \"a\", \"b\", 3.14],\n/mylist/2 : [\"apple\", \"orange\", \"grape\"]"
				}

			}
 ],
		"lines" : [ 			{
				"patchline" : 				{
					"destination" : [ "obj-16", 0 ],
					"source" : [ "obj-1", 0 ]
				}

			}
, 			{
				"patchline" : 				{
					"destination" : [ "obj-17", 0 ],
					"source" : [ "obj-1", 1 ]
				}

			}
, 			{
				"patchline" : 				{
					"destination" : [ "obj-9", 0 ],
					"source" : [ "obj-21", 0 ]
				}

			}
, 			{
				"patchline" : 				{
					"destination" : [ "obj-19", 0 ],
					"source" : [ "obj-23", 0 ]
				}

			}
, 			{
				"patchline" : 				{
					"destination" : [ "obj-20", 0 ],
					"source" : [ "obj-25", 0 ]
				}

			}
, 			{
				"patchline" : 				{
					"destination" : [ "obj-26", 0 ],
					"source" : [ "obj-28", 0 ]
				}

			}
, 			{
				"patchline" : 				{
					"destination" : [ "obj-28", 0 ],
					"source" : [ "obj-29", 0 ]
				}

			}
, 			{
				"patchline" : 				{
					"destination" : [ "obj-21", 0 ],
					"source" : [ "obj-3", 0 ]
				}

			}
, 			{
				"patchline" : 				{
					"destination" : [ "obj-30", 0 ],
					"source" : [ "obj-32", 0 ]
				}

			}
, 			{
				"patchline" : 				{
					"destination" : [ "obj-32", 0 ],
					"source" : [ "obj-33", 0 ]
				}

			}
, 			{
				"patchline" : 				{
					"destination" : [ "obj-1", 0 ],
					"source" : [ "obj-5", 0 ]
				}

			}
 ],
		"dependency_cache" : [ 			{
				"name" : "advance.maxpat",
				"bootpath" : "~/Documents/programming/git_repositories/ODOT-tutorials/introduction/_patchers",
				"patcherrelativepath" : ".",
				"type" : "JSON",
				"implicit" : 1
			}
, 			{
				"name" : "filelist.txt",
				"bootpath" : "~/Documents/programming/git_repositories/ODOT-tutorials/introduction/_patchers",
				"patcherrelativepath" : ".",
				"type" : "TEXT",
				"implicit" : 1
			}
, 			{
				"name" : "close_parent.js",
				"bootpath" : "~/Documents/programming/git_repositories/ODOT-tutorials/introduction/_patchers",
				"patcherrelativepath" : ".",
				"type" : "TEXT",
				"implicit" : 1
			}
, 			{
				"name" : "banner.maxpat",
				"bootpath" : "~/Documents/programming/git_repositories/ODOT-tutorials/introduction/_patchers",
				"patcherrelativepath" : ".",
				"type" : "JSON",
				"implicit" : 1
			}
, 			{
				"name" : "o.compose.mxo",
				"type" : "iLaX"
			}
, 			{
				"name" : "o.print.mxo",
				"type" : "iLaX"
			}
, 			{
				"name" : "o.route.mxo",
				"type" : "iLaX"
			}
, 			{
				"name" : "o.expr.codebox.mxo",
				"type" : "iLaX"
			}
, 			{
				"name" : "o.display.mxo",
				"type" : "iLaX"
			}
 ],
		"autosave" : 0
	}

}
