{
	"patcher" : 	{
		"fileversion" : 1,
		"appversion" : 		{
			"major" : 8,
			"minor" : 1,
			"revision" : 8,
			"architecture" : "x64",
			"modernui" : 1
		}
,
		"classnamespace" : "box",
		"rect" : [ 15.0, 61.0, 992.0, 640.0 ],
		"bglocked" : 0,
		"openinpresentation" : 0,
		"default_fontsize" : 14.0,
		"default_fontface" : 0,
		"default_fontname" : "Arial",
		"gridonopen" : 1,
		"gridsize" : [ 15.0, 15.0 ],
		"gridsnaponopen" : 1,
		"objectsnaponopen" : 1,
		"statusbarvisible" : 2,
		"toolbarvisible" : 0,
		"lefttoolbarpinned" : 2,
		"toptoolbarpinned" : 2,
		"righttoolbarpinned" : 2,
		"bottomtoolbarpinned" : 2,
		"toolbars_unpinned_last_save" : 15,
		"tallnewobj" : 0,
		"boxanimatetime" : 200,
		"enablehscroll" : 0,
		"enablevscroll" : 1,
		"devicewidth" : 0.0,
		"description" : "",
		"digest" : "",
		"tags" : "",
		"style" : "",
		"subpatcher_template" : "Untitled5_template",
		"assistshowspatchername" : 0,
		"boxes" : [ 			{
				"box" : 				{
					"args" : [ "o.compose", "o.expr.codebox", "o.display", "o.pack", "o.union", "o.route" ],
					"bgmode" : 0,
					"border" : 0,
					"clickthrough" : 0,
					"enablehscroll" : 0,
					"enablevscroll" : 0,
					"id" : "obj-14",
					"lockeddragscroll" : 0,
					"maxclass" : "bpatcher",
					"name" : "o.t.objects-covered.maxpat",
					"numinlets" : 0,
					"numoutlets" : 0,
					"offset" : [ -5.5, -1.0 ],
					"patching_rect" : [ 71.0, 4614.0, 834.0, 45.75 ],
					"viewvisibility" : 1
				}

			}
, 			{
				"box" : 				{
					"id" : "obj-31",
					"maxclass" : "button",
					"numinlets" : 1,
					"numoutlets" : 1,
					"outlettype" : [ "bang" ],
					"parameter_enable" : 0,
					"patching_rect" : [ 602.0, 983.0, 24.0, 24.0 ]
				}

			}
, 			{
				"box" : 				{
					"args" : [ 9 ],
					"bgmode" : 0,
					"border" : 0,
					"clickthrough" : 0,
					"enablehscroll" : 0,
					"enablevscroll" : 0,
					"id" : "obj-9",
					"lockeddragscroll" : 0,
					"maxclass" : "bpatcher",
					"name" : "advance.maxpat",
					"numinlets" : 0,
					"numoutlets" : 0,
					"offset" : [ -1.0, -2.0 ],
					"patching_rect" : [ 710.0, 4661.75, 195.0, 28.0 ],
					"viewvisibility" : 1
				}

			}
, 			{
				"box" : 				{
					"bgcolor" : [ 0.996078431372549, 0.996078431372549, 0.996078431372549, 1.0 ],
					"id" : "obj-22",
					"maxclass" : "comment",
					"numinlets" : 1,
					"numoutlets" : 0,
					"patching_rect" : [ 423.166666666666742, 3285.0, 144.0, 22.0 ],
					"text" : "Bringing it all together"
				}

			}
, 			{
				"box" : 				{
					"id" : "obj-23",
					"maxclass" : "live.line",
					"numinlets" : 1,
					"numoutlets" : 0,
					"patching_rect" : [ 15.0, 3293.5, 960.333333333333485, 5.0 ]
				}

			}
, 			{
				"box" : 				{
					"id" : "obj-20",
					"maxclass" : "comment",
					"numinlets" : 1,
					"numoutlets" : 0,
					"patching_rect" : [ 679.0, 4676.75, 150.0, 22.0 ]
				}

			}
, 			{
				"box" : 				{
					"fontface" : 0,
					"fontsize" : 11.0,
					"id" : "obj-13",
					"maxclass" : "o.expr.codebox",
					"numinlets" : 1,
					"numoutlets" : 2,
					"outlettype" : [ "FullPacket", "FullPacket" ],
					"patching_rect" : [ 130.0, 4078.0, 103.0, 31.0 ],
					"text" : "/startval += 1"
				}

			}
, 			{
				"box" : 				{
					"id" : "obj-6",
					"maxclass" : "newobj",
					"numinlets" : 1,
					"numoutlets" : 2,
					"outlettype" : [ "", "" ],
					"patching_rect" : [ 130.25, 4026.0, 155.25, 24.0 ],
					"text" : "t l l"
				}

			}
, 			{
				"box" : 				{
					"bubble" : 1,
					"bubblepoint" : 0.26,
					"bubbletextmargin" : 15,
					"bubbleusescolors" : 1,
					"fontsize" : 12.0,
					"id" : "obj-4",
					"linecount" : 28,
					"maxclass" : "comment",
					"numinlets" : 1,
					"numoutlets" : 0,
					"patching_rect" : [ 460.5, 3816.0, 483.0, 406.0 ],
					"text" : "Inside of [o.expr.codebox], we do some calculations to set up the rotation.  Note that these expressions rely on the fact that the output of [o.expr.codebox] is sent back to the right inlet of [o.union] as soon as it leaves the codeboxes.  This allows us to utilize a history of data.  \n\nSo we:\n\n-- check to see if \"/list\" is already present.  If not, we set it equal to \"/inlist\".  If so, we leave it be.\n\n-- check to see if \"/idx\" is present.  If not, we set it so an arithmetic sequence from zero to the list length minus one.  If so, leave it be.\n\n-- Set the \"/startval\" to the modulo of itself by the lenght of \"/list\" minus one.  This is what moves the starting index around to cause the rotation.\n\n-- set \"/idx\" to the result of a function application.  This lambda function performs a modulo operation on the previously existing copy of \"/idx\".\n\n-- set \"/size\" to the length of the list we're interested in - this gets used to set the size of the [multisliders] in our display.\n\n-- use [trigger] for two operations.  1) send out the display info for our display components (two [multislider]s) routed via [o.route] and some messaging.  2) add one to the /startval, and store the result in the right inlet of [o.union]\n\n...then we loop around with feedback and begin the process again when the next bang happens."
				}

			}
, 			{
				"box" : 				{
					"id" : "obj-3",
					"maxclass" : "newobj",
					"numinlets" : 1,
					"numoutlets" : 1,
					"outlettype" : [ "bang" ],
					"patching_rect" : [ 392.75, 3610.0, 66.0, 24.0 ],
					"text" : "loadbang"
				}

			}
, 			{
				"box" : 				{
					"id" : "obj-2",
					"linecount" : 8,
					"maxclass" : "comment",
					"numinlets" : 1,
					"numoutlets" : 0,
					"patching_rect" : [ 54.0, 3392.5, 899.0, 132.0 ],
					"text" : "Now that we've covered the essentials of writing expressions, let's look at some practical applications of what we've learned, incorporating the previous materials we know about patching with ODOT.  The example below generates a list and rotates it according to a list of indices that is based on the first.  The list of indices is then used as a lookup to appropriately rotate the input.\n\nClick on a list length.  This sends the generated list along with a \"/startval\" to reset the process.  [o.pack] is used to join the two addressess \"/inlist\" and \"/startval\", and this resultant bundle is passed to the right inlet of [o.union].  We have now set up initialization for this process.\n\nTurn on the [metro] with [toggle].  Each time a bang is sent to the left inlet of [o.union], the object's bundle is sent to [o.expr.codebox].  "
				}

			}
, 			{
				"box" : 				{
					"id" : "obj-5",
					"linecount" : 14,
					"maxclass" : "comment",
					"numinlets" : 1,
					"numoutlets" : 0,
					"patching_rect" : [ 400.0, 2961.5, 507.0, 225.0 ],
					"text" : "This might look like a familiar example.  You saw it in tutorial 6! \nInstead of the original expression ( /add = /int + /x ), we've updated it to include a null coalescing operator.\n\nThis avoids the need to inject something into a bundle via [o.union].  There are times when either method is advantageous, so just be aware that both are there.\n\nSo what's happening here?\nIf x is not present, we set it to 100, and pass the result to the rest of the expression (add that result to /int, and assign this result to /add).  \n\nNote that there is a difference between using the null coalescing assignment operator and the null coalescing operator, and how the latter allows us to build up a more complex expression involving this sort of \"safe default\"."
				}

			}
, 			{
				"box" : 				{
					"fontsize" : 13.0,
					"id" : "obj-87",
					"linecount" : 14,
					"maxclass" : "comment",
					"numinlets" : 1,
					"numoutlets" : 0,
					"patching_rect" : [ 74.0, 2627.0, 470.0, 210.0 ],
					"text" : "Here's a practical situation in which we might want to provide one of these safe defaults.  \n\nWe have an incoming bundle, containing /a and /b.\nWe might like to count the number of times this bundle passes through [o.expr.codebox].\n\nThe first time that this bundle goes through [o.union], /count does not exist, so it gets generated and set to a value of 0.\n\nThen, every subsequent time, /count is incremented by one (/count++).  This accumulative process can happen because after we leave [o.expr.codebox], we store the result in the right inlet of [o.union].  The old bundle containing /count is then blended in with the new incoming bundle - "
				}

			}
, 			{
				"box" : 				{
					"fontface" : 0,
					"fontsize" : 12.0,
					"id" : "obj-86",
					"linecount" : 2,
					"maxclass" : "o.expr.codebox",
					"numinlets" : 1,
					"numoutlets" : 2,
					"outlettype" : [ "FullPacket", "FullPacket" ],
					"patching_rect" : [ 648.0, 2708.0, 111.0, 46.0 ],
					"text" : "/count ??= 0, \n/count++"
				}

			}
, 			{
				"box" : 				{
					"fontsize" : 13.0,
					"id" : "obj-85",
					"maxclass" : "newobj",
					"numinlets" : 1,
					"numoutlets" : 2,
					"outlettype" : [ "", "" ],
					"patching_rect" : [ 648.0, 2763.0, 29.5, 23.0 ],
					"text" : "t l l"
				}

			}
, 			{
				"box" : 				{
					"fontsize" : 13.0,
					"id" : "obj-84",
					"maxclass" : "newobj",
					"numinlets" : 2,
					"numoutlets" : 1,
					"outlettype" : [ "FullPacket" ],
					"patching_rect" : [ 648.0, 2680.0, 51.0, 23.0 ],
					"text" : "o.union"
				}

			}
, 			{
				"box" : 				{
					"fontface" : 0,
					"fontsize" : 12.0,
					"id" : "obj-79",
					"linecount" : 2,
					"maxclass" : "o.compose",
					"numinlets" : 2,
					"numoutlets" : 1,
					"outlettype" : [ "" ],
					"patching_rect" : [ 648.0, 2622.0, 78.0, 38.0 ],
					"saved_bundle_data" : [ 35, 98, 117, 110, 100, 108, 101, 0, 0, 0, 0, 0, 0, 0, 0, 0, 0, 0, 0, 12, 47, 97, 0, 0, 44, 105, 0, 0, 0, 0, 0, 44, 0, 0, 0, 12, 47, 98, 0, 0, 44, 105, 0, 0, 0, 0, 0, 88 ],
					"saved_bundle_length" : 48,
					"text" : "/a : 44,\n/b : 88"
				}

			}
, 			{
				"box" : 				{
					"fontface" : 0,
					"fontsize" : 12.0,
					"id" : "obj-80",
					"maxclass" : "o.display",
					"numinlets" : 1,
					"numoutlets" : 1,
					"outlettype" : [ "" ],
					"patching_rect" : [ 648.0, 2817.0, 111.0, 34.0 ]
				}

			}
, 			{
				"box" : 				{
					"fontsize" : 13.0,
					"id" : "obj-74",
					"linecount" : 21,
					"maxclass" : "comment",
					"numinlets" : 1,
					"numoutlets" : 0,
					"patching_rect" : [ 488.5, 2186.0, 368.0, 311.0 ],
					"text" : "There are situations in which we might want to initialize an address to a specific value if it is not present in the incoming bundle.\n\nLe'ts take a look a three cases that fall into this category.\n\nIn the first (to the left), we are concerned with two addresses:  /a and /result.\nIf /a has not been assigned when a bundle comes in, we set it to 100, otherwise, we leave it alone and continue to the next line.\n\nSimilarly, if /result has been assigned, it's the same:  we leave it alone.  If not, we add 1500 to /a and assign this result to /result.  \n\nClick on the two [o.compose] boxes to the left and see the results in [o.display].  Note that if we sent in a [bang], we still get some reasonable output, since we have provided \"safe\" defaults.  This sort of defensive programming allows us some protection against bundles we might not be anticipating. "
				}

			}
, 			{
				"box" : 				{
					"bgcolor" : [ 0.996078431372549, 0.996078431372549, 0.996078431372549, 1.0 ],
					"id" : "obj-51",
					"maxclass" : "comment",
					"numinlets" : 1,
					"numoutlets" : 0,
					"patching_rect" : [ 403.166666666666742, 2092.0, 182.0, 22.0 ],
					"text" : "Null Coalescing Assignment"
				}

			}
, 			{
				"box" : 				{
					"id" : "obj-52",
					"maxclass" : "live.line",
					"numinlets" : 1,
					"numoutlets" : 0,
					"patching_rect" : [ 14.0, 2100.5, 960.333333333333485, 5.0 ]
				}

			}
, 			{
				"box" : 				{
					"id" : "obj-47",
					"maxclass" : "comment",
					"numinlets" : 1,
					"numoutlets" : 0,
					"patching_rect" : [ 96.0, 3682.0, 107.0, 22.0 ],
					"text" : "2. turn on metro"
				}

			}
, 			{
				"box" : 				{
					"fontsize" : 12.0,
					"id" : "obj-40",
					"maxclass" : "newobj",
					"numinlets" : 1,
					"numoutlets" : 2,
					"outlettype" : [ "", "FullPacket" ],
					"patching_rect" : [ 482.5, 4318.0, 67.0, 22.0 ],
					"text" : "o.route /list"
				}

			}
, 			{
				"box" : 				{
					"fontsize" : 12.0,
					"id" : "obj-53",
					"maxclass" : "newobj",
					"numinlets" : 1,
					"numoutlets" : 2,
					"outlettype" : [ "", "FullPacket" ],
					"patching_rect" : [ 482.5, 4291.0, 71.0, 22.0 ],
					"text" : "o.select /list"
				}

			}
, 			{
				"box" : 				{
					"ghostbar" : 41,
					"id" : "obj-54",
					"maxclass" : "multislider",
					"numinlets" : 1,
					"numoutlets" : 2,
					"outlettype" : [ "", "" ],
					"parameter_enable" : 0,
					"patching_rect" : [ 482.5, 4344.5, 187.0, 75.0 ],
					"setminmax" : [ 0.0, 10.0 ],
					"settype" : 0,
					"size" : 20,
					"spacing" : 1
				}

			}
, 			{
				"box" : 				{
					"fontsize" : 12.0,
					"id" : "obj-55",
					"maxclass" : "message",
					"numinlets" : 2,
					"numoutlets" : 1,
					"outlettype" : [ "" ],
					"patching_rect" : [ 394.75, 3649.0, 19.0, 22.0 ],
					"text" : "3"
				}

			}
, 			{
				"box" : 				{
					"fontsize" : 12.0,
					"id" : "obj-56",
					"maxclass" : "message",
					"numinlets" : 2,
					"numoutlets" : 1,
					"outlettype" : [ "" ],
					"patching_rect" : [ 374.5, 4291.0, 66.0, 22.0 ],
					"text" : "range 0 $1"
				}

			}
, 			{
				"box" : 				{
					"fontsize" : 12.0,
					"id" : "obj-57",
					"maxclass" : "message",
					"numinlets" : 2,
					"numoutlets" : 1,
					"outlettype" : [ "" ],
					"patching_rect" : [ 288.0, 3649.0, 28.0, 22.0 ],
					"text" : "20"
				}

			}
, 			{
				"box" : 				{
					"fontface" : 0,
					"fontsize" : 9.0,
					"id" : "obj-58",
					"linecount" : 2,
					"maxclass" : "o.compose",
					"numinlets" : 2,
					"numoutlets" : 1,
					"outlettype" : [ "" ],
					"patching_rect" : [ 340.5, 3749.0, 423.0, 31.0 ],
					"saved_bundle_data" : [ 35, 98, 117, 110, 100, 108, 101, 0, 0, 0, 0, 0, 0, 0, 0, 0, 0, 0, 0, 112, 47, 105, 110, 108, 105, 115, 116, 0, 44, 105, 105, 105, 105, 105, 105, 105, 105, 105, 105, 105, 105, 105, 105, 105, 105, 105, 105, 105, 105, 0, 0, 0, 0, 0, 0, 1, 0, 0, 0, 7, 0, 0, 0, 9, 0, 0, 0, 6, 0, 0, 0, 0, 0, 0, 0, 5, 0, 0, 0, 8, 0, 0, 0, 4, 0, 0, 0, 8, 0, 0, 0, 2, 0, 0, 0, 6, 0, 0, 0, 2, 0, 0, 0, 1, 0, 0, 0, 1, 0, 0, 0, 5, 0, 0, 0, 1, 0, 0, 0, 1, 0, 0, 0, 3, 0, 0, 0, 4, 0, 0, 0, 1, 0, 0, 0, 20, 47, 115, 116, 97, 114, 116, 118, 97, 108, 0, 0, 0, 44, 105, 0, 0, 0, 0, 0, 0 ],
					"saved_bundle_length" : 156,
					"text" : "/inlist : [1, 7, 9, 6, 0, 5, 8, 4, 8, 2, 6, 2, 1, 1, 5, 1, 1, 3, 4, 1],\n/startval : 0"
				}

			}
, 			{
				"box" : 				{
					"fontsize" : 12.0,
					"id" : "obj-59",
					"maxclass" : "message",
					"numinlets" : 2,
					"numoutlets" : 1,
					"outlettype" : [ "" ],
					"patching_rect" : [ 364.75, 3649.0, 19.0, 22.0 ],
					"text" : "5"
				}

			}
, 			{
				"box" : 				{
					"fontsize" : 12.0,
					"id" : "obj-60",
					"maxclass" : "message",
					"numinlets" : 2,
					"numoutlets" : 1,
					"outlettype" : [ "" ],
					"patching_rect" : [ 327.0, 3649.0, 28.0, 22.0 ],
					"text" : "10"
				}

			}
, 			{
				"box" : 				{
					"fontsize" : 12.0,
					"id" : "obj-61",
					"maxclass" : "newobj",
					"numinlets" : 2,
					"numoutlets" : 1,
					"outlettype" : [ "FullPacket" ],
					"patching_rect" : [ 288.0, 3711.0, 130.0, 22.0 ],
					"text" : "o.pack /inlist /startval 0"
				}

			}
, 			{
				"box" : 				{
					"fontsize" : 12.0,
					"id" : "obj-62",
					"maxclass" : "newobj",
					"numinlets" : 1,
					"numoutlets" : 1,
					"outlettype" : [ "" ],
					"patcher" : 					{
						"fileversion" : 1,
						"appversion" : 						{
							"major" : 8,
							"minor" : 1,
							"revision" : 8,
							"architecture" : "x64",
							"modernui" : 1
						}
,
						"classnamespace" : "box",
						"rect" : [ 59.0, 104.0, 640.0, 480.0 ],
						"bglocked" : 0,
						"openinpresentation" : 0,
						"default_fontsize" : 14.0,
						"default_fontface" : 0,
						"default_fontname" : "Arial",
						"gridonopen" : 1,
						"gridsize" : [ 15.0, 15.0 ],
						"gridsnaponopen" : 1,
						"objectsnaponopen" : 1,
						"statusbarvisible" : 2,
						"toolbarvisible" : 1,
						"lefttoolbarpinned" : 0,
						"toptoolbarpinned" : 0,
						"righttoolbarpinned" : 0,
						"bottomtoolbarpinned" : 0,
						"toolbars_unpinned_last_save" : 0,
						"tallnewobj" : 0,
						"boxanimatetime" : 200,
						"enablehscroll" : 1,
						"enablevscroll" : 1,
						"devicewidth" : 0.0,
						"description" : "",
						"digest" : "",
						"tags" : "",
						"style" : "",
						"subpatcher_template" : "Untitled5_template",
						"assistshowspatchername" : 0,
						"boxes" : [ 							{
								"box" : 								{
									"comment" : "",
									"id" : "obj-9",
									"index" : 1,
									"maxclass" : "outlet",
									"numinlets" : 1,
									"numoutlets" : 0,
									"patching_rect" : [ 326.0, 366.0, 30.0, 30.0 ]
								}

							}
, 							{
								"box" : 								{
									"id" : "obj-8",
									"maxclass" : "newobj",
									"numinlets" : 1,
									"numoutlets" : 2,
									"outlettype" : [ "int", "int" ],
									"patching_rect" : [ 358.0, 93.0, 29.5, 24.0 ],
									"text" : "t i i"
								}

							}
, 							{
								"box" : 								{
									"comment" : "",
									"id" : "obj-7",
									"index" : 1,
									"maxclass" : "inlet",
									"numinlets" : 0,
									"numoutlets" : 1,
									"outlettype" : [ "" ],
									"patching_rect" : [ 356.0, 23.0, 30.0, 30.0 ]
								}

							}
, 							{
								"box" : 								{
									"id" : "obj-6",
									"maxclass" : "newobj",
									"numinlets" : 2,
									"numoutlets" : 2,
									"outlettype" : [ "", "" ],
									"patching_rect" : [ 312.5, 300.0, 173.0, 24.0 ],
									"text" : "zl.group @zlmaxsize 1024"
								}

							}
, 							{
								"box" : 								{
									"id" : "obj-5",
									"maxclass" : "number",
									"numinlets" : 1,
									"numoutlets" : 2,
									"outlettype" : [ "", "bang" ],
									"parameter_enable" : 0,
									"patching_rect" : [ 436.0, 45.0, 50.0, 24.0 ]
								}

							}
, 							{
								"box" : 								{
									"id" : "obj-2",
									"maxclass" : "newobj",
									"numinlets" : 2,
									"numoutlets" : 3,
									"outlettype" : [ "bang", "bang", "int" ],
									"patching_rect" : [ 312.5, 183.0, 40.0, 24.0 ],
									"text" : "uzi"
								}

							}
, 							{
								"box" : 								{
									"id" : "obj-1",
									"maxclass" : "newobj",
									"numinlets" : 2,
									"numoutlets" : 1,
									"outlettype" : [ "int" ],
									"patching_rect" : [ 312.5, 222.0, 75.0, 24.0 ],
									"text" : "random 10"
								}

							}
 ],
						"lines" : [ 							{
								"patchline" : 								{
									"destination" : [ "obj-6", 0 ],
									"source" : [ "obj-1", 0 ]
								}

							}
, 							{
								"patchline" : 								{
									"destination" : [ "obj-1", 0 ],
									"source" : [ "obj-2", 0 ]
								}

							}
, 							{
								"patchline" : 								{
									"destination" : [ "obj-9", 0 ],
									"source" : [ "obj-6", 0 ]
								}

							}
, 							{
								"patchline" : 								{
									"destination" : [ "obj-8", 0 ],
									"source" : [ "obj-7", 0 ]
								}

							}
, 							{
								"patchline" : 								{
									"destination" : [ "obj-2", 0 ],
									"source" : [ "obj-8", 0 ]
								}

							}
, 							{
								"patchline" : 								{
									"destination" : [ "obj-6", 1 ],
									"source" : [ "obj-8", 1 ]
								}

							}
 ]
					}
,
					"patching_rect" : [ 288.0, 3682.0, 39.0, 22.0 ],
					"saved_object_attributes" : 					{
						"description" : "",
						"digest" : "",
						"fontsize" : 14.0,
						"globalpatchername" : "",
						"tags" : ""
					}
,
					"text" : "p gen"
				}

			}
, 			{
				"box" : 				{
					"ghostbar" : 41,
					"id" : "obj-63",
					"maxclass" : "multislider",
					"numinlets" : 1,
					"numoutlets" : 2,
					"outlettype" : [ "", "" ],
					"parameter_enable" : 0,
					"patching_rect" : [ 266.5, 4344.5, 187.0, 75.0 ],
					"setminmax" : [ 0.0, 20.0 ],
					"settype" : 0,
					"size" : 20,
					"spacing" : 1
				}

			}
, 			{
				"box" : 				{
					"fontsize" : 12.0,
					"id" : "obj-64",
					"maxclass" : "newobj",
					"numinlets" : 1,
					"numoutlets" : 3,
					"outlettype" : [ "", "", "FullPacket" ],
					"patching_rect" : [ 266.5, 4260.0, 235.0, 22.0 ],
					"text" : "o.route /idx /size"
				}

			}
, 			{
				"box" : 				{
					"id" : "obj-65",
					"maxclass" : "button",
					"numinlets" : 1,
					"numoutlets" : 1,
					"outlettype" : [ "bang" ],
					"parameter_enable" : 0,
					"patching_rect" : [ 130.0, 3778.0, 24.0, 24.0 ]
				}

			}
, 			{
				"box" : 				{
					"id" : "obj-66",
					"maxclass" : "toggle",
					"numinlets" : 1,
					"numoutlets" : 1,
					"outlettype" : [ "int" ],
					"parameter_enable" : 0,
					"patching_rect" : [ 130.0, 3711.0, 24.0, 24.0 ]
				}

			}
, 			{
				"box" : 				{
					"fontsize" : 12.0,
					"id" : "obj-67",
					"maxclass" : "newobj",
					"numinlets" : 2,
					"numoutlets" : 1,
					"outlettype" : [ "FullPacket" ],
					"patching_rect" : [ 130.0, 3816.0, 177.0, 22.0 ],
					"text" : "o.union"
				}

			}
, 			{
				"box" : 				{
					"fontsize" : 12.0,
					"id" : "obj-68",
					"maxclass" : "newobj",
					"numinlets" : 2,
					"numoutlets" : 1,
					"outlettype" : [ "bang" ],
					"patching_rect" : [ 130.0, 3749.0, 63.0, 22.0 ],
					"text" : "metro 100"
				}

			}
, 			{
				"box" : 				{
					"id" : "obj-69",
					"maxclass" : "comment",
					"numinlets" : 1,
					"numoutlets" : 0,
					"patching_rect" : [ 421.0, 3649.0, 126.0, 22.0 ],
					"text" : "1. click a list length"
				}

			}
, 			{
				"box" : 				{
					"fontface" : 0,
					"fontsize" : 10.0,
					"id" : "obj-46",
					"linecount" : 5,
					"maxclass" : "o.display",
					"numinlets" : 1,
					"numoutlets" : 1,
					"outlettype" : [ "" ],
					"patching_rect" : [ 130.0, 4454.0, 509.0, 77.0 ],
					"text" : "/inlist : [1, 7, 9, 6, 0, 5, 8, 4, 8, 2, 6, 2, 1, 1, 5, 1, 1, 3, 4, 1],\n/startval : 0,\n/list : [1, 3, 4, 1, 1, 7, 9, 6, 0, 5, 8, 4, 8, 2, 6, 2, 1, 1, 5, 1],\n/idx : [16, 17, 18, 19, 0, 1, 2, 3, 4, 5, 6, 7, 8, 9, 10, 11, 12, 13, 14, 15],\n/size : 20"
				}

			}
, 			{
				"box" : 				{
					"fontface" : 0,
					"fontsize" : 11.0,
					"id" : "obj-49",
					"linecount" : 10,
					"maxclass" : "o.expr.codebox",
					"numinlets" : 1,
					"numoutlets" : 2,
					"outlettype" : [ "FullPacket", "FullPacket" ],
					"patching_rect" : [ 130.0, 3858.0, 294.0, 143.0 ],
					"text" : "/list ??= /inlist,\n/idx ??= aseq(0, length(/list) - 1), \n/startval = /startval % length(/list) - 1, \n/idx = apply(\n  lambda([l],\n    (l + /startval) % length(/list)\n  ), /idx\n),\n/size = length(/list), \n/list = /inlist[[/idx]]"
				}

			}
, 			{
				"box" : 				{
					"fontsize" : 13.0,
					"id" : "obj-81",
					"linecount" : 15,
					"maxclass" : "comment",
					"numinlets" : 1,
					"numoutlets" : 0,
					"patching_rect" : [ 109.5, 1684.0, 348.0, 224.0 ],
					"text" : "Let's look at a particular type of dynamic assignment:  the assignment of a bundle.\n\nThis particular bundle has three addresses:  /x, /y, and /z\nWe might label it so that we can recall it later.\n\nWe do this by passing the bundle in as the data argument to assign.  The name can be concatenated, as in the previous examples, and we can use the value of /n to act as a bundle identifier.  \n\nChoose a number in the number box, then click on the bundle containing our three values.  Note that in the output, we only get our named bundle, since we delete the /bndl and /n addresses before leaving the codebox."
				}

			}
, 			{
				"box" : 				{
					"fontsize" : 13.0,
					"id" : "obj-44",
					"linecount" : 19,
					"maxclass" : "comment",
					"numinlets" : 1,
					"numoutlets" : 0,
					"patching_rect" : [ 558.0, 1183.0, 346.0, 282.0 ],
					"text" : "Here we simplify the expression a bit, and instead of generating an arithmetic sequence to pass in as our second argument, we pass a second list.  This example illustrates how we can use assign() within map() in dynamic ways, not only for the name of an address, but the value as well.\n\nThere is an 'a' in each one of the fruits listed.\nWhat we do in map() is to find the 'a' and replace it with a character that we pass in (in this case, *).  The address generated for each iteration in map() is a concatenation of the current letter and the current fruit name.  Note that we are required to use a slash (/) when we format the string.\n\nNote the use of split() within join().  split() returns an array of the characters split by the separator 'a', which we use as the 2nd argument to join().  The first argument to split() is a string we intend to use between each array element that we join."
				}

			}
, 			{
				"box" : 				{
					"fontsize" : 13.0,
					"id" : "obj-50",
					"linecount" : 22,
					"maxclass" : "comment",
					"numinlets" : 1,
					"numoutlets" : 0,
					"patching_rect" : [ 85.0, 724.0, 411.0, 326.0 ],
					"text" : "Here's a similar example to the last, but this time, we'll expose the nature of the way map() works as it relates to the Max system.  \n\nWhen we call map(), we are essentially running a for() loop.  Inside of the codebox, the number of iterations of the mapping is dictated by the size of the lists we send as arguments (note here that it's critical that the lengths are the same).  But in the world of Max, only one event has occurred.  We can prove this by transforming the output bundle to a [bang] and counting the number of events generated.  \n\nClick on the [o.compose] box to send the /input list in to [o.expr.codebox] and note the value output by the counter.  Technically, each time that map() runs, there are 5 iterations.  But the counter will only increment by 1.  \n\nTake a look at the value of /last.  When we reach the end of our loop, this value will be set to the last thing that was passed in as \"a\", which is the character \"s\".  The FIRST thing we pass in is the character \"t\", but note that the value of /last upon the first iteration in the loop is actually \"-\", since we have set it at the beginning of the expression.  Because we assign before we modify /last, we see that there is an off-by-one aspect of our code.  "
				}

			}
, 			{
				"box" : 				{
					"fontsize" : 12.0,
					"id" : "obj-48",
					"linecount" : 25,
					"maxclass" : "comment",
					"numinlets" : 1,
					"numoutlets" : 0,
					"patching_rect" : [ 437.0, 189.0, 459.0, 342.0 ],
					"text" : "Let's look at dynamically assigning addresses.  \n\nThis is generally done with the assign() function, as assign() allows us to pass a concatenated string as the the name of the address to be generated (first argument).\n\nThis example is similar to what we saw on page 8 where we generate a handful of addresses based on information held in a list, except for this time, we construct the names within the loop.\n\nTake a look at the steps involved:\n\n- We pass in our /input list as the 2nd argument to map().  We use this input as the data to be assigned to addresses.\n\n- We pass in an aseq() to generate a list which is passed as the 3rd argument to map (the list to map over).  This is an incrementing list of values starting with zero.  Note that the length() of the /input list dictates the size of the arithmetic sequence generated.  \n\n- Inside lambda():  Upon each iteration of map(), the string \"/\" + <id> is constructed.  Each address will be unique because we are using the aseq() as a group of incrementing values.\n\nClick the [o.compose] box to the left and try to locate how the /input list relates to the addresses generated."
				}

			}
, 			{
				"box" : 				{
					"id" : "obj-75",
					"maxclass" : "button",
					"numinlets" : 1,
					"numoutlets" : 1,
					"outlettype" : [ "bang" ],
					"parameter_enable" : 0,
					"patching_rect" : [ 623.0, 893.0, 24.0, 24.0 ]
				}

			}
, 			{
				"box" : 				{
					"id" : "obj-73",
					"maxclass" : "newobj",
					"numinlets" : 1,
					"numoutlets" : 2,
					"outlettype" : [ "", "bang" ],
					"patching_rect" : [ 558.0, 893.0, 31.0, 24.0 ],
					"text" : "t l b"
				}

			}
, 			{
				"box" : 				{
					"id" : "obj-72",
					"maxclass" : "number",
					"numinlets" : 1,
					"numoutlets" : 2,
					"outlettype" : [ "", "bang" ],
					"parameter_enable" : 0,
					"patching_rect" : [ 602.0, 952.0, 50.0, 24.0 ]
				}

			}
, 			{
				"box" : 				{
					"id" : "obj-70",
					"maxclass" : "newobj",
					"numinlets" : 5,
					"numoutlets" : 4,
					"outlettype" : [ "int", "", "", "int" ],
					"patching_rect" : [ 602.0, 922.0, 61.0, 24.0 ],
					"text" : "counter"
				}

			}
, 			{
				"box" : 				{
					"fontface" : 0,
					"fontsize" : 12.0,
					"id" : "obj-45",
					"maxclass" : "o.display",
					"numinlets" : 1,
					"numoutlets" : 1,
					"outlettype" : [ "" ],
					"patching_rect" : [ 558.0, 1875.0, 145.0, 34.0 ]
				}

			}
, 			{
				"box" : 				{
					"fontsize" : 12.0,
					"id" : "obj-38",
					"maxclass" : "number",
					"numinlets" : 1,
					"numoutlets" : 2,
					"outlettype" : [ "", "bang" ],
					"parameter_enable" : 0,
					"patching_rect" : [ 644.0, 1671.0, 47.0, 22.0 ]
				}

			}
, 			{
				"box" : 				{
					"fontface" : 0,
					"fontsize" : 12.0,
					"id" : "obj-39",
					"linecount" : 3,
					"maxclass" : "o.expr.codebox",
					"numinlets" : 1,
					"numoutlets" : 2,
					"outlettype" : [ "FullPacket", "FullPacket" ],
					"patching_rect" : [ 558.0, 1781.0, 241.0, 59.0 ],
					"text" : "assign(\"/ourname/\" + /n, /bndl),\ndelete(/bndl),\ndelete(/n)"
				}

			}
, 			{
				"box" : 				{
					"fontsize" : 12.0,
					"id" : "obj-41",
					"maxclass" : "newobj",
					"numinlets" : 2,
					"numoutlets" : 1,
					"outlettype" : [ "FullPacket" ],
					"patching_rect" : [ 558.0, 1717.0, 105.0, 22.0 ],
					"text" : "o.pack /bndl /n 0"
				}

			}
, 			{
				"box" : 				{
					"fontface" : 0,
					"fontsize" : 12.0,
					"id" : "obj-42",
					"linecount" : 3,
					"maxclass" : "o.compose",
					"numinlets" : 2,
					"numoutlets" : 1,
					"outlettype" : [ "" ],
					"patching_rect" : [ 558.0, 1642.0, 78.0, 51.0 ],
					"saved_bundle_data" : [ 35, 98, 117, 110, 100, 108, 101, 0, 0, 0, 0, 0, 0, 0, 0, 0, 0, 0, 0, 12, 47, 120, 0, 0, 44, 105, 0, 0, 0, 0, 0, 10, 0, 0, 0, 12, 47, 121, 0, 0, 44, 105, 0, 0, 0, 0, 0, 90, 0, 0, 0, 12, 47, 122, 0, 0, 44, 105, 0, 0, 0, 0, 0, 16 ],
					"saved_bundle_length" : 64,
					"text" : "/x : 10,\n/y : 90,\n/z : 16"
				}

			}
, 			{
				"box" : 				{
					"fontface" : 0,
					"fontsize" : 12.0,
					"id" : "obj-26",
					"maxclass" : "o.display",
					"numinlets" : 1,
					"numoutlets" : 1,
					"outlettype" : [ "" ],
					"patching_rect" : [ 59.0, 1407.0, 447.0, 34.0 ]
				}

			}
, 			{
				"box" : 				{
					"fontface" : 0,
					"fontsize" : 12.0,
					"id" : "obj-28",
					"linecount" : 3,
					"maxclass" : "o.compose",
					"numinlets" : 2,
					"numoutlets" : 1,
					"outlettype" : [ "" ],
					"patching_rect" : [ 59.0, 1194.0, 453.0, 51.0 ],
					"saved_bundle_data" : [ 35, 98, 117, 110, 100, 108, 101, 0, 0, 0, 0, 0, 0, 0, 0, 0, 0, 0, 0, 40, 47, 108, 101, 116, 116, 101, 114, 115, 0, 0, 0, 0, 44, 115, 115, 115, 115, 115, 0, 0, 97, 0, 0, 0, 98, 0, 0, 0, 99, 0, 0, 0, 100, 0, 0, 0, 101, 0, 0, 0, 0, 0, 0, 60, 47, 102, 114, 117, 105, 116, 115, 0, 44, 115, 115, 115, 115, 115, 0, 0, 99, 114, 97, 110, 98, 101, 114, 114, 121, 0, 0, 0, 112, 101, 97, 114, 0, 0, 0, 0, 100, 117, 114, 105, 97, 110, 0, 0, 112, 101, 97, 99, 104, 0, 0, 0, 103, 114, 97, 112, 101, 0, 0, 0, 0, 0, 0, 20, 47, 114, 101, 112, 108, 97, 99, 101, 0, 0, 0, 0, 44, 115, 0, 0, 42, 0, 0, 0 ],
					"saved_bundle_length" : 148,
					"text" : "/letters : [\"a\", \"b\", \"c\", \"d\", \"e\"],\n/fruits : [\"cranberry\", \"pear\", \"durian\", \"peach\", \"grape\"],\n/replace : \"*\""
				}

			}
, 			{
				"box" : 				{
					"fontface" : 0,
					"fontsize" : 12.0,
					"id" : "obj-33",
					"linecount" : 5,
					"maxclass" : "o.expr.codebox",
					"numinlets" : 1,
					"numoutlets" : 2,
					"outlettype" : [ "FullPacket", "FullPacket" ],
					"patching_rect" : [ 59.0, 1284.0, 457.0, 86.0 ],
					"text" : "map(\n  lambda([l, f],\n      assign(\"/\" + l + \"/\" + f, join(/replace, split(\"a\", f)))\n  ), /letters, /fruits\n)"
				}

			}
, 			{
				"box" : 				{
					"fontface" : 0,
					"fontsize" : 12.0,
					"id" : "obj-35",
					"maxclass" : "o.display",
					"numinlets" : 1,
					"numoutlets" : 1,
					"outlettype" : [ "" ],
					"patching_rect" : [ 558.0, 1018.0, 311.0, 34.0 ]
				}

			}
, 			{
				"box" : 				{
					"fontface" : 0,
					"fontsize" : 12.0,
					"id" : "obj-36",
					"maxclass" : "o.compose",
					"numinlets" : 2,
					"numoutlets" : 1,
					"outlettype" : [ "" ],
					"patching_rect" : [ 558.0, 679.0, 265.0, 24.0 ],
					"saved_bundle_data" : [ 35, 98, 117, 110, 100, 108, 101, 0, 0, 0, 0, 0, 0, 0, 0, 0, 0, 0, 0, 36, 47, 105, 110, 112, 117, 116, 0, 0, 44, 115, 115, 115, 115, 115, 0, 0, 116, 0, 0, 0, 105, 0, 0, 0, 109, 0, 0, 0, 101, 0, 0, 0, 115, 0, 0, 0 ],
					"saved_bundle_length" : 56,
					"text" : "/input : [\"t\", \"i\", \"m\", \"e\", \"s\"]"
				}

			}
, 			{
				"box" : 				{
					"fontface" : 0,
					"fontsize" : 12.0,
					"id" : "obj-37",
					"linecount" : 9,
					"maxclass" : "o.expr.codebox",
					"numinlets" : 1,
					"numoutlets" : 2,
					"outlettype" : [ "FullPacket", "FullPacket" ],
					"patching_rect" : [ 558.0, 743.0, 299.0, 141.0 ],
					"text" : "/last = \"-\",\nmap(\n  lambda([a, i],\n    progn(\n      assign(\"/\" + i + \"/\" + /last, a), \n      /last = a\n    )\n  ), /input, aseq(0, length(/input) - 1)\n)"
				}

			}
, 			{
				"box" : 				{
					"fontface" : 0,
					"fontsize" : 12.0,
					"id" : "obj-27",
					"maxclass" : "o.display",
					"numinlets" : 1,
					"numoutlets" : 1,
					"outlettype" : [ "" ],
					"patching_rect" : [ 97.0, 429.0, 270.0, 34.0 ]
				}

			}
, 			{
				"box" : 				{
					"fontface" : 0,
					"fontsize" : 12.0,
					"id" : "obj-25",
					"maxclass" : "o.compose",
					"numinlets" : 2,
					"numoutlets" : 1,
					"outlettype" : [ "" ],
					"patching_rect" : [ 97.0, 207.0, 265.0, 24.0 ],
					"saved_bundle_data" : [ 35, 98, 117, 110, 100, 108, 101, 0, 0, 0, 0, 0, 0, 0, 0, 0, 0, 0, 0, 36, 47, 105, 110, 112, 117, 116, 0, 0, 44, 115, 115, 115, 115, 115, 0, 0, 97, 0, 0, 0, 98, 0, 0, 0, 99, 0, 0, 0, 100, 0, 0, 0, 101, 0, 0, 0 ],
					"saved_bundle_length" : 56,
					"text" : "/input : [\"a\", \"b\", \"c\", \"d\", \"e\"]"
				}

			}
, 			{
				"box" : 				{
					"fontface" : 0,
					"fontsize" : 12.0,
					"id" : "obj-24",
					"linecount" : 5,
					"maxclass" : "o.expr.codebox",
					"numinlets" : 1,
					"numoutlets" : 2,
					"outlettype" : [ "FullPacket", "FullPacket" ],
					"patching_rect" : [ 97.0, 289.0, 299.0, 86.0 ],
					"text" : "map(\n  lambda([a, i],\n    assign(\"/\" + i, a) \n  ), /input, aseq(0, length(/input) - 1)\n)"
				}

			}
, 			{
				"box" : 				{
					"args" : [ 9 ],
					"bgmode" : 0,
					"border" : 0,
					"clickthrough" : 0,
					"enablehscroll" : 0,
					"enablevscroll" : 0,
					"id" : "obj-7",
					"lockeddragscroll" : 0,
					"maxclass" : "bpatcher",
					"name" : "o.t.banner.maxpat",
					"numinlets" : 0,
					"numoutlets" : 0,
					"offset" : [ -4.0, -5.0 ],
					"patching_rect" : [ 18.0, 9.0, 645.0, 91.0 ],
					"viewvisibility" : 1
				}

			}
, 			{
				"box" : 				{
					"id" : "obj-17",
					"maxclass" : "comment",
					"numinlets" : 1,
					"numoutlets" : 0,
					"patching_rect" : [ 161.5, 3094.0, 156.0, 22.0 ],
					"text" : "null coalescing operator"
				}

			}
, 			{
				"box" : 				{
					"fontsize" : 12.0,
					"id" : "obj-16",
					"linecount" : 4,
					"maxclass" : "comment",
					"numinlets" : 1,
					"numoutlets" : 0,
					"patching_rect" : [ 278.0, 2345.0, 92.0, 60.0 ],
					"text" : "??= \nnull coalescing assignment operator"
				}

			}
, 			{
				"box" : 				{
					"id" : "obj-12",
					"maxclass" : "button",
					"numinlets" : 1,
					"numoutlets" : 1,
					"outlettype" : [ "bang" ],
					"parameter_enable" : 0,
					"patching_rect" : [ 373.0, 2257.0, 24.0, 24.0 ]
				}

			}
, 			{
				"box" : 				{
					"fontface" : 0,
					"fontsize" : 12.0,
					"id" : "obj-10",
					"linecount" : 3,
					"maxclass" : "o.compose",
					"numinlets" : 2,
					"numoutlets" : 1,
					"outlettype" : [ "" ],
					"patching_rect" : [ 223.0, 2230.0, 109.0, 51.0 ],
					"saved_bundle_data" : [ 35, 98, 117, 110, 100, 108, 101, 0, 0, 0, 0, 0, 0, 0, 0, 0, 0, 0, 0, 12, 47, 98, 0, 0, 44, 105, 0, 0, 0, 0, 0, 44, 0, 0, 0, 12, 47, 97, 0, 0, 44, 105, 0, 0, 0, 0, 0, 88, 0, 0, 0, 16, 47, 114, 101, 115, 117, 108, 116, 0, 44, 105, 0, 0, 0, 0, 0, 12 ],
					"saved_bundle_length" : 68,
					"text" : "/b : 44,\n/a : 88,\n/result : 12"
				}

			}
, 			{
				"box" : 				{
					"fontface" : 0,
					"fontsize" : 12.0,
					"id" : "obj-1",
					"linecount" : 2,
					"maxclass" : "o.compose",
					"numinlets" : 2,
					"numoutlets" : 1,
					"outlettype" : [ "" ],
					"patching_rect" : [ 103.0, 2197.0, 87.0, 38.0 ],
					"saved_bundle_data" : [ 35, 98, 117, 110, 100, 108, 101, 0, 0, 0, 0, 0, 0, 0, 0, 0, 0, 0, 0, 12, 47, 97, 0, 0, 44, 105, 0, 0, 0, 0, 0, 44, 0, 0, 0, 12, 47, 98, 0, 0, 44, 105, 0, 0, 0, 0, 0, 88 ],
					"saved_bundle_length" : 48,
					"text" : "/a : 44,\n/b : 88"
				}

			}
, 			{
				"box" : 				{
					"fontface" : 0,
					"fontsize" : 12.0,
					"id" : "obj-8",
					"maxclass" : "o.display",
					"numinlets" : 1,
					"numoutlets" : 1,
					"outlettype" : [ "" ],
					"patching_rect" : [ 103.0, 2427.0, 150.0, 34.0 ]
				}

			}
, 			{
				"box" : 				{
					"fontface" : 0,
					"fontsize" : 12.0,
					"id" : "obj-11",
					"linecount" : 2,
					"maxclass" : "o.expr.codebox",
					"numinlets" : 1,
					"numoutlets" : 2,
					"outlettype" : [ "FullPacket", "FullPacket" ],
					"patching_rect" : [ 103.0, 2352.0, 164.0, 46.0 ],
					"text" : "/a ??= 100,\n/result ??= 1500 + /a"
				}

			}
, 			{
				"box" : 				{
					"id" : "obj-15",
					"maxclass" : "newobj",
					"numinlets" : 1,
					"numoutlets" : 1,
					"outlettype" : [ "FullPacket" ],
					"patching_rect" : [ 147.0, 3014.0, 72.0, 24.0 ],
					"text" : "o.pack /int"
				}

			}
, 			{
				"box" : 				{
					"id" : "obj-18",
					"maxclass" : "number",
					"numinlets" : 1,
					"numoutlets" : 2,
					"outlettype" : [ "", "bang" ],
					"parameter_enable" : 0,
					"patching_rect" : [ 147.0, 2969.0, 50.0, 24.0 ]
				}

			}
, 			{
				"box" : 				{
					"fontface" : 0,
					"fontsize" : 12.0,
					"id" : "obj-19",
					"maxclass" : "o.display",
					"numinlets" : 1,
					"numoutlets" : 1,
					"outlettype" : [ "" ],
					"patching_rect" : [ 147.0, 3132.0, 125.0, 34.0 ]
				}

			}
, 			{
				"box" : 				{
					"fontface" : 0,
					"fontsize" : 12.0,
					"id" : "obj-21",
					"maxclass" : "o.expr.codebox",
					"numinlets" : 1,
					"numoutlets" : 2,
					"outlettype" : [ "FullPacket", "FullPacket" ],
					"patching_rect" : [ 147.0, 3057.0, 176.0, 32.0 ],
					"text" : "/add = /int + /x ?? 100"
				}

			}
, 			{
				"box" : 				{
					"fontsize" : 14.0,
					"id" : "obj-34",
					"maxclass" : "comment",
					"numinlets" : 1,
					"numoutlets" : 0,
					"patching_rect" : [ 873.0, 604.0, 96.0, 22.0 ],
					"text" : "( scroll down )"
				}

			}
, 			{
				"box" : 				{
					"hidden" : 1,
					"id" : "obj-29",
					"maxclass" : "newobj",
					"numinlets" : 1,
					"numoutlets" : 0,
					"patching_rect" : [ 781.0, 42.0, 61.0, 24.0 ],
					"text" : "onecopy"
				}

			}
, 			{
				"box" : 				{
					"args" : [ 9 ],
					"bgmode" : 0,
					"border" : 0,
					"clickthrough" : 0,
					"enablehscroll" : 0,
					"enablevscroll" : 0,
					"id" : "obj-30",
					"lockeddragscroll" : 0,
					"maxclass" : "bpatcher",
					"name" : "advance.maxpat",
					"numinlets" : 0,
					"numoutlets" : 0,
					"offset" : [ -1.0, -2.0 ],
					"patching_rect" : [ 781.0, 14.0, 195.0, 28.0 ],
					"viewvisibility" : 1
				}

			}
 ],
		"lines" : [ 			{
				"patchline" : 				{
					"destination" : [ "obj-11", 0 ],
					"source" : [ "obj-1", 0 ]
				}

			}
, 			{
				"patchline" : 				{
					"destination" : [ "obj-11", 0 ],
					"source" : [ "obj-10", 0 ]
				}

			}
, 			{
				"patchline" : 				{
					"destination" : [ "obj-8", 0 ],
					"source" : [ "obj-11", 0 ]
				}

			}
, 			{
				"patchline" : 				{
					"destination" : [ "obj-11", 0 ],
					"source" : [ "obj-12", 0 ]
				}

			}
, 			{
				"patchline" : 				{
					"destination" : [ "obj-46", 0 ],
					"order" : 1,
					"source" : [ "obj-13", 0 ]
				}

			}
, 			{
				"patchline" : 				{
					"color" : [ 0.14230015873909, 0.533874869346619, 0.619952797889709, 1.0 ],
					"destination" : [ "obj-67", 1 ],
					"midpoints" : [ 139.5, 4117.0, 116.0, 4117.0, 116.0, 3809.0, 297.5, 3809.0 ],
					"order" : 0,
					"source" : [ "obj-13", 0 ]
				}

			}
, 			{
				"patchline" : 				{
					"destination" : [ "obj-21", 0 ],
					"source" : [ "obj-15", 0 ]
				}

			}
, 			{
				"patchline" : 				{
					"destination" : [ "obj-15", 0 ],
					"source" : [ "obj-18", 0 ]
				}

			}
, 			{
				"patchline" : 				{
					"destination" : [ "obj-19", 0 ],
					"source" : [ "obj-21", 0 ]
				}

			}
, 			{
				"patchline" : 				{
					"destination" : [ "obj-27", 0 ],
					"source" : [ "obj-24", 0 ]
				}

			}
, 			{
				"patchline" : 				{
					"destination" : [ "obj-24", 0 ],
					"source" : [ "obj-25", 0 ]
				}

			}
, 			{
				"patchline" : 				{
					"destination" : [ "obj-33", 0 ],
					"source" : [ "obj-28", 0 ]
				}

			}
, 			{
				"patchline" : 				{
					"destination" : [ "obj-55", 0 ],
					"source" : [ "obj-3", 0 ]
				}

			}
, 			{
				"patchline" : 				{
					"destination" : [ "obj-26", 0 ],
					"source" : [ "obj-33", 0 ]
				}

			}
, 			{
				"patchline" : 				{
					"destination" : [ "obj-37", 0 ],
					"source" : [ "obj-36", 0 ]
				}

			}
, 			{
				"patchline" : 				{
					"destination" : [ "obj-73", 0 ],
					"source" : [ "obj-37", 0 ]
				}

			}
, 			{
				"patchline" : 				{
					"destination" : [ "obj-41", 1 ],
					"source" : [ "obj-38", 0 ]
				}

			}
, 			{
				"patchline" : 				{
					"destination" : [ "obj-45", 0 ],
					"source" : [ "obj-39", 0 ]
				}

			}
, 			{
				"patchline" : 				{
					"destination" : [ "obj-54", 0 ],
					"source" : [ "obj-40", 0 ]
				}

			}
, 			{
				"patchline" : 				{
					"destination" : [ "obj-39", 0 ],
					"source" : [ "obj-41", 0 ]
				}

			}
, 			{
				"patchline" : 				{
					"destination" : [ "obj-41", 0 ],
					"source" : [ "obj-42", 0 ]
				}

			}
, 			{
				"patchline" : 				{
					"destination" : [ "obj-6", 0 ],
					"source" : [ "obj-49", 0 ]
				}

			}
, 			{
				"patchline" : 				{
					"destination" : [ "obj-40", 0 ],
					"source" : [ "obj-53", 0 ]
				}

			}
, 			{
				"patchline" : 				{
					"destination" : [ "obj-62", 0 ],
					"source" : [ "obj-55", 0 ]
				}

			}
, 			{
				"patchline" : 				{
					"destination" : [ "obj-63", 0 ],
					"source" : [ "obj-56", 0 ]
				}

			}
, 			{
				"patchline" : 				{
					"destination" : [ "obj-62", 0 ],
					"source" : [ "obj-57", 0 ]
				}

			}
, 			{
				"patchline" : 				{
					"destination" : [ "obj-62", 0 ],
					"source" : [ "obj-59", 0 ]
				}

			}
, 			{
				"patchline" : 				{
					"destination" : [ "obj-13", 0 ],
					"source" : [ "obj-6", 0 ]
				}

			}
, 			{
				"patchline" : 				{
					"destination" : [ "obj-64", 0 ],
					"source" : [ "obj-6", 1 ]
				}

			}
, 			{
				"patchline" : 				{
					"destination" : [ "obj-62", 0 ],
					"source" : [ "obj-60", 0 ]
				}

			}
, 			{
				"patchline" : 				{
					"destination" : [ "obj-58", 1 ],
					"order" : 0,
					"source" : [ "obj-61", 0 ]
				}

			}
, 			{
				"patchline" : 				{
					"destination" : [ "obj-67", 1 ],
					"order" : 1,
					"source" : [ "obj-61", 0 ]
				}

			}
, 			{
				"patchline" : 				{
					"destination" : [ "obj-61", 0 ],
					"source" : [ "obj-62", 0 ]
				}

			}
, 			{
				"patchline" : 				{
					"destination" : [ "obj-53", 0 ],
					"source" : [ "obj-64", 2 ]
				}

			}
, 			{
				"patchline" : 				{
					"destination" : [ "obj-56", 0 ],
					"source" : [ "obj-64", 1 ]
				}

			}
, 			{
				"patchline" : 				{
					"destination" : [ "obj-63", 0 ],
					"source" : [ "obj-64", 0 ]
				}

			}
, 			{
				"patchline" : 				{
					"destination" : [ "obj-67", 0 ],
					"source" : [ "obj-65", 0 ]
				}

			}
, 			{
				"patchline" : 				{
					"destination" : [ "obj-68", 0 ],
					"source" : [ "obj-66", 0 ]
				}

			}
, 			{
				"patchline" : 				{
					"destination" : [ "obj-49", 0 ],
					"source" : [ "obj-67", 0 ]
				}

			}
, 			{
				"patchline" : 				{
					"destination" : [ "obj-65", 0 ],
					"source" : [ "obj-68", 0 ]
				}

			}
, 			{
				"patchline" : 				{
					"destination" : [ "obj-72", 0 ],
					"source" : [ "obj-70", 0 ]
				}

			}
, 			{
				"patchline" : 				{
					"destination" : [ "obj-31", 0 ],
					"source" : [ "obj-72", 0 ]
				}

			}
, 			{
				"patchline" : 				{
					"destination" : [ "obj-35", 0 ],
					"source" : [ "obj-73", 0 ]
				}

			}
, 			{
				"patchline" : 				{
					"destination" : [ "obj-70", 0 ],
					"source" : [ "obj-73", 1 ]
				}

			}
, 			{
				"patchline" : 				{
					"destination" : [ "obj-70", 2 ],
					"source" : [ "obj-75", 0 ]
				}

			}
, 			{
				"patchline" : 				{
					"destination" : [ "obj-84", 0 ],
					"source" : [ "obj-79", 0 ]
				}

			}
, 			{
				"patchline" : 				{
					"destination" : [ "obj-86", 0 ],
					"source" : [ "obj-84", 0 ]
				}

			}
, 			{
				"patchline" : 				{
					"destination" : [ "obj-80", 0 ],
					"source" : [ "obj-85", 0 ]
				}

			}
, 			{
				"patchline" : 				{
					"destination" : [ "obj-84", 1 ],
					"midpoints" : [ 668.0, 2796.0, 788.25, 2796.0, 788.25, 2674.0, 689.5, 2674.0 ],
					"source" : [ "obj-85", 1 ]
				}

			}
, 			{
				"patchline" : 				{
					"destination" : [ "obj-85", 0 ],
					"source" : [ "obj-86", 0 ]
				}

			}
 ],
		"dependency_cache" : [ 			{
				"name" : "advance.maxpat",
				"bootpath" : "~/Documents/programming/git_repositories/CNMAT-builds/CNMAT-odot/patchers/tutorial",
				"patcherrelativepath" : ".",
				"type" : "JSON",
				"implicit" : 1
			}
, 			{
				"name" : "filelist.txt",
				"bootpath" : "~/Documents/programming/git_repositories/CNMAT-builds/CNMAT-odot/patchers/tutorial",
				"patcherrelativepath" : ".",
				"type" : "TEXT",
				"implicit" : 1
			}
, 			{
				"name" : "close_parent.js",
				"bootpath" : "~/Documents/programming/git_repositories/CNMAT-builds/CNMAT-odot/patchers/tutorial",
				"patcherrelativepath" : ".",
				"type" : "TEXT",
				"implicit" : 1
			}
, 			{
				"name" : "o.t.banner.maxpat",
				"bootpath" : "~/Documents/programming/git_repositories/CNMAT-builds/CNMAT-odot/patchers/tutorial",
				"patcherrelativepath" : ".",
				"type" : "JSON",
				"implicit" : 1
			}
, 			{
				"name" : "o.t.objects-covered.maxpat",
				"bootpath" : "~/Documents/programming/git_repositories/CNMAT-builds/CNMAT-odot/patchers/tutorial",
				"patcherrelativepath" : ".",
				"type" : "JSON",
				"implicit" : 1
			}
, 			{
				"name" : "o.expr.codebox.mxo",
				"type" : "iLaX"
			}
, 			{
				"name" : "o.display.mxo",
				"type" : "iLaX"
			}
, 			{
				"name" : "o.pack.mxo",
				"type" : "iLaX"
			}
, 			{
				"name" : "o.compose.mxo",
				"type" : "iLaX"
			}
, 			{
				"name" : "o.union.mxo",
				"type" : "iLaX"
			}
, 			{
				"name" : "o.route.mxo",
				"type" : "iLaX"
			}
, 			{
				"name" : "o.select.mxo",
				"type" : "iLaX"
			}
 ],
		"autosave" : 0
	}

}
