#N canvas 534 122 606 621 12;
#X obj 56 44 bng 15 250 50 0 empty empty empty 17 7 0 10 -262144 -1
-1;
#X obj 168 140 o_route /foo;
#X obj 163 175 prepend set;
#X msg 164 213 a{2} 2;
#X obj 185 268 print;
#X msg 294 198 a{2} 2;
#X obj 19 292 o_message 100 63 hex 2F666F6F235B6120222C222022655D2322202261235B325D232220322E200A
;
#X obj 71 450 o_printbytes;
#X obj 43 92 o_pack /foo#[a \, e]# a#[2]# 2;
#X connect 0 0 8 0;
#X connect 1 0 2 0;
#X connect 2 0 3 0;
#X connect 3 0 4 0;
#X connect 6 0 7 0;
#X connect 8 0 1 0;
#X connect 8 0 6 1;
