#N canvas 534 122 606 621 12;
#X obj 56 44 bng 15 250 50 0 empty empty empty 17 7 0 10 -262144 -1
-1;
#X obj 169 181 prepend set;
#X obj 170 259 print;
#X obj 19 292 omessage 100 58 hex 0A;
#X obj 168 140 oroute /foo;
#X obj 71 450 oprintbytes;
#X msg 170 219;
#X obj 43 92 opack /foo #[a \, e]# a#[2]# 2;
#X connect 0 0 7 0;
#X connect 1 0 6 0;
#X connect 3 0 5 0;
#X connect 4 0 1 0;
#X connect 6 0 2 0;
#X connect 7 0 3 1;
#X connect 7 0 4 0;
