#N canvas 371 76 860 496 10;
#X text 223 97 omessage is similar the standard message box except
that it converts its data to OSC packets.;
#X msg 615 100;
#X floatatom 106 217 5 0 0 0 - - -;
#X floatatom 490 218 5 0 0 0 - - -;
#X text 213 245 $n style variable substitution;
#X text 430 348 o.message can be used to display the contents of an
OSC bundle;
#N canvas 425 156 667 423 nested-bundles 0;
#X msg 22 240 1 2 3;
#N canvas 951 499 450 300 set 0;
#X obj 71 85 inlet;
#X obj 81 170 outlet;
#X obj 72 108 list prepend set;
#X obj 72 143 list trim;
#X connect 0 0 2 0;
#X connect 2 0 3 0;
#X connect 3 0 1 0;
#X restore 22 211 pd set;
#X msg 71 240 a r s;
#N canvas 951 499 450 300 set 0;
#X obj 71 85 inlet;
#X obj 81 170 outlet;
#X obj 72 108 list prepend set;
#X obj 72 143 list trim;
#X connect 0 0 2 0;
#X connect 2 0 3 0;
#X connect 3 0 1 0;
#X restore 71 211 pd set;
#X msg 215 237 /foo FullPacket 1.12104e-43 0 -1.99904;
#N canvas 951 499 450 300 set 0;
#X obj 71 85 inlet;
#X obj 81 170 outlet;
#X obj 72 108 list prepend set;
#X obj 72 143 list trim;
#X connect 0 0 2 0;
#X connect 2 0 3 0;
#X connect 3 0 1 0;
#X restore 215 208 pd set;
#X text 207 80 the messages in a nested bundle must be on their own
lines and the final square bracket must be on a new line;
#X text 207 48 nested bundles can be constructed using square brackets
in the arguments of a message.;
#X obj 490 233 print nested;
#X obj 22 53 o.message 164 62 binhex b#2F666F6F205B0A092F62617220312032
b#20330A092F626C6F6F20226122202272 b#22202273220A5D;
#X obj 22 153 o.route /foo;
#X obj 22 183 o.route /bar /bloo;
#X obj 215 167 o.atomize;
#X obj 490 168 o.route /foo;
#X obj 490 196 o.atomize /bar /bloo;
#X connect 1 0 0 0;
#X connect 3 0 2 0;
#X connect 5 0 4 0;
#X connect 9 0 10 0;
#X connect 9 0 12 0;
#X connect 9 0 13 0;
#X connect 10 0 11 0;
#X connect 11 0 1 0;
#X connect 11 1 3 0;
#X connect 12 0 5 0;
#X connect 13 0 14 0;
#X connect 14 0 8 0;
#X connect 14 1 8 0;
#X restore 106 363 pd nested-bundles;
#X text 6 4 _;
#N canvas 1012 621 450 300 alpha-release-notes 0;
#X text 10 4 -;
#X text 49 66 currently in the alpha release there are a few issues
with omessage that will be fixed in the beta: - there appears to be
some issue with recalling saved values on instantiation - if there
is a stream of data coming into the object when closing the toplevel
patch there could be a TCL/TK error due to input events to omessage
causing state change after the canvas has been freed - the resize handle
is not always in the right place;
#X restore 106 397 pd alpha-release-notes;
#X text 104 19 omessage;
#X obj 106 245 o.message 88 23 binhex b#2F666F6F203120222431222033
;
#X obj 103 103 o.message 88 23 binhex b#2F666F6F203120322033;
#X obj 107 39 o.message 100 23 binhex b#0A;
#X obj 103 140 o.print;
#X obj 106 282 o.print;
#X obj 490 254 o.pack /foo 0;
#X obj 473 307 o.message 88 23 binhex b#2F666F6F20332E;
#X connect 2 0 10 0;
#X connect 3 0 15 0;
#X connect 10 0 14 0;
#X connect 11 0 13 0;
#X connect 15 0 16 1;
