#N canvas 369 35 868 410 10;
#X floatatom 266 94 5 0 0 0 - - -;
#X msg 396 94 testo;
#X msg 309 97 testo;
#X obj 109 137 bng 15 250 50 0 empty empty empty 17 7 0 10 -262144
-1 -1;
#X floatatom 361 96 5 0 0 0 - - -;
#X floatatom 89 76 5 0 0 0 - - -;
#X msg 170 191 version;
#X obj 236 228 print;
#X obj 308 216 o.print pack;
#X obj 308 158 o.pak /foo 11 /bar sam;
#X obj 88 100 o.pak /subbundle;
#X connect 0 0 9 0;
#X connect 1 0 9 1;
#X connect 2 0 9 0;
#X connect 3 0 9 0;
#X connect 4 0 9 1;
#X connect 5 0 10 0;
#X connect 6 0 9 0;
#X connect 9 0 7 0;
#X connect 9 0 8 0;
#X connect 10 0 9 0;
