#N canvas 621 272 450 300 10;
#X obj 97 109 o_cond /foo == 1 \; /foo == 2 \; /foo == 3;
#X obj 97 74 o_pack /foo;
#X obj 97 17 tgl 15 0 empty empty empty 17 7 0 10 -262144 -1 -1 0 1
;
#X msg 124 39 3;
#X obj 97 245 o_print one;
#X obj 130 218 o_print two;
#X obj 163 194 o_print three;
#X msg 159 41 2;
#X msg 199 43 1;
#X obj 196 162 o_print other;
#X connect 0 0 4 0;
#X connect 0 1 5 0;
#X connect 0 2 6 0;
#X connect 0 3 9 0;
#X connect 1 0 0 0;
#X connect 2 0 1 0;
#X connect 3 0 1 0;
#X connect 7 0 1 0;
#X connect 8 0 1 0;
