#N canvas 699 223 450 300 10;
#X obj 149 118 o_collect;
#X obj 275 58 o_pack /foo;
#X msg 150 71 /bar 1 \, /foo 11;
#X obj 110 70 bng 15 250 50 0 empty empty empty 17 7 0 10 -262144 -1
-1;
#X obj 147 187 o_print;
#X obj 257 174 o_route /foo /bar;
#X floatatom 253 222 5 0 0 0 - - -;
#X floatatom 317 228 5 0 0 0 - - -;
#X msg 134 38 /bar 11 \, /foo 1;
#X obj 81 189 print;
#X obj 307 94 o_pack /bar;
#X floatatom 271 23 5 0 0 0 - - -;
#X obj 358 47 + 1;
#X obj 400 89 + 1;
#X obj 337 124 o_pack /sam;
#X connect 0 0 4 0;
#X connect 0 0 5 0;
#X connect 0 0 9 0;
#X connect 1 0 0 0;
#X connect 2 0 0 0;
#X connect 3 0 0 0;
#X connect 5 0 6 0;
#X connect 5 1 7 0;
#X connect 8 0 0 0;
#X connect 10 0 0 0;
#X connect 11 0 1 0;
#X connect 11 0 12 0;
#X connect 12 0 10 0;
#X connect 12 0 13 0;
#X connect 13 0 14 0;
#X connect 14 0 0 0;
