#N canvas 738 376 762 300 10;
#X obj 98 137 o_difference;
#X obj 210 145 o_intersection;
#X obj 368 141 o_union;
#X floatatom 100 52 5 0 0 0 - - -;
#X floatatom 199 55 5 0 0 0 - - -;
#X obj 193 96 o_pack /foo/1 /bar;
#X obj 94 93 o_pack /foo/1;
#X obj 97 197 o_print diff;
#X obj 217 194 o_print inter;
#X obj 360 172 o_print union;
#X connect 0 0 7 0;
#X connect 1 0 8 0;
#X connect 2 0 9 0;
#X connect 3 0 6 0;
#X connect 4 0 5 0;
#X connect 4 0 5 1;
#X connect 5 0 0 1;
#X connect 5 0 1 1;
#X connect 5 0 2 1;
#X connect 6 0 0 0;
#X connect 6 0 1 0;
#X connect 6 0 2 0;
