#N canvas 581 199 938 605 10;
#X obj 162 76 o_pack /bar;
#X floatatom 154 215 5 0 0 0 - - -;
#X floatatom 161 23 5 0 0 0 - - -;
#X obj 162 113 o_expr /foo = sin(/bar) \; /squid = /foo * 2;
#X obj 162 151 o_route /foo /squid;
#X floatatom 230 216 5 0 0 0 - - -;
#X floatatom 391 28 5 0 0 0 - - -;
#X obj 391 82 o_pack /squid;
#X obj 385 164 o_print;
#X msg 391 55 5 4 \$1 paul 2;
#X obj 391 110 o_expr /fish = [ /squid[[2]] \, steve ];
#X obj 341 327 o_expr map(fn(l \, i)#[ assign("/listelem/" +i \, l)
\; ]# \, /list \, aseq(1 \, length(/list)));
#X obj 340 274 o_message 207 28 hex 2F6C69737420312032203320342022612220227222202273222022742220
;
#X obj 350 400 o_message 207 132 hex 2F6C697374203120322033203420226122202272222022732220227422200A2F6C697374656C656D2F312031200A2F6C697374656C656D2F322032200A2F6C697374656C656D2F332033200A2F6C697374656C656D2F342034200A2F6C697374656C656D2F3520226122200A2F6C697374656C656D2F3620227222200A2F6C697374656C656D2F3720227322200A2F6C697374656C656D2F382022742220
;
#X connect 0 0 3 0;
#X connect 2 0 0 0;
#X connect 3 0 4 0;
#X connect 4 0 1 0;
#X connect 4 1 5 0;
#X connect 6 0 9 0;
#X connect 7 0 10 0;
#X connect 9 0 7 0;
#X connect 10 0 8 0;
#X connect 11 0 13 1;
#X connect 12 0 11 0;
