#N canvas 552 492 450 300 10;
#X obj 118 101 o_if /foo == 1;
#X obj 118 66 o_pack /foo;
#X obj 118 132 o_print yes;
#X obj 199 133 o_print no;
#X obj 118 29 tgl 15 0 empty empty empty 17 7 0 10 -262144 -1 -1 0
1;
#X connect 0 0 2 0;
#X connect 0 1 3 0;
#X connect 1 0 0 0;
#X connect 4 0 1 0;
