#N canvas 1767 154 761 619 10;
#X obj 210 168 o_mappatch;
#X obj 210 107 o_pack /foo 1 /bar 2 /steve 3;
#X obj 210 327 o_print;
#X obj 96 285 o_message 87 41 hex 2F666F6F20312E200A2F737465766520332E200A
;
#X obj 210 74 o_pack /bob 3;
#X obj 215 44 bng 15 250 50 0 empty empty empty 17 7 0 10 -262144 -1
-1;
#X obj 288 171 t a;
#X obj 262 236 print;
#X connect 0 0 2 0;
#X connect 0 0 3 1;
#X connect 0 1 6 0;
#X connect 0 1 7 0;
#X connect 1 0 0 0;
#X connect 4 0 1 0;
#X connect 5 0 4 0;
#X connect 6 0 0 1;
