#N canvas 75 555 868 410 10;
#X floatatom 120 39 5 0 0 0 - - -;
#X msg 341 99 /foo \$1;
#X floatatom 341 63 5 0 0 0 - - -;
#X msg 250 39 testo;
#X msg 163 42 testo;
#X obj 162 159 o_print pack;
#X obj 30 80 bng 15 250 50 0 empty empty empty 17 7 0 10 -262144 -1
-1;
#X floatatom 215 41 5 0 0 0 - - -;
#X obj -58 45 o_pack /subbundle;
#X floatatom -57 21 5 0 0 0 - - -;
#X obj 162 103 o_pack /foo 11 /bar sam;
#X msg 24 136 version;
#X obj 349 173 o_route /foo /bar;
#X obj 349 275 print fooout;
#X floatatom 402 67 5 0 0 0 - - -;
#X msg 402 103 /ringo \$1;
#X obj 374 227 print 2out;
#X msg 481 116 /ringo;
#X obj 450 201 o_print unmatched;
#X connect 0 0 10 0;
#X connect 1 0 12 0;
#X connect 2 0 1 0;
#X connect 3 0 10 1;
#X connect 4 0 10 0;
#X connect 6 0 10 0;
#X connect 7 0 10 1;
#X connect 8 0 10 0;
#X connect 9 0 8 0;
#X connect 10 0 5 0;
#X connect 10 0 12 0;
#X connect 11 0 10 0;
#X connect 12 0 13 0;
#X connect 12 1 16 0;
#X connect 12 2 18 0;
#X connect 14 0 15 0;
#X connect 15 0 12 0;
#X connect 17 0 12 1;
