#N canvas 462 226 796 511 10;
#X obj 252 232 o_pack /foo;
#X floatatom 251 185 5 0 0 0 - - -;
#X msg 309 184 testo;
#X floatatom 382 173 5 0 0 0 - - -;
#X obj 432 305 print unmatched;
#X msg 391 213 /foo/10 \$1;
#X msg 142 144 1 2 3 foo 5 6;
#X obj 382 350 print printbar;
#X msg 483 216 /bar \$1;
#X floatatom 479 189 5 0 0 0 - - -;
#X obj 162 269 o_print pack_monitor;
#X obj 208 82 o_pack /postbar;
#X floatatom 210 50 5 0 0 0 - - -;
#X obj 111 262 print;
#X obj 214 31 bng 15 250 50 0 empty empty empty 17 7 0 10 -262144 -1
-1;
#X obj 333 391 o_print foooooo;
#X obj 333 270 o_route /foo /bar;
#X connect 0 0 10 0;
#X connect 0 0 13 0;
#X connect 0 0 16 0;
#X connect 1 0 0 0;
#X connect 2 0 0 0;
#X connect 3 0 5 0;
#X connect 5 0 16 0;
#X connect 6 0 0 0;
#X connect 8 0 16 0;
#X connect 9 0 8 0;
#X connect 11 0 0 0;
#X connect 12 0 11 0;
#X connect 14 0 12 0;
#X connect 16 0 15 0;
#X connect 16 1 7 0;
#X connect 16 2 4 0;
