#N canvas 825 137 655 642 10;
#X obj 104 41 tgl 15 0 empty empty empty 17 7 0 10 -262144 -1 -1 0
1;
#X obj 104 61 t f f;
#X obj 104 153 sel 0;
#X msg 104 175 reset;
#X obj 104 237 o_schedule /time/activate;
#X obj 104 269 o_timetag /time/activated;
#X obj 104 301 o_expr /time/diff = /time/activated - /time/activate
;
#X obj 195 160 o_timetag /time/acquired;
#X obj 195 192 o_expr /time/activate = /time/acquired + 0.5;
#X obj 195 89 tgl 15 0 empty empty empty 17 7 0 10 -262144 -1 -1 0
1;
#X obj 104 404 pp set;
#X msg 104 442;
#X obj 182 404 pp set;
#X msg 182 442;
#X obj 340 400 pp set;
#X msg 340 438 0.000774813;
#X obj 424 398 pp set;
#X obj 261 397 pp set;
#X msg 424 436;
#X msg 261 435;
#X obj 195 119 metro 50;
#X obj 104 343 o_route /time/acquired /time/activate /time/activated
/time/diff;
#X connect 0 0 1 0;
#X connect 1 0 2 0;
#X connect 1 1 9 0;
#X connect 2 0 3 0;
#X connect 3 0 4 0;
#X connect 4 0 5 0;
#X connect 5 0 6 0;
#X connect 6 0 21 0;
#X connect 7 0 8 0;
#X connect 8 0 4 0;
#X connect 9 0 20 0;
#X connect 10 0 11 0;
#X connect 12 0 13 0;
#X connect 14 0 15 0;
#X connect 16 0 18 0;
#X connect 17 0 19 0;
#X connect 20 0 7 0;
#X connect 21 0 10 0;
#X connect 21 1 12 0;
#X connect 21 2 17 0;
#X connect 21 3 14 0;
#X connect 21 4 16 0;
