#N canvas 808 105 721 412 10;
#X obj 125 242 o_table @key /key;
#X floatatom 125 70 5 0 0 0 - - -;
#X floatatom 275 70 5 0 0 0 - - -;
#X obj 125 99 o_pack /foo 1 /key one;
#X obj 275 99 o_pack /foo 1 /key two;
#X obj 125 287 o_if !emptybundle();
#X obj 236 317 o_print table_is_empty;
#X obj 125 319 o_print;
#X msg 55 76 one;
#X msg 55 96 two;
#X msg 448 189 popfirst;
#X msg 448 134 peeknth \$1;
#X floatatom 448 106 5 0 0 0 - - -;
#X floatatom 528 106 5 0 0 0 - - -;
#X msg 528 134 popnth \$1;
#X msg 528 189 peekfirst;
#X msg 448 219 poplast;
#X msg 528 219 peeklast;
#X msg 35 166 read;
#X msg 35 186 write;
#X connect 0 0 5 0;
#X connect 1 0 3 0;
#X connect 2 0 4 0;
#X connect 3 0 0 0;
#X connect 4 0 0 0;
#X connect 5 0 7 0;
#X connect 5 1 6 0;
#X connect 8 0 0 0;
#X connect 9 0 0 0;
#X connect 10 0 0 0;
#X connect 11 0 0 0;
#X connect 12 0 11 0;
#X connect 13 0 14 0;
#X connect 14 0 0 0;
#X connect 15 0 0 0;
#X connect 16 0 0 0;
#X connect 17 0 0 0;
