#N canvas 859 292 450 300 10;
#X obj 88 114 o_union;
#X obj 88 44 o_pack /foo;
#X floatatom 87 15 5 0 0 0 - - -;
#X floatatom 177 15 5 0 0 0 - - -;
#X obj 99 181 o_print;
#X obj 178 44 o_pack /foo /bar;
#X floatatom 266 16 5 0 0 0 - - -;
#X connect 0 0 4 0;
#X connect 1 0 0 0;
#X connect 2 0 1 0;
#X connect 3 0 5 0;
#X connect 5 0 0 1;
#X connect 6 0 5 1;
