#N canvas 738 376 762 300 10;
#X obj 174 146 o_var;
#X obj 173 69 bng 15 250 50 0 empty empty empty 17 7 0 10 -262144 -1
-1;
#X obj 174 168 o_print;
#X floatatom 233 57 5 0 0 0 - - -;
#X floatatom 90 56 5 0 0 0 - - -;
#X obj 227 98 o_pack /foo1;
#X obj 84 97 o_pack /foo0;
#X msg 19 97 /fooM \$1;
#X floatatom 38 51 5 0 0 0 - - -;
#X obj 359 108 o_difference;
#X obj 471 116 o_intersection;
#X obj 629 112 o_union;
#X floatatom 361 23 5 0 0 0 - - -;
#X floatatom 460 26 5 0 0 0 - - -;
#X obj 454 67 o_pack /foo/1 /bar;
#X obj 355 64 o_pack /foo/1;
#X obj 358 168 o_print diff;
#X obj 478 165 o_print inter;
#X obj 621 143 o_print union;
#X connect 0 0 2 0;
#X connect 1 0 0 0;
#X connect 3 0 5 0;
#X connect 4 0 6 0;
#X connect 5 0 0 1;
#X connect 6 0 0 0;
#X connect 7 0 0 0;
#X connect 8 0 7 0;
#X connect 9 0 16 0;
#X connect 10 0 17 0;
#X connect 11 0 18 0;
#X connect 12 0 15 0;
#X connect 13 0 14 0;
#X connect 13 0 14 1;
#X connect 14 0 9 1;
#X connect 14 0 10 1;
#X connect 14 0 11 1;
#X connect 15 0 9 0;
#X connect 15 0 10 0;
#X connect 15 0 11 0;
