#N canvas 699 223 557 319 10;
#X msg 111 72 /bar 1 \, /foo 11;
#X obj 74 71 bng 15 250 50 0 empty empty empty 17 7 0 10 -262144 -1
-1;
#X floatatom 257 220 5 0 0 0 - - -;
#X floatatom 303 221 5 0 0 0 - - -;
#X msg 92 40 /bar 11 \, /foo 1;
#X obj 45 190 print;
#X floatatom 242 25 5 0 0 0 - - -;
#X obj 323 53 + 1;
#X obj 400 79 + 1;
#X obj 111 138 ocollect;
#X obj 323 95 opack /bar;
#X obj 242 68 opack /foo;
#X obj 257 174 oroute /foo /bar;
#X obj 111 188 oprint;
#X obj 400 120 opack /steve;
#X connect 0 0 9 0;
#X connect 1 0 9 0;
#X connect 4 0 9 0;
#X connect 6 0 7 0;
#X connect 6 0 11 0;
#X connect 7 0 8 0;
#X connect 7 0 10 0;
#X connect 8 0 14 0;
#X connect 9 0 5 0;
#X connect 9 0 12 0;
#X connect 9 0 13 0;
#X connect 10 0 9 0;
#X connect 11 0 9 0;
#X connect 12 0 2 0;
#X connect 12 1 3 0;
#X connect 14 0 9 0;
