#N canvas 472 169 752 481 10;
#X obj 195 61 omessage 100 49 binhex b#2F666F6F2F3120226122200A2F666F6F
b#2F3220226222200A2F666F6F2F332022 b#632220;
#X obj 168 213 omessage 100 75 binhex b#2F666F6F205B0A2F3120226122200A2F
b#3220226222200A2F3320226322200A5D b#0A;
#X obj 195 163 oexplode;
#X obj 352 65 omessage 100 49 binhex b#2F666F6F2F312F313120226122200A2F
b#666F6F2F322F323220226222200A2F66 b#6F6F2F332F33332022632220;
#X obj 325 217 omessage 100 153 binhex b#2F666F6F205B0A2F31205B0A2F313120
b#226122200A5D0A2F32205B0A2F323220 b#226222200A5D0A2F33205B0A2F333320
b#226322200A5D0A5D0A;
#X obj 352 167 oexplode @level 2;
#X connect 0 0 2 0;
#X connect 2 0 1 1;
#X connect 3 0 5 0;
#X connect 5 0 4 1;
