#N canvas 225 73 1273 725 10;
#X obj 55 -122 omenu;
#X obj 55 -60 omenu;
#X obj 55 2 omenu;
#X obj 55 64 omenu;
#X obj 55 127 omenu;
#N canvas 902 46 450 300 init 0;
#X obj -1476 58 oexpr;
#X msg -1476 -65 /math \, /vector \, /statistics \, /string \, /predicate
\, /conditional \, /core;
#X msg -1476 23 doc-cat \$1;
#X obj -1476 -14 symbol;
#X obj -1476 93 oroute /doc/category;
#X obj -1476 -107 loadbang;
#X obj -1476 128 outlet;
#X connect 0 0 4 0;
#X connect 1 0 3 0;
#X connect 2 0 0 0;
#X connect 3 0 2 0;
#X connect 4 0 6 0;
#X connect 5 0 1 0;
#X restore 55 -180 pd init;
#X obj 55 185 omenu;
#N canvas 797 299 450 300 /math/operator/assignment 0;
#X obj 236 204 outlet;
#X obj 15 245 outlet;
#X obj 195 76 inlet;
#X obj 62 173 loadbang;
#X msg 62 204 displaymode 1;
#X obj 15 132 oroute /math/operator/assignment;
#X obj 92 30 inlet;
#X obj 92 61 s selector;
#X obj 23 27 inlet;
#X connect 2 0 5 0;
#X connect 3 0 4 0;
#X connect 4 0 1 0;
#X connect 5 0 1 0;
#X connect 5 1 0 0;
#X connect 6 0 7 0;
#X restore 55 37 pd /math/operator/assignment;
#X obj 55 244 omenu;
#X obj 55 302 omenu;
#N canvas 897 505 450 300 /math/conversion 0;
#X obj 256 164 outlet;
#X obj 35 205 outlet;
#X obj 264 49 inlet;
#X obj 82 133 loadbang;
#X msg 82 164 displaymode 1;
#X obj 35 92 oroute /math/conversion;
#X obj 103 16 inlet;
#X obj 103 47 s selector;
#X obj 36 16 inlet;
#X connect 2 0 5 0;
#X connect 3 0 4 0;
#X connect 4 0 1 0;
#X connect 5 0 1 0;
#X connect 5 1 0 0;
#X connect 6 0 7 0;
#X restore 55 276 pd /math/conversion ________;
#X obj 55 362 omenu;
#N canvas 897 505 450 300 /math/specialfunction 0;
#X obj 256 164 outlet;
#X obj 35 205 outlet;
#X obj 291 50 inlet;
#X obj 82 133 loadbang;
#X msg 82 164 displaymode 1;
#X obj 35 92 oroute /math/specialfunction;
#X obj 129 18 inlet;
#X obj 129 49 s selector;
#X obj 39 18 inlet;
#X connect 2 0 5 0;
#X connect 3 0 4 0;
#X connect 4 0 1 0;
#X connect 5 0 1 0;
#X connect 5 1 0 0;
#X connect 6 0 7 0;
#X restore 55 336 pd /math/specialfunction ___;
#X obj 55 421 omenu;
#N canvas 897 505 450 300 /math/constant 0;
#X obj 256 164 outlet;
#X obj 35 205 outlet;
#X obj 287 49 inlet;
#X obj 82 133 loadbang;
#X msg 82 164 displaymode 1;
#X obj 35 92 oroute /math/constant;
#X obj 127 15 inlet;
#X obj 127 46 s selector;
#X obj 37 15 inlet;
#X connect 2 0 5 0;
#X connect 3 0 4 0;
#X connect 4 0 1 0;
#X connect 5 0 1 0;
#X connect 5 1 0 0;
#X connect 6 0 7 0;
#X restore 55 395 pd /math/constant __________;
#X obj 276 -123 omenu;
#X obj 276 -66 omenu;
#N canvas 897 505 450 300 /vector 0;
#X obj 256 164 outlet;
#X obj 35 205 outlet;
#X obj 82 133 loadbang;
#X msg 82 164 displaymode 1;
#X obj 35 92 oroute /vector;
#X obj 35 49 inlet;
#X connect 2 0 3 0;
#X connect 3 0 1 0;
#X connect 4 0 1 0;
#X connect 4 1 0 0;
#X connect 5 0 4 0;
#X restore 276 -149 pd /vector _________________;
#N canvas 897 505 450 300 /statistics 0;
#X obj 256 164 outlet;
#X obj 35 205 outlet;
#X obj 256 45 inlet;
#X obj 82 133 loadbang;
#X msg 82 164 displaymode 1;
#X obj 35 92 oroute /statistics;
#X obj 104 14 inlet;
#X obj 104 45 s selector;
#X obj 34 14 inlet;
#X connect 2 0 5 0;
#X connect 3 0 4 0;
#X connect 4 0 1 0;
#X connect 5 0 1 0;
#X connect 5 1 0 0;
#X connect 6 0 7 0;
#X restore 276 -92 pd /statistics _____________;
#X obj 276 -9 omenu;
#N canvas 897 505 450 300 /string/operator 0;
#X obj 256 164 outlet;
#X obj 35 205 outlet;
#X obj 249 42 inlet;
#X obj 82 133 loadbang;
#X msg 82 164 displaymode 1;
#X obj 109 14 inlet;
#X obj 109 45 s selector;
#X obj 35 92 oroute /string/operator;
#X obj 39 14 inlet;
#X connect 2 0 7 0;
#X connect 3 0 4 0;
#X connect 4 0 1 0;
#X connect 5 0 6 0;
#X connect 7 0 1 0;
#X connect 7 1 0 0;
#X restore 276 -35 pd /string/operator ________;
#X obj 276 51 omenu;
#N canvas 897 505 450 300 /predicate 0;
#X obj 256 164 outlet;
#X obj 35 205 outlet;
#X obj 255 45 inlet;
#X obj 82 133 loadbang;
#X msg 82 164 displaymode 1;
#X obj 131 10 inlet;
#X obj 131 41 s selector;
#X obj 35 92 oroute /predicate;
#X obj 41 10 inlet;
#X connect 2 0 7 0;
#X connect 3 0 4 0;
#X connect 4 0 1 0;
#X connect 5 0 6 0;
#X connect 7 0 1 0;
#X connect 7 1 0 0;
#X restore 276 25 pd /predicate ______________;
#X obj 276 111 omenu;
#N canvas 897 505 450 300 /conditional 0;
#X obj 256 164 outlet;
#X obj 35 205 outlet;
#X obj 261 43 inlet;
#X obj 82 133 loadbang;
#X msg 82 164 displaymode 1;
#X obj 114 14 inlet;
#X obj 114 45 s selector;
#X obj 35 92 oroute /conditional;
#X obj 37 17 inlet;
#X connect 2 0 7 0;
#X connect 3 0 4 0;
#X connect 4 0 1 0;
#X connect 5 0 6 0;
#X connect 7 0 1 0;
#X connect 7 1 0 0;
#X restore 276 85 pd /conditional ____________;
#X obj 276 171 omenu;
#N canvas 897 505 450 300 /core 0;
#X obj 256 164 outlet;
#X obj 35 205 outlet;
#X obj 248 46 inlet;
#X obj 82 133 loadbang;
#X msg 82 164 displaymode 1;
#X obj 118 12 inlet;
#X obj 118 43 s selector;
#X obj 35 92 oroute /core;
#X obj 38 12 inlet;
#X connect 2 0 7 0;
#X connect 3 0 4 0;
#X connect 4 0 1 0;
#X connect 5 0 6 0;
#X connect 7 0 1 0;
#X connect 7 1 0 0;
#X restore 276 145 pd /core ___________________;
#X obj 141 454 s selector;
#X obj 362 206 s selector;
#N canvas 217 553 932 555 selection 0;
#X obj 95 117 oexpr;
#X obj 95 150 oroute /doc/function;
#X obj 95 36 r selector;
#X obj 380 247 oselect /signature;
#X msg 95 78 doc-func \$1;
#X obj 95 302 s name;
#X obj 95 235 ounion;
#X obj 266 337 s args;
#X obj 266 300 ocollect;
#X obj 209 236 t b a;
#X obj 380 284 s signature;
#X obj 95 180 oselect /name /docstring /arg /num_optional_args /num_required_args
;
#X connect 0 0 1 0;
#X connect 1 0 11 0;
#X connect 2 0 4 0;
#X connect 3 0 10 0;
#X connect 4 0 0 0;
#X connect 6 0 5 0;
#X connect 8 0 7 0;
#X connect 9 0 8 0;
#X connect 9 1 8 0;
#X connect 11 0 6 0;
#X connect 11 1 6 1;
#X connect 11 2 9 0;
#X connect 11 3 8 0;
#X connect 11 4 8 0;
#X connect 11 5 3 0;
#X restore 499 -151 pd selection;
#N canvas 889 210 450 300 /math/operator/logical 0;
#X obj 226 194 outlet;
#X obj 5 235 outlet;
#X obj 206 53 inlet;
#X obj 52 163 loadbang;
#X msg 52 194 displaymode 1;
#X obj 87 29 inlet;
#X obj 87 60 s selector;
#X obj 5 122 oroute /math/operator/logical;
#X obj 15 31 inlet;
#X connect 2 0 7 0;
#X connect 3 0 4 0;
#X connect 4 0 1 0;
#X connect 5 0 6 0;
#X connect 7 0 1 0;
#X connect 7 1 0 0;
#X restore 55 -25 pd /math/operator/logical __;
#N canvas 886 313 450 300 /math/arithmetic 0;
#X obj 246 174 outlet;
#X obj 25 215 outlet;
#X obj 162 59 inlet;
#X obj 72 143 loadbang;
#X msg 72 174 displaymode 1;
#X obj 25 102 oroute /math/arithmetic;
#X obj 80 10 inlet;
#X obj 80 41 s selector;
#X obj 23 9 inlet;
#X connect 2 0 5 0;
#X connect 3 0 4 0;
#X connect 4 0 1 0;
#X connect 5 0 1 0;
#X connect 5 1 0 0;
#X connect 6 0 7 0;
#X restore 55 99 pd /math/arithmetic ________;
#N canvas 897 505 450 300 /math/trigonometric 0;
#X obj 256 164 outlet;
#X obj 35 205 outlet;
#X obj 220 44 inlet;
#X obj 82 133 loadbang;
#X msg 82 164 displaymode 1;
#X obj 35 92 oroute /math/trigonometric;
#X obj 117 15 inlet;
#X obj 117 46 s selector;
#X obj 37 15 inlet;
#X connect 2 0 5 0;
#X connect 3 0 4 0;
#X connect 4 0 1 0;
#X connect 5 0 1 0;
#X connect 5 1 0 0;
#X connect 6 0 7 0;
#X restore 55 159 pd /math/trigonometric _____;
#N canvas 897 505 450 300 /math/power 0;
#X obj 256 164 outlet;
#X obj 35 205 outlet;
#X obj 294 47 inlet;
#X obj 82 133 loadbang;
#X msg 82 164 displaymode 1;
#X obj 35 92 oroute /math/power;
#X obj 124 19 inlet;
#X obj 124 50 s selector;
#X obj 34 19 inlet;
#X connect 2 0 5 0;
#X connect 3 0 4 0;
#X connect 4 0 1 0;
#X connect 5 0 1 0;
#X connect 5 1 0 0;
#X connect 6 0 7 0;
#X restore 55 218 pd /math/power _____________;
#X obj 497 -3 omessage 556 88 hex 0A0A;
#N canvas 720 22 450 300 /math/operator/arithmetic 0;
#X obj -45 118 oroute /math/operator/arithmetic;
#X obj -45 75 inlet;
#X obj 176 190 outlet;
#X obj -45 230 outlet;
#X obj -21 159 loadbang;
#X msg -21 190 displaymode 1;
#X connect 0 0 3 0;
#X connect 0 1 2 0;
#X connect 1 0 0 0;
#X connect 4 0 5 0;
#X connect 5 0 3 0;
#X restore 55 -149 pd /math/operator/arithmetic;
#N canvas 864 67 450 300 /math/operator/relational 0;
#X obj 74 25 inlet;
#X obj 216 184 outlet;
#X obj -5 235 outlet;
#X obj 173 71 inlet;
#X obj -5 112 oroute /math/operator/relational;
#X obj 18 154 loadbang;
#X msg 18 185 displaymode 1;
#X obj 74 56 s selector;
#X obj 0 24 inlet;
#X connect 0 0 7 0;
#X connect 3 0 4 0;
#X connect 4 0 2 0;
#X connect 4 1 1 0;
#X connect 5 0 6 0;
#X connect 6 0 2 0;
#X restore 55 -87 pd /math/operator/relational;
#X obj 1044 -114 r name;
#X obj 497 -90 omessage 554 36 hex 2F6E616D652022646976220A2F646F63737472696E672022416464220A0A
;
#X obj 1046 -27 r args;
#X obj 825 157 r signature;
#X obj 559 186 omessage 273 23 hex 2F7369676E617475726520222F726573756C74203D222022243122203E202224
32220A;
#X obj 559 230 oexpr eval(/signature);
#X obj 560 270 omessage 273 23 hex 2F7369676E617475726520222F726573756C74203D202431203E202432220A
;
#X connect 0 1 36 1;
#X connect 1 1 30 1;
#X connect 2 1 7 1;
#X connect 3 1 31 1;
#X connect 4 1 32 1;
#X connect 5 0 17 0;
#X connect 5 0 35 0;
#X connect 6 1 33 1;
#X connect 7 0 3 0;
#X connect 7 1 31 2;
#X connect 8 1 10 1;
#X connect 9 1 12 1;
#X connect 10 0 9 0;
#X connect 10 1 12 2;
#X connect 11 1 14 1;
#X connect 12 0 11 0;
#X connect 12 1 14 2;
#X connect 13 1 27 0;
#X connect 14 0 13 0;
#X connect 15 1 18 1;
#X connect 16 1 20 1;
#X connect 17 0 15 0;
#X connect 17 1 18 2;
#X connect 18 0 16 0;
#X connect 18 1 20 2;
#X connect 19 1 22 1;
#X connect 20 0 19 0;
#X connect 20 1 22 2;
#X connect 21 1 24 1;
#X connect 22 0 21 0;
#X connect 22 1 24 2;
#X connect 23 1 26 1;
#X connect 24 0 23 0;
#X connect 24 1 26 2;
#X connect 25 1 28 0;
#X connect 26 0 25 0;
#X connect 30 0 2 0;
#X connect 30 1 7 2;
#X connect 31 0 4 0;
#X connect 31 1 32 2;
#X connect 32 0 6 0;
#X connect 32 1 33 2;
#X connect 33 0 8 0;
#X connect 33 1 10 2;
#X connect 35 0 0 0;
#X connect 35 1 36 2;
#X connect 36 0 1 0;
#X connect 36 1 30 2;
#X connect 37 0 38 1;
#X connect 39 0 34 1;
