#N canvas 462 226 796 511 10;
#X floatatom 251 185 5 0 0 0 - - -;
#X msg 309 184 testo;
#X floatatom 375 140 5 0 0 0 - - -;
#X obj 432 305 print unmatched;
#X msg 384 180 /foo/10 \$1;
#X msg 142 144 1 2 3 foo 5 6;
#X obj 382 350 print printbar;
#X msg 476 183 /bar \$1;
#X floatatom 472 156 5 0 0 0 - - -;
#X floatatom 210 50 5 0 0 0 - - -;
#X obj 111 262 print;
#X obj 214 31 bng 15 250 50 0 empty empty empty 17 7 0 10 -262144 -1
-1;
#X obj 208 82 opack /postbar;
#X obj 162 269 oprint pack_monitor;
#X obj 252 232 opack /foo;
#X obj 333 270 oroute /foo /bar;
#X obj 333 391 oprint foooooo;
#X floatatom 546 154 5 0 0 0 - - -;
#X msg 550 181 /bob \$1;
#X msg 499 238 /bob;
#X msg 539 238 /bar;
#X connect 0 0 14 0;
#X connect 1 0 14 0;
#X connect 2 0 4 0;
#X connect 4 0 15 0;
#X connect 5 0 14 0;
#X connect 7 0 15 0;
#X connect 8 0 7 0;
#X connect 9 0 12 0;
#X connect 11 0 9 0;
#X connect 12 0 14 0;
#X connect 14 0 10 0;
#X connect 14 0 13 0;
#X connect 14 0 15 0;
#X connect 15 0 16 0;
#X connect 15 1 6 0;
#X connect 15 2 3 0;
#X connect 17 0 18 0;
#X connect 18 0 15 0;
#X connect 19 0 15 1;
#X connect 20 0 15 1;
