#N canvas 738 376 762 300 10;
#X obj 173 69 bng 15 250 50 0 empty empty empty 17 7 0 10 -262144 -1
-1;
#X floatatom 233 57 5 0 0 0 - - -;
#X floatatom 90 56 5 0 0 0 - - -;
#X msg 19 97 /fooM \$1;
#X floatatom 38 51 5 0 0 0 - - -;
#X floatatom 361 23 5 0 0 0 - - -;
#X floatatom 572 18 5 0 0 0 - - -;
#X obj 84 97 opack /foo0;
#X obj 174 146 ovar;
#X obj 174 168 oprint;
#X obj 227 98 opack /foo1;
#X obj 355 64 opack /foo/1;
#X obj 359 108 odifference;
#X obj 359 148 oprint diff;
#X obj 566 59 opack /foo/1 /bar;
#X obj 471 112 ointersection;
#X obj 471 146 oprint inter;
#X obj 621 112 ounion;
#X obj 621 143 oprint union;
#X connect 0 0 8 0;
#X connect 1 0 10 0;
#X connect 2 0 7 0;
#X connect 3 0 8 0;
#X connect 4 0 3 0;
#X connect 5 0 11 0;
#X connect 6 0 14 0;
#X connect 6 0 14 1;
#X connect 7 0 8 0;
#X connect 8 0 9 0;
#X connect 10 0 8 1;
#X connect 11 0 12 0;
#X connect 11 0 15 0;
#X connect 11 0 17 0;
#X connect 12 0 13 0;
#X connect 14 0 12 1;
#X connect 14 0 15 1;
#X connect 14 0 17 1;
#X connect 15 0 16 0;
#X connect 17 0 18 0;
