#N canvas 546 153 450 300 10;
#X obj 160 20 bng 15 250 50 0 empty empty empty 17 7 0 10 -262144 -1
-1;
#X obj 159 46 o.pack /foo 1;
#X obj 160 100 o.prepend /bar;
#X obj 160 132 o.print prepend;
#X obj 260 100 o.append /bar;
#X obj 260 132 o.print append;
#X connect 0 0 1 0;
#X connect 1 0 2 0;
#X connect 1 0 4 0;
#X connect 2 0 3 0;
#X connect 4 0 5 0;
