{
	"patcher" : 	{
		"fileversion" : 1,
		"rect" : [ 578.0, 120.0, 726.0, 348.0 ],
		"bglocked" : 0,
		"defrect" : [ 578.0, 120.0, 726.0, 348.0 ],
		"openrect" : [ 0.0, 0.0, 0.0, 0.0 ],
		"openinpresentation" : 0,
		"default_fontsize" : 12.0,
		"default_fontface" : 0,
		"default_fontname" : "Arial",
		"gridonopen" : 0,
		"gridsize" : [ 10.0, 10.0 ],
		"gridsnaponopen" : 0,
		"toolbarvisible" : 1,
		"boxanimatetime" : 200,
		"imprint" : 0,
		"enablehscroll" : 1,
		"enablevscroll" : 1,
		"boxes" : [ 			{
				"box" : 				{
					"maxclass" : "message",
					"text" : "/foo flume, /it 666, bang",
					"outlettype" : [ "" ],
					"fontname" : "Arial",
					"patching_rect" : [ 270.0, 70.0, 136.0, 18.0 ],
					"id" : "obj-3",
					"numinlets" : 2,
					"fontsize" : 12.0,
					"numoutlets" : 1
				}

			}
, 			{
				"box" : 				{
					"maxclass" : "newobj",
					"text" : "OpenSoundControl",
					"outlettype" : [ "", "", "OSCTimeTag" ],
					"fontname" : "Arial",
					"patching_rect" : [ 270.0, 100.0, 113.0, 20.0 ],
					"id" : "obj-7",
					"numinlets" : 1,
					"fontsize" : 12.0,
					"numoutlets" : 3
				}

			}
, 			{
				"box" : 				{
					"maxclass" : "newobj",
					"text" : "print",
					"fontname" : "Arial",
					"patching_rect" : [ 160.0, 190.0, 34.0, 20.0 ],
					"id" : "obj-6",
					"numinlets" : 1,
					"fontsize" : 12.0,
					"numoutlets" : 0
				}

			}
, 			{
				"box" : 				{
					"maxclass" : "newobj",
					"text" : "OpenSoundControl",
					"outlettype" : [ "", "", "OSCTimeTag" ],
					"fontname" : "Arial",
					"patching_rect" : [ 110.0, 160.0, 113.0, 20.0 ],
					"id" : "obj-5",
					"numinlets" : 1,
					"fontsize" : 12.0,
					"numoutlets" : 3
				}

			}
, 			{
				"box" : 				{
					"maxclass" : "message",
					"text" : "/foo 34, /bar 54.8, bang",
					"outlettype" : [ "" ],
					"fontname" : "Arial",
					"patching_rect" : [ 110.0, 70.0, 135.0, 18.0 ],
					"id" : "obj-4",
					"numinlets" : 2,
					"fontsize" : 12.0,
					"numoutlets" : 1
				}

			}
, 			{
				"box" : 				{
					"maxclass" : "newobj",
					"text" : "OpenSoundControl",
					"outlettype" : [ "", "", "OSCTimeTag" ],
					"fontname" : "Arial",
					"patching_rect" : [ 110.0, 100.0, 113.0, 20.0 ],
					"id" : "obj-2",
					"numinlets" : 1,
					"fontsize" : 12.0,
					"numoutlets" : 3
				}

			}
, 			{
				"box" : 				{
					"maxclass" : "newobj",
					"text" : "o.intersection",
					"outlettype" : [ "FullPacket" ],
					"fontname" : "Arial",
					"patching_rect" : [ 110.0, 130.0, 82.0, 20.0 ],
					"id" : "obj-1",
					"numinlets" : 2,
					"fontsize" : 12.0,
					"numoutlets" : 1
				}

			}
 ],
		"lines" : [ 			{
				"patchline" : 				{
					"source" : [ "obj-7", 0 ],
					"destination" : [ "obj-1", 1 ],
					"hidden" : 0,
					"midpoints" : [  ]
				}

			}
, 			{
				"patchline" : 				{
					"source" : [ "obj-2", 0 ],
					"destination" : [ "obj-1", 0 ],
					"hidden" : 0,
					"midpoints" : [  ]
				}

			}
, 			{
				"patchline" : 				{
					"source" : [ "obj-1", 0 ],
					"destination" : [ "obj-5", 0 ],
					"hidden" : 0,
					"midpoints" : [  ]
				}

			}
, 			{
				"patchline" : 				{
					"source" : [ "obj-5", 1 ],
					"destination" : [ "obj-6", 0 ],
					"hidden" : 0,
					"midpoints" : [  ]
				}

			}
, 			{
				"patchline" : 				{
					"source" : [ "obj-4", 0 ],
					"destination" : [ "obj-2", 0 ],
					"hidden" : 0,
					"midpoints" : [  ]
				}

			}
, 			{
				"patchline" : 				{
					"source" : [ "obj-3", 0 ],
					"destination" : [ "obj-7", 0 ],
					"hidden" : 0,
					"midpoints" : [  ]
				}

			}
 ]
	}

}
