#N canvas 646 151 653 605 10;
#X obj 129 253 o.display 302 66;
#X msg 129 24 status;
#X obj 129 55 o.udp.receive 7777;
#X obj 234 82 route received total from multicast;
#X floatatom 234 108 5 0 0 0 - - -, f 5;
#X floatatom 285 108 5 0 0 0 - - -, f 5;
#X obj 337 142 unpack 0 0 0 0 0, f 25;
#X floatatom 337 170 5 0 0 0 - - -, f 5;
#X floatatom 373 170 5 0 0 0 - - -, f 5;
#X floatatom 410 170 5 0 0 0 - - -, f 5;
#X floatatom 447 170 5 0 0 0 - - -, f 5;
#X floatatom 484 170 5 0 0 0 - - -, f 5;
#X obj 389 107 tgl 15 0 empty empty empty 17 7 0 10 -262144 -1 -1 0
1;
#X obj 129 207 o.expr.codebox 274 36 binhex b#2F74696D65456C6173706564203D202F
b#74696D652F7265636569766564202D20 b#2F74696D652F73656E740A;
#X obj 129 144 o.timetag /time/received;
#X connect 1 0 2 0;
#X connect 2 0 14 0;
#X connect 2 1 3 0;
#X connect 3 0 4 0;
#X connect 3 1 5 0;
#X connect 3 2 6 0;
#X connect 3 3 12 0;
#X connect 6 0 7 0;
#X connect 6 1 8 0;
#X connect 6 2 9 0;
#X connect 6 3 10 0;
#X connect 6 4 11 0;
#X connect 13 0 0 0;
#X connect 14 0 13 0;
