{
	"patcher" : 	{
		"fileversion" : 1,
		"appversion" : 		{
			"major" : 6,
			"minor" : 1,
			"revision" : 3,
			"architecture" : "x86"
		}
,
		"rect" : [ 342.0, 74.0, 933.0, 966.0 ],
		"bglocked" : 0,
		"openinpresentation" : 1,
		"default_fontsize" : 12.0,
		"default_fontface" : 0,
		"default_fontname" : "Arial",
		"gridonopen" : 0,
		"gridsize" : [ 15.0, 15.0 ],
		"gridsnaponopen" : 0,
		"statusbarvisible" : 2,
		"toolbarvisible" : 1,
		"boxanimatetime" : 200,
		"imprint" : 0,
		"enablehscroll" : 1,
		"enablevscroll" : 1,
		"devicewidth" : 0.0,
		"description" : "",
		"digest" : "",
		"tags" : "",
		"boxes" : [ 			{
				"box" : 				{
					"comment" : "",
					"id" : "obj-10",
					"maxclass" : "inlet",
					"numinlets" : 0,
					"numoutlets" : 1,
					"outlettype" : [ "" ],
					"patching_rect" : [ 325.987488, -8.0, 25.0, 25.0 ]
				}

			}
, 			{
				"box" : 				{
					"comment" : "",
					"id" : "obj-13",
					"maxclass" : "outlet",
					"numinlets" : 1,
					"numoutlets" : 0,
					"patching_rect" : [ 415.331238, 759.0, 25.0, 25.0 ]
				}

			}
, 			{
				"box" : 				{
					"fontname" : "Arial",
					"fontsize" : 12.0,
					"id" : "obj-7",
					"maxclass" : "newobj",
					"numinlets" : 1,
					"numoutlets" : 2,
					"outlettype" : [ "", "bang" ],
					"patching_rect" : [ 415.331238, 716.625, 149.0, 20.0 ],
					"text" : "o.collectwithtimeout 0.003"
				}

			}
, 			{
				"box" : 				{
					"args" : [ "/arrowbutton/a/4" ],
					"id" : "obj-48",
					"maxclass" : "bpatcher",
					"name" : "o.io.quneo.display.helper.arrowbutton.1A-D.maxpat",
					"numinlets" : 1,
					"numoutlets" : 1,
					"outlettype" : [ "FullPacket" ],
					"patching_rect" : [ 15.0, 93.5, 54.290527, 38.0 ],
					"presentation" : 1,
					"presentation_rect" : [ 8.668701, 69.5, 40.290527, 38.0 ]
				}

			}
, 			{
				"box" : 				{
					"args" : [ "/rhombus.button" ],
					"id" : "obj-74",
					"maxclass" : "bpatcher",
					"name" : "o.io.quneo.display.helper.rhombusbutton.maxpat",
					"numinlets" : 1,
					"numoutlets" : 1,
					"outlettype" : [ "FullPacket" ],
					"patching_rect" : [ 121.462402, 430.615234, 48.0, 41.0 ],
					"presentation" : 1,
					"presentation_rect" : [ 110.131104, 360.370117, 48.0, 41.0 ]
				}

			}
, 			{
				"box" : 				{
					"args" : [ "/button/c" ],
					"id" : "obj-71",
					"maxclass" : "bpatcher",
					"name" : "o.io.quneo.display.helper.button.C.maxpat",
					"numinlets" : 1,
					"numoutlets" : 1,
					"outlettype" : [ "FullPacket" ],
					"patching_rect" : [ 206.038513, 35.5, 49.0, 42.0 ],
					"presentation" : 1,
					"presentation_rect" : [ 203.753174, 17.5, 49.0, 42.0 ]
				}

			}
, 			{
				"box" : 				{
					"args" : [ "/button/b" ],
					"id" : "obj-70",
					"maxclass" : "bpatcher",
					"name" : "o.io.quneo.display.helper.button.B.maxpat",
					"numinlets" : 1,
					"numoutlets" : 1,
					"outlettype" : [ "FullPacket" ],
					"patching_rect" : [ 141.038513, 37.0, 42.0, 39.0 ],
					"presentation" : 1,
					"presentation_rect" : [ 150.791687, 17.5, 42.0, 39.0 ]
				}

			}
, 			{
				"box" : 				{
					"args" : [ "/button/a" ],
					"id" : "obj-69",
					"maxclass" : "bpatcher",
					"name" : "o.io.quneo.display.helper.button.A.maxpat",
					"numinlets" : 1,
					"numoutlets" : 1,
					"outlettype" : [ "FullPacket" ],
					"patching_rect" : [ 83.462402, 37.0, 38.0, 37.0 ],
					"presentation" : 1,
					"presentation_rect" : [ 94.129639, 17.5, 38.0, 34.0 ]
				}

			}
, 			{
				"box" : 				{
					"args" : [ "/large.arrowbutton/b/1" ],
					"id" : "obj-68",
					"maxclass" : "bpatcher",
					"name" : "o.io.quneo.display.helper.large.arrowbutton.1A-B.maxpat",
					"numinlets" : 1,
					"numoutlets" : 1,
					"outlettype" : [ "FullPacket" ],
					"patching_rect" : [ 712.921875, 598.625, 64.171875, 54.0 ],
					"presentation" : 1,
					"presentation_rect" : [ 661.590576, 513.105469, 59.753174, 54.0 ]
				}

			}
, 			{
				"box" : 				{
					"args" : [ "/large.arrowbutton/a/1" ],
					"id" : "obj-67",
					"maxclass" : "bpatcher",
					"name" : "o.io.quneo.display.helper.large.arrowbutton.1A-B.maxpat",
					"numinlets" : 1,
					"numoutlets" : 1,
					"outlettype" : [ "FullPacket" ],
					"patching_rect" : [ 303.987488, 589.125, 59.753174, 54.0 ],
					"presentation" : 1,
					"presentation_rect" : [ 261.656189, 513.105469, 59.753174, 54.0 ]
				}

			}
, 			{
				"box" : 				{
					"args" : [ "/large.arrowbutton/b/2" ],
					"id" : "obj-66",
					"maxclass" : "bpatcher",
					"name" : "o.io.quneo.display.helper.large.arrowbutton.2A-B.maxpat",
					"numinlets" : 1,
					"numoutlets" : 1,
					"outlettype" : [ "FullPacket" ],
					"patching_rect" : [ 712.921875, 522.625, 64.171875, 49.0 ],
					"presentation" : 1,
					"presentation_rect" : [ 659.381226, 464.105469, 64.171875, 49.0 ]
				}

			}
, 			{
				"box" : 				{
					"args" : [ "/large.arrowbutton/a/2" ],
					"id" : "obj-65",
					"maxclass" : "bpatcher",
					"name" : "o.io.quneo.display.helper.large.arrowbutton.2A-B.maxpat",
					"numinlets" : 1,
					"numoutlets" : 1,
					"outlettype" : [ "FullPacket" ],
					"patching_rect" : [ 303.987488, 522.625, 64.171875, 49.0 ],
					"presentation" : 1,
					"presentation_rect" : [ 261.656189, 464.105469, 64.171875, 49.0 ]
				}

			}
, 			{
				"box" : 				{
					"args" : [ "/disc/b" ],
					"id" : "obj-64",
					"maxclass" : "bpatcher",
					"name" : "o.io.quneo.display.helper.disc.maxpat",
					"numinlets" : 1,
					"numoutlets" : 1,
					"outlettype" : [ "FullPacket" ],
					"patching_rect" : [ 176.542236, 320.615234, 122.0, 110.0 ],
					"presentation" : 1,
					"presentation_rect" : [ 144.791687, 282.370117, 121.0, 104.509766 ]
				}

			}
, 			{
				"box" : 				{
					"args" : [ "/disc/a" ],
					"id" : "obj-63",
					"maxclass" : "bpatcher",
					"name" : "o.io.quneo.display.helper.disc.maxpat",
					"numinlets" : 1,
					"numoutlets" : 1,
					"outlettype" : [ "FullPacket" ],
					"patching_rect" : [ -0.243652, 320.615234, 122.0, 110.0 ],
					"presentation" : 1,
					"presentation_rect" : [ 15.425049, 282.370117, 122.0, 110.0 ]
				}

			}
, 			{
				"box" : 				{
					"args" : [ "/arrowbutton/a/1" ],
					"id" : "obj-54",
					"maxclass" : "bpatcher",
					"name" : "o.io.quneo.display.helper.arrowbutton.1A-D.maxpat",
					"numinlets" : 1,
					"numoutlets" : 1,
					"outlettype" : [ "FullPacket" ],
					"patching_rect" : [ 15.0, 263.694336, 54.290527, 38.0 ],
					"presentation" : 1,
					"presentation_rect" : [ 8.668701, 229.5, 40.290527, 38.0 ]
				}

			}
, 			{
				"box" : 				{
					"args" : [ "/arrowbutton/a/2" ],
					"id" : "obj-58",
					"maxclass" : "bpatcher",
					"name" : "o.io.quneo.display.helper.arrowbutton.1A-D.maxpat",
					"numinlets" : 1,
					"numoutlets" : 1,
					"outlettype" : [ "FullPacket" ],
					"patching_rect" : [ 15.0, 207.625, 54.290527, 38.0 ],
					"presentation" : 1,
					"presentation_rect" : [ 8.668701, 175.0, 40.290527, 38.0 ]
				}

			}
, 			{
				"box" : 				{
					"args" : [ "/arrowbutton/a/3" ],
					"id" : "obj-49",
					"maxclass" : "bpatcher",
					"name" : "o.io.quneo.display.helper.arrowbutton.1A-D.maxpat",
					"numinlets" : 1,
					"numoutlets" : 1,
					"outlettype" : [ "FullPacket" ],
					"patching_rect" : [ 15.0, 148.625, 54.290527, 38.0 ],
					"presentation" : 1,
					"presentation_rect" : [ 8.668701, 120.75, 40.290527, 38.0 ]
				}

			}
, 			{
				"box" : 				{
					"args" : [ "/arrowbutton/b/4" ],
					"id" : "obj-45",
					"maxclass" : "bpatcher",
					"name" : "o.io.quneo.display.helper.arrowbutton.2A-D.maxpat",
					"numinlets" : 1,
					"numoutlets" : 1,
					"outlettype" : [ "FullPacket" ],
					"patching_rect" : [ 69.290527, 93.5, 52.171875, 40.0 ],
					"presentation" : 1,
					"presentation_rect" : [ 48.959229, 69.5, 37.171875, 38.0 ]
				}

			}
, 			{
				"box" : 				{
					"args" : [ "/arrowbutton/b/3" ],
					"id" : "obj-46",
					"maxclass" : "bpatcher",
					"name" : "o.io.quneo.display.helper.arrowbutton.2A-D.maxpat",
					"numinlets" : 1,
					"numoutlets" : 1,
					"outlettype" : [ "FullPacket" ],
					"patching_rect" : [ 69.290527, 148.625, 52.171875, 40.0 ],
					"presentation" : 1,
					"presentation_rect" : [ 48.959229, 120.75, 37.171875, 31.0 ]
				}

			}
, 			{
				"box" : 				{
					"args" : [ "/arrowbutton/b/2" ],
					"id" : "obj-43",
					"maxclass" : "bpatcher",
					"name" : "o.io.quneo.display.helper.arrowbutton.2A-D.maxpat",
					"numinlets" : 1,
					"numoutlets" : 1,
					"outlettype" : [ "FullPacket" ],
					"patching_rect" : [ 69.290527, 207.625, 52.171875, 40.0 ],
					"presentation" : 1,
					"presentation_rect" : [ 48.959229, 175.0, 37.171875, 32.0 ]
				}

			}
, 			{
				"box" : 				{
					"args" : [ "/arrowbutton/b/1" ],
					"id" : "obj-40",
					"maxclass" : "bpatcher",
					"name" : "o.io.quneo.display.helper.arrowbutton.2A-D.maxpat",
					"numinlets" : 1,
					"numoutlets" : 1,
					"outlettype" : [ "FullPacket" ],
					"patching_rect" : [ 69.290527, 263.694336, 52.171875, 40.0 ],
					"presentation" : 1,
					"presentation_rect" : [ 48.959229, 229.5, 37.171875, 32.0 ]
				}

			}
, 			{
				"box" : 				{
					"args" : [ "/slider/long" ],
					"id" : "obj-61",
					"maxclass" : "bpatcher",
					"name" : "o.io.quneo.display.helper.longslide.maxpat",
					"numinlets" : 1,
					"numoutlets" : 1,
					"outlettype" : [ "FullPacket" ],
					"patching_rect" : [ 363.740662, 589.125, 341.5, 50.0 ],
					"presentation" : 1,
					"presentation_rect" : [ 325.828064, 494.625, 335.5, 50.0 ]
				}

			}
, 			{
				"box" : 				{
					"args" : [ "/slider/1" ],
					"id" : "obj-56",
					"maxclass" : "bpatcher",
					"name" : "o.io.quneo.display.helper.slide.1-4.maxpat",
					"numinlets" : 1,
					"numoutlets" : 1,
					"outlettype" : [ "FullPacket" ],
					"patching_rect" : [ 114.961487, 253.5, 172.077026, 38.0 ],
					"presentation" : 1,
					"presentation_rect" : [ 94.129639, 229.5, 172.077026, 38.0 ]
				}

			}
, 			{
				"box" : 				{
					"args" : [ "/slider/2" ],
					"id" : "obj-57",
					"maxclass" : "bpatcher",
					"name" : "o.io.quneo.display.helper.slide.1-4.maxpat",
					"numinlets" : 1,
					"numoutlets" : 1,
					"outlettype" : [ "FullPacket" ],
					"patching_rect" : [ 121.462402, 198.0, 172.077026, 38.0 ],
					"presentation" : 1,
					"presentation_rect" : [ 94.129639, 175.0, 172.077026, 38.0 ]
				}

			}
, 			{
				"box" : 				{
					"args" : [ "/slider/3" ],
					"id" : "obj-55",
					"maxclass" : "bpatcher",
					"name" : "o.io.quneo.display.helper.slide.1-4.maxpat",
					"numinlets" : 1,
					"numoutlets" : 1,
					"outlettype" : [ "FullPacket" ],
					"patching_rect" : [ 121.462402, 141.5, 172.077026, 38.0 ],
					"presentation" : 1,
					"presentation_rect" : [ 94.129639, 120.75, 172.077026, 38.0 ]
				}

			}
, 			{
				"box" : 				{
					"args" : [ "/slider/4" ],
					"id" : "obj-53",
					"maxclass" : "bpatcher",
					"name" : "o.io.quneo.display.helper.slide.1-4.maxpat",
					"numinlets" : 1,
					"numoutlets" : 1,
					"outlettype" : [ "FullPacket" ],
					"patching_rect" : [ 114.961487, 93.5, 172.077026, 38.0 ],
					"presentation" : 1,
					"presentation_rect" : [ 94.129639, 69.5, 172.077026, 38.0 ]
				}

			}
, 			{
				"box" : 				{
					"args" : [ "/slider/d" ],
					"id" : "obj-52",
					"maxclass" : "bpatcher",
					"name" : "o.io.quneo.display.helper.slide.A-D.maxpat",
					"numinlets" : 1,
					"numoutlets" : 1,
					"outlettype" : [ "FullPacket" ],
					"patching_rect" : [ 213.084473, 484.125, 48.915527, 159.0 ],
					"presentation" : 1,
					"presentation_rect" : [ 203.753174, 395.125, 48.915527, 159.0 ]
				}

			}
, 			{
				"box" : 				{
					"args" : [ "/slider/c" ],
					"id" : "obj-51",
					"maxclass" : "bpatcher",
					"name" : "o.io.quneo.display.helper.slide.A-D.maxpat",
					"numinlets" : 1,
					"numoutlets" : 1,
					"outlettype" : [ "FullPacket" ],
					"patching_rect" : [ 158.122986, 484.125, 48.915527, 159.0 ],
					"presentation" : 1,
					"presentation_rect" : [ 144.791687, 395.125, 48.915527, 159.0 ]
				}

			}
, 			{
				"box" : 				{
					"args" : [ "/slider/b" ],
					"id" : "obj-50",
					"maxclass" : "bpatcher",
					"name" : "o.io.quneo.display.helper.slide.A-D.maxpat",
					"numinlets" : 1,
					"numoutlets" : 1,
					"outlettype" : [ "FullPacket" ],
					"patching_rect" : [ 99.54541, 484.125, 48.915527, 159.0 ],
					"presentation" : 1,
					"presentation_rect" : [ 83.214111, 395.125, 48.915527, 159.0 ]
				}

			}
, 			{
				"box" : 				{
					"args" : [ "/slider/a" ],
					"id" : "obj-42",
					"maxclass" : "bpatcher",
					"name" : "o.io.quneo.display.helper.slide.A-D.maxpat",
					"numinlets" : 1,
					"numoutlets" : 1,
					"outlettype" : [ "FullPacket" ],
					"patching_rect" : [ 36.298584, 484.125, 48.915527, 159.0 ],
					"presentation" : 1,
					"presentation_rect" : [ 25.967285, 395.125, 48.915527, 159.0 ]
				}

			}
, 			{
				"box" : 				{
					"args" : [ "/pad/d/1" ],
					"id" : "obj-25",
					"maxclass" : "bpatcher",
					"name" : "o.io.quneo.display.helper.pad.maxpat",
					"numinlets" : 1,
					"numoutlets" : 1,
					"outlettype" : [ "FullPacket" ],
					"patching_rect" : [ 669.331299, 379.5, 114.34375, 98.25 ],
					"presentation" : 1,
					"presentation_rect" : [ 605.0, 365.855469, 114.34375, 98.25 ]
				}

			}
, 			{
				"box" : 				{
					"args" : [ "/pad/c/1" ],
					"id" : "obj-33",
					"maxclass" : "bpatcher",
					"name" : "o.io.quneo.display.helper.pad.maxpat",
					"numinlets" : 1,
					"numoutlets" : 1,
					"outlettype" : [ "FullPacket" ],
					"patching_rect" : [ 554.987488, 379.5, 114.34375, 98.25 ],
					"presentation" : 1,
					"presentation_rect" : [ 490.65625, 365.855469, 114.34375, 98.25 ]
				}

			}
, 			{
				"box" : 				{
					"args" : [ "/pad/b/1" ],
					"id" : "obj-34",
					"maxclass" : "bpatcher",
					"name" : "o.io.quneo.display.helper.pad.maxpat",
					"numinlets" : 1,
					"numoutlets" : 1,
					"outlettype" : [ "FullPacket" ],
					"patching_rect" : [ 440.331238, 382.365234, 114.34375, 98.25 ],
					"presentation" : 1,
					"presentation_rect" : [ 376.0, 365.855469, 114.34375, 98.25 ]
				}

			}
, 			{
				"box" : 				{
					"args" : [ "/pad/a/1" ],
					"id" : "obj-35",
					"maxclass" : "bpatcher",
					"name" : "o.io.quneo.display.helper.pad.maxpat",
					"numinlets" : 1,
					"numoutlets" : 1,
					"outlettype" : [ "FullPacket" ],
					"patching_rect" : [ 325.987488, 382.365234, 114.34375, 98.25 ],
					"presentation" : 1,
					"presentation_rect" : [ 261.656189, 365.855469, 114.34375, 98.25 ]
				}

			}
, 			{
				"box" : 				{
					"args" : [ "/pad/d/2" ],
					"id" : "obj-36",
					"maxclass" : "bpatcher",
					"name" : "o.io.quneo.display.helper.pad.maxpat",
					"numinlets" : 1,
					"numoutlets" : 1,
					"outlettype" : [ "FullPacket" ],
					"patching_rect" : [ 669.331299, 273.5, 114.34375, 98.25 ],
					"presentation" : 1,
					"presentation_rect" : [ 605.0, 245.990234, 114.34375, 98.25 ]
				}

			}
, 			{
				"box" : 				{
					"args" : [ "/pad/c/2" ],
					"id" : "obj-37",
					"maxclass" : "bpatcher",
					"name" : "o.io.quneo.display.helper.pad.maxpat",
					"numinlets" : 1,
					"numoutlets" : 1,
					"outlettype" : [ "FullPacket" ],
					"patching_rect" : [ 554.987488, 273.5, 114.34375, 98.25 ],
					"presentation" : 1,
					"presentation_rect" : [ 490.65625, 245.990234, 114.34375, 98.25 ]
				}

			}
, 			{
				"box" : 				{
					"args" : [ "/pad/b/2" ],
					"id" : "obj-38",
					"maxclass" : "bpatcher",
					"name" : "o.io.quneo.display.helper.pad.maxpat",
					"numinlets" : 1,
					"numoutlets" : 1,
					"outlettype" : [ "FullPacket" ],
					"patching_rect" : [ 440.331238, 273.5, 114.34375, 98.25 ],
					"presentation" : 1,
					"presentation_rect" : [ 376.0, 245.990234, 114.34375, 98.25 ]
				}

			}
, 			{
				"box" : 				{
					"args" : [ "/pad/a/2" ],
					"id" : "obj-39",
					"maxclass" : "bpatcher",
					"name" : "o.io.quneo.display.helper.pad.maxpat",
					"numinlets" : 1,
					"numoutlets" : 1,
					"outlettype" : [ "FullPacket" ],
					"patching_rect" : [ 325.987488, 273.5, 114.34375, 98.25 ],
					"presentation" : 1,
					"presentation_rect" : [ 261.65625, 245.990234, 114.34375, 98.25 ]
				}

			}
, 			{
				"box" : 				{
					"args" : [ "/pad/d/3" ],
					"id" : "obj-4",
					"maxclass" : "bpatcher",
					"name" : "o.io.quneo.display.helper.pad.maxpat",
					"numinlets" : 1,
					"numoutlets" : 1,
					"outlettype" : [ "FullPacket" ],
					"patching_rect" : [ 669.331299, 167.875, 114.34375, 98.25 ],
					"presentation" : 1,
					"presentation_rect" : [ 605.0, 134.875, 114.34375, 98.25 ]
				}

			}
, 			{
				"box" : 				{
					"args" : [ "/pad/c/3" ],
					"id" : "obj-8",
					"maxclass" : "bpatcher",
					"name" : "o.io.quneo.display.helper.pad.maxpat",
					"numinlets" : 1,
					"numoutlets" : 1,
					"outlettype" : [ "FullPacket" ],
					"patching_rect" : [ 554.987488, 167.875, 114.34375, 98.25 ],
					"presentation" : 1,
					"presentation_rect" : [ 490.65625, 134.875, 114.34375, 98.25 ]
				}

			}
, 			{
				"box" : 				{
					"args" : [ "/pad/b/3" ],
					"id" : "obj-9",
					"maxclass" : "bpatcher",
					"name" : "o.io.quneo.display.helper.pad.maxpat",
					"numinlets" : 1,
					"numoutlets" : 1,
					"outlettype" : [ "FullPacket" ],
					"patching_rect" : [ 440.331238, 167.875, 114.34375, 98.25 ],
					"presentation" : 1,
					"presentation_rect" : [ 376.3125, 136.875, 114.34375, 98.25 ]
				}

			}
, 			{
				"box" : 				{
					"args" : [ "/pad/a/3" ],
					"id" : "obj-11",
					"maxclass" : "bpatcher",
					"name" : "o.io.quneo.display.helper.pad.maxpat",
					"numinlets" : 1,
					"numoutlets" : 1,
					"outlettype" : [ "FullPacket" ],
					"patching_rect" : [ 325.987488, 167.875, 114.34375, 98.25 ],
					"presentation" : 1,
					"presentation_rect" : [ 262.295288, 136.875, 114.34375, 98.25 ]
				}

			}
, 			{
				"box" : 				{
					"args" : [ "/pad/d/4" ],
					"id" : "obj-2",
					"maxclass" : "bpatcher",
					"name" : "o.io.quneo.display.helper.pad.maxpat",
					"numinlets" : 1,
					"numoutlets" : 1,
					"outlettype" : [ "FullPacket" ],
					"patching_rect" : [ 669.331299, 63.375, 114.34375, 98.25 ],
					"presentation" : 1,
					"presentation_rect" : [ 605.0, 22.5, 114.34375, 98.25 ]
				}

			}
, 			{
				"box" : 				{
					"args" : [ "/pad/c/4" ],
					"id" : "obj-3",
					"maxclass" : "bpatcher",
					"name" : "o.io.quneo.display.helper.pad.maxpat",
					"numinlets" : 1,
					"numoutlets" : 1,
					"outlettype" : [ "FullPacket" ],
					"patching_rect" : [ 554.987488, 63.375, 114.34375, 98.25 ],
					"presentation" : 1,
					"presentation_rect" : [ 490.65625, 22.5, 114.34375, 98.25 ]
				}

			}
, 			{
				"box" : 				{
					"args" : [ "/pad/b/4" ],
					"id" : "obj-1",
					"maxclass" : "bpatcher",
					"name" : "o.io.quneo.display.helper.pad.maxpat",
					"numinlets" : 1,
					"numoutlets" : 1,
					"outlettype" : [ "FullPacket" ],
					"patching_rect" : [ 440.331238, 63.375, 114.34375, 98.25 ],
					"presentation" : 1,
					"presentation_rect" : [ 376.3125, 22.5, 114.34375, 98.25 ]
				}

			}
, 			{
				"box" : 				{
					"args" : [ "/pad/a/4" ],
					"id" : "obj-197",
					"maxclass" : "bpatcher",
					"name" : "o.io.quneo.display.helper.pad.maxpat",
					"numinlets" : 1,
					"numoutlets" : 1,
					"outlettype" : [ "FullPacket" ],
					"patching_rect" : [ 325.987488, 63.375, 114.34375, 98.25 ],
					"presentation" : 1,
					"presentation_rect" : [ 266.07489, 22.5, 114.34375, 98.25 ]
				}

			}
, 			{
				"box" : 				{
					"id" : "obj-5",
					"maxclass" : "fpic",
					"numinlets" : 1,
					"numoutlets" : 0,
					"patching_rect" : [ -0.243652, 2.0, 100.0, 50.0 ],
					"pic" : "quneopic.jpg",
					"presentation" : 1,
					"presentation_rect" : [ -9.409424, -13.5, 748.0, 593.0 ]
				}

			}
, 			{
				"box" : 				{
					"fontname" : "Arial",
					"fontsize" : 12.0,
					"id" : "obj-99",
					"maxclass" : "newobj",
					"numinlets" : 1,
					"numoutlets" : 1,
					"outlettype" : [ "" ],
					"patcher" : 					{
						"fileversion" : 1,
						"appversion" : 						{
							"major" : 6,
							"minor" : 1,
							"revision" : 3,
							"architecture" : "x86"
						}
,
						"rect" : [ 164.0, 80.0, 1210.0, 669.0 ],
						"bglocked" : 0,
						"openinpresentation" : 0,
						"default_fontsize" : 12.0,
						"default_fontface" : 0,
						"default_fontname" : "Arial",
						"gridonopen" : 0,
						"gridsize" : [ 15.0, 15.0 ],
						"gridsnaponopen" : 0,
						"statusbarvisible" : 2,
						"toolbarvisible" : 1,
						"boxanimatetime" : 200,
						"imprint" : 0,
						"enablehscroll" : 1,
						"enablevscroll" : 1,
						"devicewidth" : 0.0,
						"description" : "",
						"digest" : "",
						"tags" : "",
						"boxes" : [ 							{
								"box" : 								{
									"fontname" : "Arial",
									"fontsize" : 12.0,
									"id" : "obj-2",
									"maxclass" : "newobj",
									"numinlets" : 5,
									"numoutlets" : 1,
									"outlettype" : [ "bang" ],
									"patcher" : 									{
										"fileversion" : 1,
										"appversion" : 										{
											"major" : 6,
											"minor" : 1,
											"revision" : 3,
											"architecture" : "x86"
										}
,
										"rect" : [ 25.0, 69.0, 640.0, 480.0 ],
										"bglocked" : 0,
										"openinpresentation" : 0,
										"default_fontsize" : 12.0,
										"default_fontface" : 0,
										"default_fontname" : "Arial",
										"gridonopen" : 0,
										"gridsize" : [ 15.0, 15.0 ],
										"gridsnaponopen" : 0,
										"statusbarvisible" : 2,
										"toolbarvisible" : 1,
										"boxanimatetime" : 200,
										"imprint" : 0,
										"enablehscroll" : 1,
										"enablevscroll" : 1,
										"devicewidth" : 0.0,
										"description" : "",
										"digest" : "",
										"tags" : "",
										"boxes" : [ 											{
												"box" : 												{
													"fontname" : "Arial",
													"fontsize" : 12.0,
													"id" : "obj-50",
													"maxclass" : "newobj",
													"numinlets" : 1,
													"numoutlets" : 2,
													"outlettype" : [ "bang", "" ],
													"patching_rect" : [ 251.5, 128.0, 32.5, 20.0 ],
													"text" : "t b l"
												}

											}
, 											{
												"box" : 												{
													"fontname" : "Arial",
													"fontsize" : 12.0,
													"id" : "obj-51",
													"maxclass" : "newobj",
													"numinlets" : 1,
													"numoutlets" : 1,
													"outlettype" : [ "FullPacket" ],
													"patching_rect" : [ 251.5, 100.0, 60.0, 20.0 ],
													"text" : "o.change"
												}

											}
, 											{
												"box" : 												{
													"fontname" : "Arial",
													"fontsize" : 12.0,
													"id" : "obj-52",
													"maxclass" : "newobj",
													"numinlets" : 1,
													"numoutlets" : 2,
													"outlettype" : [ "bang", "" ],
													"patching_rect" : [ 185.0, 128.0, 32.5, 20.0 ],
													"text" : "t b l"
												}

											}
, 											{
												"box" : 												{
													"fontname" : "Arial",
													"fontsize" : 12.0,
													"id" : "obj-53",
													"maxclass" : "newobj",
													"numinlets" : 1,
													"numoutlets" : 1,
													"outlettype" : [ "FullPacket" ],
													"patching_rect" : [ 185.0, 100.0, 60.0, 20.0 ],
													"text" : "o.change"
												}

											}
, 											{
												"box" : 												{
													"fontname" : "Arial",
													"fontsize" : 12.0,
													"id" : "obj-48",
													"maxclass" : "newobj",
													"numinlets" : 1,
													"numoutlets" : 2,
													"outlettype" : [ "bang", "" ],
													"patching_rect" : [ 116.5, 128.0, 32.5, 20.0 ],
													"text" : "t b l"
												}

											}
, 											{
												"box" : 												{
													"fontname" : "Arial",
													"fontsize" : 12.0,
													"id" : "obj-49",
													"maxclass" : "newobj",
													"numinlets" : 1,
													"numoutlets" : 1,
													"outlettype" : [ "FullPacket" ],
													"patching_rect" : [ 116.5, 100.0, 60.0, 20.0 ],
													"text" : "o.change"
												}

											}
, 											{
												"box" : 												{
													"fontname" : "Arial",
													"fontsize" : 12.0,
													"id" : "obj-32",
													"maxclass" : "newobj",
													"numinlets" : 1,
													"numoutlets" : 2,
													"outlettype" : [ "bang", "" ],
													"patching_rect" : [ 322.0, 128.0, 32.5, 20.0 ],
													"text" : "t b l"
												}

											}
, 											{
												"box" : 												{
													"fontname" : "Arial",
													"fontsize" : 12.0,
													"id" : "obj-33",
													"maxclass" : "newobj",
													"numinlets" : 1,
													"numoutlets" : 1,
													"outlettype" : [ "FullPacket" ],
													"patching_rect" : [ 322.0, 100.0, 60.0, 20.0 ],
													"text" : "o.change"
												}

											}
, 											{
												"box" : 												{
													"fontname" : "Arial",
													"fontsize" : 12.0,
													"id" : "obj-31",
													"maxclass" : "newobj",
													"numinlets" : 1,
													"numoutlets" : 2,
													"outlettype" : [ "bang", "" ],
													"patching_rect" : [ 50.0, 128.0, 32.5, 20.0 ],
													"text" : "t b l"
												}

											}
, 											{
												"box" : 												{
													"fontname" : "Arial",
													"fontsize" : 12.0,
													"id" : "obj-22",
													"maxclass" : "newobj",
													"numinlets" : 1,
													"numoutlets" : 1,
													"outlettype" : [ "FullPacket" ],
													"patching_rect" : [ 50.0, 100.0, 60.0, 20.0 ],
													"text" : "o.change"
												}

											}
, 											{
												"box" : 												{
													"comment" : "",
													"id" : "obj-1",
													"maxclass" : "inlet",
													"numinlets" : 0,
													"numoutlets" : 1,
													"outlettype" : [ "" ],
													"patching_rect" : [ 50.0, 40.0, 25.0, 25.0 ]
												}

											}
, 											{
												"box" : 												{
													"comment" : "",
													"id" : "obj-2",
													"maxclass" : "inlet",
													"numinlets" : 0,
													"numoutlets" : 1,
													"outlettype" : [ "" ],
													"patching_rect" : [ 116.5, 40.0, 25.0, 25.0 ]
												}

											}
, 											{
												"box" : 												{
													"comment" : "",
													"id" : "obj-3",
													"maxclass" : "inlet",
													"numinlets" : 0,
													"numoutlets" : 1,
													"outlettype" : [ "" ],
													"patching_rect" : [ 185.0, 40.0, 25.0, 25.0 ]
												}

											}
, 											{
												"box" : 												{
													"comment" : "",
													"id" : "obj-4",
													"maxclass" : "inlet",
													"numinlets" : 0,
													"numoutlets" : 1,
													"outlettype" : [ "" ],
													"patching_rect" : [ 251.5, 40.0, 25.0, 25.0 ]
												}

											}
, 											{
												"box" : 												{
													"comment" : "",
													"id" : "obj-5",
													"maxclass" : "inlet",
													"numinlets" : 0,
													"numoutlets" : 1,
													"outlettype" : [ "" ],
													"patching_rect" : [ 322.0, 40.0, 25.0, 25.0 ]
												}

											}
, 											{
												"box" : 												{
													"comment" : "",
													"id" : "obj-6",
													"maxclass" : "outlet",
													"numinlets" : 1,
													"numoutlets" : 0,
													"patching_rect" : [ 180.0, 208.0, 25.0, 25.0 ]
												}

											}
 ],
										"lines" : [ 											{
												"patchline" : 												{
													"destination" : [ "obj-22", 0 ],
													"disabled" : 0,
													"hidden" : 0,
													"source" : [ "obj-1", 0 ]
												}

											}
, 											{
												"patchline" : 												{
													"destination" : [ "obj-49", 0 ],
													"disabled" : 0,
													"hidden" : 0,
													"source" : [ "obj-2", 0 ]
												}

											}
, 											{
												"patchline" : 												{
													"destination" : [ "obj-31", 0 ],
													"disabled" : 0,
													"hidden" : 0,
													"source" : [ "obj-22", 0 ]
												}

											}
, 											{
												"patchline" : 												{
													"destination" : [ "obj-53", 0 ],
													"disabled" : 0,
													"hidden" : 0,
													"source" : [ "obj-3", 0 ]
												}

											}
, 											{
												"patchline" : 												{
													"destination" : [ "obj-6", 0 ],
													"disabled" : 0,
													"hidden" : 0,
													"source" : [ "obj-31", 1 ]
												}

											}
, 											{
												"patchline" : 												{
													"destination" : [ "obj-6", 0 ],
													"disabled" : 0,
													"hidden" : 0,
													"source" : [ "obj-31", 0 ]
												}

											}
, 											{
												"patchline" : 												{
													"destination" : [ "obj-6", 0 ],
													"disabled" : 0,
													"hidden" : 0,
													"source" : [ "obj-32", 1 ]
												}

											}
, 											{
												"patchline" : 												{
													"destination" : [ "obj-6", 0 ],
													"disabled" : 0,
													"hidden" : 0,
													"source" : [ "obj-32", 0 ]
												}

											}
, 											{
												"patchline" : 												{
													"destination" : [ "obj-32", 0 ],
													"disabled" : 0,
													"hidden" : 0,
													"source" : [ "obj-33", 0 ]
												}

											}
, 											{
												"patchline" : 												{
													"destination" : [ "obj-51", 0 ],
													"disabled" : 0,
													"hidden" : 0,
													"source" : [ "obj-4", 0 ]
												}

											}
, 											{
												"patchline" : 												{
													"destination" : [ "obj-6", 0 ],
													"disabled" : 0,
													"hidden" : 0,
													"source" : [ "obj-48", 1 ]
												}

											}
, 											{
												"patchline" : 												{
													"destination" : [ "obj-6", 0 ],
													"disabled" : 0,
													"hidden" : 0,
													"source" : [ "obj-48", 0 ]
												}

											}
, 											{
												"patchline" : 												{
													"destination" : [ "obj-48", 0 ],
													"disabled" : 0,
													"hidden" : 0,
													"source" : [ "obj-49", 0 ]
												}

											}
, 											{
												"patchline" : 												{
													"destination" : [ "obj-33", 0 ],
													"disabled" : 0,
													"hidden" : 0,
													"source" : [ "obj-5", 0 ]
												}

											}
, 											{
												"patchline" : 												{
													"destination" : [ "obj-6", 0 ],
													"disabled" : 0,
													"hidden" : 0,
													"source" : [ "obj-50", 1 ]
												}

											}
, 											{
												"patchline" : 												{
													"destination" : [ "obj-6", 0 ],
													"disabled" : 0,
													"hidden" : 0,
													"source" : [ "obj-50", 0 ]
												}

											}
, 											{
												"patchline" : 												{
													"destination" : [ "obj-50", 0 ],
													"disabled" : 0,
													"hidden" : 0,
													"source" : [ "obj-51", 0 ]
												}

											}
, 											{
												"patchline" : 												{
													"destination" : [ "obj-6", 0 ],
													"disabled" : 0,
													"hidden" : 0,
													"source" : [ "obj-52", 1 ]
												}

											}
, 											{
												"patchline" : 												{
													"destination" : [ "obj-6", 0 ],
													"disabled" : 0,
													"hidden" : 0,
													"source" : [ "obj-52", 0 ]
												}

											}
, 											{
												"patchline" : 												{
													"destination" : [ "obj-52", 0 ],
													"disabled" : 0,
													"hidden" : 0,
													"source" : [ "obj-53", 0 ]
												}

											}
 ]
									}
,
									"patching_rect" : [ 320.913025, 255.0, 73.0, 20.0 ],
									"saved_object_attributes" : 									{
										"default_fontface" : 0,
										"default_fontname" : "Arial",
										"default_fontsize" : 12.0,
										"description" : "",
										"digest" : "",
										"fontface" : 0,
										"fontname" : "Arial",
										"fontsize" : 12.0,
										"globalpatchername" : "",
										"tags" : ""
									}
,
									"text" : "p others"
								}

							}
, 							{
								"box" : 								{
									"fontname" : "Arial",
									"fontsize" : 12.0,
									"id" : "obj-1",
									"maxclass" : "newobj",
									"numinlets" : 18,
									"numoutlets" : 1,
									"outlettype" : [ "bang" ],
									"patcher" : 									{
										"fileversion" : 1,
										"appversion" : 										{
											"major" : 6,
											"minor" : 1,
											"revision" : 3,
											"architecture" : "x86"
										}
,
										"rect" : [ 50.0, 94.0, 1212.0, 252.0 ],
										"bglocked" : 0,
										"openinpresentation" : 0,
										"default_fontsize" : 12.0,
										"default_fontface" : 0,
										"default_fontname" : "Arial",
										"gridonopen" : 0,
										"gridsize" : [ 15.0, 15.0 ],
										"gridsnaponopen" : 0,
										"statusbarvisible" : 2,
										"toolbarvisible" : 1,
										"boxanimatetime" : 200,
										"imprint" : 0,
										"enablehscroll" : 1,
										"enablevscroll" : 1,
										"devicewidth" : 0.0,
										"description" : "",
										"digest" : "",
										"tags" : "",
										"boxes" : [ 											{
												"box" : 												{
													"fontname" : "Arial",
													"fontsize" : 12.0,
													"id" : "obj-73",
													"maxclass" : "newobj",
													"numinlets" : 1,
													"numoutlets" : 2,
													"outlettype" : [ "bang", "" ],
													"patching_rect" : [ 1133.0, 141.0, 32.5, 20.0 ],
													"text" : "t b l"
												}

											}
, 											{
												"box" : 												{
													"fontname" : "Arial",
													"fontsize" : 12.0,
													"id" : "obj-74",
													"maxclass" : "newobj",
													"numinlets" : 1,
													"numoutlets" : 1,
													"outlettype" : [ "FullPacket" ],
													"patching_rect" : [ 1133.0, 101.0, 60.0, 20.0 ],
													"text" : "o.change"
												}

											}
, 											{
												"box" : 												{
													"fontname" : "Arial",
													"fontsize" : 12.0,
													"id" : "obj-75",
													"maxclass" : "newobj",
													"numinlets" : 1,
													"numoutlets" : 2,
													"outlettype" : [ "bang", "" ],
													"patching_rect" : [ 1073.0, 141.0, 32.5, 20.0 ],
													"text" : "t b l"
												}

											}
, 											{
												"box" : 												{
													"fontname" : "Arial",
													"fontsize" : 12.0,
													"id" : "obj-76",
													"maxclass" : "newobj",
													"numinlets" : 1,
													"numoutlets" : 1,
													"outlettype" : [ "FullPacket" ],
													"patching_rect" : [ 1073.0, 101.0, 60.0, 20.0 ],
													"text" : "o.change"
												}

											}
, 											{
												"box" : 												{
													"fontname" : "Arial",
													"fontsize" : 12.0,
													"id" : "obj-59",
													"maxclass" : "newobj",
													"numinlets" : 1,
													"numoutlets" : 2,
													"outlettype" : [ "bang", "" ],
													"patching_rect" : [ 697.5, 135.0, 32.5, 20.0 ],
													"text" : "t b l"
												}

											}
, 											{
												"box" : 												{
													"fontname" : "Arial",
													"fontsize" : 12.0,
													"id" : "obj-60",
													"maxclass" : "newobj",
													"numinlets" : 1,
													"numoutlets" : 1,
													"outlettype" : [ "FullPacket" ],
													"patching_rect" : [ 697.5, 101.0, 60.0, 20.0 ],
													"text" : "o.change"
												}

											}
, 											{
												"box" : 												{
													"fontname" : "Arial",
													"fontsize" : 12.0,
													"id" : "obj-61",
													"maxclass" : "newobj",
													"numinlets" : 1,
													"numoutlets" : 2,
													"outlettype" : [ "bang", "" ],
													"patching_rect" : [ 404.5, 128.0, 32.5, 20.0 ],
													"text" : "t b l"
												}

											}
, 											{
												"box" : 												{
													"fontname" : "Arial",
													"fontsize" : 12.0,
													"id" : "obj-62",
													"maxclass" : "newobj",
													"numinlets" : 1,
													"numoutlets" : 1,
													"outlettype" : [ "FullPacket" ],
													"patching_rect" : [ 390.75, 101.0, 60.0, 20.0 ],
													"text" : "o.change"
												}

											}
, 											{
												"box" : 												{
													"fontname" : "Arial",
													"fontsize" : 12.0,
													"id" : "obj-63",
													"maxclass" : "newobj",
													"numinlets" : 1,
													"numoutlets" : 2,
													"outlettype" : [ "bang", "" ],
													"patching_rect" : [ 1013.0, 141.0, 32.5, 20.0 ],
													"text" : "t b l"
												}

											}
, 											{
												"box" : 												{
													"fontname" : "Arial",
													"fontsize" : 12.0,
													"id" : "obj-64",
													"maxclass" : "newobj",
													"numinlets" : 1,
													"numoutlets" : 1,
													"outlettype" : [ "FullPacket" ],
													"patching_rect" : [ 1013.0, 101.0, 60.0, 20.0 ],
													"text" : "o.change"
												}

											}
, 											{
												"box" : 												{
													"fontname" : "Arial",
													"fontsize" : 12.0,
													"id" : "obj-65",
													"maxclass" : "newobj",
													"numinlets" : 1,
													"numoutlets" : 2,
													"outlettype" : [ "bang", "" ],
													"patching_rect" : [ 953.0, 141.0, 32.5, 20.0 ],
													"text" : "t b l"
												}

											}
, 											{
												"box" : 												{
													"fontname" : "Arial",
													"fontsize" : 12.0,
													"id" : "obj-66",
													"maxclass" : "newobj",
													"numinlets" : 1,
													"numoutlets" : 1,
													"outlettype" : [ "FullPacket" ],
													"patching_rect" : [ 953.0, 101.0, 60.0, 20.0 ],
													"text" : "o.change"
												}

											}
, 											{
												"box" : 												{
													"fontname" : "Arial",
													"fontsize" : 12.0,
													"id" : "obj-67",
													"maxclass" : "newobj",
													"numinlets" : 1,
													"numoutlets" : 2,
													"outlettype" : [ "bang", "" ],
													"patching_rect" : [ 895.0, 141.0, 32.5, 20.0 ],
													"text" : "t b l"
												}

											}
, 											{
												"box" : 												{
													"fontname" : "Arial",
													"fontsize" : 12.0,
													"id" : "obj-68",
													"maxclass" : "newobj",
													"numinlets" : 1,
													"numoutlets" : 1,
													"outlettype" : [ "FullPacket" ],
													"patching_rect" : [ 895.0, 101.0, 60.0, 20.0 ],
													"text" : "o.change"
												}

											}
, 											{
												"box" : 												{
													"fontname" : "Arial",
													"fontsize" : 12.0,
													"id" : "obj-69",
													"maxclass" : "newobj",
													"numinlets" : 1,
													"numoutlets" : 2,
													"outlettype" : [ "bang", "" ],
													"patching_rect" : [ 835.0, 141.0, 32.5, 20.0 ],
													"text" : "t b l"
												}

											}
, 											{
												"box" : 												{
													"fontname" : "Arial",
													"fontsize" : 12.0,
													"id" : "obj-70",
													"maxclass" : "newobj",
													"numinlets" : 1,
													"numoutlets" : 1,
													"outlettype" : [ "FullPacket" ],
													"patching_rect" : [ 835.0, 101.0, 60.0, 20.0 ],
													"text" : "o.change"
												}

											}
, 											{
												"box" : 												{
													"fontname" : "Arial",
													"fontsize" : 12.0,
													"id" : "obj-71",
													"maxclass" : "newobj",
													"numinlets" : 1,
													"numoutlets" : 2,
													"outlettype" : [ "bang", "" ],
													"patching_rect" : [ 768.0, 129.0, 32.5, 20.0 ],
													"text" : "t b l"
												}

											}
, 											{
												"box" : 												{
													"fontname" : "Arial",
													"fontsize" : 12.0,
													"id" : "obj-72",
													"maxclass" : "newobj",
													"numinlets" : 1,
													"numoutlets" : 1,
													"outlettype" : [ "FullPacket" ],
													"patching_rect" : [ 768.0, 101.0, 60.0, 20.0 ],
													"text" : "o.change"
												}

											}
, 											{
												"box" : 												{
													"fontname" : "Arial",
													"fontsize" : 12.0,
													"id" : "obj-50",
													"maxclass" : "newobj",
													"numinlets" : 1,
													"numoutlets" : 2,
													"outlettype" : [ "bang", "" ],
													"patching_rect" : [ 251.5, 128.0, 32.5, 20.0 ],
													"text" : "t b l"
												}

											}
, 											{
												"box" : 												{
													"fontname" : "Arial",
													"fontsize" : 12.0,
													"id" : "obj-51",
													"maxclass" : "newobj",
													"numinlets" : 1,
													"numoutlets" : 1,
													"outlettype" : [ "FullPacket" ],
													"patching_rect" : [ 251.5, 100.0, 60.0, 20.0 ],
													"text" : "o.change"
												}

											}
, 											{
												"box" : 												{
													"fontname" : "Arial",
													"fontsize" : 12.0,
													"id" : "obj-52",
													"maxclass" : "newobj",
													"numinlets" : 1,
													"numoutlets" : 2,
													"outlettype" : [ "bang", "" ],
													"patching_rect" : [ 185.0, 128.0, 32.5, 20.0 ],
													"text" : "t b l"
												}

											}
, 											{
												"box" : 												{
													"fontname" : "Arial",
													"fontsize" : 12.0,
													"id" : "obj-53",
													"maxclass" : "newobj",
													"numinlets" : 1,
													"numoutlets" : 1,
													"outlettype" : [ "FullPacket" ],
													"patching_rect" : [ 185.0, 100.0, 60.0, 20.0 ],
													"text" : "o.change"
												}

											}
, 											{
												"box" : 												{
													"fontname" : "Arial",
													"fontsize" : 12.0,
													"id" : "obj-48",
													"maxclass" : "newobj",
													"numinlets" : 1,
													"numoutlets" : 2,
													"outlettype" : [ "bang", "" ],
													"patching_rect" : [ 116.5, 128.0, 32.5, 20.0 ],
													"text" : "t b l"
												}

											}
, 											{
												"box" : 												{
													"fontname" : "Arial",
													"fontsize" : 12.0,
													"id" : "obj-49",
													"maxclass" : "newobj",
													"numinlets" : 1,
													"numoutlets" : 1,
													"outlettype" : [ "FullPacket" ],
													"patching_rect" : [ 116.5, 100.0, 60.0, 20.0 ],
													"text" : "o.change"
												}

											}
, 											{
												"box" : 												{
													"fontname" : "Arial",
													"fontsize" : 12.0,
													"id" : "obj-40",
													"maxclass" : "newobj",
													"numinlets" : 1,
													"numoutlets" : 2,
													"outlettype" : [ "bang", "" ],
													"patching_rect" : [ 634.0, 129.0, 32.5, 20.0 ],
													"text" : "t b l"
												}

											}
, 											{
												"box" : 												{
													"fontname" : "Arial",
													"fontsize" : 12.0,
													"id" : "obj-41",
													"maxclass" : "newobj",
													"numinlets" : 1,
													"numoutlets" : 1,
													"outlettype" : [ "FullPacket" ],
													"patching_rect" : [ 634.0, 101.0, 60.0, 20.0 ],
													"text" : "o.change"
												}

											}
, 											{
												"box" : 												{
													"fontname" : "Arial",
													"fontsize" : 12.0,
													"id" : "obj-38",
													"maxclass" : "newobj",
													"numinlets" : 1,
													"numoutlets" : 2,
													"outlettype" : [ "bang", "" ],
													"patching_rect" : [ 574.0, 141.0, 32.5, 20.0 ],
													"text" : "t b l"
												}

											}
, 											{
												"box" : 												{
													"fontname" : "Arial",
													"fontsize" : 12.0,
													"id" : "obj-39",
													"maxclass" : "newobj",
													"numinlets" : 1,
													"numoutlets" : 1,
													"outlettype" : [ "FullPacket" ],
													"patching_rect" : [ 574.0, 101.0, 60.0, 20.0 ],
													"text" : "o.change"
												}

											}
, 											{
												"box" : 												{
													"fontname" : "Arial",
													"fontsize" : 12.0,
													"id" : "obj-36",
													"maxclass" : "newobj",
													"numinlets" : 1,
													"numoutlets" : 2,
													"outlettype" : [ "bang", "" ],
													"patching_rect" : [ 516.0, 141.0, 32.5, 20.0 ],
													"text" : "t b l"
												}

											}
, 											{
												"box" : 												{
													"fontname" : "Arial",
													"fontsize" : 12.0,
													"id" : "obj-37",
													"maxclass" : "newobj",
													"numinlets" : 1,
													"numoutlets" : 1,
													"outlettype" : [ "FullPacket" ],
													"patching_rect" : [ 516.0, 101.0, 60.0, 20.0 ],
													"text" : "o.change"
												}

											}
, 											{
												"box" : 												{
													"fontname" : "Arial",
													"fontsize" : 12.0,
													"id" : "obj-34",
													"maxclass" : "newobj",
													"numinlets" : 1,
													"numoutlets" : 2,
													"outlettype" : [ "bang", "" ],
													"patching_rect" : [ 456.0, 141.0, 32.5, 20.0 ],
													"text" : "t b l"
												}

											}
, 											{
												"box" : 												{
													"fontname" : "Arial",
													"fontsize" : 12.0,
													"id" : "obj-35",
													"maxclass" : "newobj",
													"numinlets" : 1,
													"numoutlets" : 1,
													"outlettype" : [ "FullPacket" ],
													"patching_rect" : [ 456.0, 101.0, 60.0, 20.0 ],
													"text" : "o.change"
												}

											}
, 											{
												"box" : 												{
													"fontname" : "Arial",
													"fontsize" : 12.0,
													"id" : "obj-32",
													"maxclass" : "newobj",
													"numinlets" : 1,
													"numoutlets" : 2,
													"outlettype" : [ "bang", "" ],
													"patching_rect" : [ 322.0, 128.0, 32.5, 20.0 ],
													"text" : "t b l"
												}

											}
, 											{
												"box" : 												{
													"fontname" : "Arial",
													"fontsize" : 12.0,
													"id" : "obj-33",
													"maxclass" : "newobj",
													"numinlets" : 1,
													"numoutlets" : 1,
													"outlettype" : [ "FullPacket" ],
													"patching_rect" : [ 322.0, 100.0, 60.0, 20.0 ],
													"text" : "o.change"
												}

											}
, 											{
												"box" : 												{
													"fontname" : "Arial",
													"fontsize" : 12.0,
													"id" : "obj-31",
													"maxclass" : "newobj",
													"numinlets" : 1,
													"numoutlets" : 2,
													"outlettype" : [ "bang", "" ],
													"patching_rect" : [ 50.0, 128.0, 32.5, 20.0 ],
													"text" : "t b l"
												}

											}
, 											{
												"box" : 												{
													"fontname" : "Arial",
													"fontsize" : 12.0,
													"id" : "obj-22",
													"maxclass" : "newobj",
													"numinlets" : 1,
													"numoutlets" : 1,
													"outlettype" : [ "FullPacket" ],
													"patching_rect" : [ 50.0, 100.0, 60.0, 20.0 ],
													"text" : "o.change"
												}

											}
, 											{
												"box" : 												{
													"comment" : "",
													"id" : "obj-77",
													"maxclass" : "inlet",
													"numinlets" : 0,
													"numoutlets" : 1,
													"outlettype" : [ "" ],
													"patching_rect" : [ 50.0, 40.0, 25.0, 25.0 ]
												}

											}
, 											{
												"box" : 												{
													"comment" : "",
													"id" : "obj-78",
													"maxclass" : "inlet",
													"numinlets" : 0,
													"numoutlets" : 1,
													"outlettype" : [ "" ],
													"patching_rect" : [ 116.5, 40.0, 25.0, 25.0 ]
												}

											}
, 											{
												"box" : 												{
													"comment" : "",
													"id" : "obj-79",
													"maxclass" : "inlet",
													"numinlets" : 0,
													"numoutlets" : 1,
													"outlettype" : [ "" ],
													"patching_rect" : [ 185.0, 40.0, 25.0, 25.0 ]
												}

											}
, 											{
												"box" : 												{
													"comment" : "",
													"id" : "obj-80",
													"maxclass" : "inlet",
													"numinlets" : 0,
													"numoutlets" : 1,
													"outlettype" : [ "" ],
													"patching_rect" : [ 251.5, 40.0, 25.0, 25.0 ]
												}

											}
, 											{
												"box" : 												{
													"comment" : "",
													"id" : "obj-81",
													"maxclass" : "inlet",
													"numinlets" : 0,
													"numoutlets" : 1,
													"outlettype" : [ "" ],
													"patching_rect" : [ 322.0, 40.0, 25.0, 25.0 ]
												}

											}
, 											{
												"box" : 												{
													"comment" : "",
													"id" : "obj-82",
													"maxclass" : "inlet",
													"numinlets" : 0,
													"numoutlets" : 1,
													"outlettype" : [ "" ],
													"patching_rect" : [ 390.75, 40.0, 25.0, 25.0 ]
												}

											}
, 											{
												"box" : 												{
													"comment" : "",
													"id" : "obj-83",
													"maxclass" : "inlet",
													"numinlets" : 0,
													"numoutlets" : 1,
													"outlettype" : [ "" ],
													"patching_rect" : [ 456.0, 40.0, 25.0, 25.0 ]
												}

											}
, 											{
												"box" : 												{
													"comment" : "",
													"id" : "obj-84",
													"maxclass" : "inlet",
													"numinlets" : 0,
													"numoutlets" : 1,
													"outlettype" : [ "" ],
													"patching_rect" : [ 516.0, 40.0, 25.0, 25.0 ]
												}

											}
, 											{
												"box" : 												{
													"comment" : "",
													"id" : "obj-85",
													"maxclass" : "inlet",
													"numinlets" : 0,
													"numoutlets" : 1,
													"outlettype" : [ "" ],
													"patching_rect" : [ 574.0, 40.0, 25.0, 25.0 ]
												}

											}
, 											{
												"box" : 												{
													"comment" : "",
													"id" : "obj-86",
													"maxclass" : "inlet",
													"numinlets" : 0,
													"numoutlets" : 1,
													"outlettype" : [ "" ],
													"patching_rect" : [ 634.0, 40.0, 25.0, 25.0 ]
												}

											}
, 											{
												"box" : 												{
													"comment" : "",
													"id" : "obj-87",
													"maxclass" : "inlet",
													"numinlets" : 0,
													"numoutlets" : 1,
													"outlettype" : [ "" ],
													"patching_rect" : [ 697.5, 40.0, 25.0, 25.0 ]
												}

											}
, 											{
												"box" : 												{
													"comment" : "",
													"id" : "obj-88",
													"maxclass" : "inlet",
													"numinlets" : 0,
													"numoutlets" : 1,
													"outlettype" : [ "" ],
													"patching_rect" : [ 768.0, 40.0, 25.0, 25.0 ]
												}

											}
, 											{
												"box" : 												{
													"comment" : "",
													"id" : "obj-89",
													"maxclass" : "inlet",
													"numinlets" : 0,
													"numoutlets" : 1,
													"outlettype" : [ "" ],
													"patching_rect" : [ 835.0, 40.0, 25.0, 25.0 ]
												}

											}
, 											{
												"box" : 												{
													"comment" : "",
													"id" : "obj-90",
													"maxclass" : "inlet",
													"numinlets" : 0,
													"numoutlets" : 1,
													"outlettype" : [ "" ],
													"patching_rect" : [ 895.0, 40.0, 25.0, 25.0 ]
												}

											}
, 											{
												"box" : 												{
													"comment" : "",
													"id" : "obj-91",
													"maxclass" : "inlet",
													"numinlets" : 0,
													"numoutlets" : 1,
													"outlettype" : [ "" ],
													"patching_rect" : [ 953.0, 40.0, 25.0, 25.0 ]
												}

											}
, 											{
												"box" : 												{
													"comment" : "",
													"id" : "obj-92",
													"maxclass" : "inlet",
													"numinlets" : 0,
													"numoutlets" : 1,
													"outlettype" : [ "" ],
													"patching_rect" : [ 1013.0, 40.0, 25.0, 25.0 ]
												}

											}
, 											{
												"box" : 												{
													"comment" : "",
													"id" : "obj-93",
													"maxclass" : "inlet",
													"numinlets" : 0,
													"numoutlets" : 1,
													"outlettype" : [ "" ],
													"patching_rect" : [ 1073.0, 40.0, 25.0, 25.0 ]
												}

											}
, 											{
												"box" : 												{
													"comment" : "",
													"id" : "obj-94",
													"maxclass" : "inlet",
													"numinlets" : 0,
													"numoutlets" : 1,
													"outlettype" : [ "" ],
													"patching_rect" : [ 1133.0, 40.0, 25.0, 25.0 ]
												}

											}
, 											{
												"box" : 												{
													"comment" : "",
													"id" : "obj-95",
													"maxclass" : "outlet",
													"numinlets" : 1,
													"numoutlets" : 0,
													"patching_rect" : [ 599.277771, 221.0, 25.0, 25.0 ]
												}

											}
 ],
										"lines" : [ 											{
												"patchline" : 												{
													"destination" : [ "obj-31", 0 ],
													"disabled" : 0,
													"hidden" : 0,
													"source" : [ "obj-22", 0 ]
												}

											}
, 											{
												"patchline" : 												{
													"destination" : [ "obj-95", 0 ],
													"disabled" : 0,
													"hidden" : 0,
													"source" : [ "obj-31", 1 ]
												}

											}
, 											{
												"patchline" : 												{
													"destination" : [ "obj-95", 0 ],
													"disabled" : 0,
													"hidden" : 0,
													"source" : [ "obj-31", 0 ]
												}

											}
, 											{
												"patchline" : 												{
													"destination" : [ "obj-95", 0 ],
													"disabled" : 0,
													"hidden" : 0,
													"source" : [ "obj-32", 1 ]
												}

											}
, 											{
												"patchline" : 												{
													"destination" : [ "obj-95", 0 ],
													"disabled" : 0,
													"hidden" : 0,
													"source" : [ "obj-32", 0 ]
												}

											}
, 											{
												"patchline" : 												{
													"destination" : [ "obj-32", 0 ],
													"disabled" : 0,
													"hidden" : 0,
													"source" : [ "obj-33", 0 ]
												}

											}
, 											{
												"patchline" : 												{
													"destination" : [ "obj-95", 0 ],
													"disabled" : 0,
													"hidden" : 0,
													"source" : [ "obj-34", 1 ]
												}

											}
, 											{
												"patchline" : 												{
													"destination" : [ "obj-95", 0 ],
													"disabled" : 0,
													"hidden" : 0,
													"source" : [ "obj-34", 0 ]
												}

											}
, 											{
												"patchline" : 												{
													"destination" : [ "obj-34", 0 ],
													"disabled" : 0,
													"hidden" : 0,
													"source" : [ "obj-35", 0 ]
												}

											}
, 											{
												"patchline" : 												{
													"destination" : [ "obj-95", 0 ],
													"disabled" : 0,
													"hidden" : 0,
													"source" : [ "obj-36", 1 ]
												}

											}
, 											{
												"patchline" : 												{
													"destination" : [ "obj-95", 0 ],
													"disabled" : 0,
													"hidden" : 0,
													"source" : [ "obj-36", 0 ]
												}

											}
, 											{
												"patchline" : 												{
													"destination" : [ "obj-36", 0 ],
													"disabled" : 0,
													"hidden" : 0,
													"source" : [ "obj-37", 0 ]
												}

											}
, 											{
												"patchline" : 												{
													"destination" : [ "obj-95", 0 ],
													"disabled" : 0,
													"hidden" : 0,
													"source" : [ "obj-38", 1 ]
												}

											}
, 											{
												"patchline" : 												{
													"destination" : [ "obj-95", 0 ],
													"disabled" : 0,
													"hidden" : 0,
													"source" : [ "obj-38", 0 ]
												}

											}
, 											{
												"patchline" : 												{
													"destination" : [ "obj-38", 0 ],
													"disabled" : 0,
													"hidden" : 0,
													"source" : [ "obj-39", 0 ]
												}

											}
, 											{
												"patchline" : 												{
													"destination" : [ "obj-95", 0 ],
													"disabled" : 0,
													"hidden" : 0,
													"source" : [ "obj-40", 1 ]
												}

											}
, 											{
												"patchline" : 												{
													"destination" : [ "obj-95", 0 ],
													"disabled" : 0,
													"hidden" : 0,
													"source" : [ "obj-40", 0 ]
												}

											}
, 											{
												"patchline" : 												{
													"destination" : [ "obj-40", 0 ],
													"disabled" : 0,
													"hidden" : 0,
													"source" : [ "obj-41", 0 ]
												}

											}
, 											{
												"patchline" : 												{
													"destination" : [ "obj-95", 0 ],
													"disabled" : 0,
													"hidden" : 0,
													"source" : [ "obj-48", 1 ]
												}

											}
, 											{
												"patchline" : 												{
													"destination" : [ "obj-95", 0 ],
													"disabled" : 0,
													"hidden" : 0,
													"source" : [ "obj-48", 0 ]
												}

											}
, 											{
												"patchline" : 												{
													"destination" : [ "obj-48", 0 ],
													"disabled" : 0,
													"hidden" : 0,
													"source" : [ "obj-49", 0 ]
												}

											}
, 											{
												"patchline" : 												{
													"destination" : [ "obj-95", 0 ],
													"disabled" : 0,
													"hidden" : 0,
													"source" : [ "obj-50", 1 ]
												}

											}
, 											{
												"patchline" : 												{
													"destination" : [ "obj-95", 0 ],
													"disabled" : 0,
													"hidden" : 0,
													"source" : [ "obj-50", 0 ]
												}

											}
, 											{
												"patchline" : 												{
													"destination" : [ "obj-50", 0 ],
													"disabled" : 0,
													"hidden" : 0,
													"source" : [ "obj-51", 0 ]
												}

											}
, 											{
												"patchline" : 												{
													"destination" : [ "obj-95", 0 ],
													"disabled" : 0,
													"hidden" : 0,
													"source" : [ "obj-52", 1 ]
												}

											}
, 											{
												"patchline" : 												{
													"destination" : [ "obj-95", 0 ],
													"disabled" : 0,
													"hidden" : 0,
													"source" : [ "obj-52", 0 ]
												}

											}
, 											{
												"patchline" : 												{
													"destination" : [ "obj-52", 0 ],
													"disabled" : 0,
													"hidden" : 0,
													"source" : [ "obj-53", 0 ]
												}

											}
, 											{
												"patchline" : 												{
													"destination" : [ "obj-95", 0 ],
													"disabled" : 0,
													"hidden" : 0,
													"source" : [ "obj-59", 1 ]
												}

											}
, 											{
												"patchline" : 												{
													"destination" : [ "obj-95", 0 ],
													"disabled" : 0,
													"hidden" : 0,
													"source" : [ "obj-59", 0 ]
												}

											}
, 											{
												"patchline" : 												{
													"destination" : [ "obj-59", 0 ],
													"disabled" : 0,
													"hidden" : 0,
													"source" : [ "obj-60", 0 ]
												}

											}
, 											{
												"patchline" : 												{
													"destination" : [ "obj-95", 0 ],
													"disabled" : 0,
													"hidden" : 0,
													"source" : [ "obj-61", 1 ]
												}

											}
, 											{
												"patchline" : 												{
													"destination" : [ "obj-95", 0 ],
													"disabled" : 0,
													"hidden" : 0,
													"source" : [ "obj-61", 0 ]
												}

											}
, 											{
												"patchline" : 												{
													"destination" : [ "obj-61", 0 ],
													"disabled" : 0,
													"hidden" : 0,
													"source" : [ "obj-62", 0 ]
												}

											}
, 											{
												"patchline" : 												{
													"destination" : [ "obj-95", 0 ],
													"disabled" : 0,
													"hidden" : 0,
													"source" : [ "obj-63", 1 ]
												}

											}
, 											{
												"patchline" : 												{
													"destination" : [ "obj-95", 0 ],
													"disabled" : 0,
													"hidden" : 0,
													"source" : [ "obj-63", 0 ]
												}

											}
, 											{
												"patchline" : 												{
													"destination" : [ "obj-63", 0 ],
													"disabled" : 0,
													"hidden" : 0,
													"source" : [ "obj-64", 0 ]
												}

											}
, 											{
												"patchline" : 												{
													"destination" : [ "obj-95", 0 ],
													"disabled" : 0,
													"hidden" : 0,
													"source" : [ "obj-65", 1 ]
												}

											}
, 											{
												"patchline" : 												{
													"destination" : [ "obj-95", 0 ],
													"disabled" : 0,
													"hidden" : 0,
													"source" : [ "obj-65", 0 ]
												}

											}
, 											{
												"patchline" : 												{
													"destination" : [ "obj-65", 0 ],
													"disabled" : 0,
													"hidden" : 0,
													"source" : [ "obj-66", 0 ]
												}

											}
, 											{
												"patchline" : 												{
													"destination" : [ "obj-95", 0 ],
													"disabled" : 0,
													"hidden" : 0,
													"source" : [ "obj-67", 1 ]
												}

											}
, 											{
												"patchline" : 												{
													"destination" : [ "obj-95", 0 ],
													"disabled" : 0,
													"hidden" : 0,
													"source" : [ "obj-67", 0 ]
												}

											}
, 											{
												"patchline" : 												{
													"destination" : [ "obj-67", 0 ],
													"disabled" : 0,
													"hidden" : 0,
													"source" : [ "obj-68", 0 ]
												}

											}
, 											{
												"patchline" : 												{
													"destination" : [ "obj-95", 0 ],
													"disabled" : 0,
													"hidden" : 0,
													"source" : [ "obj-69", 1 ]
												}

											}
, 											{
												"patchline" : 												{
													"destination" : [ "obj-95", 0 ],
													"disabled" : 0,
													"hidden" : 0,
													"source" : [ "obj-69", 0 ]
												}

											}
, 											{
												"patchline" : 												{
													"destination" : [ "obj-69", 0 ],
													"disabled" : 0,
													"hidden" : 0,
													"source" : [ "obj-70", 0 ]
												}

											}
, 											{
												"patchline" : 												{
													"destination" : [ "obj-95", 0 ],
													"disabled" : 0,
													"hidden" : 0,
													"source" : [ "obj-71", 1 ]
												}

											}
, 											{
												"patchline" : 												{
													"destination" : [ "obj-95", 0 ],
													"disabled" : 0,
													"hidden" : 0,
													"source" : [ "obj-71", 0 ]
												}

											}
, 											{
												"patchline" : 												{
													"destination" : [ "obj-71", 0 ],
													"disabled" : 0,
													"hidden" : 0,
													"source" : [ "obj-72", 0 ]
												}

											}
, 											{
												"patchline" : 												{
													"destination" : [ "obj-95", 0 ],
													"disabled" : 0,
													"hidden" : 0,
													"source" : [ "obj-73", 1 ]
												}

											}
, 											{
												"patchline" : 												{
													"destination" : [ "obj-95", 0 ],
													"disabled" : 0,
													"hidden" : 0,
													"source" : [ "obj-73", 0 ]
												}

											}
, 											{
												"patchline" : 												{
													"destination" : [ "obj-73", 0 ],
													"disabled" : 0,
													"hidden" : 0,
													"source" : [ "obj-74", 0 ]
												}

											}
, 											{
												"patchline" : 												{
													"destination" : [ "obj-95", 0 ],
													"disabled" : 0,
													"hidden" : 0,
													"source" : [ "obj-75", 1 ]
												}

											}
, 											{
												"patchline" : 												{
													"destination" : [ "obj-95", 0 ],
													"disabled" : 0,
													"hidden" : 0,
													"source" : [ "obj-75", 0 ]
												}

											}
, 											{
												"patchline" : 												{
													"destination" : [ "obj-75", 0 ],
													"disabled" : 0,
													"hidden" : 0,
													"source" : [ "obj-76", 0 ]
												}

											}
, 											{
												"patchline" : 												{
													"destination" : [ "obj-22", 0 ],
													"disabled" : 0,
													"hidden" : 0,
													"source" : [ "obj-77", 0 ]
												}

											}
, 											{
												"patchline" : 												{
													"destination" : [ "obj-49", 0 ],
													"disabled" : 0,
													"hidden" : 0,
													"source" : [ "obj-78", 0 ]
												}

											}
, 											{
												"patchline" : 												{
													"destination" : [ "obj-53", 0 ],
													"disabled" : 0,
													"hidden" : 0,
													"source" : [ "obj-79", 0 ]
												}

											}
, 											{
												"patchline" : 												{
													"destination" : [ "obj-51", 0 ],
													"disabled" : 0,
													"hidden" : 0,
													"source" : [ "obj-80", 0 ]
												}

											}
, 											{
												"patchline" : 												{
													"destination" : [ "obj-33", 0 ],
													"disabled" : 0,
													"hidden" : 0,
													"source" : [ "obj-81", 0 ]
												}

											}
, 											{
												"patchline" : 												{
													"destination" : [ "obj-62", 0 ],
													"disabled" : 0,
													"hidden" : 0,
													"source" : [ "obj-82", 0 ]
												}

											}
, 											{
												"patchline" : 												{
													"destination" : [ "obj-35", 0 ],
													"disabled" : 0,
													"hidden" : 0,
													"source" : [ "obj-83", 0 ]
												}

											}
, 											{
												"patchline" : 												{
													"destination" : [ "obj-37", 0 ],
													"disabled" : 0,
													"hidden" : 0,
													"source" : [ "obj-84", 0 ]
												}

											}
, 											{
												"patchline" : 												{
													"destination" : [ "obj-39", 0 ],
													"disabled" : 0,
													"hidden" : 0,
													"source" : [ "obj-85", 0 ]
												}

											}
, 											{
												"patchline" : 												{
													"destination" : [ "obj-41", 0 ],
													"disabled" : 0,
													"hidden" : 0,
													"source" : [ "obj-86", 0 ]
												}

											}
, 											{
												"patchline" : 												{
													"destination" : [ "obj-60", 0 ],
													"disabled" : 0,
													"hidden" : 0,
													"source" : [ "obj-87", 0 ]
												}

											}
, 											{
												"patchline" : 												{
													"destination" : [ "obj-72", 0 ],
													"disabled" : 0,
													"hidden" : 0,
													"source" : [ "obj-88", 0 ]
												}

											}
, 											{
												"patchline" : 												{
													"destination" : [ "obj-70", 0 ],
													"disabled" : 0,
													"hidden" : 0,
													"source" : [ "obj-89", 0 ]
												}

											}
, 											{
												"patchline" : 												{
													"destination" : [ "obj-68", 0 ],
													"disabled" : 0,
													"hidden" : 0,
													"source" : [ "obj-90", 0 ]
												}

											}
, 											{
												"patchline" : 												{
													"destination" : [ "obj-66", 0 ],
													"disabled" : 0,
													"hidden" : 0,
													"source" : [ "obj-91", 0 ]
												}

											}
, 											{
												"patchline" : 												{
													"destination" : [ "obj-64", 0 ],
													"disabled" : 0,
													"hidden" : 0,
													"source" : [ "obj-92", 0 ]
												}

											}
, 											{
												"patchline" : 												{
													"destination" : [ "obj-76", 0 ],
													"disabled" : 0,
													"hidden" : 0,
													"source" : [ "obj-93", 0 ]
												}

											}
, 											{
												"patchline" : 												{
													"destination" : [ "obj-74", 0 ],
													"disabled" : 0,
													"hidden" : 0,
													"source" : [ "obj-94", 0 ]
												}

											}
 ]
									}
,
									"patching_rect" : [ 72.41304, 255.0, 248.5, 20.0 ],
									"saved_object_attributes" : 									{
										"default_fontface" : 0,
										"default_fontname" : "Arial",
										"default_fontsize" : 12.0,
										"description" : "",
										"digest" : "",
										"fontface" : 0,
										"fontname" : "Arial",
										"fontsize" : 12.0,
										"globalpatchername" : "",
										"tags" : ""
									}
,
									"text" : "p 16 pads"
								}

							}
, 							{
								"box" : 								{
									"fontname" : "Arial",
									"fontsize" : 12.0,
									"id" : "obj-5",
									"maxclass" : "newobj",
									"numinlets" : 1,
									"numoutlets" : 1,
									"outlettype" : [ "" ],
									"patching_rect" : [ 376.0, 353.0, 55.0, 20.0 ],
									"text" : "o.collect"
								}

							}
, 							{
								"box" : 								{
									"fontname" : "Arial",
									"fontsize" : 12.0,
									"id" : "obj-55",
									"linecount" : 4,
									"maxclass" : "newobj",
									"numinlets" : 24,
									"numoutlets" : 24,
									"outlettype" : [ "", "", "", "", "", "", "", "", "", "", "", "", "", "", "", "", "", "", "", "", "", "", "", "FullPacket" ],
									"patching_rect" : [ 129.5, 100.0, 367.0, 60.0 ],
									"text" : "o.select /pad/a/1 /pad/a/2 /pad/a/3 /pad/a/4 /pad/b/1 /pad/b/2 /pad/b/3 /pad/b/4 /pad/c/4 /pad/c/1 /pad/c/2 /pad/c/3 /pad/c/4 /pad/d/4 /pad/d/1 /pad/d/2 /pad/d/3 /pad/d/4 /slider /arrowbutton /large.arrowbutton /disc /button"
								}

							}
, 							{
								"box" : 								{
									"comment" : "",
									"id" : "obj-97",
									"maxclass" : "inlet",
									"numinlets" : 0,
									"numoutlets" : 1,
									"outlettype" : [ "" ],
									"patching_rect" : [ 129.5, 40.0, 25.0, 25.0 ]
								}

							}
, 							{
								"box" : 								{
									"comment" : "",
									"id" : "obj-98",
									"maxclass" : "outlet",
									"numinlets" : 1,
									"numoutlets" : 0,
									"patching_rect" : [ 411.5, 468.0, 25.0, 25.0 ]
								}

							}
 ],
						"lines" : [ 							{
								"patchline" : 								{
									"destination" : [ "obj-5", 0 ],
									"disabled" : 0,
									"hidden" : 0,
									"source" : [ "obj-1", 0 ]
								}

							}
, 							{
								"patchline" : 								{
									"destination" : [ "obj-5", 0 ],
									"disabled" : 0,
									"hidden" : 0,
									"source" : [ "obj-2", 0 ]
								}

							}
, 							{
								"patchline" : 								{
									"destination" : [ "obj-98", 0 ],
									"disabled" : 0,
									"hidden" : 0,
									"source" : [ "obj-5", 0 ]
								}

							}
, 							{
								"patchline" : 								{
									"destination" : [ "obj-1", 16 ],
									"disabled" : 0,
									"hidden" : 0,
									"source" : [ "obj-55", 16 ]
								}

							}
, 							{
								"patchline" : 								{
									"destination" : [ "obj-1", 15 ],
									"disabled" : 0,
									"hidden" : 0,
									"source" : [ "obj-55", 15 ]
								}

							}
, 							{
								"patchline" : 								{
									"destination" : [ "obj-1", 14 ],
									"disabled" : 0,
									"hidden" : 0,
									"source" : [ "obj-55", 14 ]
								}

							}
, 							{
								"patchline" : 								{
									"destination" : [ "obj-1", 13 ],
									"disabled" : 0,
									"hidden" : 0,
									"source" : [ "obj-55", 13 ]
								}

							}
, 							{
								"patchline" : 								{
									"destination" : [ "obj-1", 12 ],
									"disabled" : 0,
									"hidden" : 0,
									"source" : [ "obj-55", 12 ]
								}

							}
, 							{
								"patchline" : 								{
									"destination" : [ "obj-1", 11 ],
									"disabled" : 0,
									"hidden" : 0,
									"source" : [ "obj-55", 11 ]
								}

							}
, 							{
								"patchline" : 								{
									"destination" : [ "obj-1", 10 ],
									"disabled" : 0,
									"hidden" : 0,
									"source" : [ "obj-55", 10 ]
								}

							}
, 							{
								"patchline" : 								{
									"destination" : [ "obj-1", 9 ],
									"disabled" : 0,
									"hidden" : 0,
									"source" : [ "obj-55", 9 ]
								}

							}
, 							{
								"patchline" : 								{
									"destination" : [ "obj-1", 8 ],
									"disabled" : 0,
									"hidden" : 0,
									"source" : [ "obj-55", 8 ]
								}

							}
, 							{
								"patchline" : 								{
									"destination" : [ "obj-1", 7 ],
									"disabled" : 0,
									"hidden" : 0,
									"source" : [ "obj-55", 7 ]
								}

							}
, 							{
								"patchline" : 								{
									"destination" : [ "obj-1", 6 ],
									"disabled" : 0,
									"hidden" : 0,
									"source" : [ "obj-55", 6 ]
								}

							}
, 							{
								"patchline" : 								{
									"destination" : [ "obj-1", 5 ],
									"disabled" : 0,
									"hidden" : 0,
									"source" : [ "obj-55", 5 ]
								}

							}
, 							{
								"patchline" : 								{
									"destination" : [ "obj-1", 4 ],
									"disabled" : 0,
									"hidden" : 0,
									"source" : [ "obj-55", 4 ]
								}

							}
, 							{
								"patchline" : 								{
									"destination" : [ "obj-1", 3 ],
									"disabled" : 0,
									"hidden" : 0,
									"source" : [ "obj-55", 3 ]
								}

							}
, 							{
								"patchline" : 								{
									"destination" : [ "obj-1", 2 ],
									"disabled" : 0,
									"hidden" : 0,
									"source" : [ "obj-55", 2 ]
								}

							}
, 							{
								"patchline" : 								{
									"destination" : [ "obj-1", 1 ],
									"disabled" : 0,
									"hidden" : 0,
									"source" : [ "obj-55", 1 ]
								}

							}
, 							{
								"patchline" : 								{
									"destination" : [ "obj-1", 0 ],
									"disabled" : 0,
									"hidden" : 0,
									"source" : [ "obj-55", 0 ]
								}

							}
, 							{
								"patchline" : 								{
									"destination" : [ "obj-2", 4 ],
									"disabled" : 0,
									"hidden" : 0,
									"source" : [ "obj-55", 21 ]
								}

							}
, 							{
								"patchline" : 								{
									"destination" : [ "obj-2", 3 ],
									"disabled" : 0,
									"hidden" : 0,
									"source" : [ "obj-55", 20 ]
								}

							}
, 							{
								"patchline" : 								{
									"destination" : [ "obj-2", 2 ],
									"disabled" : 0,
									"hidden" : 0,
									"source" : [ "obj-55", 19 ]
								}

							}
, 							{
								"patchline" : 								{
									"destination" : [ "obj-2", 1 ],
									"disabled" : 0,
									"hidden" : 0,
									"source" : [ "obj-55", 18 ]
								}

							}
, 							{
								"patchline" : 								{
									"destination" : [ "obj-2", 0 ],
									"disabled" : 0,
									"hidden" : 0,
									"source" : [ "obj-55", 17 ]
								}

							}
, 							{
								"patchline" : 								{
									"destination" : [ "obj-55", 0 ],
									"disabled" : 0,
									"hidden" : 0,
									"source" : [ "obj-97", 0 ]
								}

							}
 ]
					}
,
					"patching_rect" : [ 405.159363, 17.0, 153.0, 20.0 ],
					"saved_object_attributes" : 					{
						"default_fontface" : 0,
						"default_fontname" : "Arial",
						"default_fontsize" : 12.0,
						"description" : "",
						"digest" : "",
						"fontface" : 0,
						"fontname" : "Arial",
						"fontsize" : 12.0,
						"globalpatchername" : "",
						"tags" : ""
					}
,
					"text" : "p send-on-change (sort-of)"
				}

			}
 ],
		"lines" : [ 			{
				"patchline" : 				{
					"destination" : [ "obj-7", 0 ],
					"disabled" : 0,
					"hidden" : 0,
					"source" : [ "obj-1", 0 ]
				}

			}
, 			{
				"patchline" : 				{
					"destination" : [ "obj-99", 0 ],
					"disabled" : 0,
					"hidden" : 0,
					"source" : [ "obj-10", 0 ]
				}

			}
, 			{
				"patchline" : 				{
					"destination" : [ "obj-7", 0 ],
					"disabled" : 0,
					"hidden" : 0,
					"source" : [ "obj-11", 0 ]
				}

			}
, 			{
				"patchline" : 				{
					"destination" : [ "obj-7", 0 ],
					"disabled" : 0,
					"hidden" : 0,
					"source" : [ "obj-197", 0 ]
				}

			}
, 			{
				"patchline" : 				{
					"destination" : [ "obj-7", 0 ],
					"disabled" : 0,
					"hidden" : 0,
					"source" : [ "obj-2", 0 ]
				}

			}
, 			{
				"patchline" : 				{
					"destination" : [ "obj-7", 0 ],
					"disabled" : 0,
					"hidden" : 0,
					"source" : [ "obj-25", 0 ]
				}

			}
, 			{
				"patchline" : 				{
					"destination" : [ "obj-7", 0 ],
					"disabled" : 0,
					"hidden" : 0,
					"source" : [ "obj-3", 0 ]
				}

			}
, 			{
				"patchline" : 				{
					"destination" : [ "obj-7", 0 ],
					"disabled" : 0,
					"hidden" : 0,
					"source" : [ "obj-33", 0 ]
				}

			}
, 			{
				"patchline" : 				{
					"destination" : [ "obj-7", 0 ],
					"disabled" : 0,
					"hidden" : 0,
					"source" : [ "obj-34", 0 ]
				}

			}
, 			{
				"patchline" : 				{
					"destination" : [ "obj-7", 0 ],
					"disabled" : 0,
					"hidden" : 0,
					"source" : [ "obj-35", 0 ]
				}

			}
, 			{
				"patchline" : 				{
					"destination" : [ "obj-7", 0 ],
					"disabled" : 0,
					"hidden" : 0,
					"source" : [ "obj-36", 0 ]
				}

			}
, 			{
				"patchline" : 				{
					"destination" : [ "obj-7", 0 ],
					"disabled" : 0,
					"hidden" : 0,
					"source" : [ "obj-37", 0 ]
				}

			}
, 			{
				"patchline" : 				{
					"destination" : [ "obj-7", 0 ],
					"disabled" : 0,
					"hidden" : 0,
					"source" : [ "obj-38", 0 ]
				}

			}
, 			{
				"patchline" : 				{
					"destination" : [ "obj-7", 0 ],
					"disabled" : 0,
					"hidden" : 0,
					"source" : [ "obj-39", 0 ]
				}

			}
, 			{
				"patchline" : 				{
					"destination" : [ "obj-7", 0 ],
					"disabled" : 0,
					"hidden" : 0,
					"source" : [ "obj-4", 0 ]
				}

			}
, 			{
				"patchline" : 				{
					"destination" : [ "obj-7", 0 ],
					"disabled" : 0,
					"hidden" : 0,
					"source" : [ "obj-40", 0 ]
				}

			}
, 			{
				"patchline" : 				{
					"destination" : [ "obj-7", 0 ],
					"disabled" : 0,
					"hidden" : 0,
					"source" : [ "obj-42", 0 ]
				}

			}
, 			{
				"patchline" : 				{
					"destination" : [ "obj-7", 0 ],
					"disabled" : 0,
					"hidden" : 0,
					"source" : [ "obj-43", 0 ]
				}

			}
, 			{
				"patchline" : 				{
					"destination" : [ "obj-7", 0 ],
					"disabled" : 0,
					"hidden" : 0,
					"source" : [ "obj-45", 0 ]
				}

			}
, 			{
				"patchline" : 				{
					"destination" : [ "obj-7", 0 ],
					"disabled" : 0,
					"hidden" : 0,
					"source" : [ "obj-46", 0 ]
				}

			}
, 			{
				"patchline" : 				{
					"destination" : [ "obj-7", 0 ],
					"disabled" : 0,
					"hidden" : 0,
					"source" : [ "obj-48", 0 ]
				}

			}
, 			{
				"patchline" : 				{
					"destination" : [ "obj-7", 0 ],
					"disabled" : 0,
					"hidden" : 0,
					"source" : [ "obj-49", 0 ]
				}

			}
, 			{
				"patchline" : 				{
					"destination" : [ "obj-7", 0 ],
					"disabled" : 0,
					"hidden" : 0,
					"source" : [ "obj-50", 0 ]
				}

			}
, 			{
				"patchline" : 				{
					"destination" : [ "obj-7", 0 ],
					"disabled" : 0,
					"hidden" : 0,
					"source" : [ "obj-51", 0 ]
				}

			}
, 			{
				"patchline" : 				{
					"destination" : [ "obj-7", 0 ],
					"disabled" : 0,
					"hidden" : 0,
					"source" : [ "obj-52", 0 ]
				}

			}
, 			{
				"patchline" : 				{
					"destination" : [ "obj-7", 0 ],
					"disabled" : 0,
					"hidden" : 0,
					"source" : [ "obj-53", 0 ]
				}

			}
, 			{
				"patchline" : 				{
					"destination" : [ "obj-7", 0 ],
					"disabled" : 0,
					"hidden" : 0,
					"source" : [ "obj-54", 0 ]
				}

			}
, 			{
				"patchline" : 				{
					"destination" : [ "obj-7", 0 ],
					"disabled" : 0,
					"hidden" : 0,
					"source" : [ "obj-55", 0 ]
				}

			}
, 			{
				"patchline" : 				{
					"destination" : [ "obj-7", 0 ],
					"disabled" : 0,
					"hidden" : 0,
					"source" : [ "obj-56", 0 ]
				}

			}
, 			{
				"patchline" : 				{
					"destination" : [ "obj-7", 0 ],
					"disabled" : 0,
					"hidden" : 0,
					"source" : [ "obj-57", 0 ]
				}

			}
, 			{
				"patchline" : 				{
					"destination" : [ "obj-7", 0 ],
					"disabled" : 0,
					"hidden" : 0,
					"source" : [ "obj-58", 0 ]
				}

			}
, 			{
				"patchline" : 				{
					"destination" : [ "obj-7", 0 ],
					"disabled" : 0,
					"hidden" : 0,
					"source" : [ "obj-61", 0 ]
				}

			}
, 			{
				"patchline" : 				{
					"destination" : [ "obj-7", 0 ],
					"disabled" : 0,
					"hidden" : 0,
					"source" : [ "obj-63", 0 ]
				}

			}
, 			{
				"patchline" : 				{
					"destination" : [ "obj-7", 0 ],
					"disabled" : 0,
					"hidden" : 0,
					"source" : [ "obj-64", 0 ]
				}

			}
, 			{
				"patchline" : 				{
					"destination" : [ "obj-7", 0 ],
					"disabled" : 0,
					"hidden" : 0,
					"source" : [ "obj-65", 0 ]
				}

			}
, 			{
				"patchline" : 				{
					"destination" : [ "obj-7", 0 ],
					"disabled" : 0,
					"hidden" : 0,
					"source" : [ "obj-66", 0 ]
				}

			}
, 			{
				"patchline" : 				{
					"destination" : [ "obj-7", 0 ],
					"disabled" : 0,
					"hidden" : 0,
					"source" : [ "obj-67", 0 ]
				}

			}
, 			{
				"patchline" : 				{
					"destination" : [ "obj-7", 0 ],
					"disabled" : 0,
					"hidden" : 0,
					"source" : [ "obj-68", 0 ]
				}

			}
, 			{
				"patchline" : 				{
					"destination" : [ "obj-7", 0 ],
					"disabled" : 0,
					"hidden" : 0,
					"source" : [ "obj-69", 0 ]
				}

			}
, 			{
				"patchline" : 				{
					"destination" : [ "obj-13", 0 ],
					"disabled" : 0,
					"hidden" : 0,
					"source" : [ "obj-7", 0 ]
				}

			}
, 			{
				"patchline" : 				{
					"destination" : [ "obj-7", 0 ],
					"disabled" : 0,
					"hidden" : 0,
					"source" : [ "obj-70", 0 ]
				}

			}
, 			{
				"patchline" : 				{
					"destination" : [ "obj-7", 0 ],
					"disabled" : 0,
					"hidden" : 0,
					"source" : [ "obj-71", 0 ]
				}

			}
, 			{
				"patchline" : 				{
					"destination" : [ "obj-7", 0 ],
					"disabled" : 0,
					"hidden" : 0,
					"source" : [ "obj-74", 0 ]
				}

			}
, 			{
				"patchline" : 				{
					"destination" : [ "obj-7", 0 ],
					"disabled" : 0,
					"hidden" : 0,
					"source" : [ "obj-8", 0 ]
				}

			}
, 			{
				"patchline" : 				{
					"destination" : [ "obj-7", 0 ],
					"disabled" : 0,
					"hidden" : 0,
					"source" : [ "obj-9", 0 ]
				}

			}
, 			{
				"patchline" : 				{
					"destination" : [ "obj-1", 0 ],
					"disabled" : 0,
					"hidden" : 0,
					"source" : [ "obj-99", 0 ]
				}

			}
, 			{
				"patchline" : 				{
					"destination" : [ "obj-11", 0 ],
					"disabled" : 0,
					"hidden" : 0,
					"source" : [ "obj-99", 0 ]
				}

			}
, 			{
				"patchline" : 				{
					"destination" : [ "obj-197", 0 ],
					"disabled" : 0,
					"hidden" : 0,
					"source" : [ "obj-99", 0 ]
				}

			}
, 			{
				"patchline" : 				{
					"destination" : [ "obj-2", 0 ],
					"disabled" : 0,
					"hidden" : 0,
					"source" : [ "obj-99", 0 ]
				}

			}
, 			{
				"patchline" : 				{
					"destination" : [ "obj-25", 0 ],
					"disabled" : 0,
					"hidden" : 0,
					"source" : [ "obj-99", 0 ]
				}

			}
, 			{
				"patchline" : 				{
					"destination" : [ "obj-3", 0 ],
					"disabled" : 0,
					"hidden" : 0,
					"source" : [ "obj-99", 0 ]
				}

			}
, 			{
				"patchline" : 				{
					"destination" : [ "obj-33", 0 ],
					"disabled" : 0,
					"hidden" : 0,
					"source" : [ "obj-99", 0 ]
				}

			}
, 			{
				"patchline" : 				{
					"destination" : [ "obj-34", 0 ],
					"disabled" : 0,
					"hidden" : 0,
					"source" : [ "obj-99", 0 ]
				}

			}
, 			{
				"patchline" : 				{
					"destination" : [ "obj-35", 0 ],
					"disabled" : 0,
					"hidden" : 0,
					"source" : [ "obj-99", 0 ]
				}

			}
, 			{
				"patchline" : 				{
					"destination" : [ "obj-36", 0 ],
					"disabled" : 0,
					"hidden" : 0,
					"source" : [ "obj-99", 0 ]
				}

			}
, 			{
				"patchline" : 				{
					"destination" : [ "obj-37", 0 ],
					"disabled" : 0,
					"hidden" : 0,
					"source" : [ "obj-99", 0 ]
				}

			}
, 			{
				"patchline" : 				{
					"destination" : [ "obj-38", 0 ],
					"disabled" : 0,
					"hidden" : 0,
					"source" : [ "obj-99", 0 ]
				}

			}
, 			{
				"patchline" : 				{
					"destination" : [ "obj-39", 0 ],
					"disabled" : 0,
					"hidden" : 0,
					"source" : [ "obj-99", 0 ]
				}

			}
, 			{
				"patchline" : 				{
					"destination" : [ "obj-4", 0 ],
					"disabled" : 0,
					"hidden" : 0,
					"source" : [ "obj-99", 0 ]
				}

			}
, 			{
				"patchline" : 				{
					"destination" : [ "obj-40", 0 ],
					"disabled" : 0,
					"hidden" : 0,
					"source" : [ "obj-99", 0 ]
				}

			}
, 			{
				"patchline" : 				{
					"destination" : [ "obj-42", 0 ],
					"disabled" : 0,
					"hidden" : 0,
					"source" : [ "obj-99", 0 ]
				}

			}
, 			{
				"patchline" : 				{
					"destination" : [ "obj-43", 0 ],
					"disabled" : 0,
					"hidden" : 0,
					"source" : [ "obj-99", 0 ]
				}

			}
, 			{
				"patchline" : 				{
					"destination" : [ "obj-45", 0 ],
					"disabled" : 0,
					"hidden" : 0,
					"source" : [ "obj-99", 0 ]
				}

			}
, 			{
				"patchline" : 				{
					"destination" : [ "obj-46", 0 ],
					"disabled" : 0,
					"hidden" : 0,
					"source" : [ "obj-99", 0 ]
				}

			}
, 			{
				"patchline" : 				{
					"destination" : [ "obj-48", 0 ],
					"disabled" : 0,
					"hidden" : 0,
					"source" : [ "obj-99", 0 ]
				}

			}
, 			{
				"patchline" : 				{
					"destination" : [ "obj-49", 0 ],
					"disabled" : 0,
					"hidden" : 0,
					"source" : [ "obj-99", 0 ]
				}

			}
, 			{
				"patchline" : 				{
					"destination" : [ "obj-50", 0 ],
					"disabled" : 0,
					"hidden" : 0,
					"source" : [ "obj-99", 0 ]
				}

			}
, 			{
				"patchline" : 				{
					"destination" : [ "obj-51", 0 ],
					"disabled" : 0,
					"hidden" : 0,
					"source" : [ "obj-99", 0 ]
				}

			}
, 			{
				"patchline" : 				{
					"destination" : [ "obj-52", 0 ],
					"disabled" : 0,
					"hidden" : 0,
					"source" : [ "obj-99", 0 ]
				}

			}
, 			{
				"patchline" : 				{
					"destination" : [ "obj-53", 0 ],
					"disabled" : 0,
					"hidden" : 0,
					"source" : [ "obj-99", 0 ]
				}

			}
, 			{
				"patchline" : 				{
					"destination" : [ "obj-54", 0 ],
					"disabled" : 0,
					"hidden" : 0,
					"source" : [ "obj-99", 0 ]
				}

			}
, 			{
				"patchline" : 				{
					"destination" : [ "obj-55", 0 ],
					"disabled" : 0,
					"hidden" : 0,
					"source" : [ "obj-99", 0 ]
				}

			}
, 			{
				"patchline" : 				{
					"destination" : [ "obj-56", 0 ],
					"disabled" : 0,
					"hidden" : 0,
					"source" : [ "obj-99", 0 ]
				}

			}
, 			{
				"patchline" : 				{
					"destination" : [ "obj-57", 0 ],
					"disabled" : 0,
					"hidden" : 0,
					"source" : [ "obj-99", 0 ]
				}

			}
, 			{
				"patchline" : 				{
					"destination" : [ "obj-58", 0 ],
					"disabled" : 0,
					"hidden" : 0,
					"source" : [ "obj-99", 0 ]
				}

			}
, 			{
				"patchline" : 				{
					"destination" : [ "obj-61", 0 ],
					"disabled" : 0,
					"hidden" : 0,
					"source" : [ "obj-99", 0 ]
				}

			}
, 			{
				"patchline" : 				{
					"destination" : [ "obj-63", 0 ],
					"disabled" : 0,
					"hidden" : 0,
					"source" : [ "obj-99", 0 ]
				}

			}
, 			{
				"patchline" : 				{
					"destination" : [ "obj-64", 0 ],
					"disabled" : 0,
					"hidden" : 0,
					"source" : [ "obj-99", 0 ]
				}

			}
, 			{
				"patchline" : 				{
					"destination" : [ "obj-65", 0 ],
					"disabled" : 0,
					"hidden" : 0,
					"source" : [ "obj-99", 0 ]
				}

			}
, 			{
				"patchline" : 				{
					"destination" : [ "obj-66", 0 ],
					"disabled" : 0,
					"hidden" : 0,
					"source" : [ "obj-99", 0 ]
				}

			}
, 			{
				"patchline" : 				{
					"destination" : [ "obj-67", 0 ],
					"disabled" : 0,
					"hidden" : 0,
					"source" : [ "obj-99", 0 ]
				}

			}
, 			{
				"patchline" : 				{
					"destination" : [ "obj-68", 0 ],
					"disabled" : 0,
					"hidden" : 0,
					"source" : [ "obj-99", 0 ]
				}

			}
, 			{
				"patchline" : 				{
					"destination" : [ "obj-69", 0 ],
					"disabled" : 0,
					"hidden" : 0,
					"source" : [ "obj-99", 0 ]
				}

			}
, 			{
				"patchline" : 				{
					"destination" : [ "obj-70", 0 ],
					"disabled" : 0,
					"hidden" : 0,
					"source" : [ "obj-99", 0 ]
				}

			}
, 			{
				"patchline" : 				{
					"destination" : [ "obj-71", 0 ],
					"disabled" : 0,
					"hidden" : 0,
					"source" : [ "obj-99", 0 ]
				}

			}
, 			{
				"patchline" : 				{
					"destination" : [ "obj-74", 0 ],
					"disabled" : 0,
					"hidden" : 0,
					"source" : [ "obj-99", 0 ]
				}

			}
, 			{
				"patchline" : 				{
					"destination" : [ "obj-8", 0 ],
					"disabled" : 0,
					"hidden" : 0,
					"source" : [ "obj-99", 0 ]
				}

			}
, 			{
				"patchline" : 				{
					"destination" : [ "obj-9", 0 ],
					"disabled" : 0,
					"hidden" : 0,
					"source" : [ "obj-99", 0 ]
				}

			}
 ],
		"dependency_cache" : [ 			{
				"name" : "quneopic.jpg",
				"bootpath" : "/Users/gabacheker/Documents/CNMAT_Work/CNMAT_GITHUB/CNMAT-odot/abstractions/io/o.io.quneo",
				"patcherrelativepath" : ".",
				"type" : "JPEG",
				"implicit" : 1
			}
, 			{
				"name" : "o.io.quneo.display.helper.pad.maxpat",
				"bootpath" : "/Users/gabacheker/Documents/CNMAT_Work/CNMAT_GITHUB/CNMAT-odot/abstractions/io/o.io.quneo",
				"patcherrelativepath" : ".",
				"type" : "JSON",
				"implicit" : 1
			}
, 			{
				"name" : "green-circle.png",
				"bootpath" : "/Users/gabacheker/Documents/CNMAT_Work/CNMAT_GITHUB/CNMAT-odot/abstractions/io/o.io.quneo",
				"patcherrelativepath" : ".",
				"type" : "PNG ",
				"implicit" : 1
			}
, 			{
				"name" : "yellow-circle.png",
				"bootpath" : "/Users/gabacheker/Documents/CNMAT_Work/CNMAT_GITHUB/CNMAT-odot/abstractions/io/o.io.quneo",
				"patcherrelativepath" : ".",
				"type" : "PNG ",
				"implicit" : 1
			}
, 			{
				"name" : "o.io.quneo.display.helper.slide.A-D.maxpat",
				"bootpath" : "/Users/gabacheker/Documents/CNMAT_Work/CNMAT_GITHUB/CNMAT-odot/abstractions/io/o.io.quneo",
				"patcherrelativepath" : ".",
				"type" : "JSON",
				"implicit" : 1
			}
, 			{
				"name" : "o.io.quneo.display.helper.slide.1-4.maxpat",
				"bootpath" : "/Users/gabacheker/Documents/CNMAT_Work/CNMAT_GITHUB/CNMAT-odot/abstractions/io/o.io.quneo",
				"patcherrelativepath" : ".",
				"type" : "JSON",
				"implicit" : 1
			}
, 			{
				"name" : "o.io.quneo.display.helper.longslide.maxpat",
				"bootpath" : "/Users/gabacheker/Documents/CNMAT_Work/CNMAT_GITHUB/CNMAT-odot/abstractions/io/o.io.quneo",
				"patcherrelativepath" : ".",
				"type" : "JSON",
				"implicit" : 1
			}
, 			{
				"name" : "o.io.quneo.display.helper.arrowbutton.2A-D.maxpat",
				"bootpath" : "/Users/gabacheker/Documents/CNMAT_Work/CNMAT_GITHUB/CNMAT-odot/abstractions/io/o.io.quneo",
				"patcherrelativepath" : ".",
				"type" : "JSON",
				"implicit" : 1
			}
, 			{
				"name" : "o.io.quneo.display.helper.arrowbutton.1A-D.maxpat",
				"bootpath" : "/Users/gabacheker/Documents/CNMAT_Work/CNMAT_GITHUB/CNMAT-odot/abstractions/io/o.io.quneo",
				"patcherrelativepath" : ".",
				"type" : "JSON",
				"implicit" : 1
			}
, 			{
				"name" : "o.io.quneo.display.helper.disc.maxpat",
				"bootpath" : "/Users/gabacheker/Documents/CNMAT_Work/CNMAT_GITHUB/CNMAT-odot/abstractions/io/o.io.quneo",
				"patcherrelativepath" : ".",
				"type" : "JSON",
				"implicit" : 1
			}
, 			{
				"name" : "o.io.quneo.display.helper.large.arrowbutton.2A-B.maxpat",
				"bootpath" : "/Users/gabacheker/Documents/CNMAT_Work/CNMAT_GITHUB/CNMAT-odot/abstractions/io/o.io.quneo",
				"patcherrelativepath" : ".",
				"type" : "JSON",
				"implicit" : 1
			}
, 			{
				"name" : "o.io.quneo.display.helper.large.arrowbutton.1A-B.maxpat",
				"bootpath" : "/Users/gabacheker/Documents/CNMAT_Work/CNMAT_GITHUB/CNMAT-odot/abstractions/io/o.io.quneo",
				"patcherrelativepath" : ".",
				"type" : "JSON",
				"implicit" : 1
			}
, 			{
				"name" : "o.io.quneo.display.helper.button.A.maxpat",
				"bootpath" : "/Users/gabacheker/Documents/CNMAT_Work/CNMAT_GITHUB/CNMAT-odot/abstractions/io/o.io.quneo",
				"patcherrelativepath" : ".",
				"type" : "JSON",
				"implicit" : 1
			}
, 			{
				"name" : "o.io.quneo.display.helper.button.B.maxpat",
				"bootpath" : "/Users/gabacheker/Documents/CNMAT_Work/CNMAT_GITHUB/CNMAT-odot/abstractions/io/o.io.quneo",
				"patcherrelativepath" : ".",
				"type" : "JSON",
				"implicit" : 1
			}
, 			{
				"name" : "o.io.quneo.display.helper.button.C.maxpat",
				"bootpath" : "/Users/gabacheker/Documents/CNMAT_Work/CNMAT_GITHUB/CNMAT-odot/abstractions/io/o.io.quneo",
				"patcherrelativepath" : ".",
				"type" : "JSON",
				"implicit" : 1
			}
, 			{
				"name" : "o.io.quneo.display.helper.rhombusbutton.maxpat",
				"bootpath" : "/Users/gabacheker/Documents/CNMAT_Work/CNMAT_GITHUB/CNMAT-odot/abstractions/io/o.io.quneo",
				"patcherrelativepath" : ".",
				"type" : "JSON",
				"implicit" : 1
			}
, 			{
				"name" : "o.collectwithtimeout.maxpat",
				"bootpath" : "/Users/gabacheker/Documents/maxliB/lib",
				"patcherrelativepath" : "../../../../../../maxliB/lib",
				"type" : "JSON",
				"implicit" : 1
			}
, 			{
				"name" : "o.select.mxo",
				"type" : "iLaX"
			}
, 			{
				"name" : "o.collect.mxo",
				"type" : "iLaX"
			}
, 			{
				"name" : "o.change.mxo",
				"type" : "iLaX"
			}
, 			{
				"name" : "o.pak.mxo",
				"type" : "iLaX"
			}
, 			{
				"name" : "o.route.mxo",
				"type" : "iLaX"
			}
 ]
	}

}
