{
	"patcher" : 	{
		"fileversion" : 1,
		"appversion" : 		{
			"major" : 6,
			"minor" : 1,
			"revision" : 3,
			"architecture" : "x86"
		}
,
		"rect" : [ 105.0, 64.0, 932.0, 721.0 ],
		"bglocked" : 0,
		"openinpresentation" : 1,
		"default_fontsize" : 12.0,
		"default_fontface" : 0,
		"default_fontname" : "Arial",
		"gridonopen" : 0,
		"gridsize" : [ 15.0, 15.0 ],
		"gridsnaponopen" : 0,
		"statusbarvisible" : 2,
		"toolbarvisible" : 1,
		"boxanimatetime" : 200,
		"imprint" : 0,
		"enablehscroll" : 1,
		"enablevscroll" : 1,
		"devicewidth" : 0.0,
		"description" : "",
		"digest" : "",
		"tags" : "",
		"boxes" : [ 			{
				"box" : 				{
					"args" : [ "/arrowbutton/a/4" ],
					"id" : "obj-48",
					"maxclass" : "bpatcher",
					"name" : "o.io.quneo.display.helper.arrow.1A-D.maxpat",
					"numinlets" : 1,
					"numoutlets" : 1,
					"outlettype" : [ "FullPacket" ],
					"patching_rect" : [ 15.0, 93.5, 54.290527, 38.0 ],
					"presentation" : 1,
					"presentation_rect" : [ 8.668701, 69.5, 40.290527, 38.0 ]
				}

			}
, 			{
				"box" : 				{
					"comment" : "",
					"id" : "obj-77",
					"maxclass" : "outlet",
					"numinlets" : 1,
					"numoutlets" : 0,
					"patching_rect" : [ 392.987488, 680.5, 25.0, 25.0 ]
				}

			}
, 			{
				"box" : 				{
					"comment" : "",
					"id" : "obj-76",
					"maxclass" : "inlet",
					"numinlets" : 0,
					"numoutlets" : 1,
					"outlettype" : [ "" ],
					"patching_rect" : [ 415.331238, 2.0, 25.0, 25.0 ]
				}

			}
, 			{
				"box" : 				{
					"args" : [ "/rhombus.button" ],
					"id" : "obj-74",
					"maxclass" : "bpatcher",
					"name" : "o.io.quneo.display.helper.rhombusbutton.maxpat",
					"numinlets" : 1,
					"numoutlets" : 1,
					"outlettype" : [ "FullPacket" ],
					"patching_rect" : [ 121.462402, 430.615234, 48.0, 41.0 ],
					"presentation" : 1,
					"presentation_rect" : [ 110.131104, 360.370117, 48.0, 41.0 ]
				}

			}
, 			{
				"box" : 				{
					"args" : [ "/button/c" ],
					"id" : "obj-71",
					"maxclass" : "bpatcher",
					"name" : "o.io.quneo.display.helper.button.C.maxpat",
					"numinlets" : 1,
					"numoutlets" : 1,
					"outlettype" : [ "FullPacket" ],
					"patching_rect" : [ 206.038513, 35.5, 49.0, 42.0 ],
					"presentation" : 1,
					"presentation_rect" : [ 203.753174, 17.5, 49.0, 42.0 ]
				}

			}
, 			{
				"box" : 				{
					"args" : [ "/button/b" ],
					"id" : "obj-70",
					"maxclass" : "bpatcher",
					"name" : "o.io.quneo.display.helper.button.B.maxpat",
					"numinlets" : 1,
					"numoutlets" : 1,
					"outlettype" : [ "FullPacket" ],
					"patching_rect" : [ 141.038513, 37.0, 42.0, 39.0 ],
					"presentation" : 1,
					"presentation_rect" : [ 150.791687, 17.5, 42.0, 39.0 ]
				}

			}
, 			{
				"box" : 				{
					"args" : [ "/button/a" ],
					"id" : "obj-69",
					"maxclass" : "bpatcher",
					"name" : "o.io.quneo.display.helper.button.A.maxpat",
					"numinlets" : 1,
					"numoutlets" : 1,
					"outlettype" : [ "FullPacket" ],
					"patching_rect" : [ 83.462402, 37.0, 38.0, 37.0 ],
					"presentation" : 1,
					"presentation_rect" : [ 94.129639, 17.5, 38.0, 34.0 ]
				}

			}
, 			{
				"box" : 				{
					"args" : [ "/large.arrowbutton/b/1" ],
					"id" : "obj-68",
					"maxclass" : "bpatcher",
					"name" : "o.io.quneo.display.helper.large.arrowbutton.1A-B.maxpat",
					"numinlets" : 1,
					"numoutlets" : 1,
					"outlettype" : [ "FullPacket" ],
					"patching_rect" : [ 712.921875, 598.625, 64.171875, 54.0 ],
					"presentation" : 1,
					"presentation_rect" : [ 661.590576, 513.105469, 59.753174, 54.0 ]
				}

			}
, 			{
				"box" : 				{
					"args" : [ "/large.arrowbutton/a/1" ],
					"id" : "obj-67",
					"maxclass" : "bpatcher",
					"name" : "o.io.quneo.display.helper.large.arrowbutton.1A-B.maxpat",
					"numinlets" : 1,
					"numoutlets" : 1,
					"outlettype" : [ "FullPacket" ],
					"patching_rect" : [ 303.987488, 589.125, 59.753174, 54.0 ],
					"presentation" : 1,
					"presentation_rect" : [ 261.656189, 513.105469, 59.753174, 54.0 ]
				}

			}
, 			{
				"box" : 				{
					"args" : [ "/large.arrowbutton/b/2" ],
					"id" : "obj-66",
					"maxclass" : "bpatcher",
					"name" : "o.io.quneo.display.helper.large.arrowbutton.2A-B.maxpat",
					"numinlets" : 1,
					"numoutlets" : 1,
					"outlettype" : [ "FullPacket" ],
					"patching_rect" : [ 712.921875, 522.625, 64.171875, 49.0 ],
					"presentation" : 1,
					"presentation_rect" : [ 659.381226, 464.105469, 64.171875, 49.0 ]
				}

			}
, 			{
				"box" : 				{
					"args" : [ "/large.arrowbutton/a/2" ],
					"id" : "obj-65",
					"maxclass" : "bpatcher",
					"name" : "o.io.quneo.display.helper.large.arrowbutton.2A-B.maxpat",
					"numinlets" : 1,
					"numoutlets" : 1,
					"outlettype" : [ "FullPacket" ],
					"patching_rect" : [ 303.987488, 522.625, 64.171875, 49.0 ],
					"presentation" : 1,
					"presentation_rect" : [ 261.656189, 464.105469, 64.171875, 49.0 ]
				}

			}
, 			{
				"box" : 				{
					"args" : [ "/rotor/b" ],
					"id" : "obj-64",
					"maxclass" : "bpatcher",
					"name" : "o.io.quneo.display.helper.rotor.maxpat",
					"numinlets" : 1,
					"numoutlets" : 1,
					"outlettype" : [ "FullPacket" ],
					"patching_rect" : [ 176.542236, 320.615234, 122.0, 110.0 ],
					"presentation" : 1,
					"presentation_rect" : [ 144.791687, 282.370117, 121.0, 104.509766 ]
				}

			}
, 			{
				"box" : 				{
					"args" : [ "/rotor/a" ],
					"id" : "obj-63",
					"maxclass" : "bpatcher",
					"name" : "o.io.quneo.display.helper.rotor.maxpat",
					"numinlets" : 1,
					"numoutlets" : 1,
					"outlettype" : [ "FullPacket" ],
					"patching_rect" : [ -0.243652, 320.615234, 122.0, 110.0 ],
					"presentation" : 1,
					"presentation_rect" : [ 15.425049, 282.370117, 122.0, 110.0 ]
				}

			}
, 			{
				"box" : 				{
					"args" : [ "/arrowbutton/a/1" ],
					"id" : "obj-54",
					"maxclass" : "bpatcher",
					"name" : "o.io.quneo.display.helper.arrow.1A-D.maxpat",
					"numinlets" : 1,
					"numoutlets" : 1,
					"outlettype" : [ "FullPacket" ],
					"patching_rect" : [ 15.0, 263.694336, 54.290527, 38.0 ],
					"presentation" : 1,
					"presentation_rect" : [ 8.668701, 229.5, 40.290527, 38.0 ]
				}

			}
, 			{
				"box" : 				{
					"args" : [ "/arrowbutton/a/2" ],
					"id" : "obj-58",
					"maxclass" : "bpatcher",
					"name" : "o.io.quneo.display.helper.arrow.1A-D.maxpat",
					"numinlets" : 1,
					"numoutlets" : 1,
					"outlettype" : [ "FullPacket" ],
					"patching_rect" : [ 15.0, 207.625, 54.290527, 38.0 ],
					"presentation" : 1,
					"presentation_rect" : [ 8.668701, 175.0, 40.290527, 38.0 ]
				}

			}
, 			{
				"box" : 				{
					"args" : [ "/arrowbutton/a/3" ],
					"id" : "obj-49",
					"maxclass" : "bpatcher",
					"name" : "o.io.quneo.display.helper.arrow.1A-D.maxpat",
					"numinlets" : 1,
					"numoutlets" : 1,
					"outlettype" : [ "FullPacket" ],
					"patching_rect" : [ 15.0, 148.625, 54.290527, 38.0 ],
					"presentation" : 1,
					"presentation_rect" : [ 8.668701, 120.75, 40.290527, 38.0 ]
				}

			}
, 			{
				"box" : 				{
					"args" : [ "/arrowbutton/b/4" ],
					"id" : "obj-45",
					"maxclass" : "bpatcher",
					"name" : "o.io.quneo.display.helper.arrow.2A-D.maxpat",
					"numinlets" : 1,
					"numoutlets" : 1,
					"outlettype" : [ "FullPacket" ],
					"patching_rect" : [ 69.290527, 93.5, 52.171875, 40.0 ],
					"presentation" : 1,
					"presentation_rect" : [ 48.959229, 69.5, 37.171875, 38.0 ]
				}

			}
, 			{
				"box" : 				{
					"args" : [ "/arrowbutton/b/3" ],
					"id" : "obj-46",
					"maxclass" : "bpatcher",
					"name" : "o.io.quneo.display.helper.arrow.2A-D.maxpat",
					"numinlets" : 1,
					"numoutlets" : 1,
					"outlettype" : [ "FullPacket" ],
					"patching_rect" : [ 69.290527, 148.625, 52.171875, 40.0 ],
					"presentation" : 1,
					"presentation_rect" : [ 48.959229, 120.75, 37.171875, 31.0 ]
				}

			}
, 			{
				"box" : 				{
					"args" : [ "/arrowbutton/b/2" ],
					"id" : "obj-43",
					"maxclass" : "bpatcher",
					"name" : "o.io.quneo.display.helper.arrow.2A-D.maxpat",
					"numinlets" : 1,
					"numoutlets" : 1,
					"outlettype" : [ "FullPacket" ],
					"patching_rect" : [ 69.290527, 207.625, 52.171875, 40.0 ],
					"presentation" : 1,
					"presentation_rect" : [ 48.959229, 175.0, 37.171875, 32.0 ]
				}

			}
, 			{
				"box" : 				{
					"args" : [ "/arrowbutton/b/1" ],
					"id" : "obj-40",
					"maxclass" : "bpatcher",
					"name" : "o.io.quneo.display.helper.arrow.2A-D.maxpat",
					"numinlets" : 1,
					"numoutlets" : 1,
					"outlettype" : [ "FullPacket" ],
					"patching_rect" : [ 69.290527, 263.694336, 52.171875, 40.0 ],
					"presentation" : 1,
					"presentation_rect" : [ 48.959229, 229.5, 37.171875, 32.0 ]
				}

			}
, 			{
				"box" : 				{
					"args" : [ "/longslide" ],
					"id" : "obj-61",
					"maxclass" : "bpatcher",
					"name" : "o.io.quneo.display.helper.longslide.maxpat",
					"numinlets" : 1,
					"numoutlets" : 1,
					"outlettype" : [ "FullPacket" ],
					"patching_rect" : [ 371.421875, 548.625, 341.5, 50.0 ],
					"presentation" : 1,
					"presentation_rect" : [ 325.828064, 496.625, 335.5, 50.0 ]
				}

			}
, 			{
				"box" : 				{
					"args" : [ "/slide/1" ],
					"id" : "obj-56",
					"maxclass" : "bpatcher",
					"name" : "o.io.quneo.display.helper.slide.1-4.maxpat",
					"numinlets" : 1,
					"numoutlets" : 1,
					"outlettype" : [ "FullPacket" ],
					"patching_rect" : [ 114.961487, 253.5, 172.077026, 38.0 ],
					"presentation" : 1,
					"presentation_rect" : [ 94.129639, 229.5, 172.077026, 38.0 ]
				}

			}
, 			{
				"box" : 				{
					"args" : [ "/slide/2" ],
					"id" : "obj-57",
					"maxclass" : "bpatcher",
					"name" : "o.io.quneo.display.helper.slide.1-4.maxpat",
					"numinlets" : 1,
					"numoutlets" : 1,
					"outlettype" : [ "FullPacket" ],
					"patching_rect" : [ 121.462402, 198.0, 172.077026, 38.0 ],
					"presentation" : 1,
					"presentation_rect" : [ 94.129639, 175.0, 172.077026, 38.0 ]
				}

			}
, 			{
				"box" : 				{
					"args" : [ "/slide/3" ],
					"id" : "obj-55",
					"maxclass" : "bpatcher",
					"name" : "o.io.quneo.display.helper.slide.1-4.maxpat",
					"numinlets" : 1,
					"numoutlets" : 1,
					"outlettype" : [ "FullPacket" ],
					"patching_rect" : [ 121.462402, 141.5, 172.077026, 38.0 ],
					"presentation" : 1,
					"presentation_rect" : [ 94.129639, 120.75, 172.077026, 38.0 ]
				}

			}
, 			{
				"box" : 				{
					"args" : [ "/slide/4" ],
					"id" : "obj-53",
					"maxclass" : "bpatcher",
					"name" : "o.io.quneo.display.helper.slide.1-4.maxpat",
					"numinlets" : 1,
					"numoutlets" : 1,
					"outlettype" : [ "FullPacket" ],
					"patching_rect" : [ 114.961487, 93.5, 172.077026, 38.0 ],
					"presentation" : 1,
					"presentation_rect" : [ 94.129639, 69.5, 172.077026, 38.0 ]
				}

			}
, 			{
				"box" : 				{
					"args" : [ "/slide/d" ],
					"id" : "obj-52",
					"maxclass" : "bpatcher",
					"name" : "o.io.quneo.display.helper.slide.A-D.maxpat",
					"numinlets" : 1,
					"numoutlets" : 1,
					"outlettype" : [ "FullPacket" ],
					"patching_rect" : [ 213.084473, 484.125, 48.915527, 159.0 ],
					"presentation" : 1,
					"presentation_rect" : [ 203.753174, 395.125, 48.915527, 159.0 ]
				}

			}
, 			{
				"box" : 				{
					"args" : [ "/slide/c" ],
					"id" : "obj-51",
					"maxclass" : "bpatcher",
					"name" : "o.io.quneo.display.helper.slide.A-D.maxpat",
					"numinlets" : 1,
					"numoutlets" : 1,
					"outlettype" : [ "FullPacket" ],
					"patching_rect" : [ 158.122986, 484.125, 48.915527, 159.0 ],
					"presentation" : 1,
					"presentation_rect" : [ 144.791687, 395.125, 48.915527, 159.0 ]
				}

			}
, 			{
				"box" : 				{
					"args" : [ "/slide/b" ],
					"id" : "obj-50",
					"maxclass" : "bpatcher",
					"name" : "o.io.quneo.display.helper.slide.A-D.maxpat",
					"numinlets" : 1,
					"numoutlets" : 1,
					"outlettype" : [ "FullPacket" ],
					"patching_rect" : [ 100.54541, 484.125, 48.915527, 159.0 ],
					"presentation" : 1,
					"presentation_rect" : [ 83.214111, 395.125, 48.915527, 159.0 ]
				}

			}
, 			{
				"box" : 				{
					"args" : [ "/slide/a" ],
					"id" : "obj-42",
					"maxclass" : "bpatcher",
					"name" : "o.io.quneo.display.helper.slide.A-D.maxpat",
					"numinlets" : 1,
					"numoutlets" : 1,
					"outlettype" : [ "FullPacket" ],
					"patching_rect" : [ 36.298584, 484.125, 48.915527, 159.0 ],
					"presentation" : 1,
					"presentation_rect" : [ 26.967285, 395.125, 48.915527, 159.0 ]
				}

			}
, 			{
				"box" : 				{
					"args" : [ "/pad/d/1" ],
					"id" : "obj-25",
					"maxclass" : "bpatcher",
					"name" : "o.io.quneo.display.helper.pad.maxpat",
					"numinlets" : 1,
					"numoutlets" : 1,
					"outlettype" : [ "FullPacket" ],
					"patching_rect" : [ 669.331299, 379.5, 114.34375, 98.25 ],
					"presentation" : 1,
					"presentation_rect" : [ 605.0, 365.855469, 114.34375, 98.25 ]
				}

			}
, 			{
				"box" : 				{
					"args" : [ "/pad/c/1" ],
					"id" : "obj-33",
					"maxclass" : "bpatcher",
					"name" : "o.io.quneo.display.helper.pad.maxpat",
					"numinlets" : 1,
					"numoutlets" : 1,
					"outlettype" : [ "FullPacket" ],
					"patching_rect" : [ 554.987488, 379.5, 114.34375, 98.25 ],
					"presentation" : 1,
					"presentation_rect" : [ 490.65625, 365.855469, 114.34375, 98.25 ]
				}

			}
, 			{
				"box" : 				{
					"args" : [ "/pad/b/1" ],
					"id" : "obj-34",
					"maxclass" : "bpatcher",
					"name" : "o.io.quneo.display.helper.pad.maxpat",
					"numinlets" : 1,
					"numoutlets" : 1,
					"outlettype" : [ "FullPacket" ],
					"patching_rect" : [ 440.331238, 382.365234, 114.34375, 98.25 ],
					"presentation" : 1,
					"presentation_rect" : [ 376.0, 365.855469, 114.34375, 98.25 ]
				}

			}
, 			{
				"box" : 				{
					"args" : [ "/pad/a/1" ],
					"id" : "obj-35",
					"maxclass" : "bpatcher",
					"name" : "o.io.quneo.display.helper.pad.maxpat",
					"numinlets" : 1,
					"numoutlets" : 1,
					"outlettype" : [ "FullPacket" ],
					"patching_rect" : [ 325.987488, 382.365234, 114.34375, 98.25 ],
					"presentation" : 1,
					"presentation_rect" : [ 261.656189, 365.855469, 114.34375, 98.25 ]
				}

			}
, 			{
				"box" : 				{
					"args" : [ "/pad/d/2" ],
					"id" : "obj-36",
					"maxclass" : "bpatcher",
					"name" : "o.io.quneo.display.helper.pad.maxpat",
					"numinlets" : 1,
					"numoutlets" : 1,
					"outlettype" : [ "FullPacket" ],
					"patching_rect" : [ 669.331299, 273.5, 114.34375, 98.25 ],
					"presentation" : 1,
					"presentation_rect" : [ 605.0, 245.990234, 114.34375, 98.25 ]
				}

			}
, 			{
				"box" : 				{
					"args" : [ "/pad/c/2" ],
					"id" : "obj-37",
					"maxclass" : "bpatcher",
					"name" : "o.io.quneo.display.helper.pad.maxpat",
					"numinlets" : 1,
					"numoutlets" : 1,
					"outlettype" : [ "FullPacket" ],
					"patching_rect" : [ 554.987488, 273.5, 114.34375, 98.25 ],
					"presentation" : 1,
					"presentation_rect" : [ 490.65625, 245.990234, 114.34375, 98.25 ]
				}

			}
, 			{
				"box" : 				{
					"args" : [ "/pad/b/2" ],
					"id" : "obj-38",
					"maxclass" : "bpatcher",
					"name" : "o.io.quneo.display.helper.pad.maxpat",
					"numinlets" : 1,
					"numoutlets" : 1,
					"outlettype" : [ "FullPacket" ],
					"patching_rect" : [ 440.331238, 273.5, 114.34375, 98.25 ],
					"presentation" : 1,
					"presentation_rect" : [ 376.0, 245.990234, 114.34375, 98.25 ]
				}

			}
, 			{
				"box" : 				{
					"args" : [ "/pad/a/2" ],
					"id" : "obj-39",
					"maxclass" : "bpatcher",
					"name" : "o.io.quneo.display.helper.pad.maxpat",
					"numinlets" : 1,
					"numoutlets" : 1,
					"outlettype" : [ "FullPacket" ],
					"patching_rect" : [ 325.987488, 273.5, 114.34375, 98.25 ],
					"presentation" : 1,
					"presentation_rect" : [ 261.65625, 245.990234, 114.34375, 98.25 ]
				}

			}
, 			{
				"box" : 				{
					"args" : [ "/pad/d/3" ],
					"id" : "obj-4",
					"maxclass" : "bpatcher",
					"name" : "o.io.quneo.display.helper.pad.maxpat",
					"numinlets" : 1,
					"numoutlets" : 1,
					"outlettype" : [ "FullPacket" ],
					"patching_rect" : [ 669.331299, 167.875, 114.34375, 98.25 ],
					"presentation" : 1,
					"presentation_rect" : [ 605.0, 134.875, 114.34375, 98.25 ]
				}

			}
, 			{
				"box" : 				{
					"args" : [ "/pad/c/3" ],
					"id" : "obj-8",
					"maxclass" : "bpatcher",
					"name" : "o.io.quneo.display.helper.pad.maxpat",
					"numinlets" : 1,
					"numoutlets" : 1,
					"outlettype" : [ "FullPacket" ],
					"patching_rect" : [ 554.987488, 167.875, 114.34375, 98.25 ],
					"presentation" : 1,
					"presentation_rect" : [ 490.65625, 134.875, 114.34375, 98.25 ]
				}

			}
, 			{
				"box" : 				{
					"args" : [ "/pad/b/3" ],
					"id" : "obj-9",
					"maxclass" : "bpatcher",
					"name" : "o.io.quneo.display.helper.pad.maxpat",
					"numinlets" : 1,
					"numoutlets" : 1,
					"outlettype" : [ "FullPacket" ],
					"patching_rect" : [ 440.331238, 167.875, 114.34375, 98.25 ],
					"presentation" : 1,
					"presentation_rect" : [ 376.3125, 136.875, 114.34375, 98.25 ]
				}

			}
, 			{
				"box" : 				{
					"args" : [ "/pad/a/3" ],
					"id" : "obj-11",
					"maxclass" : "bpatcher",
					"name" : "o.io.quneo.display.helper.pad.maxpat",
					"numinlets" : 1,
					"numoutlets" : 1,
					"outlettype" : [ "FullPacket" ],
					"patching_rect" : [ 325.987488, 167.875, 114.34375, 98.25 ],
					"presentation" : 1,
					"presentation_rect" : [ 262.295288, 136.875, 114.34375, 98.25 ]
				}

			}
, 			{
				"box" : 				{
					"args" : [ "/pad/d/4" ],
					"id" : "obj-2",
					"maxclass" : "bpatcher",
					"name" : "o.io.quneo.display.helper.pad.maxpat",
					"numinlets" : 1,
					"numoutlets" : 1,
					"outlettype" : [ "FullPacket" ],
					"patching_rect" : [ 669.331299, 63.375, 114.34375, 98.25 ],
					"presentation" : 1,
					"presentation_rect" : [ 605.0, 22.5, 114.34375, 98.25 ]
				}

			}
, 			{
				"box" : 				{
					"args" : [ "/pad/c/4" ],
					"id" : "obj-3",
					"maxclass" : "bpatcher",
					"name" : "o.io.quneo.display.helper.pad.maxpat",
					"numinlets" : 1,
					"numoutlets" : 1,
					"outlettype" : [ "FullPacket" ],
					"patching_rect" : [ 554.987488, 63.375, 114.34375, 98.25 ],
					"presentation" : 1,
					"presentation_rect" : [ 490.65625, 22.5, 114.34375, 98.25 ]
				}

			}
, 			{
				"box" : 				{
					"args" : [ "/pad/b/4" ],
					"id" : "obj-1",
					"maxclass" : "bpatcher",
					"name" : "o.io.quneo.display.helper.pad.maxpat",
					"numinlets" : 1,
					"numoutlets" : 1,
					"outlettype" : [ "FullPacket" ],
					"patching_rect" : [ 440.331238, 63.375, 114.34375, 98.25 ],
					"presentation" : 1,
					"presentation_rect" : [ 376.3125, 22.5, 114.34375, 98.25 ]
				}

			}
, 			{
				"box" : 				{
					"args" : [ "/pad/a/4" ],
					"id" : "obj-197",
					"maxclass" : "bpatcher",
					"name" : "o.io.quneo.display.helper.pad.maxpat",
					"numinlets" : 1,
					"numoutlets" : 1,
					"outlettype" : [ "FullPacket" ],
					"patching_rect" : [ 325.987488, 63.375, 114.34375, 98.25 ],
					"presentation" : 1,
					"presentation_rect" : [ 266.07489, 22.5, 114.34375, 98.25 ]
				}

			}
, 			{
				"box" : 				{
					"id" : "obj-5",
					"maxclass" : "fpic",
					"numinlets" : 1,
					"numoutlets" : 0,
					"patching_rect" : [ -0.243652, 2.0, 100.0, 50.0 ],
					"pic" : "quneopic.jpg",
					"presentation" : 1,
					"presentation_rect" : [ -9.409424, -13.5, 748.0, 593.0 ]
				}

			}
 ],
		"lines" : [ 			{
				"patchline" : 				{
					"destination" : [ "obj-77", 0 ],
					"disabled" : 0,
					"hidden" : 0,
					"source" : [ "obj-1", 0 ]
				}

			}
, 			{
				"patchline" : 				{
					"destination" : [ "obj-77", 0 ],
					"disabled" : 0,
					"hidden" : 0,
					"source" : [ "obj-11", 0 ]
				}

			}
, 			{
				"patchline" : 				{
					"destination" : [ "obj-77", 0 ],
					"disabled" : 0,
					"hidden" : 0,
					"source" : [ "obj-197", 0 ]
				}

			}
, 			{
				"patchline" : 				{
					"destination" : [ "obj-77", 0 ],
					"disabled" : 0,
					"hidden" : 0,
					"source" : [ "obj-2", 0 ]
				}

			}
, 			{
				"patchline" : 				{
					"destination" : [ "obj-77", 0 ],
					"disabled" : 0,
					"hidden" : 0,
					"source" : [ "obj-25", 0 ]
				}

			}
, 			{
				"patchline" : 				{
					"destination" : [ "obj-77", 0 ],
					"disabled" : 0,
					"hidden" : 0,
					"source" : [ "obj-3", 0 ]
				}

			}
, 			{
				"patchline" : 				{
					"destination" : [ "obj-77", 0 ],
					"disabled" : 0,
					"hidden" : 0,
					"source" : [ "obj-33", 0 ]
				}

			}
, 			{
				"patchline" : 				{
					"destination" : [ "obj-77", 0 ],
					"disabled" : 0,
					"hidden" : 0,
					"source" : [ "obj-34", 0 ]
				}

			}
, 			{
				"patchline" : 				{
					"destination" : [ "obj-77", 0 ],
					"disabled" : 0,
					"hidden" : 0,
					"source" : [ "obj-35", 0 ]
				}

			}
, 			{
				"patchline" : 				{
					"destination" : [ "obj-77", 0 ],
					"disabled" : 0,
					"hidden" : 0,
					"source" : [ "obj-36", 0 ]
				}

			}
, 			{
				"patchline" : 				{
					"destination" : [ "obj-77", 0 ],
					"disabled" : 0,
					"hidden" : 0,
					"source" : [ "obj-37", 0 ]
				}

			}
, 			{
				"patchline" : 				{
					"destination" : [ "obj-77", 0 ],
					"disabled" : 0,
					"hidden" : 0,
					"source" : [ "obj-38", 0 ]
				}

			}
, 			{
				"patchline" : 				{
					"destination" : [ "obj-77", 0 ],
					"disabled" : 0,
					"hidden" : 0,
					"source" : [ "obj-39", 0 ]
				}

			}
, 			{
				"patchline" : 				{
					"destination" : [ "obj-77", 0 ],
					"disabled" : 0,
					"hidden" : 0,
					"source" : [ "obj-4", 0 ]
				}

			}
, 			{
				"patchline" : 				{
					"destination" : [ "obj-77", 0 ],
					"disabled" : 0,
					"hidden" : 0,
					"source" : [ "obj-40", 0 ]
				}

			}
, 			{
				"patchline" : 				{
					"destination" : [ "obj-77", 0 ],
					"disabled" : 0,
					"hidden" : 0,
					"source" : [ "obj-42", 0 ]
				}

			}
, 			{
				"patchline" : 				{
					"destination" : [ "obj-77", 0 ],
					"disabled" : 0,
					"hidden" : 0,
					"source" : [ "obj-43", 0 ]
				}

			}
, 			{
				"patchline" : 				{
					"destination" : [ "obj-77", 0 ],
					"disabled" : 0,
					"hidden" : 0,
					"source" : [ "obj-45", 0 ]
				}

			}
, 			{
				"patchline" : 				{
					"destination" : [ "obj-77", 0 ],
					"disabled" : 0,
					"hidden" : 0,
					"source" : [ "obj-46", 0 ]
				}

			}
, 			{
				"patchline" : 				{
					"destination" : [ "obj-77", 0 ],
					"disabled" : 0,
					"hidden" : 0,
					"source" : [ "obj-48", 0 ]
				}

			}
, 			{
				"patchline" : 				{
					"destination" : [ "obj-77", 0 ],
					"disabled" : 0,
					"hidden" : 0,
					"source" : [ "obj-49", 0 ]
				}

			}
, 			{
				"patchline" : 				{
					"destination" : [ "obj-77", 0 ],
					"disabled" : 0,
					"hidden" : 0,
					"source" : [ "obj-50", 0 ]
				}

			}
, 			{
				"patchline" : 				{
					"destination" : [ "obj-77", 0 ],
					"disabled" : 0,
					"hidden" : 0,
					"source" : [ "obj-51", 0 ]
				}

			}
, 			{
				"patchline" : 				{
					"destination" : [ "obj-77", 0 ],
					"disabled" : 0,
					"hidden" : 0,
					"source" : [ "obj-52", 0 ]
				}

			}
, 			{
				"patchline" : 				{
					"destination" : [ "obj-77", 0 ],
					"disabled" : 0,
					"hidden" : 0,
					"source" : [ "obj-53", 0 ]
				}

			}
, 			{
				"patchline" : 				{
					"destination" : [ "obj-77", 0 ],
					"disabled" : 0,
					"hidden" : 0,
					"source" : [ "obj-54", 0 ]
				}

			}
, 			{
				"patchline" : 				{
					"destination" : [ "obj-77", 0 ],
					"disabled" : 0,
					"hidden" : 0,
					"source" : [ "obj-55", 0 ]
				}

			}
, 			{
				"patchline" : 				{
					"destination" : [ "obj-77", 0 ],
					"disabled" : 0,
					"hidden" : 0,
					"source" : [ "obj-56", 0 ]
				}

			}
, 			{
				"patchline" : 				{
					"destination" : [ "obj-77", 0 ],
					"disabled" : 0,
					"hidden" : 0,
					"source" : [ "obj-57", 0 ]
				}

			}
, 			{
				"patchline" : 				{
					"destination" : [ "obj-77", 0 ],
					"disabled" : 0,
					"hidden" : 0,
					"source" : [ "obj-58", 0 ]
				}

			}
, 			{
				"patchline" : 				{
					"destination" : [ "obj-77", 0 ],
					"disabled" : 0,
					"hidden" : 0,
					"source" : [ "obj-61", 0 ]
				}

			}
, 			{
				"patchline" : 				{
					"destination" : [ "obj-77", 0 ],
					"disabled" : 0,
					"hidden" : 0,
					"source" : [ "obj-63", 0 ]
				}

			}
, 			{
				"patchline" : 				{
					"destination" : [ "obj-77", 0 ],
					"disabled" : 0,
					"hidden" : 0,
					"source" : [ "obj-64", 0 ]
				}

			}
, 			{
				"patchline" : 				{
					"destination" : [ "obj-77", 0 ],
					"disabled" : 0,
					"hidden" : 0,
					"source" : [ "obj-65", 0 ]
				}

			}
, 			{
				"patchline" : 				{
					"destination" : [ "obj-77", 0 ],
					"disabled" : 0,
					"hidden" : 0,
					"source" : [ "obj-66", 0 ]
				}

			}
, 			{
				"patchline" : 				{
					"destination" : [ "obj-77", 0 ],
					"disabled" : 0,
					"hidden" : 0,
					"source" : [ "obj-67", 0 ]
				}

			}
, 			{
				"patchline" : 				{
					"destination" : [ "obj-77", 0 ],
					"disabled" : 0,
					"hidden" : 0,
					"source" : [ "obj-68", 0 ]
				}

			}
, 			{
				"patchline" : 				{
					"destination" : [ "obj-77", 0 ],
					"disabled" : 0,
					"hidden" : 0,
					"source" : [ "obj-69", 0 ]
				}

			}
, 			{
				"patchline" : 				{
					"destination" : [ "obj-77", 0 ],
					"disabled" : 0,
					"hidden" : 0,
					"source" : [ "obj-70", 0 ]
				}

			}
, 			{
				"patchline" : 				{
					"destination" : [ "obj-77", 0 ],
					"disabled" : 0,
					"hidden" : 0,
					"source" : [ "obj-71", 0 ]
				}

			}
, 			{
				"patchline" : 				{
					"destination" : [ "obj-77", 0 ],
					"disabled" : 0,
					"hidden" : 0,
					"source" : [ "obj-74", 0 ]
				}

			}
, 			{
				"patchline" : 				{
					"destination" : [ "obj-1", 0 ],
					"disabled" : 0,
					"hidden" : 0,
					"source" : [ "obj-76", 0 ]
				}

			}
, 			{
				"patchline" : 				{
					"destination" : [ "obj-11", 0 ],
					"disabled" : 0,
					"hidden" : 0,
					"source" : [ "obj-76", 0 ]
				}

			}
, 			{
				"patchline" : 				{
					"destination" : [ "obj-197", 0 ],
					"disabled" : 0,
					"hidden" : 0,
					"source" : [ "obj-76", 0 ]
				}

			}
, 			{
				"patchline" : 				{
					"destination" : [ "obj-2", 0 ],
					"disabled" : 0,
					"hidden" : 0,
					"source" : [ "obj-76", 0 ]
				}

			}
, 			{
				"patchline" : 				{
					"destination" : [ "obj-25", 0 ],
					"disabled" : 0,
					"hidden" : 0,
					"source" : [ "obj-76", 0 ]
				}

			}
, 			{
				"patchline" : 				{
					"destination" : [ "obj-3", 0 ],
					"disabled" : 0,
					"hidden" : 0,
					"source" : [ "obj-76", 0 ]
				}

			}
, 			{
				"patchline" : 				{
					"destination" : [ "obj-33", 0 ],
					"disabled" : 0,
					"hidden" : 0,
					"source" : [ "obj-76", 0 ]
				}

			}
, 			{
				"patchline" : 				{
					"destination" : [ "obj-34", 0 ],
					"disabled" : 0,
					"hidden" : 0,
					"source" : [ "obj-76", 0 ]
				}

			}
, 			{
				"patchline" : 				{
					"destination" : [ "obj-35", 0 ],
					"disabled" : 0,
					"hidden" : 0,
					"source" : [ "obj-76", 0 ]
				}

			}
, 			{
				"patchline" : 				{
					"destination" : [ "obj-36", 0 ],
					"disabled" : 0,
					"hidden" : 0,
					"source" : [ "obj-76", 0 ]
				}

			}
, 			{
				"patchline" : 				{
					"destination" : [ "obj-37", 0 ],
					"disabled" : 0,
					"hidden" : 0,
					"source" : [ "obj-76", 0 ]
				}

			}
, 			{
				"patchline" : 				{
					"destination" : [ "obj-38", 0 ],
					"disabled" : 0,
					"hidden" : 0,
					"source" : [ "obj-76", 0 ]
				}

			}
, 			{
				"patchline" : 				{
					"destination" : [ "obj-39", 0 ],
					"disabled" : 0,
					"hidden" : 0,
					"source" : [ "obj-76", 0 ]
				}

			}
, 			{
				"patchline" : 				{
					"destination" : [ "obj-4", 0 ],
					"disabled" : 0,
					"hidden" : 0,
					"source" : [ "obj-76", 0 ]
				}

			}
, 			{
				"patchline" : 				{
					"destination" : [ "obj-40", 0 ],
					"disabled" : 0,
					"hidden" : 0,
					"source" : [ "obj-76", 0 ]
				}

			}
, 			{
				"patchline" : 				{
					"destination" : [ "obj-42", 0 ],
					"disabled" : 0,
					"hidden" : 0,
					"source" : [ "obj-76", 0 ]
				}

			}
, 			{
				"patchline" : 				{
					"destination" : [ "obj-43", 0 ],
					"disabled" : 0,
					"hidden" : 0,
					"source" : [ "obj-76", 0 ]
				}

			}
, 			{
				"patchline" : 				{
					"destination" : [ "obj-45", 0 ],
					"disabled" : 0,
					"hidden" : 0,
					"source" : [ "obj-76", 0 ]
				}

			}
, 			{
				"patchline" : 				{
					"destination" : [ "obj-46", 0 ],
					"disabled" : 0,
					"hidden" : 0,
					"source" : [ "obj-76", 0 ]
				}

			}
, 			{
				"patchline" : 				{
					"destination" : [ "obj-48", 0 ],
					"disabled" : 0,
					"hidden" : 0,
					"source" : [ "obj-76", 0 ]
				}

			}
, 			{
				"patchline" : 				{
					"destination" : [ "obj-49", 0 ],
					"disabled" : 0,
					"hidden" : 0,
					"source" : [ "obj-76", 0 ]
				}

			}
, 			{
				"patchline" : 				{
					"destination" : [ "obj-50", 0 ],
					"disabled" : 0,
					"hidden" : 0,
					"source" : [ "obj-76", 0 ]
				}

			}
, 			{
				"patchline" : 				{
					"destination" : [ "obj-51", 0 ],
					"disabled" : 0,
					"hidden" : 0,
					"source" : [ "obj-76", 0 ]
				}

			}
, 			{
				"patchline" : 				{
					"destination" : [ "obj-52", 0 ],
					"disabled" : 0,
					"hidden" : 0,
					"source" : [ "obj-76", 0 ]
				}

			}
, 			{
				"patchline" : 				{
					"destination" : [ "obj-53", 0 ],
					"disabled" : 0,
					"hidden" : 0,
					"source" : [ "obj-76", 0 ]
				}

			}
, 			{
				"patchline" : 				{
					"destination" : [ "obj-54", 0 ],
					"disabled" : 0,
					"hidden" : 0,
					"source" : [ "obj-76", 0 ]
				}

			}
, 			{
				"patchline" : 				{
					"destination" : [ "obj-55", 0 ],
					"disabled" : 0,
					"hidden" : 0,
					"source" : [ "obj-76", 0 ]
				}

			}
, 			{
				"patchline" : 				{
					"destination" : [ "obj-56", 0 ],
					"disabled" : 0,
					"hidden" : 0,
					"source" : [ "obj-76", 0 ]
				}

			}
, 			{
				"patchline" : 				{
					"destination" : [ "obj-57", 0 ],
					"disabled" : 0,
					"hidden" : 0,
					"source" : [ "obj-76", 0 ]
				}

			}
, 			{
				"patchline" : 				{
					"destination" : [ "obj-58", 0 ],
					"disabled" : 0,
					"hidden" : 0,
					"source" : [ "obj-76", 0 ]
				}

			}
, 			{
				"patchline" : 				{
					"destination" : [ "obj-61", 0 ],
					"disabled" : 0,
					"hidden" : 0,
					"source" : [ "obj-76", 0 ]
				}

			}
, 			{
				"patchline" : 				{
					"destination" : [ "obj-63", 0 ],
					"disabled" : 0,
					"hidden" : 0,
					"source" : [ "obj-76", 0 ]
				}

			}
, 			{
				"patchline" : 				{
					"destination" : [ "obj-64", 0 ],
					"disabled" : 0,
					"hidden" : 0,
					"source" : [ "obj-76", 0 ]
				}

			}
, 			{
				"patchline" : 				{
					"destination" : [ "obj-65", 0 ],
					"disabled" : 0,
					"hidden" : 0,
					"source" : [ "obj-76", 0 ]
				}

			}
, 			{
				"patchline" : 				{
					"destination" : [ "obj-66", 0 ],
					"disabled" : 0,
					"hidden" : 0,
					"source" : [ "obj-76", 0 ]
				}

			}
, 			{
				"patchline" : 				{
					"destination" : [ "obj-67", 0 ],
					"disabled" : 0,
					"hidden" : 0,
					"source" : [ "obj-76", 0 ]
				}

			}
, 			{
				"patchline" : 				{
					"destination" : [ "obj-68", 0 ],
					"disabled" : 0,
					"hidden" : 0,
					"source" : [ "obj-76", 0 ]
				}

			}
, 			{
				"patchline" : 				{
					"destination" : [ "obj-69", 0 ],
					"disabled" : 0,
					"hidden" : 0,
					"source" : [ "obj-76", 0 ]
				}

			}
, 			{
				"patchline" : 				{
					"destination" : [ "obj-70", 0 ],
					"disabled" : 0,
					"hidden" : 0,
					"source" : [ "obj-76", 0 ]
				}

			}
, 			{
				"patchline" : 				{
					"destination" : [ "obj-71", 0 ],
					"disabled" : 0,
					"hidden" : 0,
					"source" : [ "obj-76", 0 ]
				}

			}
, 			{
				"patchline" : 				{
					"destination" : [ "obj-74", 0 ],
					"disabled" : 0,
					"hidden" : 0,
					"source" : [ "obj-76", 0 ]
				}

			}
, 			{
				"patchline" : 				{
					"destination" : [ "obj-8", 0 ],
					"disabled" : 0,
					"hidden" : 0,
					"source" : [ "obj-76", 0 ]
				}

			}
, 			{
				"patchline" : 				{
					"destination" : [ "obj-9", 0 ],
					"disabled" : 0,
					"hidden" : 0,
					"source" : [ "obj-76", 0 ]
				}

			}
, 			{
				"patchline" : 				{
					"destination" : [ "obj-77", 0 ],
					"disabled" : 0,
					"hidden" : 0,
					"source" : [ "obj-8", 0 ]
				}

			}
, 			{
				"patchline" : 				{
					"destination" : [ "obj-77", 0 ],
					"disabled" : 0,
					"hidden" : 0,
					"source" : [ "obj-9", 0 ]
				}

			}
 ],
		"dependency_cache" : [ 			{
				"name" : "quneopic.jpg",
				"bootpath" : "/Users/gabacheker/Documents/maxliB/o.io.quneo.all",
				"patcherrelativepath" : ".",
				"type" : "JPEG",
				"implicit" : 1
			}
, 			{
				"name" : "o.io.quneo.display.helper.pad.maxpat",
				"bootpath" : "/Users/gabacheker/Documents/maxliB/o.io.quneo.all",
				"patcherrelativepath" : ".",
				"type" : "JSON",
				"implicit" : 1
			}
, 			{
				"name" : "green-circle.png",
				"bootpath" : "/Users/gabacheker/Documents/maxliB/o.io.quneo.all",
				"patcherrelativepath" : ".",
				"type" : "PNG ",
				"implicit" : 1
			}
, 			{
				"name" : "yellow-circle.png",
				"bootpath" : "/Users/gabacheker/Documents/maxliB/o.io.quneo.all",
				"patcherrelativepath" : ".",
				"type" : "PNG ",
				"implicit" : 1
			}
, 			{
				"name" : "o.io.quneo.display.helper.slide.A-D.maxpat",
				"bootpath" : "/Users/gabacheker/Documents/maxliB/o.io.quneo.all",
				"patcherrelativepath" : ".",
				"type" : "JSON",
				"implicit" : 1
			}
, 			{
				"name" : "o.io.quneo.display.helper.slide.1-4.maxpat",
				"bootpath" : "/Users/gabacheker/Documents/maxliB/o.io.quneo.all",
				"patcherrelativepath" : ".",
				"type" : "JSON",
				"implicit" : 1
			}
, 			{
				"name" : "o.io.quneo.display.helper.longslide.maxpat",
				"bootpath" : "/Users/gabacheker/Documents/maxliB/o.io.quneo.all",
				"patcherrelativepath" : ".",
				"type" : "JSON",
				"implicit" : 1
			}
, 			{
				"name" : "o.io.quneo.display.helper.arrow.2A-D.maxpat",
				"bootpath" : "/Users/gabacheker/Documents/maxliB/o.io.quneo.all",
				"patcherrelativepath" : ".",
				"type" : "JSON",
				"implicit" : 1
			}
, 			{
				"name" : "o.io.quneo.display.helper.arrow.1A-D.maxpat",
				"bootpath" : "/Users/gabacheker/Documents/maxliB/o.io.quneo.all",
				"patcherrelativepath" : ".",
				"type" : "JSON",
				"implicit" : 1
			}
, 			{
				"name" : "o.io.quneo.display.helper.rotor.maxpat",
				"bootpath" : "/Users/gabacheker/Documents/maxliB/o.io.quneo.all",
				"patcherrelativepath" : ".",
				"type" : "JSON",
				"implicit" : 1
			}
, 			{
				"name" : "o.io.quneo.display.helper.large.arrowbutton.2A-B.maxpat",
				"bootpath" : "/Users/gabacheker/Documents/maxliB/o.io.quneo.all",
				"patcherrelativepath" : ".",
				"type" : "JSON",
				"implicit" : 1
			}
, 			{
				"name" : "o.io.quneo.display.helper.large.arrowbutton.1A-B.maxpat",
				"bootpath" : "/Users/gabacheker/Documents/maxliB/o.io.quneo.all",
				"patcherrelativepath" : ".",
				"type" : "JSON",
				"implicit" : 1
			}
, 			{
				"name" : "o.io.quneo.display.helper.button.A.maxpat",
				"bootpath" : "/Users/gabacheker/Documents/maxliB/o.io.quneo.all",
				"patcherrelativepath" : ".",
				"type" : "JSON",
				"implicit" : 1
			}
, 			{
				"name" : "o.io.quneo.display.helper.button.B.maxpat",
				"bootpath" : "/Users/gabacheker/Documents/maxliB/o.io.quneo.all",
				"patcherrelativepath" : ".",
				"type" : "JSON",
				"implicit" : 1
			}
, 			{
				"name" : "o.io.quneo.display.helper.button.C.maxpat",
				"bootpath" : "/Users/gabacheker/Documents/maxliB/o.io.quneo.all",
				"patcherrelativepath" : ".",
				"type" : "JSON",
				"implicit" : 1
			}
, 			{
				"name" : "o.io.quneo.display.helper.rhombusbutton.maxpat",
				"bootpath" : "/Users/gabacheker/Documents/maxliB/o.io.quneo.all",
				"patcherrelativepath" : ".",
				"type" : "JSON",
				"implicit" : 1
			}
, 			{
				"name" : "o.pak.mxo",
				"type" : "iLaX"
			}
, 			{
				"name" : "o.route.mxo",
				"type" : "iLaX"
			}
 ]
	}

}
