{
	"patcher" : 	{
		"fileversion" : 1,
		"rect" : [ 192.0, 186.0, 1088.0, 654.0 ],
		"bglocked" : 0,
		"defrect" : [ 192.0, 186.0, 1088.0, 654.0 ],
		"openrect" : [ 0.0, 0.0, 0.0, 0.0 ],
		"openinpresentation" : 0,
		"default_fontsize" : 12.0,
		"default_fontface" : 0,
		"default_fontname" : "Arial",
		"gridonopen" : 0,
		"gridsize" : [ 15.0, 15.0 ],
		"gridsnaponopen" : 0,
		"toolbarvisible" : 1,
		"boxanimatetime" : 200,
		"imprint" : 0,
		"enablehscroll" : 1,
		"enablevscroll" : 1,
		"devicewidth" : 0.0,
		"boxes" : [ 			{
				"box" : 				{
					"maxclass" : "newobj",
					"text" : "qmetro 5000",
					"numoutlets" : 1,
					"patching_rect" : [ 77.0, 131.0, 78.0, 20.0 ],
					"id" : "obj-17",
					"outlettype" : [ "bang" ],
					"fontsize" : 12.0,
					"numinlets" : 2,
					"fontname" : "Arial"
				}

			}
, 			{
				"box" : 				{
					"maxclass" : "newobj",
					"text" : "loadmess 1",
					"numoutlets" : 1,
					"patching_rect" : [ 74.0, 95.0, 72.0, 20.0 ],
					"id" : "obj-16",
					"outlettype" : [ "" ],
					"fontsize" : 12.0,
					"numinlets" : 1,
					"fontname" : "Arial"
				}

			}
, 			{
				"box" : 				{
					"maxclass" : "newobj",
					"text" : "prepend /hid_device/%d",
					"numoutlets" : 1,
					"patching_rect" : [ 313.0, 251.0, 122.0, 17.0 ],
					"id" : "obj-2",
					"outlettype" : [ "" ],
					"fontsize" : 9.0,
					"numinlets" : 1,
					"fontname" : "Arial"
				}

			}
, 			{
				"box" : 				{
					"maxclass" : "newobj",
					"text" : "delay 250",
					"numoutlets" : 1,
					"patching_rect" : [ 242.0, 188.0, 55.0, 17.0 ],
					"id" : "obj-3",
					"outlettype" : [ "bang" ],
					"fontsize" : 9.0,
					"numinlets" : 2,
					"fontname" : "Arial"
				}

			}
, 			{
				"box" : 				{
					"maxclass" : "newobj",
					"text" : "pack i s",
					"numoutlets" : 1,
					"patching_rect" : [ 357.0, 212.0, 44.0, 17.0 ],
					"id" : "obj-4",
					"outlettype" : [ "" ],
					"fontsize" : 9.0,
					"numinlets" : 2,
					"fontname" : "Arial"
				}

			}
, 			{
				"box" : 				{
					"maxclass" : "newobj",
					"text" : "t b s",
					"numoutlets" : 2,
					"patching_rect" : [ 376.0, 155.0, 30.0, 17.0 ],
					"id" : "obj-5",
					"outlettype" : [ "bang", "" ],
					"fontsize" : 9.0,
					"numinlets" : 1,
					"fontname" : "Arial"
				}

			}
, 			{
				"box" : 				{
					"maxclass" : "message",
					"text" : "0",
					"numoutlets" : 1,
					"patching_rect" : [ 317.0, 157.0, 16.0, 15.0 ],
					"id" : "obj-6",
					"outlettype" : [ "" ],
					"fontsize" : 9.0,
					"numinlets" : 2,
					"fontname" : "Arial"
				}

			}
, 			{
				"box" : 				{
					"maxclass" : "newobj",
					"text" : "counter",
					"numoutlets" : 4,
					"patching_rect" : [ 315.0, 183.0, 66.0, 17.0 ],
					"id" : "obj-7",
					"outlettype" : [ "int", "", "", "int" ],
					"fontsize" : 9.0,
					"numinlets" : 5,
					"fontname" : "Arial"
				}

			}
, 			{
				"box" : 				{
					"maxclass" : "outlet",
					"numoutlets" : 0,
					"patching_rect" : [ 314.0, 314.0, 15.0, 15.0 ],
					"id" : "obj-8",
					"numinlets" : 1,
					"comment" : ""
				}

			}
, 			{
				"box" : 				{
					"maxclass" : "newobj",
					"text" : "o.collect",
					"numoutlets" : 1,
					"patching_rect" : [ 313.0, 280.0, 64.0, 17.0 ],
					"id" : "obj-9",
					"outlettype" : [ "" ],
					"fontsize" : 9.0,
					"numinlets" : 1,
					"fontname" : "Arial"
				}

			}
, 			{
				"box" : 				{
					"maxclass" : "newobj",
					"text" : "route clear append",
					"numoutlets" : 3,
					"patching_rect" : [ 303.0, 123.0, 93.0, 17.0 ],
					"id" : "obj-10",
					"outlettype" : [ "", "", "" ],
					"fontsize" : 9.0,
					"numinlets" : 1,
					"fontname" : "Arial"
				}

			}
, 			{
				"box" : 				{
					"maxclass" : "message",
					"text" : "menu",
					"numoutlets" : 1,
					"patching_rect" : [ 200.0, 161.0, 33.0, 15.0 ],
					"id" : "obj-12",
					"outlettype" : [ "" ],
					"fontsize" : 9.0,
					"numinlets" : 2,
					"fontname" : "Arial"
				}

			}
, 			{
				"box" : 				{
					"maxclass" : "newobj",
					"text" : "hi",
					"numoutlets" : 2,
					"patching_rect" : [ 156.0, 191.0, 27.0, 17.0 ],
					"id" : "obj-15",
					"outlettype" : [ "list", "" ],
					"fontsize" : 9.0,
					"numinlets" : 1,
					"fontname" : "Arial"
				}

			}
 ],
		"lines" : [ 			{
				"patchline" : 				{
					"source" : [ "obj-2", 0 ],
					"destination" : [ "obj-9", 0 ],
					"hidden" : 0,
					"midpoints" : [  ]
				}

			}
, 			{
				"patchline" : 				{
					"source" : [ "obj-3", 0 ],
					"destination" : [ "obj-9", 0 ],
					"hidden" : 0,
					"midpoints" : [  ]
				}

			}
, 			{
				"patchline" : 				{
					"source" : [ "obj-9", 0 ],
					"destination" : [ "obj-8", 0 ],
					"hidden" : 0,
					"midpoints" : [  ]
				}

			}
, 			{
				"patchline" : 				{
					"source" : [ "obj-17", 0 ],
					"destination" : [ "obj-12", 0 ],
					"hidden" : 0,
					"midpoints" : [  ]
				}

			}
, 			{
				"patchline" : 				{
					"source" : [ "obj-16", 0 ],
					"destination" : [ "obj-17", 0 ],
					"hidden" : 0,
					"midpoints" : [  ]
				}

			}
, 			{
				"patchline" : 				{
					"source" : [ "obj-5", 1 ],
					"destination" : [ "obj-4", 1 ],
					"hidden" : 0,
					"midpoints" : [  ]
				}

			}
, 			{
				"patchline" : 				{
					"source" : [ "obj-10", 1 ],
					"destination" : [ "obj-5", 0 ],
					"hidden" : 0,
					"midpoints" : [  ]
				}

			}
, 			{
				"patchline" : 				{
					"source" : [ "obj-7", 0 ],
					"destination" : [ "obj-4", 0 ],
					"hidden" : 0,
					"midpoints" : [  ]
				}

			}
, 			{
				"patchline" : 				{
					"source" : [ "obj-6", 0 ],
					"destination" : [ "obj-7", 2 ],
					"hidden" : 0,
					"midpoints" : [  ]
				}

			}
, 			{
				"patchline" : 				{
					"source" : [ "obj-10", 0 ],
					"destination" : [ "obj-6", 0 ],
					"hidden" : 0,
					"midpoints" : [  ]
				}

			}
, 			{
				"patchline" : 				{
					"source" : [ "obj-5", 0 ],
					"destination" : [ "obj-7", 0 ],
					"hidden" : 0,
					"midpoints" : [  ]
				}

			}
, 			{
				"patchline" : 				{
					"source" : [ "obj-4", 0 ],
					"destination" : [ "obj-2", 0 ],
					"hidden" : 0,
					"midpoints" : [  ]
				}

			}
, 			{
				"patchline" : 				{
					"source" : [ "obj-15", 1 ],
					"destination" : [ "obj-10", 0 ],
					"hidden" : 0,
					"midpoints" : [  ]
				}

			}
, 			{
				"patchline" : 				{
					"source" : [ "obj-10", 0 ],
					"destination" : [ "obj-3", 0 ],
					"hidden" : 0,
					"midpoints" : [  ]
				}

			}
, 			{
				"patchline" : 				{
					"source" : [ "obj-12", 0 ],
					"destination" : [ "obj-15", 0 ],
					"hidden" : 0,
					"midpoints" : [  ]
				}

			}
 ]
	}

}
