{
	"patcher" : 	{
		"fileversion" : 1,
		"rect" : [ 276.0, 44.0, 1004.0, 695.0 ],
		"bglocked" : 0,
		"defrect" : [ 276.0, 44.0, 1004.0, 695.0 ],
		"openrect" : [ 0.0, 0.0, 0.0, 0.0 ],
		"openinpresentation" : 0,
		"default_fontsize" : 12.0,
		"default_fontface" : 0,
		"default_fontname" : "Arial",
		"gridonopen" : 0,
		"gridsize" : [ 15.0, 15.0 ],
		"gridsnaponopen" : 0,
		"toolbarvisible" : 1,
		"boxanimatetime" : 200,
		"imprint" : 0,
		"enablehscroll" : 1,
		"enablevscroll" : 1,
		"devicewidth" : 0.0,
		"boxes" : [ 			{
				"box" : 				{
					"maxclass" : "newobj",
					"text" : "o.expr /left/paddle= /19 * 0.000977",
					"id" : "obj-2",
					"fontsize" : 12.0,
					"numinlets" : 1,
					"patching_rect" : [ 338.0, 141.0, 194.0, 20.0 ],
					"fontname" : "Arial",
					"numoutlets" : 1,
					"outlettype" : [ "FullPacket" ]
				}

			}
, 			{
				"box" : 				{
					"maxclass" : "o.message",
					"text" : "/right/paddle/button $1",
					"linecount" : 2,
					"id" : "obj-54",
					"fontsize" : 12.0,
					"numinlets" : 2,
					"patching_rect" : [ 677.0, 219.0, 121.0, 34.0 ],
					"fontname" : "Arial",
					"textcolor" : [ 0.0, 0.0, 0.0, 1.0 ],
					"numoutlets" : 1,
					"outlettype" : [ "" ]
				}

			}
, 			{
				"box" : 				{
					"maxclass" : "o.message",
					"text" : "/left/paddle/button $1",
					"id" : "obj-55",
					"fontsize" : 12.0,
					"numinlets" : 2,
					"patching_rect" : [ 557.0, 188.0, 121.0, 20.0 ],
					"fontname" : "Arial",
					"textcolor" : [ 0.0, 0.0, 0.0, 1.0 ],
					"numoutlets" : 1,
					"outlettype" : [ "" ]
				}

			}
, 			{
				"box" : 				{
					"maxclass" : "o.message",
					"text" : "/button/12 $1",
					"id" : "obj-52",
					"fontsize" : 12.0,
					"numinlets" : 2,
					"patching_rect" : [ 638.0, 331.0, 121.0, 20.0 ],
					"fontname" : "Arial",
					"textcolor" : [ 0.0, 0.0, 0.0, 1.0 ],
					"numoutlets" : 1,
					"outlettype" : [ "" ]
				}

			}
, 			{
				"box" : 				{
					"maxclass" : "o.message",
					"text" : "/button/11 $1",
					"id" : "obj-53",
					"fontsize" : 12.0,
					"numinlets" : 2,
					"patching_rect" : [ 518.0, 300.0, 121.0, 20.0 ],
					"fontname" : "Arial",
					"textcolor" : [ 0.0, 0.0, 0.0, 1.0 ],
					"numoutlets" : 1,
					"outlettype" : [ "" ]
				}

			}
, 			{
				"box" : 				{
					"maxclass" : "newobj",
					"text" : "t b l",
					"id" : "obj-50",
					"fontsize" : 12.0,
					"numinlets" : 1,
					"patching_rect" : [ 238.0, 131.0, 32.5, 20.0 ],
					"fontname" : "Arial",
					"numoutlets" : 2,
					"outlettype" : [ "bang", "" ]
				}

			}
, 			{
				"box" : 				{
					"maxclass" : "o.message",
					"text" : "/button/8 $1",
					"id" : "obj-49",
					"fontsize" : 12.0,
					"numinlets" : 2,
					"patching_rect" : [ 416.0, 405.0, 121.0, 20.0 ],
					"fontname" : "Arial",
					"textcolor" : [ 0.0, 0.0, 0.0, 1.0 ],
					"numoutlets" : 1,
					"outlettype" : [ "" ]
				}

			}
, 			{
				"box" : 				{
					"maxclass" : "o.message",
					"text" : "/button/7 $1",
					"id" : "obj-48",
					"fontsize" : 12.0,
					"numinlets" : 2,
					"patching_rect" : [ 497.0, 353.0, 121.0, 20.0 ],
					"fontname" : "Arial",
					"textcolor" : [ 0.0, 0.0, 0.0, 1.0 ],
					"numoutlets" : 1,
					"outlettype" : [ "" ]
				}

			}
, 			{
				"box" : 				{
					"maxclass" : "o.message",
					"text" : "/button/6 $1",
					"id" : "obj-47",
					"fontsize" : 12.0,
					"numinlets" : 2,
					"patching_rect" : [ 377.0, 322.0, 121.0, 20.0 ],
					"fontname" : "Arial",
					"textcolor" : [ 0.0, 0.0, 0.0, 1.0 ],
					"numoutlets" : 1,
					"outlettype" : [ "" ]
				}

			}
, 			{
				"box" : 				{
					"maxclass" : "o.message",
					"text" : "/button/5 $1",
					"id" : "obj-46",
					"fontsize" : 12.0,
					"numinlets" : 2,
					"patching_rect" : [ 319.0, 285.0, 121.0, 20.0 ],
					"fontname" : "Arial",
					"textcolor" : [ 0.0, 0.0, 0.0, 1.0 ],
					"numoutlets" : 1,
					"outlettype" : [ "" ]
				}

			}
, 			{
				"box" : 				{
					"maxclass" : "o.message",
					"text" : "/button/4 $1",
					"id" : "obj-45",
					"fontsize" : 12.0,
					"numinlets" : 2,
					"patching_rect" : [ 238.0, 364.0, 121.0, 20.0 ],
					"fontname" : "Arial",
					"textcolor" : [ 0.0, 0.0, 0.0, 1.0 ],
					"numoutlets" : 1,
					"outlettype" : [ "" ]
				}

			}
, 			{
				"box" : 				{
					"maxclass" : "o.message",
					"text" : "/button/3 $1",
					"id" : "obj-44",
					"fontsize" : 12.0,
					"numinlets" : 2,
					"patching_rect" : [ 220.0, 340.0, 121.0, 20.0 ],
					"fontname" : "Arial",
					"textcolor" : [ 0.0, 0.0, 0.0, 1.0 ],
					"numoutlets" : 1,
					"outlettype" : [ "" ]
				}

			}
, 			{
				"box" : 				{
					"maxclass" : "o.message",
					"text" : "/button/2 $1",
					"id" : "obj-43",
					"fontsize" : 12.0,
					"numinlets" : 2,
					"patching_rect" : [ 195.0, 317.0, 121.0, 20.0 ],
					"fontname" : "Arial",
					"textcolor" : [ 0.0, 0.0, 0.0, 1.0 ],
					"numoutlets" : 1,
					"outlettype" : [ "" ]
				}

			}
, 			{
				"box" : 				{
					"maxclass" : "o.message",
					"text" : "/button/1 $1",
					"id" : "obj-42",
					"fontsize" : 12.0,
					"numinlets" : 2,
					"patching_rect" : [ 174.0, 294.0, 121.0, 20.0 ],
					"fontname" : "Arial",
					"textcolor" : [ 0.0, 0.0, 0.0, 1.0 ],
					"numoutlets" : 1,
					"outlettype" : [ "" ]
				}

			}
, 			{
				"box" : 				{
					"maxclass" : "newobj",
					"text" : "o.route /16 /17 /20 /4 /5 /6 /7 /8 /9 /10 /11 /14 /15 /12 /13",
					"id" : "obj-39",
					"fontsize" : 12.0,
					"numinlets" : 16,
					"patching_rect" : [ 230.0, 226.0, 307.0, 20.0 ],
					"fontname" : "Arial",
					"numoutlets" : 16,
					"outlettype" : [ "", "", "", "", "", "", "", "", "", "", "", "", "", "", "", "FullPacket" ]
				}

			}
, 			{
				"box" : 				{
					"maxclass" : "o.message",
					"text" : "/left/paddle 0.000977\n",
					"id" : "obj-37",
					"fontsize" : 12.0,
					"numinlets" : 2,
					"patching_rect" : [ 129.0, 409.0, 232.0, 20.0 ],
					"fontname" : "Arial",
					"textcolor" : [ 0.0, 0.0, 0.0, 1.0 ],
					"numoutlets" : 1,
					"outlettype" : [ "" ]
				}

			}
, 			{
				"box" : 				{
					"maxclass" : "outlet",
					"id" : "obj-1",
					"numinlets" : 1,
					"patching_rect" : [ 334.0, 582.0, 15.0, 15.0 ],
					"numoutlets" : 0,
					"comment" : ""
				}

			}
, 			{
				"box" : 				{
					"maxclass" : "message",
					"text" : "/off",
					"id" : "obj-15",
					"fontsize" : 9.0,
					"numinlets" : 2,
					"patching_rect" : [ 598.0, 472.0, 29.0, 15.0 ],
					"fontname" : "Arial",
					"numoutlets" : 1,
					"outlettype" : [ "" ]
				}

			}
, 			{
				"box" : 				{
					"maxclass" : "message",
					"text" : "/SW",
					"id" : "obj-16",
					"fontsize" : 9.0,
					"numinlets" : 2,
					"patching_rect" : [ 616.0, 442.0, 30.0, 15.0 ],
					"fontname" : "Arial",
					"numoutlets" : 1,
					"outlettype" : [ "" ]
				}

			}
, 			{
				"box" : 				{
					"maxclass" : "message",
					"text" : "/NW",
					"id" : "obj-17",
					"fontsize" : 9.0,
					"numinlets" : 2,
					"patching_rect" : [ 710.0, 441.0, 30.0, 15.0 ],
					"fontname" : "Arial",
					"numoutlets" : 1,
					"outlettype" : [ "" ]
				}

			}
, 			{
				"box" : 				{
					"maxclass" : "message",
					"text" : "/W",
					"id" : "obj-18",
					"fontsize" : 9.0,
					"numinlets" : 2,
					"patching_rect" : [ 663.0, 445.0, 22.0, 15.0 ],
					"fontname" : "Arial",
					"numoutlets" : 1,
					"outlettype" : [ "" ]
				}

			}
, 			{
				"box" : 				{
					"maxclass" : "message",
					"text" : "/S",
					"id" : "obj-19",
					"fontsize" : 9.0,
					"numinlets" : 2,
					"patching_rect" : [ 575.0, 426.0, 20.0, 15.0 ],
					"fontname" : "Arial",
					"numoutlets" : 1,
					"outlettype" : [ "" ]
				}

			}
, 			{
				"box" : 				{
					"maxclass" : "newobj",
					"text" : "o.collect",
					"id" : "obj-20",
					"fontsize" : 9.0,
					"numinlets" : 1,
					"patching_rect" : [ 471.0, 525.0, 64.0, 17.0 ],
					"fontname" : "Arial",
					"numoutlets" : 1,
					"outlettype" : [ "" ]
				}

			}
, 			{
				"box" : 				{
					"maxclass" : "message",
					"text" : "/NE",
					"id" : "obj-21",
					"fontsize" : 9.0,
					"numinlets" : 2,
					"patching_rect" : [ 504.0, 424.0, 25.0, 15.0 ],
					"fontname" : "Arial",
					"numoutlets" : 1,
					"outlettype" : [ "" ]
				}

			}
, 			{
				"box" : 				{
					"maxclass" : "message",
					"text" : "/SE",
					"id" : "obj-22",
					"fontsize" : 9.0,
					"numinlets" : 2,
					"patching_rect" : [ 555.0, 467.0, 25.0, 15.0 ],
					"fontname" : "Arial",
					"numoutlets" : 1,
					"outlettype" : [ "" ]
				}

			}
, 			{
				"box" : 				{
					"maxclass" : "message",
					"text" : "/E",
					"id" : "obj-23",
					"fontsize" : 9.0,
					"numinlets" : 2,
					"patching_rect" : [ 536.0, 441.0, 19.0, 15.0 ],
					"fontname" : "Arial",
					"numoutlets" : 1,
					"outlettype" : [ "" ]
				}

			}
, 			{
				"box" : 				{
					"maxclass" : "message",
					"text" : "/N",
					"id" : "obj-24",
					"fontsize" : 9.0,
					"numinlets" : 2,
					"patching_rect" : [ 474.0, 451.0, 20.0, 15.0 ],
					"fontname" : "Arial",
					"numoutlets" : 1,
					"outlettype" : [ "" ]
				}

			}
, 			{
				"box" : 				{
					"maxclass" : "newobj",
					"text" : "select 0 1 2 3 4 5 6 7 15",
					"id" : "obj-25",
					"fontsize" : 9.0,
					"numinlets" : 1,
					"patching_rect" : [ 493.0, 375.0, 131.0, 17.0 ],
					"fontname" : "Arial",
					"numoutlets" : 10,
					"outlettype" : [ "bang", "bang", "bang", "bang", "bang", "bang", "bang", "bang", "bang", "" ]
				}

			}
, 			{
				"box" : 				{
					"maxclass" : "newobj",
					"text" : "o.io.hid \"Sengital VRMS Joypad\"",
					"id" : "obj-33",
					"fontsize" : 9.0,
					"numinlets" : 0,
					"patching_rect" : [ 268.0, 31.0, 141.0, 17.0 ],
					"fontname" : "Arial",
					"numoutlets" : 1,
					"outlettype" : [ "" ]
				}

			}
 ],
		"lines" : [ 			{
				"patchline" : 				{
					"source" : [ "obj-2", 0 ],
					"destination" : [ "obj-39", 0 ],
					"hidden" : 0,
					"midpoints" : [  ]
				}

			}
, 			{
				"patchline" : 				{
					"source" : [ "obj-50", 1 ],
					"destination" : [ "obj-2", 0 ],
					"hidden" : 0,
					"midpoints" : [  ]
				}

			}
, 			{
				"patchline" : 				{
					"source" : [ "obj-25", 0 ],
					"destination" : [ "obj-24", 0 ],
					"hidden" : 0,
					"midpoints" : [  ]
				}

			}
, 			{
				"patchline" : 				{
					"source" : [ "obj-25", 1 ],
					"destination" : [ "obj-21", 0 ],
					"hidden" : 0,
					"midpoints" : [  ]
				}

			}
, 			{
				"patchline" : 				{
					"source" : [ "obj-25", 2 ],
					"destination" : [ "obj-23", 0 ],
					"hidden" : 0,
					"midpoints" : [  ]
				}

			}
, 			{
				"patchline" : 				{
					"source" : [ "obj-25", 3 ],
					"destination" : [ "obj-22", 0 ],
					"hidden" : 0,
					"midpoints" : [  ]
				}

			}
, 			{
				"patchline" : 				{
					"source" : [ "obj-25", 4 ],
					"destination" : [ "obj-19", 0 ],
					"hidden" : 0,
					"midpoints" : [  ]
				}

			}
, 			{
				"patchline" : 				{
					"source" : [ "obj-25", 8 ],
					"destination" : [ "obj-15", 0 ],
					"hidden" : 0,
					"midpoints" : [  ]
				}

			}
, 			{
				"patchline" : 				{
					"source" : [ "obj-25", 5 ],
					"destination" : [ "obj-16", 0 ],
					"hidden" : 0,
					"midpoints" : [  ]
				}

			}
, 			{
				"patchline" : 				{
					"source" : [ "obj-25", 6 ],
					"destination" : [ "obj-18", 0 ],
					"hidden" : 0,
					"midpoints" : [  ]
				}

			}
, 			{
				"patchline" : 				{
					"source" : [ "obj-25", 7 ],
					"destination" : [ "obj-17", 0 ],
					"hidden" : 0,
					"midpoints" : [  ]
				}

			}
, 			{
				"patchline" : 				{
					"source" : [ "obj-24", 0 ],
					"destination" : [ "obj-20", 0 ],
					"hidden" : 0,
					"midpoints" : [  ]
				}

			}
, 			{
				"patchline" : 				{
					"source" : [ "obj-21", 0 ],
					"destination" : [ "obj-20", 0 ],
					"hidden" : 0,
					"midpoints" : [  ]
				}

			}
, 			{
				"patchline" : 				{
					"source" : [ "obj-22", 0 ],
					"destination" : [ "obj-20", 0 ],
					"hidden" : 0,
					"midpoints" : [  ]
				}

			}
, 			{
				"patchline" : 				{
					"source" : [ "obj-23", 0 ],
					"destination" : [ "obj-20", 0 ],
					"hidden" : 0,
					"midpoints" : [  ]
				}

			}
, 			{
				"patchline" : 				{
					"source" : [ "obj-19", 0 ],
					"destination" : [ "obj-20", 0 ],
					"hidden" : 0,
					"midpoints" : [  ]
				}

			}
, 			{
				"patchline" : 				{
					"source" : [ "obj-16", 0 ],
					"destination" : [ "obj-20", 0 ],
					"hidden" : 0,
					"midpoints" : [  ]
				}

			}
, 			{
				"patchline" : 				{
					"source" : [ "obj-18", 0 ],
					"destination" : [ "obj-20", 0 ],
					"hidden" : 0,
					"midpoints" : [  ]
				}

			}
, 			{
				"patchline" : 				{
					"source" : [ "obj-17", 0 ],
					"destination" : [ "obj-20", 0 ],
					"hidden" : 0,
					"midpoints" : [  ]
				}

			}
, 			{
				"patchline" : 				{
					"source" : [ "obj-15", 0 ],
					"destination" : [ "obj-20", 0 ],
					"hidden" : 0,
					"midpoints" : [  ]
				}

			}
, 			{
				"patchline" : 				{
					"source" : [ "obj-42", 0 ],
					"destination" : [ "obj-20", 0 ],
					"hidden" : 0,
					"midpoints" : [  ]
				}

			}
, 			{
				"patchline" : 				{
					"source" : [ "obj-33", 0 ],
					"destination" : [ "obj-50", 0 ],
					"hidden" : 0,
					"midpoints" : [  ]
				}

			}
, 			{
				"patchline" : 				{
					"source" : [ "obj-50", 0 ],
					"destination" : [ "obj-20", 0 ],
					"hidden" : 0,
					"midpoints" : [  ]
				}

			}
, 			{
				"patchline" : 				{
					"source" : [ "obj-20", 0 ],
					"destination" : [ "obj-1", 0 ],
					"hidden" : 0,
					"midpoints" : [  ]
				}

			}
, 			{
				"patchline" : 				{
					"source" : [ "obj-45", 0 ],
					"destination" : [ "obj-20", 0 ],
					"hidden" : 0,
					"midpoints" : [  ]
				}

			}
, 			{
				"patchline" : 				{
					"source" : [ "obj-44", 0 ],
					"destination" : [ "obj-20", 0 ],
					"hidden" : 0,
					"midpoints" : [  ]
				}

			}
, 			{
				"patchline" : 				{
					"source" : [ "obj-43", 0 ],
					"destination" : [ "obj-20", 0 ],
					"hidden" : 0,
					"midpoints" : [  ]
				}

			}
, 			{
				"patchline" : 				{
					"source" : [ "obj-46", 0 ],
					"destination" : [ "obj-20", 0 ],
					"hidden" : 0,
					"midpoints" : [  ]
				}

			}
, 			{
				"patchline" : 				{
					"source" : [ "obj-47", 0 ],
					"destination" : [ "obj-20", 0 ],
					"hidden" : 0,
					"midpoints" : [  ]
				}

			}
, 			{
				"patchline" : 				{
					"source" : [ "obj-48", 0 ],
					"destination" : [ "obj-20", 0 ],
					"hidden" : 0,
					"midpoints" : [  ]
				}

			}
, 			{
				"patchline" : 				{
					"source" : [ "obj-49", 0 ],
					"destination" : [ "obj-20", 0 ],
					"hidden" : 0,
					"midpoints" : [  ]
				}

			}
, 			{
				"patchline" : 				{
					"source" : [ "obj-52", 0 ],
					"destination" : [ "obj-20", 0 ],
					"hidden" : 0,
					"midpoints" : [  ]
				}

			}
, 			{
				"patchline" : 				{
					"source" : [ "obj-53", 0 ],
					"destination" : [ "obj-20", 0 ],
					"hidden" : 0,
					"midpoints" : [  ]
				}

			}
, 			{
				"patchline" : 				{
					"source" : [ "obj-39", 12 ],
					"destination" : [ "obj-52", 0 ],
					"hidden" : 0,
					"midpoints" : [  ]
				}

			}
, 			{
				"patchline" : 				{
					"source" : [ "obj-39", 11 ],
					"destination" : [ "obj-53", 0 ],
					"hidden" : 0,
					"midpoints" : [  ]
				}

			}
, 			{
				"patchline" : 				{
					"source" : [ "obj-39", 2 ],
					"destination" : [ "obj-25", 0 ],
					"hidden" : 0,
					"midpoints" : [  ]
				}

			}
, 			{
				"patchline" : 				{
					"source" : [ "obj-39", 3 ],
					"destination" : [ "obj-42", 0 ],
					"hidden" : 0,
					"midpoints" : [  ]
				}

			}
, 			{
				"patchline" : 				{
					"source" : [ "obj-39", 4 ],
					"destination" : [ "obj-43", 0 ],
					"hidden" : 0,
					"midpoints" : [  ]
				}

			}
, 			{
				"patchline" : 				{
					"source" : [ "obj-39", 5 ],
					"destination" : [ "obj-44", 0 ],
					"hidden" : 0,
					"midpoints" : [  ]
				}

			}
, 			{
				"patchline" : 				{
					"source" : [ "obj-39", 6 ],
					"destination" : [ "obj-45", 0 ],
					"hidden" : 0,
					"midpoints" : [  ]
				}

			}
, 			{
				"patchline" : 				{
					"source" : [ "obj-39", 7 ],
					"destination" : [ "obj-46", 0 ],
					"hidden" : 0,
					"midpoints" : [  ]
				}

			}
, 			{
				"patchline" : 				{
					"source" : [ "obj-39", 8 ],
					"destination" : [ "obj-47", 0 ],
					"hidden" : 0,
					"midpoints" : [  ]
				}

			}
, 			{
				"patchline" : 				{
					"source" : [ "obj-39", 9 ],
					"destination" : [ "obj-48", 0 ],
					"hidden" : 0,
					"midpoints" : [  ]
				}

			}
, 			{
				"patchline" : 				{
					"source" : [ "obj-39", 10 ],
					"destination" : [ "obj-49", 0 ],
					"hidden" : 0,
					"midpoints" : [  ]
				}

			}
, 			{
				"patchline" : 				{
					"source" : [ "obj-39", 15 ],
					"destination" : [ "obj-37", 1 ],
					"hidden" : 0,
					"midpoints" : [  ]
				}

			}
, 			{
				"patchline" : 				{
					"source" : [ "obj-39", 13 ],
					"destination" : [ "obj-55", 0 ],
					"hidden" : 0,
					"midpoints" : [  ]
				}

			}
, 			{
				"patchline" : 				{
					"source" : [ "obj-39", 14 ],
					"destination" : [ "obj-54", 0 ],
					"hidden" : 0,
					"midpoints" : [  ]
				}

			}
, 			{
				"patchline" : 				{
					"source" : [ "obj-54", 0 ],
					"destination" : [ "obj-20", 0 ],
					"hidden" : 0,
					"midpoints" : [  ]
				}

			}
, 			{
				"patchline" : 				{
					"source" : [ "obj-55", 0 ],
					"destination" : [ "obj-20", 0 ],
					"hidden" : 0,
					"midpoints" : [  ]
				}

			}
 ]
	}

}
