{
	"patcher" : 	{
		"fileversion" : 1,
		"appversion" : 		{
			"major" : 6,
			"minor" : 1,
			"revision" : 6,
			"architecture" : "x86"
		}
,
		"rect" : [ 194.0, 90.0, 818.0, 601.0 ],
		"bglocked" : 0,
		"openinpresentation" : 0,
		"default_fontsize" : 12.0,
		"default_fontface" : 0,
		"default_fontname" : "Arial",
		"gridonopen" : 0,
		"gridsize" : [ 15.0, 15.0 ],
		"gridsnaponopen" : 0,
		"statusbarvisible" : 2,
		"toolbarvisible" : 1,
		"boxanimatetime" : 200,
		"imprint" : 0,
		"enablehscroll" : 1,
		"enablevscroll" : 1,
		"devicewidth" : 0.0,
		"description" : "",
		"digest" : "",
		"tags" : "",
		"boxes" : [ 			{
				"box" : 				{
					"fontname" : "Arial",
					"fontsize" : 12.0,
					"id" : "obj-5",
					"maxclass" : "newobj",
					"numinlets" : 1,
					"numoutlets" : 1,
					"outlettype" : [ "FullPacket" ],
					"patching_rect" : [ 471.0, 163.0, 211.0, 20.0 ],
					"text" : "o.iterate.expr /count = (/count??0) + 1"
				}

			}
, 			{
				"box" : 				{
					"fontname" : "Arial",
					"fontsize" : 12.0,
					"id" : "obj-3",
					"linecount" : 12,
					"maxclass" : "o.message",
					"numinlets" : 2,
					"numoutlets" : 1,
					"outlettype" : [ "" ],
					"patching_rect" : [ 165.0, 442.0, 467.0, 167.0 ],
					"text" : "/rate 3.\n/bpm 180.\n/units/interval \"Seconds\"\n/units/bpm \"Beats Per Minute\"\n/units/rate \"Hertz (cycles per second)\"\n/o_init/this/patcher/name \"o.metro\"\n/o_init/this/patcher/args 1534 \"/rate\" 3 0 0 0 0 0 0 0\n/o_init/parent/patcher/name \"o.metro.maxhelp\"\n/o_init/parent/patcher/args \"#0\" \"#1\" \"#2\" \"#3\" \"#4\" \"#5\" \"#6\" \"#7\" \"#8\" \"#9\"\n/interval 0.333333\n/iteratingfunction \"/count = (/count??0) + 1\"\n/count 1477",
					"textcolor" : [ 0.0, 0.0, 0.0, 1.0 ]
				}

			}
, 			{
				"box" : 				{
					"fontname" : "Arial",
					"fontsize" : 12.0,
					"id" : "obj-13",
					"maxclass" : "o.message",
					"numinlets" : 2,
					"numoutlets" : 1,
					"outlettype" : [ "" ],
					"patching_rect" : [ 355.0, 111.0, 150.0, 20.0 ],
					"textcolor" : [ 0.0, 0.0, 0.0, 1.0 ]
				}

			}
, 			{
				"box" : 				{
					"fontname" : "Arial",
					"fontsize" : 12.0,
					"id" : "obj-7",
					"linecount" : 2,
					"maxclass" : "o.message",
					"numinlets" : 2,
					"numoutlets" : 1,
					"outlettype" : [ "" ],
					"patching_rect" : [ 348.0, 70.0, 150.0, 33.0 ],
					"text" : "/bpm 60\n/stuff0.3",
					"textcolor" : [ 0.0, 0.0, 0.0, 1.0 ]
				}

			}
, 			{
				"box" : 				{
					"fontname" : "Arial",
					"fontsize" : 12.0,
					"id" : "obj-6",
					"linecount" : 2,
					"maxclass" : "o.message",
					"numinlets" : 2,
					"numoutlets" : 1,
					"outlettype" : [ "" ],
					"patching_rect" : [ 59.0, 62.0, 150.0, 33.0 ],
					"text" : "/rate 0.2\n/your/values 0.3",
					"textcolor" : [ 0.0, 0.0, 0.0, 1.0 ]
				}

			}
, 			{
				"box" : 				{
					"id" : "obj-4",
					"maxclass" : "button",
					"numinlets" : 1,
					"numoutlets" : 1,
					"outlettype" : [ "bang" ],
					"patching_rect" : [ 148.0, 195.0, 20.0, 20.0 ]
				}

			}
, 			{
				"box" : 				{
					"fontname" : "Arial",
					"fontsize" : 12.0,
					"id" : "obj-2",
					"linecount" : 10,
					"maxclass" : "o.message",
					"numinlets" : 2,
					"numoutlets" : 1,
					"outlettype" : [ "" ],
					"patching_rect" : [ 133.0, 236.0, 572.0, 141.0 ],
					"text" : "/rate 3.\n/bpm 180.\n/units/interval \"Seconds\"\n/units/bpm \"Beats Per Minute\"\n/units/rate \"Hertz (cycles per second)\"\n/o_init/this/patcher/name \"o.metro\"\n/o_init/this/patcher/args 1534 \"/rate\" 3 0 0 0 0 0 0 0\n/o_init/parent/patcher/name \"o.metro.maxhelp\"\n/o_init/parent/patcher/args \"#0\" \"#1\" \"#2\" \"#3\" \"#4\" \"#5\" \"#6\" \"#7\" \"#8\" \"#9\"\n/interval 0.333333",
					"textcolor" : [ 0.0, 0.0, 0.0, 1.0 ]
				}

			}
, 			{
				"box" : 				{
					"fontname" : "Arial",
					"fontsize" : 12.0,
					"id" : "obj-1",
					"maxclass" : "newobj",
					"numinlets" : 1,
					"numoutlets" : 1,
					"outlettype" : [ "FullPacket" ],
					"patching_rect" : [ 147.0, 154.0, 89.0, 20.0 ],
					"text" : "o.metro /rate 3"
				}

			}
 ],
		"lines" : [ 			{
				"patchline" : 				{
					"destination" : [ "obj-2", 1 ],
					"disabled" : 0,
					"hidden" : 0,
					"source" : [ "obj-1", 0 ]
				}

			}
, 			{
				"patchline" : 				{
					"destination" : [ "obj-4", 0 ],
					"disabled" : 0,
					"hidden" : 0,
					"source" : [ "obj-1", 0 ]
				}

			}
, 			{
				"patchline" : 				{
					"destination" : [ "obj-5", 0 ],
					"disabled" : 0,
					"hidden" : 0,
					"source" : [ "obj-1", 0 ]
				}

			}
, 			{
				"patchline" : 				{
					"destination" : [ "obj-1", 0 ],
					"disabled" : 0,
					"hidden" : 0,
					"source" : [ "obj-13", 0 ]
				}

			}
, 			{
				"patchline" : 				{
					"destination" : [ "obj-3", 1 ],
					"disabled" : 0,
					"hidden" : 0,
					"source" : [ "obj-5", 0 ]
				}

			}
, 			{
				"patchline" : 				{
					"destination" : [ "obj-1", 0 ],
					"disabled" : 0,
					"hidden" : 0,
					"source" : [ "obj-6", 0 ]
				}

			}
, 			{
				"patchline" : 				{
					"destination" : [ "obj-1", 0 ],
					"disabled" : 0,
					"hidden" : 0,
					"source" : [ "obj-7", 0 ]
				}

			}
 ],
		"dependency_cache" : [ 			{
				"name" : "o.metro.maxpat",
				"bootpath" : "/Users/adrian2013/CNMAT-odot/abstractions/time",
				"patcherrelativepath" : ".",
				"type" : "JSON",
				"implicit" : 1
			}
, 			{
				"name" : "o.in.maxpat",
				"bootpath" : "/Users/adrian2013/CNMAT-odot/abstractions/core",
				"patcherrelativepath" : "../core",
				"type" : "JSON",
				"implicit" : 1
			}
, 			{
				"name" : "o.port.maxpat",
				"bootpath" : "/Users/adrian2013/CNMAT-odot/abstractions/core",
				"patcherrelativepath" : "../core",
				"type" : "JSON",
				"implicit" : 1
			}
, 			{
				"name" : "o.aspect.joinpoint.maxpat",
				"bootpath" : "/Users/adrian2013/CNMAT-odot/experimental/aspect",
				"patcherrelativepath" : "../../experimental/aspect",
				"type" : "JSON",
				"implicit" : 1
			}
, 			{
				"name" : "o.init.maxpat",
				"bootpath" : "/Users/adrian2013/CNMAT-odot/abstractions/core",
				"patcherrelativepath" : "../core",
				"type" : "JSON",
				"implicit" : 1
			}
, 			{
				"name" : "o.righttoleft.maxpat",
				"bootpath" : "/Users/adrian2013/CNMAT-odot/abstractions/core",
				"patcherrelativepath" : "../core",
				"type" : "JSON",
				"implicit" : 1
			}
, 			{
				"name" : "o.out.maxpat",
				"bootpath" : "/Users/adrian2013/CNMAT-odot/abstractions/core",
				"patcherrelativepath" : "../core",
				"type" : "JSON",
				"implicit" : 1
			}
, 			{
				"name" : "o.arguments.maxpat",
				"bootpath" : "/Users/adrian2013/CNMAT-odot/abstractions",
				"patcherrelativepath" : "..",
				"type" : "JSON",
				"implicit" : 1
			}
, 			{
				"name" : "o.iterate.expr.maxpat",
				"bootpath" : "/Users/adrian2013/CNMAT-odot/abstractions",
				"patcherrelativepath" : "..",
				"type" : "JSON",
				"implicit" : 1
			}
, 			{
				"name" : "o.var.mxo",
				"type" : "iLaX"
			}
, 			{
				"name" : "o.if.mxo",
				"type" : "iLaX"
			}
, 			{
				"name" : "o.expr.mxo",
				"type" : "iLaX"
			}
, 			{
				"name" : "o.pack.mxo",
				"type" : "iLaX"
			}
, 			{
				"name" : "o.union.mxo",
				"type" : "iLaX"
			}
, 			{
				"name" : "o.select.mxo",
				"type" : "iLaX"
			}
, 			{
				"name" : "o.context.mxo",
				"type" : "iLaX"
			}
, 			{
				"name" : "o.collect.mxo",
				"type" : "iLaX"
			}
, 			{
				"name" : "o.route.mxo",
				"type" : "iLaX"
			}
, 			{
				"name" : "o.pak.mxo",
				"type" : "iLaX"
			}
, 			{
				"name" : "o.prepend.mxo",
				"type" : "iLaX"
			}
, 			{
				"name" : "o.cond.mxo",
				"type" : "iLaX"
			}
, 			{
				"name" : "o.message.mxo",
				"type" : "iLaX"
			}
 ]
	}

}
