#N canvas 782 345 450 300 10;
#X floatatom 58 82 5 0 0 0 - - -, f 5;
#X obj 58 107 o.pack /foo;
#X obj 138 197 o.print ==;
#X obj 230 197 o.print >;
#X obj 58 198 o.print <;
#X obj 58 134 o.cond /foo < 3 \, /foo == 3 \, /foo > 3;
#X connect 0 0 1 0;
#X connect 1 0 5 0;
#X connect 5 0 4 0;
#X connect 5 1 2 0;
#X connect 5 2 3 0;
