#N canvas 495 89 749 544 10;
#X floatatom 53 245 5 0 0 0 - - -, f 5;
#X obj 53 270 o.pack /foo;
#X obj 29 42 o.display 642 144;
#N canvas 750 23 450 300 doc-text 0;
#X obj 36 179 outlet;
#X obj 36 58 loadbang;
#X msg 36 85 doc;
#X obj 36 149 o.route /doc;
#X obj 36 110 o.if /foo == 0;
#X connect 1 0 2 0;
#X connect 2 0 4 0;
#X connect 3 0 0 0;
#X connect 4 0 3 0;
#X restore 29 15 pd doc-text;
#X obj 53 300 o.display 100 27;
#X obj 53 387 o.display 100 27;
#X obj 53 347 o.if /foo < 10, f 25;
#X obj 200 388 o.display 100 27;
#X connect 0 0 1 0;
#X connect 1 0 4 0;
#X connect 3 0 2 0;
#X connect 4 0 6 0;
#X connect 6 0 5 0;
#X connect 6 1 7 0;
