#N canvas 40 22 781 792 10;
#X obj 112 95 o.atomize;
#X obj 112 63 o.append;
#X obj 112 278 o.difference;
#X obj 112 219 o.cond;
#X obj 549 523 o.expr;
#X obj 112 157 o.change;
#X obj 112 305 o.explode;
#X obj 112 337 o.flatten;
#X obj 112 369 o.if /foo == 1;
#X obj 112 401 o.intersection;
#X obj 111 432 o.mappatch;
#X obj 111 507 o.menu;
#X obj 547 579 o.message 100 23 binhex b#0A;
#X obj 333 57 o.pack /foo;
#X obj 548 552 o.pak /foo;
#X obj 333 125 o.prepend;
#X obj 333 159 o.print;
#X obj 333 193 o.printbytes;
#X obj 333 227 o.route /foo;
#X obj 333 261 o.schedule /timetag;
#X obj 333 295 o.select;
#X obj 581 300 o.table;
#X obj 333 363 o.timetag;
#X obj 333 397 o.union;
#X obj 333 465 o.var;
#X obj 333 431 o.unless /foo > 0;
#X obj 333 499 o.when /foo < 0;
#X text 69 20 list of odot objects;
#X obj 112 463 o.messageiterate;
#X obj 111 556 o.compose 100 23 binhex b#;
#X obj 115 618 o.expr.codebox 100 36 binhex b#;
#X obj 116 691 o.display 100 27;
#X text 544 499 deprecated:;
#X text 124 532 o.compose;
#X text 124 597 o.expr.codebox;
#X text 131 668 o.display;
#X text 127 489 o.menu;
#X obj 112 126 o.bundle;
#X obj 112 247 o.context;
#X obj 111 186 o.collect;
#X text 583 270 dev:;
