{
	"patcher" : 	{
		"fileversion" : 1,
		"appversion" : 		{
			"major" : 8,
			"minor" : 0,
			"revision" : 1,
			"architecture" : "x64",
			"modernui" : 1
		}
,
		"classnamespace" : "box",
		"rect" : [ 390.0, 99.0, 1070.0, 779.0 ],
		"bglocked" : 0,
		"openinpresentation" : 0,
		"default_fontsize" : 12.0,
		"default_fontface" : 0,
		"default_fontname" : "Arial",
		"gridonopen" : 1,
		"gridsize" : [ 15.0, 15.0 ],
		"gridsnaponopen" : 1,
		"objectsnaponopen" : 1,
		"statusbarvisible" : 2,
		"toolbarvisible" : 1,
		"lefttoolbarpinned" : 0,
		"toptoolbarpinned" : 0,
		"righttoolbarpinned" : 0,
		"bottomtoolbarpinned" : 0,
		"toolbars_unpinned_last_save" : 0,
		"tallnewobj" : 0,
		"boxanimatetime" : 200,
		"enablehscroll" : 1,
		"enablevscroll" : 1,
		"devicewidth" : 0.0,
		"description" : "",
		"digest" : "",
		"tags" : "",
		"style" : "",
		"subpatcher_template" : "",
		"boxes" : [ 			{
				"box" : 				{
					"id" : "obj-11",
					"maxclass" : "newobj",
					"numinlets" : 3,
					"numoutlets" : 3,
					"outlettype" : [ "", "", "" ],
					"patching_rect" : [ 220.0, 246.0, 151.0, 20.0 ],
					"text" : "routepass o.typetag signal"
				}

			}
, 			{
				"box" : 				{
					"fontface" : 0,
					"fontsize" : 12.0,
					"id" : "obj-10",
					"linecount" : 129,
					"maxclass" : "o.display",
					"numinlets" : 1,
					"numoutlets" : 1,
					"outlettype" : [ "" ],
					"patching_rect" : [ 782.0, 399.0, 229.0, 1026.0 ],
					"presentation_linecount" : 129,
					"text" : "/index/block : [5001., 5001., 5001., 5001., 5001., 5001., 5001., 5001., 5001., 5001., 5001., 5001., 5001., 5001., 5001., 5001., 5001., 5001., 5001., 5001., 5001., 5001., 5001., 5001., 5001., 5001., 5001., 5001., 5001., 5001., 5001., 5001., 5001., 5001., 5001., 5001., 5001., 5001., 5001., 5001., 5001., 5001., 5001., 5001., 5001., 5001., 5001., 5001., 5001., 5001., 5001., 5001., 5001., 5001., 5001., 5001., 5001., 5001., 5001., 5001., 5001., 5001., 5001., 5001., 5001., 5001., 5001., 5001., 5001., 5001., 5001., 5001., 5001., 5001., 5001., 5001., 5001., 5001., 5001., 5001., 5001., 5001., 5001., 5001., 5001., 5001., 5001., 5001., 5001., 5001., 5001., 5001., 5001., 5001., 5001., 5001., 5001., 5001., 5001., 5001., 5001., 5001., 5001., 5001., 5001., 5001., 5001., 5001., 5001., 5001., 5001., 5001., 5001., 5001., 5001., 5001., 5001., 5001., 5001., 5001., 5001., 5001., 5001., 5001., 5001., 5001., 5001., 5001., 5001., 5001., 5001., 5001., 5001., 5001., 5001., 5001., 5001., 5001., 5001., 5001., 5001., 5001., 5001., 5001., 5001., 5001., 5001., 5001., 5001., 5001., 5001., 5001., 5001., 5001., 5001., 5001., 5001., 5001., 5001., 5001., 5001., 5001., 5001., 5001., 5001., 5001., 5001., 5001., 5001., 5001., 5001., 5001., 5001., 5001., 5001., 5001., 5001., 5001., 5001., 5001., 5001., 5001., 5001., 5001., 5001., 5001., 5001., 5001., 5001., 5001., 5001., 5001., 5001., 5001., 5001., 5001., 5001., 5001., 5001., 5001., 5001., 5001., 5001., 5001., 5001., 5001., 5001., 5001., 5001., 5001., 5001., 5001., 5001., 5001., 5001., 5001., 5001., 5001., 5001., 5001., 5001., 5001., 5001., 5001., 5001., 5001., 5001., 5001., 5001., 5001., 5001., 5001., 5001., 5001., 5001., 5001., 5001., 5001., 5001., 5001., 5001., 5001., 5001., 5001., 5001., 5001., 5001., 5001., 5001., 5001., 5001., 5001., 5001., 5001., 5001., 5001., 5001., 5001., 5001., 5001., 5001., 5001., 5001., 5001., 5001., 5001., 5001., 5001., 5001., 5001., 5001., 5001., 5001., 5001., 5001., 5001., 5001., 5001., 5001., 5001., 5001., 5001., 5001., 5001., 5001., 5001., 5001., 5001., 5001., 5001., 5001., 5001., 5001., 5001., 5001., 5001., 5001., 5001., 5001., 5001., 5001., 5001., 5001., 5001., 5001., 5001., 5001., 5001., 5001., 5001., 5001., 5001., 5001., 5001., 5001., 5001., 5001., 5001., 5001., 5001., 5001., 5001., 5001., 5001., 5001., 5001., 5001., 5001., 5001., 5001., 5001., 5001., 5001., 5001., 5001., 5001., 5001., 5001., 5001., 5001., 5001., 5001., 5001., 5001., 5001., 5001., 5001., 5001., 5001., 5001., 5001., 5001., 5001., 5001., 5001., 5001., 5001., 5001., 5001., 5001., 5001., 5001., 5001., 5001., 5001., 5001., 5001., 5001., 5001., 5001., 5001., 5001., 5001., 5001., 5001., 5001., 5001., 5001., 5001., 5001., 5001., 5001., 5001., 5001., 5001., 5001., 5001., 5001., 5001., 5001., 5001., 5001., 5001., 5001., 5001., 5001., 5001., 5001., 5001., 5001., 5001., 5001., 5001., 5001., 5001., 5001., 5001., 5001., 5001., 5001., 5001., 5001., 5001., 5001., 5001., 5001., 5001., 5001., 5001., 5001., 5001., 5001., 5001., 5001., 5001., 5001., 5001., 5001., 5001., 5001., 5001., 5001., 5001., 5001., 5001., 5001., 5001., 5001., 5001., 5001., 5001., 5001., 5001., 5001., 5001., 5001., 5001., 5001., 5001., 5001., 5001., 5001., 5001., 5001., 5001., 5001., 5001., 5001., 5001., 5001., 5001., 5001., 5001., 5001., 5001., 5001., 5001., 5001., 5001., 5001., 5001., 5001., 5001., 5001., 5001., 5001., 5001., 5001., 5001., 5001., 5001., 5001., 5001., 5001., 5001., 5001., 5001., 5001., 5001., 5001., 5001., 5001., 5001., 5001., 5001., 5001., 5001., 5001., 5001., 5001., 5001., 5001., 5001., 5001., 5001., 5001., 5001., 5001., 5001., 5001., 5001., 5001.]"
				}

			}
, 			{
				"box" : 				{
					"fontface" : 0,
					"fontsize" : 12.0,
					"id" : "obj-9",
					"linecount" : 100,
					"maxclass" : "o.display",
					"numinlets" : 1,
					"numoutlets" : 1,
					"outlettype" : [ "" ],
					"patching_rect" : [ 540.0, 399.0, 229.0, 1026.0 ],
					"presentation_linecount" : 100,
					"text" : "/index/sample : [0., 1., 2., 3., 4., 5., 6., 7., 8., 9., 10., 11., 12., 13., 14., 15., 16., 17., 18., 19., 20., 21., 22., 23., 24., 25., 26., 27., 28., 29., 30., 31., 32., 33., 34., 35., 36., 37., 38., 39., 40., 41., 42., 43., 44., 45., 46., 47., 48., 49., 50., 51., 52., 53., 54., 55., 56., 57., 58., 59., 60., 61., 62., 63., 64., 65., 66., 67., 68., 69., 70., 71., 72., 73., 74., 75., 76., 77., 78., 79., 80., 81., 82., 83., 84., 85., 86., 87., 88., 89., 90., 91., 92., 93., 94., 95., 96., 97., 98., 99., 100., 101., 102., 103., 104., 105., 106., 107., 108., 109., 110., 111., 112., 113., 114., 115., 116., 117., 118., 119., 120., 121., 122., 123., 124., 125., 126., 127., 128., 129., 130., 131., 132., 133., 134., 135., 136., 137., 138., 139., 140., 141., 142., 143., 144., 145., 146., 147., 148., 149., 150., 151., 152., 153., 154., 155., 156., 157., 158., 159., 160., 161., 162., 163., 164., 165., 166., 167., 168., 169., 170., 171., 172., 173., 174., 175., 176., 177., 178., 179., 180., 181., 182., 183., 184., 185., 186., 187., 188., 189., 190., 191., 192., 193., 194., 195., 196., 197., 198., 199., 200., 201., 202., 203., 204., 205., 206., 207., 208., 209., 210., 211., 212., 213., 214., 215., 216., 217., 218., 219., 220., 221., 222., 223., 224., 225., 226., 227., 228., 229., 230., 231., 232., 233., 234., 235., 236., 237., 238., 239., 240., 241., 242., 243., 244., 245., 246., 247., 248., 249., 250., 251., 252., 253., 254., 255., 256., 257., 258., 259., 260., 261., 262., 263., 264., 265., 266., 267., 268., 269., 270., 271., 272., 273., 274., 275., 276., 277., 278., 279., 280., 281., 282., 283., 284., 285., 286., 287., 288., 289., 290., 291., 292., 293., 294., 295., 296., 297., 298., 299., 300., 301., 302., 303., 304., 305., 306., 307., 308., 309., 310., 311., 312., 313., 314., 315., 316., 317., 318., 319., 320., 321., 322., 323., 324., 325., 326., 327., 328., 329., 330., 331., 332., 333., 334., 335., 336., 337., 338., 339., 340., 341., 342., 343., 344., 345., 346., 347., 348., 349., 350., 351., 352., 353., 354., 355., 356., 357., 358., 359., 360., 361., 362., 363., 364., 365., 366., 367., 368., 369., 370., 371., 372., 373., 374., 375., 376., 377., 378., 379., 380., 381., 382., 383., 384., 385., 386., 387., 388., 389., 390., 391., 392., 393., 394., 395., 396., 397., 398., 399., 400., 401., 402., 403., 404., 405., 406., 407., 408., 409., 410., 411., 412., 413., 414., 415., 416., 417., 418., 419., 420., 421., 422., 423., 424., 425., 426., 427., 428., 429., 430., 431., 432., 433., 434., 435., 436., 437., 438., 439., 440., 441., 442., 443., 444., 445., 446., 447., 448., 449., 450., 451., 452., 453., 454., 455., 456., 457., 458., 459., 460., 461., 462., 463., 464., 465., 466., 467., 468., 469., 470., 471., 472., 473., 474., 475., 476., 477., 478., 479., 480., 481., 482., 483., 484., 485., 486., 487., 488., 489., 490., 491., 492., 493., 494., 495., 496., 497., 498., 499., 500., 501., 502., 503., 504., 505., 506., 507., 508., 509., 510., 511.]"
				}

			}
, 			{
				"box" : 				{
					"fontface" : 0,
					"fontsize" : 12.0,
					"id" : "obj-7",
					"linecount" : 513,
					"maxclass" : "o.display",
					"numinlets" : 1,
					"numoutlets" : 1,
					"outlettype" : [ "" ],
					"patching_rect" : [ 298.0, 399.0, 229.0, 1026.0 ],
					"presentation_linecount" : 513,
					"text" : "/time/system : [2018-11-02T11:22:12.074458Z, 2018-11-02T11:22:12.074458Z, 2018-11-02T11:22:12.074458Z, 2018-11-02T11:22:12.074458Z, 2018-11-02T11:22:12.074458Z, 2018-11-02T11:22:12.074458Z, 2018-11-02T11:22:12.074458Z, 2018-11-02T11:22:12.074458Z, 2018-11-02T11:22:12.074458Z, 2018-11-02T11:22:12.074458Z, 2018-11-02T11:22:12.074458Z, 2018-11-02T11:22:12.074458Z, 2018-11-02T11:22:12.074458Z, 2018-11-02T11:22:12.074458Z, 2018-11-02T11:22:12.074458Z, 2018-11-02T11:22:12.074458Z, 2018-11-02T11:22:12.074458Z, 2018-11-02T11:22:12.074458Z, 2018-11-02T11:22:12.074458Z, 2018-11-02T11:22:12.074458Z, 2018-11-02T11:22:12.074458Z, 2018-11-02T11:22:12.074458Z, 2018-11-02T11:22:12.074458Z, 2018-11-02T11:22:12.074458Z, 2018-11-02T11:22:12.074458Z, 2018-11-02T11:22:12.074458Z, 2018-11-02T11:22:12.074458Z, 2018-11-02T11:22:12.074458Z, 2018-11-02T11:22:12.074458Z, 2018-11-02T11:22:12.074458Z, 2018-11-02T11:22:12.074458Z, 2018-11-02T11:22:12.074458Z, 2018-11-02T11:22:12.074458Z, 2018-11-02T11:22:12.074458Z, 2018-11-02T11:22:12.074458Z, 2018-11-02T11:22:12.074458Z, 2018-11-02T11:22:12.074458Z, 2018-11-02T11:22:12.074458Z, 2018-11-02T11:22:12.074458Z, 2018-11-02T11:22:12.074458Z, 2018-11-02T11:22:12.074458Z, 2018-11-02T11:22:12.074458Z, 2018-11-02T11:22:12.074458Z, 2018-11-02T11:22:12.074458Z, 2018-11-02T11:22:12.074458Z, 2018-11-02T11:22:12.074458Z, 2018-11-02T11:22:12.074458Z, 2018-11-02T11:22:12.074458Z, 2018-11-02T11:22:12.074458Z, 2018-11-02T11:22:12.074458Z, 2018-11-02T11:22:12.074458Z, 2018-11-02T11:22:12.074458Z, 2018-11-02T11:22:12.074458Z, 2018-11-02T11:22:12.074458Z, 2018-11-02T11:22:12.074458Z, 2018-11-02T11:22:12.074458Z, 2018-11-02T11:22:12.074458Z, 2018-11-02T11:22:12.074458Z, 2018-11-02T11:22:12.074458Z, 2018-11-02T11:22:12.074458Z, 2018-11-02T11:22:12.074458Z, 2018-11-02T11:22:12.074458Z, 2018-11-02T11:22:12.074458Z, 2018-11-02T11:22:12.074458Z, 2018-11-02T11:22:12.074458Z, 2018-11-02T11:22:12.074458Z, 2018-11-02T11:22:12.074458Z, 2018-11-02T11:22:12.074458Z, 2018-11-02T11:22:12.074458Z, 2018-11-02T11:22:12.074458Z, 2018-11-02T11:22:12.074458Z, 2018-11-02T11:22:12.074458Z, 2018-11-02T11:22:12.074458Z, 2018-11-02T11:22:12.074458Z, 2018-11-02T11:22:12.074458Z, 2018-11-02T11:22:12.074458Z, 2018-11-02T11:22:12.074458Z, 2018-11-02T11:22:12.074458Z, 2018-11-02T11:22:12.074458Z, 2018-11-02T11:22:12.074458Z, 2018-11-02T11:22:12.074458Z, 2018-11-02T11:22:12.074458Z, 2018-11-02T11:22:12.074458Z, 2018-11-02T11:22:12.074458Z, 2018-11-02T11:22:12.074458Z, 2018-11-02T11:22:12.074458Z, 2018-11-02T11:22:12.074458Z, 2018-11-02T11:22:12.074458Z, 2018-11-02T11:22:12.074458Z, 2018-11-02T11:22:12.074458Z, 2018-11-02T11:22:12.074458Z, 2018-11-02T11:22:12.074458Z, 2018-11-02T11:22:12.074458Z, 2018-11-02T11:22:12.074458Z, 2018-11-02T11:22:12.074458Z, 2018-11-02T11:22:12.074458Z, 2018-11-02T11:22:12.074458Z, 2018-11-02T11:22:12.074458Z, 2018-11-02T11:22:12.074458Z, 2018-11-02T11:22:12.074458Z, 2018-11-02T11:22:12.074458Z, 2018-11-02T11:22:12.074458Z, 2018-11-02T11:22:12.074458Z, 2018-11-02T11:22:12.074458Z, 2018-11-02T11:22:12.074458Z, 2018-11-02T11:22:12.074458Z, 2018-11-02T11:22:12.074458Z, 2018-11-02T11:22:12.074458Z, 2018-11-02T11:22:12.074458Z, 2018-11-02T11:22:12.074458Z, 2018-11-02T11:22:12.074458Z, 2018-11-02T11:22:12.074458Z, 2018-11-02T11:22:12.074458Z, 2018-11-02T11:22:12.074458Z, 2018-11-02T11:22:12.074458Z, 2018-11-02T11:22:12.074458Z, 2018-11-02T11:22:12.074458Z, 2018-11-02T11:22:12.074458Z, 2018-11-02T11:22:12.074458Z, 2018-11-02T11:22:12.074458Z, 2018-11-02T11:22:12.074458Z, 2018-11-02T11:22:12.074458Z, 2018-11-02T11:22:12.074458Z, 2018-11-02T11:22:12.074458Z, 2018-11-02T11:22:12.074458Z, 2018-11-02T11:22:12.074458Z, 2018-11-02T11:22:12.074458Z, 2018-11-02T11:22:12.074458Z, 2018-11-02T11:22:12.074458Z, 2018-11-02T11:22:12.074458Z, 2018-11-02T11:22:12.074458Z, 2018-11-02T11:22:12.074458Z, 2018-11-02T11:22:12.074458Z, 2018-11-02T11:22:12.074458Z, 2018-11-02T11:22:12.074458Z, 2018-11-02T11:22:12.074458Z, 2018-11-02T11:22:12.074458Z, 2018-11-02T11:22:12.074458Z, 2018-11-02T11:22:12.074458Z, 2018-11-02T11:22:12.074458Z, 2018-11-02T11:22:12.074458Z, 2018-11-02T11:22:12.074458Z, 2018-11-02T11:22:12.074458Z, 2018-11-02T11:22:12.074458Z, 2018-11-02T11:22:12.074458Z, 2018-11-02T11:22:12.074458Z, 2018-11-02T11:22:12.074458Z, 2018-11-02T11:22:12.074458Z, 2018-11-02T11:22:12.074458Z, 2018-11-02T11:22:12.074458Z, 2018-11-02T11:22:12.074458Z, 2018-11-02T11:22:12.074458Z, 2018-11-02T11:22:12.074458Z, 2018-11-02T11:22:12.074458Z, 2018-11-02T11:22:12.074458Z, 2018-11-02T11:22:12.074458Z, 2018-11-02T11:22:12.074458Z, 2018-11-02T11:22:12.074458Z, 2018-11-02T11:22:12.074458Z, 2018-11-02T11:22:12.074458Z, 2018-11-02T11:22:12.074458Z, 2018-11-02T11:22:12.074458Z, 2018-11-02T11:22:12.074458Z, 2018-11-02T11:22:12.074458Z, 2018-11-02T11:22:12.074458Z, 2018-11-02T11:22:12.074458Z, 2018-11-02T11:22:12.074458Z, 2018-11-02T11:22:12.074458Z, 2018-11-02T11:22:12.074458Z, 2018-11-02T11:22:12.074458Z, 2018-11-02T11:22:12.074458Z, 2018-11-02T11:22:12.074458Z, 2018-11-02T11:22:12.074458Z, 2018-11-02T11:22:12.074458Z, 2018-11-02T11:22:12.074458Z, 2018-11-02T11:22:12.074458Z, 2018-11-02T11:22:12.074458Z, 2018-11-02T11:22:12.074458Z, 2018-11-02T11:22:12.074458Z, 2018-11-02T11:22:12.074458Z, 2018-11-02T11:22:12.074458Z, 2018-11-02T11:22:12.074458Z, 2018-11-02T11:22:12.074458Z, 2018-11-02T11:22:12.074458Z, 2018-11-02T11:22:12.074458Z, 2018-11-02T11:22:12.074458Z, 2018-11-02T11:22:12.074458Z, 2018-11-02T11:22:12.074458Z, 2018-11-02T11:22:12.074458Z, 2018-11-02T11:22:12.074458Z, 2018-11-02T11:22:12.074458Z, 2018-11-02T11:22:12.074458Z, 2018-11-02T11:22:12.074458Z, 2018-11-02T11:22:12.074458Z, 2018-11-02T11:22:12.074458Z, 2018-11-02T11:22:12.074458Z, 2018-11-02T11:22:12.074458Z, 2018-11-02T11:22:12.074458Z, 2018-11-02T11:22:12.074458Z, 2018-11-02T11:22:12.074458Z, 2018-11-02T11:22:12.074458Z, 2018-11-02T11:22:12.074458Z, 2018-11-02T11:22:12.074458Z, 2018-11-02T11:22:12.074458Z, 2018-11-02T11:22:12.074458Z, 2018-11-02T11:22:12.074458Z, 2018-11-02T11:22:12.074458Z, 2018-11-02T11:22:12.074458Z, 2018-11-02T11:22:12.074458Z, 2018-11-02T11:22:12.074458Z, 2018-11-02T11:22:12.074458Z, 2018-11-02T11:22:12.074458Z, 2018-11-02T11:22:12.074458Z, 2018-11-02T11:22:12.074458Z, 2018-11-02T11:22:12.074458Z, 2018-11-02T11:22:12.074458Z, 2018-11-02T11:22:12.074458Z, 2018-11-02T11:22:12.074458Z, 2018-11-02T11:22:12.074458Z, 2018-11-02T11:22:12.074458Z, 2018-11-02T11:22:12.074458Z, 2018-11-02T11:22:12.074458Z, 2018-11-02T11:22:12.074458Z, 2018-11-02T11:22:12.074458Z, 2018-11-02T11:22:12.074458Z, 2018-11-02T11:22:12.074458Z, 2018-11-02T11:22:12.074458Z, 2018-11-02T11:22:12.074458Z, 2018-11-02T11:22:12.074458Z, 2018-11-02T11:22:12.074458Z, 2018-11-02T11:22:12.074458Z, 2018-11-02T11:22:12.074458Z, 2018-11-02T11:22:12.074458Z, 2018-11-02T11:22:12.074458Z, 2018-11-02T11:22:12.074458Z, 2018-11-02T11:22:12.074458Z, 2018-11-02T11:22:12.074458Z, 2018-11-02T11:22:12.074458Z, 2018-11-02T11:22:12.074458Z, 2018-11-02T11:22:12.074458Z, 2018-11-02T11:22:12.074458Z, 2018-11-02T11:22:12.074458Z, 2018-11-02T11:22:12.074458Z, 2018-11-02T11:22:12.074458Z, 2018-11-02T11:22:12.074458Z, 2018-11-02T11:22:12.074458Z, 2018-11-02T11:22:12.074458Z, 2018-11-02T11:22:12.074458Z, 2018-11-02T11:22:12.074458Z, 2018-11-02T11:22:12.074458Z, 2018-11-02T11:22:12.074458Z, 2018-11-02T11:22:12.074458Z, 2018-11-02T11:22:12.074458Z, 2018-11-02T11:22:12.074458Z, 2018-11-02T11:22:12.074458Z, 2018-11-02T11:22:12.074458Z, 2018-11-02T11:22:12.074458Z, 2018-11-02T11:22:12.074458Z, 2018-11-02T11:22:12.074458Z, 2018-11-02T11:22:12.074458Z, 2018-11-02T11:22:12.074458Z, 2018-11-02T11:22:12.074458Z, 2018-11-02T11:22:12.074458Z, 2018-11-02T11:22:12.074458Z, 2018-11-02T11:22:12.074458Z, 2018-11-02T11:22:12.074458Z, 2018-11-02T11:22:12.074458Z, 2018-11-02T11:22:12.074458Z, 2018-11-02T11:22:12.074458Z, 2018-11-02T11:22:12.074458Z, 2018-11-02T11:22:12.074458Z, 2018-11-02T11:22:12.074458Z, 2018-11-02T11:22:12.074458Z, 2018-11-02T11:22:12.074458Z, 2018-11-02T11:22:12.074458Z, 2018-11-02T11:22:12.074458Z, 2018-11-02T11:22:12.074458Z, 2018-11-02T11:22:12.074458Z, 2018-11-02T11:22:12.074458Z, 2018-11-02T11:22:12.074458Z, 2018-11-02T11:22:12.074458Z, 2018-11-02T11:22:12.074458Z, 2018-11-02T11:22:12.074458Z, 2018-11-02T11:22:12.074458Z, 2018-11-02T11:22:12.074458Z, 2018-11-02T11:22:12.074458Z, 2018-11-02T11:22:12.074458Z, 2018-11-02T11:22:12.074458Z, 2018-11-02T11:22:12.074458Z, 2018-11-02T11:22:12.074458Z, 2018-11-02T11:22:12.074458Z, 2018-11-02T11:22:12.074458Z, 2018-11-02T11:22:12.074458Z, 2018-11-02T11:22:12.074458Z, 2018-11-02T11:22:12.074458Z, 2018-11-02T11:22:12.074458Z, 2018-11-02T11:22:12.074458Z, 2018-11-02T11:22:12.074458Z, 2018-11-02T11:22:12.074458Z, 2018-11-02T11:22:12.074458Z, 2018-11-02T11:22:12.074458Z, 2018-11-02T11:22:12.074458Z, 2018-11-02T11:22:12.074458Z, 2018-11-02T11:22:12.074458Z, 2018-11-02T11:22:12.074458Z, 2018-11-02T11:22:12.074458Z, 2018-11-02T11:22:12.074458Z, 2018-11-02T11:22:12.074458Z, 2018-11-02T11:22:12.074458Z, 2018-11-02T11:22:12.074458Z, 2018-11-02T11:22:12.074458Z, 2018-11-02T11:22:12.074458Z, 2018-11-02T11:22:12.074458Z, 2018-11-02T11:22:12.074458Z, 2018-11-02T11:22:12.074458Z, 2018-11-02T11:22:12.074458Z, 2018-11-02T11:22:12.074458Z, 2018-11-02T11:22:12.074458Z, 2018-11-02T11:22:12.074458Z, 2018-11-02T11:22:12.074458Z, 2018-11-02T11:22:12.074458Z, 2018-11-02T11:22:12.074458Z, 2018-11-02T11:22:12.074458Z, 2018-11-02T11:22:12.074458Z, 2018-11-02T11:22:12.074458Z, 2018-11-02T11:22:12.074458Z, 2018-11-02T11:22:12.074458Z, 2018-11-02T11:22:12.074458Z, 2018-11-02T11:22:12.074458Z, 2018-11-02T11:22:12.074458Z, 2018-11-02T11:22:12.074458Z, 2018-11-02T11:22:12.074458Z, 2018-11-02T11:22:12.074458Z, 2018-11-02T11:22:12.074458Z, 2018-11-02T11:22:12.074458Z, 2018-11-02T11:22:12.074458Z, 2018-11-02T11:22:12.074458Z, 2018-11-02T11:22:12.074458Z, 2018-11-02T11:22:12.074458Z, 2018-11-02T11:22:12.074458Z, 2018-11-02T11:22:12.074458Z, 2018-11-02T11:22:12.074458Z, 2018-11-02T11:22:12.074458Z, 2018-11-02T11:22:12.074458Z, 2018-11-02T11:22:12.074458Z, 2018-11-02T11:22:12.074458Z, 2018-11-02T11:22:12.074458Z, 2018-11-02T11:22:12.074458Z, 2018-11-02T11:22:12.074458Z, 2018-11-02T11:22:12.074458Z, 2018-11-02T11:22:12.074458Z, 2018-11-02T11:22:12.074458Z, 2018-11-02T11:22:12.074458Z, 2018-11-02T11:22:12.074458Z, 2018-11-02T11:22:12.074458Z, 2018-11-02T11:22:12.074458Z, 2018-11-02T11:22:12.074458Z, 2018-11-02T11:22:12.074458Z, 2018-11-02T11:22:12.074458Z, 2018-11-02T11:22:12.074458Z, 2018-11-02T11:22:12.074458Z, 2018-11-02T11:22:12.074458Z, 2018-11-02T11:22:12.074458Z, 2018-11-02T11:22:12.074458Z, 2018-11-02T11:22:12.074458Z, 2018-11-02T11:22:12.074458Z, 2018-11-02T11:22:12.074458Z, 2018-11-02T11:22:12.074458Z, 2018-11-02T11:22:12.074458Z, 2018-11-02T11:22:12.074458Z, 2018-11-02T11:22:12.074458Z, 2018-11-02T11:22:12.074458Z, 2018-11-02T11:22:12.074458Z, 2018-11-02T11:22:12.074458Z, 2018-11-02T11:22:12.074458Z, 2018-11-02T11:22:12.074458Z, 2018-11-02T11:22:12.074458Z, 2018-11-02T11:22:12.074458Z, 2018-11-02T11:22:12.074458Z, 2018-11-02T11:22:12.074458Z, 2018-11-02T11:22:12.074458Z, 2018-11-02T11:22:12.074458Z, 2018-11-02T11:22:12.074458Z, 2018-11-02T11:22:12.074458Z, 2018-11-02T11:22:12.074458Z, 2018-11-02T11:22:12.074458Z, 2018-11-02T11:22:12.074458Z, 2018-11-02T11:22:12.074458Z, 2018-11-02T11:22:12.074458Z, 2018-11-02T11:22:12.074458Z, 2018-11-02T11:22:12.074458Z, 2018-11-02T11:22:12.074458Z, 2018-11-02T11:22:12.074458Z, 2018-11-02T11:22:12.074458Z, 2018-11-02T11:22:12.074458Z, 2018-11-02T11:22:12.074458Z, 2018-11-02T11:22:12.074458Z, 2018-11-02T11:22:12.074458Z, 2018-11-02T11:22:12.074458Z, 2018-11-02T11:22:12.074458Z, 2018-11-02T11:22:12.074458Z, 2018-11-02T11:22:12.074458Z, 2018-11-02T11:22:12.074458Z, 2018-11-02T11:22:12.074458Z, 2018-11-02T11:22:12.074458Z, 2018-11-02T11:22:12.074458Z, 2018-11-02T11:22:12.074458Z, 2018-11-02T11:22:12.074458Z, 2018-11-02T11:22:12.074458Z, 2018-11-02T11:22:12.074458Z, 2018-11-02T11:22:12.074458Z, 2018-11-02T11:22:12.074458Z, 2018-11-02T11:22:12.074458Z, 2018-11-02T11:22:12.074458Z, 2018-11-02T11:22:12.074458Z, 2018-11-02T11:22:12.074458Z, 2018-11-02T11:22:12.074458Z, 2018-11-02T11:22:12.074458Z, 2018-11-02T11:22:12.074458Z, 2018-11-02T11:22:12.074458Z, 2018-11-02T11:22:12.074458Z, 2018-11-02T11:22:12.074458Z, 2018-11-02T11:22:12.074458Z, 2018-11-02T11:22:12.074458Z, 2018-11-02T11:22:12.074458Z, 2018-11-02T11:22:12.074458Z, 2018-11-02T11:22:12.074458Z, 2018-11-02T11:22:12.074458Z, 2018-11-02T11:22:12.074458Z, 2018-11-02T11:22:12.074458Z, 2018-11-02T11:22:12.074458Z, 2018-11-02T11:22:12.074458Z, 2018-11-02T11:22:12.074458Z, 2018-11-02T11:22:12.074458Z, 2018-11-02T11:22:12.074458Z, 2018-11-02T11:22:12.074458Z, 2018-11-02T11:22:12.074458Z, 2018-11-02T11:22:12.074458Z, 2018-11-02T11:22:12.074458Z, 2018-11-02T11:22:12.074458Z, 2018-11-02T11:22:12.074458Z, 2018-11-02T11:22:12.074458Z, 2018-11-02T11:22:12.074458Z, 2018-11-02T11:22:12.074458Z, 2018-11-02T11:22:12.074458Z, 2018-11-02T11:22:12.074458Z, 2018-11-02T11:22:12.074458Z, 2018-11-02T11:22:12.074458Z, 2018-11-02T11:22:12.074458Z, 2018-11-02T11:22:12.074458Z, 2018-11-02T11:22:12.074458Z, 2018-11-02T11:22:12.074458Z, 2018-11-02T11:22:12.074458Z, 2018-11-02T11:22:12.074458Z, 2018-11-02T11:22:12.074458Z, 2018-11-02T11:22:12.074458Z, 2018-11-02T11:22:12.074458Z, 2018-11-02T11:22:12.074458Z, 2018-11-02T11:22:12.074458Z, 2018-11-02T11:22:12.074458Z, 2018-11-02T11:22:12.074458Z, 2018-11-02T11:22:12.074458Z, 2018-11-02T11:22:12.074458Z, 2018-11-02T11:22:12.074458Z, 2018-11-02T11:22:12.074458Z, 2018-11-02T11:22:12.074458Z, 2018-11-02T11:22:12.074458Z, 2018-11-02T11:22:12.074458Z, 2018-11-02T11:22:12.074458Z, 2018-11-02T11:22:12.074458Z, 2018-11-02T11:22:12.074458Z, 2018-11-02T11:22:12.074458Z, 2018-11-02T11:22:12.074458Z, 2018-11-02T11:22:12.074458Z, 2018-11-02T11:22:12.074458Z, 2018-11-02T11:22:12.074458Z, 2018-11-02T11:22:12.074458Z, 2018-11-02T11:22:12.074458Z, 2018-11-02T11:22:12.074458Z, 2018-11-02T11:22:12.074458Z, 2018-11-02T11:22:12.074458Z, 2018-11-02T11:22:12.074458Z, 2018-11-02T11:22:12.074458Z, 2018-11-02T11:22:12.074458Z, 2018-11-02T11:22:12.074458Z, 2018-11-02T11:22:12.074458Z, 2018-11-02T11:22:12.074458Z, 2018-11-02T11:22:12.074458Z, 2018-11-02T11:22:12.074458Z, 2018-11-02T11:22:12.074458Z, 2018-11-02T11:22:12.074458Z, 2018-11-02T11:22:12.074458Z, 2018-11-02T11:22:12.074458Z, 2018-11-02T11:22:12.074458Z, 2018-11-02T11:22:12.074458Z, 2018-11-02T11:22:12.074458Z, 2018-11-02T11:22:12.074458Z, 2018-11-02T11:22:12.074458Z, 2018-11-02T11:22:12.074458Z, 2018-11-02T11:22:12.074458Z, 2018-11-02T11:22:12.074458Z, 2018-11-02T11:22:12.074458Z, 2018-11-02T11:22:12.074458Z, 2018-11-02T11:22:12.074458Z, 2018-11-02T11:22:12.074458Z, 2018-11-02T11:22:12.074458Z, 2018-11-02T11:22:12.074458Z, 2018-11-02T11:22:12.074458Z, 2018-11-02T11:22:12.074458Z, 2018-11-02T11:22:12.074458Z, 2018-11-02T11:22:12.074458Z, 2018-11-02T11:22:12.074458Z]"
				}

			}
, 			{
				"box" : 				{
					"id" : "obj-6",
					"maxclass" : "newobj",
					"numinlets" : 1,
					"numoutlets" : 5,
					"outlettype" : [ "", "", "", "", "FullPacket" ],
					"patching_rect" : [ 56.0, 345.0, 320.0, 20.0 ],
					"text" : "o.select /time/msp /time/system /index/sample /index/block"
				}

			}
, 			{
				"box" : 				{
					"fontface" : 0,
					"fontsize" : 12.0,
					"id" : "obj-4",
					"linecount" : 513,
					"maxclass" : "o.display",
					"numinlets" : 1,
					"numoutlets" : 1,
					"outlettype" : [ "" ],
					"patching_rect" : [ 56.0, 399.0, 229.0, 6994.0 ],
					"text" : "/time/msp : [2018-11-02T11:22:12.028108Z, 2018-11-02T11:22:12.028131Z, 2018-11-02T11:22:12.028153Z, 2018-11-02T11:22:12.028176Z, 2018-11-02T11:22:12.028199Z, 2018-11-02T11:22:12.028222Z, 2018-11-02T11:22:12.028244Z, 2018-11-02T11:22:12.028267Z, 2018-11-02T11:22:12.028290Z, 2018-11-02T11:22:12.028312Z, 2018-11-02T11:22:12.028335Z, 2018-11-02T11:22:12.028358Z, 2018-11-02T11:22:12.028380Z, 2018-11-02T11:22:12.028403Z, 2018-11-02T11:22:12.028426Z, 2018-11-02T11:22:12.028449Z, 2018-11-02T11:22:12.028471Z, 2018-11-02T11:22:12.028494Z, 2018-11-02T11:22:12.028516Z, 2018-11-02T11:22:12.028539Z, 2018-11-02T11:22:12.028562Z, 2018-11-02T11:22:12.028584Z, 2018-11-02T11:22:12.028607Z, 2018-11-02T11:22:12.028630Z, 2018-11-02T11:22:12.028652Z, 2018-11-02T11:22:12.028675Z, 2018-11-02T11:22:12.028698Z, 2018-11-02T11:22:12.028720Z, 2018-11-02T11:22:12.028743Z, 2018-11-02T11:22:12.028766Z, 2018-11-02T11:22:12.028789Z, 2018-11-02T11:22:12.028811Z, 2018-11-02T11:22:12.028834Z, 2018-11-02T11:22:12.028856Z, 2018-11-02T11:22:12.028879Z, 2018-11-02T11:22:12.028902Z, 2018-11-02T11:22:12.028924Z, 2018-11-02T11:22:12.028947Z, 2018-11-02T11:22:12.028970Z, 2018-11-02T11:22:12.028993Z, 2018-11-02T11:22:12.029015Z, 2018-11-02T11:22:12.029038Z, 2018-11-02T11:22:12.029060Z, 2018-11-02T11:22:12.029083Z, 2018-11-02T11:22:12.029106Z, 2018-11-02T11:22:12.029129Z, 2018-11-02T11:22:12.029151Z, 2018-11-02T11:22:12.029174Z, 2018-11-02T11:22:12.029197Z, 2018-11-02T11:22:12.029219Z, 2018-11-02T11:22:12.029242Z, 2018-11-02T11:22:12.029264Z, 2018-11-02T11:22:12.029287Z, 2018-11-02T11:22:12.029310Z, 2018-11-02T11:22:12.029333Z, 2018-11-02T11:22:12.029356Z, 2018-11-02T11:22:12.029378Z, 2018-11-02T11:22:12.029401Z, 2018-11-02T11:22:12.029423Z, 2018-11-02T11:22:12.029446Z, 2018-11-02T11:22:12.029469Z, 2018-11-02T11:22:12.029491Z, 2018-11-02T11:22:12.029514Z, 2018-11-02T11:22:12.029537Z, 2018-11-02T11:22:12.029560Z, 2018-11-02T11:22:12.029582Z, 2018-11-02T11:22:12.029605Z, 2018-11-02T11:22:12.029627Z, 2018-11-02T11:22:12.029650Z, 2018-11-02T11:22:12.029673Z, 2018-11-02T11:22:12.029696Z, 2018-11-02T11:22:12.029718Z, 2018-11-02T11:22:12.029741Z, 2018-11-02T11:22:12.029764Z, 2018-11-02T11:22:12.029786Z, 2018-11-02T11:22:12.029809Z, 2018-11-02T11:22:12.029831Z, 2018-11-02T11:22:12.029854Z, 2018-11-02T11:22:12.029877Z, 2018-11-02T11:22:12.029900Z, 2018-11-02T11:22:12.029922Z, 2018-11-02T11:22:12.029945Z, 2018-11-02T11:22:12.029967Z, 2018-11-02T11:22:12.029990Z, 2018-11-02T11:22:12.030013Z, 2018-11-02T11:22:12.030035Z, 2018-11-02T11:22:12.030058Z, 2018-11-02T11:22:12.030081Z, 2018-11-02T11:22:12.030104Z, 2018-11-02T11:22:12.030126Z, 2018-11-02T11:22:12.030149Z, 2018-11-02T11:22:12.030171Z, 2018-11-02T11:22:12.030194Z, 2018-11-02T11:22:12.030217Z, 2018-11-02T11:22:12.030240Z, 2018-11-02T11:22:12.030262Z, 2018-11-02T11:22:12.030285Z, 2018-11-02T11:22:12.030308Z, 2018-11-02T11:22:12.030330Z, 2018-11-02T11:22:12.030353Z, 2018-11-02T11:22:12.030375Z, 2018-11-02T11:22:12.030398Z, 2018-11-02T11:22:12.030421Z, 2018-11-02T11:22:12.030444Z, 2018-11-02T11:22:12.030467Z, 2018-11-02T11:22:12.030489Z, 2018-11-02T11:22:12.030512Z, 2018-11-02T11:22:12.030534Z, 2018-11-02T11:22:12.030557Z, 2018-11-02T11:22:12.030580Z, 2018-11-02T11:22:12.030602Z, 2018-11-02T11:22:12.030625Z, 2018-11-02T11:22:12.030648Z, 2018-11-02T11:22:12.030671Z, 2018-11-02T11:22:12.030693Z, 2018-11-02T11:22:12.030716Z, 2018-11-02T11:22:12.030738Z, 2018-11-02T11:22:12.030761Z, 2018-11-02T11:22:12.030784Z, 2018-11-02T11:22:12.030807Z, 2018-11-02T11:22:12.030829Z, 2018-11-02T11:22:12.030852Z, 2018-11-02T11:22:12.030875Z, 2018-11-02T11:22:12.030897Z, 2018-11-02T11:22:12.030920Z, 2018-11-02T11:22:12.030942Z, 2018-11-02T11:22:12.030965Z, 2018-11-02T11:22:12.030988Z, 2018-11-02T11:22:12.031011Z, 2018-11-02T11:22:12.031033Z, 2018-11-02T11:22:12.031056Z, 2018-11-02T11:22:12.031079Z, 2018-11-02T11:22:12.031101Z, 2018-11-02T11:22:12.031124Z, 2018-11-02T11:22:12.031147Z, 2018-11-02T11:22:12.031169Z, 2018-11-02T11:22:12.031192Z, 2018-11-02T11:22:12.031215Z, 2018-11-02T11:22:12.031237Z, 2018-11-02T11:22:12.031260Z, 2018-11-02T11:22:12.031282Z, 2018-11-02T11:22:12.031305Z, 2018-11-02T11:22:12.031328Z, 2018-11-02T11:22:12.031351Z, 2018-11-02T11:22:12.031374Z, 2018-11-02T11:22:12.031396Z, 2018-11-02T11:22:12.031419Z, 2018-11-02T11:22:12.031441Z, 2018-11-02T11:22:12.031464Z, 2018-11-02T11:22:12.031487Z, 2018-11-02T11:22:12.031509Z, 2018-11-02T11:22:12.031532Z, 2018-11-02T11:22:12.031555Z, 2018-11-02T11:22:12.031578Z, 2018-11-02T11:22:12.031600Z, 2018-11-02T11:22:12.031623Z, 2018-11-02T11:22:12.031645Z, 2018-11-02T11:22:12.031668Z, 2018-11-02T11:22:12.031691Z, 2018-11-02T11:22:12.031713Z, 2018-11-02T11:22:12.031736Z, 2018-11-02T11:22:12.031759Z, 2018-11-02T11:22:12.031782Z, 2018-11-02T11:22:12.031804Z, 2018-11-02T11:22:12.031827Z, 2018-11-02T11:22:12.031849Z, 2018-11-02T11:22:12.031872Z, 2018-11-02T11:22:12.031895Z, 2018-11-02T11:22:12.031918Z, 2018-11-02T11:22:12.031940Z, 2018-11-02T11:22:12.031963Z, 2018-11-02T11:22:12.031986Z, 2018-11-02T11:22:12.032008Z, 2018-11-02T11:22:12.032031Z, 2018-11-02T11:22:12.032053Z, 2018-11-02T11:22:12.032076Z, 2018-11-02T11:22:12.032099Z, 2018-11-02T11:22:12.032122Z, 2018-11-02T11:22:12.032144Z, 2018-11-02T11:22:12.032167Z, 2018-11-02T11:22:12.032190Z, 2018-11-02T11:22:12.032212Z, 2018-11-02T11:22:12.032235Z, 2018-11-02T11:22:12.032258Z, 2018-11-02T11:22:12.032280Z, 2018-11-02T11:22:12.032303Z, 2018-11-02T11:22:12.032326Z, 2018-11-02T11:22:12.032348Z, 2018-11-02T11:22:12.032371Z, 2018-11-02T11:22:12.032394Z, 2018-11-02T11:22:12.032416Z, 2018-11-02T11:22:12.032439Z, 2018-11-02T11:22:12.032462Z, 2018-11-02T11:22:12.032485Z, 2018-11-02T11:22:12.032507Z, 2018-11-02T11:22:12.032530Z, 2018-11-02T11:22:12.032552Z, 2018-11-02T11:22:12.032575Z, 2018-11-02T11:22:12.032598Z, 2018-11-02T11:22:12.032620Z, 2018-11-02T11:22:12.032643Z, 2018-11-02T11:22:12.032666Z, 2018-11-02T11:22:12.032689Z, 2018-11-02T11:22:12.032711Z, 2018-11-02T11:22:12.032734Z, 2018-11-02T11:22:12.032756Z, 2018-11-02T11:22:12.032779Z, 2018-11-02T11:22:12.032802Z, 2018-11-02T11:22:12.032825Z, 2018-11-02T11:22:12.032847Z, 2018-11-02T11:22:12.032870Z, 2018-11-02T11:22:12.032893Z, 2018-11-02T11:22:12.032915Z, 2018-11-02T11:22:12.032938Z, 2018-11-02T11:22:12.032960Z, 2018-11-02T11:22:12.032983Z, 2018-11-02T11:22:12.033006Z, 2018-11-02T11:22:12.033029Z, 2018-11-02T11:22:12.033051Z, 2018-11-02T11:22:12.033074Z, 2018-11-02T11:22:12.033097Z, 2018-11-02T11:22:12.033119Z, 2018-11-02T11:22:12.033142Z, 2018-11-02T11:22:12.033165Z, 2018-11-02T11:22:12.033187Z, 2018-11-02T11:22:12.033210Z, 2018-11-02T11:22:12.033233Z, 2018-11-02T11:22:12.033255Z, 2018-11-02T11:22:12.033278Z, 2018-11-02T11:22:12.033301Z, 2018-11-02T11:22:12.033323Z, 2018-11-02T11:22:12.033346Z, 2018-11-02T11:22:12.033369Z, 2018-11-02T11:22:12.033391Z, 2018-11-02T11:22:12.033414Z, 2018-11-02T11:22:12.033437Z, 2018-11-02T11:22:12.033459Z, 2018-11-02T11:22:12.033482Z, 2018-11-02T11:22:12.033505Z, 2018-11-02T11:22:12.033527Z, 2018-11-02T11:22:12.033550Z, 2018-11-02T11:22:12.033573Z, 2018-11-02T11:22:12.033596Z, 2018-11-02T11:22:12.033618Z, 2018-11-02T11:22:12.033641Z, 2018-11-02T11:22:12.033663Z, 2018-11-02T11:22:12.033686Z, 2018-11-02T11:22:12.033709Z, 2018-11-02T11:22:12.033731Z, 2018-11-02T11:22:12.033754Z, 2018-11-02T11:22:12.033777Z, 2018-11-02T11:22:12.033800Z, 2018-11-02T11:22:12.033822Z, 2018-11-02T11:22:12.033845Z, 2018-11-02T11:22:12.033867Z, 2018-11-02T11:22:12.033890Z, 2018-11-02T11:22:12.033913Z, 2018-11-02T11:22:12.033936Z, 2018-11-02T11:22:12.033958Z, 2018-11-02T11:22:12.033981Z, 2018-11-02T11:22:12.034004Z, 2018-11-02T11:22:12.034026Z, 2018-11-02T11:22:12.034049Z, 2018-11-02T11:22:12.034071Z, 2018-11-02T11:22:12.034094Z, 2018-11-02T11:22:12.034117Z, 2018-11-02T11:22:12.034140Z, 2018-11-02T11:22:12.034163Z, 2018-11-02T11:22:12.034185Z, 2018-11-02T11:22:12.034208Z, 2018-11-02T11:22:12.034230Z, 2018-11-02T11:22:12.034253Z, 2018-11-02T11:22:12.034276Z, 2018-11-02T11:22:12.034298Z, 2018-11-02T11:22:12.034321Z, 2018-11-02T11:22:12.034344Z, 2018-11-02T11:22:12.034367Z, 2018-11-02T11:22:12.034389Z, 2018-11-02T11:22:12.034412Z, 2018-11-02T11:22:12.034434Z, 2018-11-02T11:22:12.034457Z, 2018-11-02T11:22:12.034480Z, 2018-11-02T11:22:12.034503Z, 2018-11-02T11:22:12.034525Z, 2018-11-02T11:22:12.034548Z, 2018-11-02T11:22:12.034570Z, 2018-11-02T11:22:12.034593Z, 2018-11-02T11:22:12.034616Z, 2018-11-02T11:22:12.034638Z, 2018-11-02T11:22:12.034661Z, 2018-11-02T11:22:12.034684Z, 2018-11-02T11:22:12.034707Z, 2018-11-02T11:22:12.034729Z, 2018-11-02T11:22:12.034752Z, 2018-11-02T11:22:12.034774Z, 2018-11-02T11:22:12.034797Z, 2018-11-02T11:22:12.034820Z, 2018-11-02T11:22:12.034842Z, 2018-11-02T11:22:12.034865Z, 2018-11-02T11:22:12.034888Z, 2018-11-02T11:22:12.034911Z, 2018-11-02T11:22:12.034933Z, 2018-11-02T11:22:12.034956Z, 2018-11-02T11:22:12.034978Z, 2018-11-02T11:22:12.035001Z, 2018-11-02T11:22:12.035024Z, 2018-11-02T11:22:12.035047Z, 2018-11-02T11:22:12.035069Z, 2018-11-02T11:22:12.035092Z, 2018-11-02T11:22:12.035115Z, 2018-11-02T11:22:12.035137Z, 2018-11-02T11:22:12.035160Z, 2018-11-02T11:22:12.035182Z, 2018-11-02T11:22:12.035205Z, 2018-11-02T11:22:12.035228Z, 2018-11-02T11:22:12.035251Z, 2018-11-02T11:22:12.035274Z, 2018-11-02T11:22:12.035296Z, 2018-11-02T11:22:12.035319Z, 2018-11-02T11:22:12.035341Z, 2018-11-02T11:22:12.035364Z, 2018-11-02T11:22:12.035387Z, 2018-11-02T11:22:12.035409Z, 2018-11-02T11:22:12.035432Z, 2018-11-02T11:22:12.035455Z, 2018-11-02T11:22:12.035478Z, 2018-11-02T11:22:12.035500Z, 2018-11-02T11:22:12.035523Z, 2018-11-02T11:22:12.035545Z, 2018-11-02T11:22:12.035568Z, 2018-11-02T11:22:12.035591Z, 2018-11-02T11:22:12.035614Z, 2018-11-02T11:22:12.035636Z, 2018-11-02T11:22:12.035659Z, 2018-11-02T11:22:12.035681Z, 2018-11-02T11:22:12.035704Z, 2018-11-02T11:22:12.035727Z, 2018-11-02T11:22:12.035749Z, 2018-11-02T11:22:12.035772Z, 2018-11-02T11:22:12.035795Z, 2018-11-02T11:22:12.035818Z, 2018-11-02T11:22:12.035840Z, 2018-11-02T11:22:12.035863Z, 2018-11-02T11:22:12.035885Z, 2018-11-02T11:22:12.035908Z, 2018-11-02T11:22:12.035931Z, 2018-11-02T11:22:12.035954Z, 2018-11-02T11:22:12.035976Z, 2018-11-02T11:22:12.035999Z, 2018-11-02T11:22:12.036022Z, 2018-11-02T11:22:12.036044Z, 2018-11-02T11:22:12.036067Z, 2018-11-02T11:22:12.036089Z, 2018-11-02T11:22:12.036112Z, 2018-11-02T11:22:12.036135Z, 2018-11-02T11:22:12.036158Z, 2018-11-02T11:22:12.036180Z, 2018-11-02T11:22:12.036203Z, 2018-11-02T11:22:12.036226Z, 2018-11-02T11:22:12.036248Z, 2018-11-02T11:22:12.036271Z, 2018-11-02T11:22:12.036294Z, 2018-11-02T11:22:12.036316Z, 2018-11-02T11:22:12.036339Z, 2018-11-02T11:22:12.036362Z, 2018-11-02T11:22:12.036385Z, 2018-11-02T11:22:12.036407Z, 2018-11-02T11:22:12.036430Z, 2018-11-02T11:22:12.036452Z, 2018-11-02T11:22:12.036475Z, 2018-11-02T11:22:12.036498Z, 2018-11-02T11:22:12.036520Z, 2018-11-02T11:22:12.036543Z, 2018-11-02T11:22:12.036566Z, 2018-11-02T11:22:12.036589Z, 2018-11-02T11:22:12.036611Z, 2018-11-02T11:22:12.036634Z, 2018-11-02T11:22:12.036656Z, 2018-11-02T11:22:12.036679Z, 2018-11-02T11:22:12.036702Z, 2018-11-02T11:22:12.036725Z, 2018-11-02T11:22:12.036747Z, 2018-11-02T11:22:12.036770Z, 2018-11-02T11:22:12.036793Z, 2018-11-02T11:22:12.036815Z, 2018-11-02T11:22:12.036838Z, 2018-11-02T11:22:12.036860Z, 2018-11-02T11:22:12.036883Z, 2018-11-02T11:22:12.036906Z, 2018-11-02T11:22:12.036929Z, 2018-11-02T11:22:12.036951Z, 2018-11-02T11:22:12.036974Z, 2018-11-02T11:22:12.036996Z, 2018-11-02T11:22:12.037019Z, 2018-11-02T11:22:12.037042Z, 2018-11-02T11:22:12.037065Z, 2018-11-02T11:22:12.037087Z, 2018-11-02T11:22:12.037110Z, 2018-11-02T11:22:12.037133Z, 2018-11-02T11:22:12.037155Z, 2018-11-02T11:22:12.037178Z, 2018-11-02T11:22:12.037200Z, 2018-11-02T11:22:12.037223Z, 2018-11-02T11:22:12.037246Z, 2018-11-02T11:22:12.037269Z, 2018-11-02T11:22:12.037292Z, 2018-11-02T11:22:12.037314Z, 2018-11-02T11:22:12.037337Z, 2018-11-02T11:22:12.037359Z, 2018-11-02T11:22:12.037382Z, 2018-11-02T11:22:12.037405Z, 2018-11-02T11:22:12.037427Z, 2018-11-02T11:22:12.037450Z, 2018-11-02T11:22:12.037473Z, 2018-11-02T11:22:12.037496Z, 2018-11-02T11:22:12.037518Z, 2018-11-02T11:22:12.037541Z, 2018-11-02T11:22:12.037563Z, 2018-11-02T11:22:12.037586Z, 2018-11-02T11:22:12.037609Z, 2018-11-02T11:22:12.037632Z, 2018-11-02T11:22:12.037654Z, 2018-11-02T11:22:12.037677Z, 2018-11-02T11:22:12.037700Z, 2018-11-02T11:22:12.037722Z, 2018-11-02T11:22:12.037745Z, 2018-11-02T11:22:12.037767Z, 2018-11-02T11:22:12.037790Z, 2018-11-02T11:22:12.037813Z, 2018-11-02T11:22:12.037836Z, 2018-11-02T11:22:12.037858Z, 2018-11-02T11:22:12.037881Z, 2018-11-02T11:22:12.037904Z, 2018-11-02T11:22:12.037926Z, 2018-11-02T11:22:12.037949Z, 2018-11-02T11:22:12.037971Z, 2018-11-02T11:22:12.037994Z, 2018-11-02T11:22:12.038017Z, 2018-11-02T11:22:12.038040Z, 2018-11-02T11:22:12.038062Z, 2018-11-02T11:22:12.038085Z, 2018-11-02T11:22:12.038108Z, 2018-11-02T11:22:12.038130Z, 2018-11-02T11:22:12.038153Z, 2018-11-02T11:22:12.038176Z, 2018-11-02T11:22:12.038198Z, 2018-11-02T11:22:12.038221Z, 2018-11-02T11:22:12.038244Z, 2018-11-02T11:22:12.038266Z, 2018-11-02T11:22:12.038289Z, 2018-11-02T11:22:12.038311Z, 2018-11-02T11:22:12.038334Z, 2018-11-02T11:22:12.038357Z, 2018-11-02T11:22:12.038380Z, 2018-11-02T11:22:12.038403Z, 2018-11-02T11:22:12.038425Z, 2018-11-02T11:22:12.038448Z, 2018-11-02T11:22:12.038470Z, 2018-11-02T11:22:12.038493Z, 2018-11-02T11:22:12.038516Z, 2018-11-02T11:22:12.038538Z, 2018-11-02T11:22:12.038561Z, 2018-11-02T11:22:12.038584Z, 2018-11-02T11:22:12.038607Z, 2018-11-02T11:22:12.038629Z, 2018-11-02T11:22:12.038652Z, 2018-11-02T11:22:12.038674Z, 2018-11-02T11:22:12.038697Z, 2018-11-02T11:22:12.038720Z, 2018-11-02T11:22:12.038743Z, 2018-11-02T11:22:12.038765Z, 2018-11-02T11:22:12.038788Z, 2018-11-02T11:22:12.038811Z, 2018-11-02T11:22:12.038833Z, 2018-11-02T11:22:12.038856Z, 2018-11-02T11:22:12.038878Z, 2018-11-02T11:22:12.038901Z, 2018-11-02T11:22:12.038924Z, 2018-11-02T11:22:12.038947Z, 2018-11-02T11:22:12.038969Z, 2018-11-02T11:22:12.038992Z, 2018-11-02T11:22:12.039015Z, 2018-11-02T11:22:12.039037Z, 2018-11-02T11:22:12.039060Z, 2018-11-02T11:22:12.039083Z, 2018-11-02T11:22:12.039105Z, 2018-11-02T11:22:12.039128Z, 2018-11-02T11:22:12.039151Z, 2018-11-02T11:22:12.039173Z, 2018-11-02T11:22:12.039196Z, 2018-11-02T11:22:12.039219Z, 2018-11-02T11:22:12.039241Z, 2018-11-02T11:22:12.039264Z, 2018-11-02T11:22:12.039287Z, 2018-11-02T11:22:12.039310Z, 2018-11-02T11:22:12.039332Z, 2018-11-02T11:22:12.039355Z, 2018-11-02T11:22:12.039377Z, 2018-11-02T11:22:12.039400Z, 2018-11-02T11:22:12.039423Z, 2018-11-02T11:22:12.039445Z, 2018-11-02T11:22:12.039468Z, 2018-11-02T11:22:12.039491Z, 2018-11-02T11:22:12.039514Z, 2018-11-02T11:22:12.039536Z, 2018-11-02T11:22:12.039559Z, 2018-11-02T11:22:12.039581Z, 2018-11-02T11:22:12.039604Z, 2018-11-02T11:22:12.039627Z, 2018-11-02T11:22:12.039649Z, 2018-11-02T11:22:12.039672Z, 2018-11-02T11:22:12.039695Z]"
				}

			}
, 			{
				"box" : 				{
					"data" : [ 593, "", "IBkSG0fBZn....PCIgDQRA...zF....LHX....vFnS+e....DLmPIQEBHf.B7g.YHB..BfPRDEDU3wY6bEsiCCBCKLc+++xbOwItcqkVHN1oGVZZRSCWZbLgNfUp0Z01HU3K1cfMLqTJC+N8dqOJZ2kjQs0Cy7Sk2qDqaeuV6esBIWssWky6bs9Oy6qO8gH.RtmAn5O2k2Yb0SWSalKVuE2KffyYwrIBm0++DmmJZpDLx.NpFFBG8epo4IVovKR7deHaImPEMTPsfLpYfdDfKZQ31Tv8FIBwoolyvSDsKyLhCOxxcftdVDIngIZnCNLRBXk3QchHOsZQQUFHTQSsZaqzeXlvQeJ+Qdyi7ZEYBY3hlm2brpqwdXc5NMy3GDVEQOrOEQSgZay1GTHASBmlY3CFn3mQBHMQyqa1HqqofKyLxNMEd.4U.qg4kY3wHwrKfqJftn4gaajHfHfybxTzEMD3ouzORHZYq1F6GYQBQKRb2.thaMAYDsUcaG0d0csy.YDMEghtLyDSzxVsMVPJQyLeEtUbJp5xLavlUMaY5n1bndBO5e+xogbsthpsHfJ2KGdpY73hfjiQbGc6tB7lix9jflOH2DQ1XL1hVBwVzRH1hVBwVzRH1hVBws+KoX0mPXzuH.5spcV4um2ScZ0Z8mWdidNQehZP0+QFaNi6gCOVJkTtmAabiLgqEWP7O1P+6uC5G0ITBWi6mxgtnGCEMTCAzPV2bosQfXrpBzVZldtQu6oxF+i3b+CFmP7MQ+TMlEbQ3RG.....IUjSD4pPfIH" ],
					"embed" : 1,
					"id" : "obj-20",
					"maxclass" : "fpic",
					"numinlets" : 1,
					"numoutlets" : 1,
					"outlettype" : [ "jit_matrix" ],
					"patching_rect" : [ 530.0, 57.9306640625, 109.0, 48.0 ]
				}

			}
, 			{
				"box" : 				{
					"fontname" : "Arial",
					"fontsize" : 12.0,
					"id" : "obj-18",
					"maxclass" : "comment",
					"numinlets" : 1,
					"numoutlets" : 0,
					"patching_rect" : [ 579.0, 156.5, 150.0, 18.0 ],
					"text" : "see also:"
				}

			}
, 			{
				"box" : 				{
					"fontname" : "Arial",
					"fontsize" : 12.0,
					"hidden" : 1,
					"id" : "obj-24",
					"maxclass" : "newobj",
					"numinlets" : 1,
					"numoutlets" : 4,
					"outlettype" : [ "", "", "", "clear" ],
					"patching_rect" : [ 530.0, 15.5, 181.0, 20.0 ],
					"text" : "o.helpfilehelper @obj o.timetag~"
				}

			}
, 			{
				"box" : 				{
					"fontname" : "Arial",
					"fontsize" : 12.0,
					"id" : "obj-25",
					"linecount" : 2,
					"maxclass" : "comment",
					"numinlets" : 1,
					"numoutlets" : 0,
					"patching_rect" : [ 56.0, 168.5, 491.0, 30.0 ],
					"text" : "o.schedule~ takes an OSC bundle with time tags and values and puts the values in the audio stream at the closest sample."
				}

			}
, 			{
				"box" : 				{
					"fontname" : "Arial",
					"fontsize" : 12.0,
					"id" : "obj-26",
					"maxclass" : "comment",
					"numinlets" : 1,
					"numoutlets" : 0,
					"patching_rect" : [ 56.0, 120.5, 251.0, 18.0 ],
					"text" : "Insert values into one or more audio channels"
				}

			}
, 			{
				"box" : 				{
					"fontname" : "Arial",
					"fontsize" : 72.0,
					"id" : "obj-27",
					"maxclass" : "comment",
					"numinlets" : 1,
					"numoutlets" : 0,
					"patching_rect" : [ 56.0, 31.5, 399.0, 78.0 ],
					"text" : "o.schedule~"
				}

			}
, 			{
				"box" : 				{
					"allowdrag" : 0,
					"id" : "obj-28",
					"items" : [ "o.schedule", ",", "o.timetag~", ",", "o.snapshot~" ],
					"maxclass" : "umenu",
					"numinlets" : 1,
					"numoutlets" : 3,
					"outlettype" : [ "int", "", "" ],
					"parameter_enable" : 0,
					"patching_rect" : [ 579.0, 178.5, 132.0, 20.0 ]
				}

			}
, 			{
				"box" : 				{
					"id" : "obj-8",
					"linecount" : 5,
					"maxclass" : "comment",
					"numinlets" : 1,
					"numoutlets" : 0,
					"patching_rect" : [ 405.0, 227.0, 487.0, 66.0 ],
					"presentation_linecount" : 5,
					"text" : "o.timetag~ outputs two messages when the DAC is turned on: signal, and [o.typetag t]. the latter tells o.snapshot~ that the signal connected to it contains OSC timetags and that they should be treated as such rather than typical audio vectors (doubles).\n\nNote that Max/MSP needs to be running in 64-bit mode for this object to work."
				}

			}
, 			{
				"box" : 				{
					"id" : "obj-5",
					"maxclass" : "newobj",
					"numinlets" : 4,
					"numoutlets" : 1,
					"outlettype" : [ "FullPacket" ],
					"patching_rect" : [ 56.0, 310.0, 344.0, 20.0 ],
					"text" : "o.snapshot~ /time/msp /time/system /index/sample /index/block"
				}

			}
, 			{
				"box" : 				{
					"id" : "obj-3",
					"maxclass" : "newobj",
					"numinlets" : 3,
					"numoutlets" : 3,
					"outlettype" : [ "", "", "" ],
					"patching_rect" : [ 56.0, 246.0, 151.0, 20.0 ],
					"text" : "routepass o.typetag signal"
				}

			}
, 			{
				"box" : 				{
					"id" : "obj-2",
					"maxclass" : "ezdac~",
					"numinlets" : 2,
					"numoutlets" : 0,
					"patching_rect" : [ 465.0, 320.0, 45.0, 45.0 ]
				}

			}
, 			{
				"box" : 				{
					"id" : "obj-1",
					"maxclass" : "newobj",
					"numinlets" : 1,
					"numoutlets" : 5,
					"outlettype" : [ "signal", "signal", "signal", "signal", "FullPacket" ],
					"patching_rect" : [ 56.0, 212.5, 67.0, 20.0 ],
					"text" : "o.timetag~"
				}

			}
 ],
		"lines" : [ 			{
				"patchline" : 				{
					"destination" : [ "obj-11", 0 ],
					"source" : [ "obj-1", 1 ]
				}

			}
, 			{
				"patchline" : 				{
					"destination" : [ "obj-3", 0 ],
					"source" : [ "obj-1", 0 ]
				}

			}
, 			{
				"patchline" : 				{
					"destination" : [ "obj-5", 3 ],
					"source" : [ "obj-1", 3 ]
				}

			}
, 			{
				"patchline" : 				{
					"destination" : [ "obj-5", 2 ],
					"source" : [ "obj-1", 2 ]
				}

			}
, 			{
				"patchline" : 				{
					"destination" : [ "obj-5", 1 ],
					"source" : [ "obj-11", 1 ]
				}

			}
, 			{
				"patchline" : 				{
					"destination" : [ "obj-5", 1 ],
					"source" : [ "obj-11", 0 ]
				}

			}
, 			{
				"patchline" : 				{
					"destination" : [ "obj-25", 0 ],
					"hidden" : 1,
					"source" : [ "obj-24", 2 ]
				}

			}
, 			{
				"patchline" : 				{
					"destination" : [ "obj-26", 0 ],
					"hidden" : 1,
					"source" : [ "obj-24", 1 ]
				}

			}
, 			{
				"patchline" : 				{
					"destination" : [ "obj-27", 0 ],
					"hidden" : 1,
					"source" : [ "obj-24", 0 ]
				}

			}
, 			{
				"patchline" : 				{
					"destination" : [ "obj-28", 0 ],
					"hidden" : 1,
					"source" : [ "obj-24", 3 ]
				}

			}
, 			{
				"patchline" : 				{
					"destination" : [ "obj-24", 0 ],
					"hidden" : 1,
					"midpoints" : [ 645.0, 145.5, 497.0, 145.5, 497.0, 10.5, 539.5, 10.5 ],
					"source" : [ "obj-28", 1 ]
				}

			}
, 			{
				"patchline" : 				{
					"destination" : [ "obj-5", 0 ],
					"source" : [ "obj-3", 1 ]
				}

			}
, 			{
				"patchline" : 				{
					"destination" : [ "obj-5", 0 ],
					"source" : [ "obj-3", 0 ]
				}

			}
, 			{
				"patchline" : 				{
					"destination" : [ "obj-6", 0 ],
					"source" : [ "obj-5", 0 ]
				}

			}
, 			{
				"patchline" : 				{
					"destination" : [ "obj-10", 0 ],
					"source" : [ "obj-6", 3 ]
				}

			}
, 			{
				"patchline" : 				{
					"destination" : [ "obj-4", 0 ],
					"source" : [ "obj-6", 0 ]
				}

			}
, 			{
				"patchline" : 				{
					"destination" : [ "obj-7", 0 ],
					"source" : [ "obj-6", 1 ]
				}

			}
, 			{
				"patchline" : 				{
					"destination" : [ "obj-9", 0 ],
					"source" : [ "obj-6", 2 ]
				}

			}
 ],
		"dependency_cache" : [ 			{
				"name" : "o.helpfilehelper.maxpat",
				"bootpath" : "~/Development/CNMAT/CNMAT/CNMAT-odot/patchers/utils",
				"patcherrelativepath" : "../../patchers/utils",
				"type" : "JSON",
				"implicit" : 1
			}
, 			{
				"name" : "o.timetag~.mxo",
				"type" : "iLaX"
			}
, 			{
				"name" : "o.snapshot~.mxo",
				"type" : "iLaX"
			}
, 			{
				"name" : "o.route.mxo",
				"type" : "iLaX"
			}
, 			{
				"name" : "o.display.mxo",
				"type" : "iLaX"
			}
, 			{
				"name" : "o.select.mxo",
				"type" : "iLaX"
			}
 ],
		"autosave" : 0
	}

}
