#N canvas 231 24 1033 559 10;
#X floatatom 125 70 5 0 0 0 - - -;
#X floatatom 275 70 5 0 0 0 - - -;
#X msg 1 152 one;
#X msg 36 151 two;
#X msg 448 189 popfirst;
#X msg 448 134 peeknth \$1;
#X floatatom 448 106 5 0 0 0 - - -;
#X floatatom 528 106 5 0 0 0 - - -;
#X msg 528 134 popnth \$1;
#X msg 528 189 peekfirst;
#X msg 448 219 poplast;
#X msg 528 219 peeklast;
#X obj 125 99 o.pack /foo 1 /key one;
#X obj 125 370 o.table @key /key;
#X obj 125 415 o.if !emptybundle();
#X obj 125 447 o.print;
#X obj 230 445 o.print table_is_empty;
#X msg 448 278 write /Users/r/table-test.txt;
#X msg 448 310 read /Users/r/table-test.txt;
#X text 244 372 @key argument sets address to use for entry key (must
be a symbol);
#X obj 275 99 o.pack /foo 1 /key two;
#X text 148 37 set value with key;
#X text -26 127 recall value with key;
#X connect 0 0 12 0;
#X connect 1 0 20 0;
#X connect 2 0 13 0;
#X connect 3 0 13 0;
#X connect 4 0 13 0;
#X connect 5 0 13 0;
#X connect 6 0 5 0;
#X connect 7 0 8 0;
#X connect 8 0 13 0;
#X connect 9 0 13 0;
#X connect 10 0 13 0;
#X connect 11 0 13 0;
#X connect 12 0 13 0;
#X connect 13 0 14 0;
#X connect 14 0 15 0;
#X connect 14 1 16 0;
#X connect 17 0 13 0;
#X connect 18 0 13 0;
#X connect 20 0 13 0;
