#N canvas 712 218 450 300 10;
#X obj 203 219 o.validate;
#X obj 107 118 + 10;
#X obj 91 90 unpack s 0 0 0;
#X obj 91 34 o.message 100 36 binhex b#2F666F6F2031300A2F626172203230
;
#X obj 90 156 pack s 0 0 0;
#X obj 68 257 o.print valid;
#X obj 160 258 o.print invalid;
#X obj 263 258 o.print error;
#X obj 223 61 o.message 100 36 binhex b#2F666F6F2031300A2F626172203230
;
#X obj 90 184 route list;
#X obj 41 103 print;
#X connect 0 0 5 0;
#X connect 0 1 6 0;
#X connect 0 2 7 0;
#X connect 1 0 4 1;
#X connect 2 0 4 0;
#X connect 2 1 1 0;
#X connect 2 2 4 2;
#X connect 2 3 4 3;
#X connect 3 0 2 0;
#X connect 3 0 10 0;
#X connect 4 0 9 0;
#X connect 8 0 0 0;
#X connect 9 0 0 0;
