{
	"patcher" : 	{
		"fileversion" : 1,
		"appversion" : 		{
			"major" : 6,
			"minor" : 1,
			"revision" : 6,
			"architecture" : "x86"
		}
,
		"rect" : [ 338.0, 44.0, 1074.0, 737.0 ],
		"bglocked" : 0,
		"openinpresentation" : 0,
		"default_fontsize" : 12.0,
		"default_fontface" : 0,
		"default_fontname" : "Arial",
		"gridonopen" : 0,
		"gridsize" : [ 15.0, 15.0 ],
		"gridsnaponopen" : 0,
		"statusbarvisible" : 2,
		"toolbarvisible" : 1,
		"boxanimatetime" : 200,
		"imprint" : 0,
		"enablehscroll" : 1,
		"enablevscroll" : 1,
		"devicewidth" : 0.0,
		"description" : "",
		"digest" : "",
		"tags" : "",
		"boxes" : [ 			{
				"box" : 				{
					"fontname" : "Arial",
					"fontsize" : 12.0,
					"id" : "obj-1",
					"maxclass" : "newobj",
					"numinlets" : 1,
					"numoutlets" : 0,
					"patching_rect" : [ 326.0, 124.0, 82.0, 20.0 ],
					"text" : "o.pong.sonify"
				}

			}
, 			{
				"box" : 				{
					"fontname" : "Arial",
					"fontsize" : 12.0,
					"id" : "obj-27",
					"maxclass" : "newobj",
					"numinlets" : 1,
					"numoutlets" : 1,
					"outlettype" : [ "FullPacket" ],
					"patching_rect" : [ 205.0, 125.0, 97.0, 20.0 ],
					"text" : "o.pong.visualize"
				}

			}
, 			{
				"box" : 				{
					"comment" : "",
					"id" : "obj-26",
					"maxclass" : "inlet",
					"numinlets" : 0,
					"numoutlets" : 1,
					"outlettype" : [ "" ],
					"patching_rect" : [ 29.0, 22.0, 25.0, 25.0 ]
				}

			}
, 			{
				"box" : 				{
					"fontname" : "Arial",
					"fontsize" : 12.0,
					"id" : "obj-25",
					"maxclass" : "newobj",
					"numinlets" : 1,
					"numoutlets" : 1,
					"outlettype" : [ "FullPacket" ],
					"patching_rect" : [ 29.0, 58.0, 105.0, 20.0 ],
					"text" : "o.in @name main"
				}

			}
, 			{
				"box" : 				{
					"fontname" : "Arial",
					"fontsize" : 12.0,
					"id" : "obj-24",
					"maxclass" : "newobj",
					"numinlets" : 1,
					"numoutlets" : 1,
					"outlettype" : [ "FullPacket" ],
					"patching_rect" : [ 205.0, 78.0, 87.0, 20.0 ],
					"text" : "o.pong.engine"
				}

			}
, 			{
				"box" : 				{
					"fontname" : "Arial",
					"fontsize" : 12.0,
					"id" : "obj-21",
					"maxclass" : "newobj",
					"numinlets" : 1,
					"numoutlets" : 1,
					"outlettype" : [ "FullPacket" ],
					"patching_rect" : [ 42.0, 129.0, 73.0, 20.0 ],
					"text" : "o.pong.bats"
				}

			}
, 			{
				"box" : 				{
					"fontname" : "Arial",
					"fontsize" : 12.0,
					"id" : "obj-9",
					"maxclass" : "o.message",
					"numinlets" : 2,
					"numoutlets" : 1,
					"outlettype" : [ "" ],
					"patching_rect" : [ 237.0, 42.0, 150.0, 20.0 ],
					"text" : "/game/start true",
					"textcolor" : [ 0.0, 0.0, 0.0, 1.0 ]
				}

			}
, 			{
				"box" : 				{
					"fontname" : "Arial",
					"fontsize" : 12.0,
					"id" : "obj-7",
					"linecount" : 21,
					"maxclass" : "o.message",
					"numinlets" : 2,
					"numoutlets" : 1,
					"outlettype" : [ "" ],
					"patching_rect" : [ 507.0, 154.0, 264.0, 288.0 ],
					"text" : "/was/now 2014-05-27T07:25:54.517583Z\n/was/ball/velocity -1.6 2.04\n/ball/position 0.356709 -0.529803\n/ball/rate 0.4 0.51\n/bat/left -0.95 0.\n/bat/right 0.95 0.\n/bat/halfheight 0.15\n/ball/left/direction 1 1\n/ball/right/direction 1 1\n/ball/left/phase 40.8407 0\n/ball/right/phase 94.2478 0\n/range/ball/position -1 1\n/range/bats/position -1 1\n/game/start false\n/holdoff 2014-05-27T07:25:52.971519Z\n/start/time 2014-05-27T07:25:00.398910Z\n/hold 2014-05-27T07:25:54.254230Z\n/now 2014-05-27T07:25:54.550967Z\n/ball/velocity -1.6 2.04\n/ball/acceleration 1.35285e-11 6.02597e-12\n/bounce false false\n",
					"textcolor" : [ 0.0, 0.0, 0.0, 1.0 ]
				}

			}
, 			{
				"box" : 				{
					"comment" : "",
					"id" : "obj-14",
					"maxclass" : "outlet",
					"numinlets" : 1,
					"numoutlets" : 0,
					"patching_rect" : [ 14.0, 232.0, 25.0, 25.0 ]
				}

			}
, 			{
				"box" : 				{
					"fontname" : "Arial",
					"fontsize" : 12.0,
					"id" : "obj-13",
					"maxclass" : "newobj",
					"numinlets" : 1,
					"numoutlets" : 1,
					"outlettype" : [ "FullPacket" ],
					"patching_rect" : [ 14.0, 201.0, 112.0, 20.0 ],
					"text" : "o.out @name main"
				}

			}
, 			{
				"box" : 				{
					"id" : "obj-2",
					"maxclass" : "jit.pwindow",
					"name" : "pong",
					"numinlets" : 1,
					"numoutlets" : 2,
					"outlettype" : [ "", "" ],
					"patching_rect" : [ 129.0, 186.0, 361.0, 249.0 ],
					"varname" : "pong"
				}

			}
, 			{
				"box" : 				{
					"fontname" : "Arial",
					"fontsize" : 12.0,
					"id" : "obj-10",
					"maxclass" : "newobj",
					"numinlets" : 1,
					"numoutlets" : 1,
					"outlettype" : [ "" ],
					"patching_rect" : [ 204.0, 157.0, 73.0, 20.0 ],
					"text" : "o.io.gl pong"
				}

			}
 ],
		"lines" : [ 			{
				"patchline" : 				{
					"destination" : [ "obj-14", 0 ],
					"disabled" : 0,
					"hidden" : 0,
					"source" : [ "obj-13", 0 ]
				}

			}
, 			{
				"patchline" : 				{
					"destination" : [ "obj-24", 0 ],
					"disabled" : 0,
					"hidden" : 0,
					"midpoints" : [ 51.5, 170.0, 18.0, 170.0, 18.0, 54.0, 214.5, 54.0 ],
					"source" : [ "obj-21", 0 ]
				}

			}
, 			{
				"patchline" : 				{
					"destination" : [ "obj-1", 0 ],
					"disabled" : 0,
					"hidden" : 0,
					"source" : [ "obj-24", 0 ]
				}

			}
, 			{
				"patchline" : 				{
					"destination" : [ "obj-13", 0 ],
					"disabled" : 0,
					"hidden" : 0,
					"source" : [ "obj-24", 0 ]
				}

			}
, 			{
				"patchline" : 				{
					"destination" : [ "obj-21", 0 ],
					"disabled" : 0,
					"hidden" : 0,
					"midpoints" : [ 214.5, 112.0, 159.0, 112.0, 159.0, 111.0, 51.5, 111.0 ],
					"source" : [ "obj-24", 0 ]
				}

			}
, 			{
				"patchline" : 				{
					"destination" : [ "obj-27", 0 ],
					"disabled" : 0,
					"hidden" : 0,
					"source" : [ "obj-24", 0 ]
				}

			}
, 			{
				"patchline" : 				{
					"destination" : [ "obj-7", 1 ],
					"disabled" : 0,
					"hidden" : 0,
					"midpoints" : [ 214.5, 104.0, 508.0, 104.0, 508.0, 104.0, 761.5, 104.0 ],
					"source" : [ "obj-24", 0 ]
				}

			}
, 			{
				"patchline" : 				{
					"destination" : [ "obj-24", 0 ],
					"disabled" : 0,
					"hidden" : 0,
					"source" : [ "obj-25", 0 ]
				}

			}
, 			{
				"patchline" : 				{
					"destination" : [ "obj-25", 0 ],
					"disabled" : 0,
					"hidden" : 0,
					"source" : [ "obj-26", 0 ]
				}

			}
, 			{
				"patchline" : 				{
					"destination" : [ "obj-10", 0 ],
					"disabled" : 0,
					"hidden" : 0,
					"source" : [ "obj-27", 0 ]
				}

			}
, 			{
				"patchline" : 				{
					"destination" : [ "obj-24", 0 ],
					"disabled" : 0,
					"hidden" : 0,
					"source" : [ "obj-9", 0 ]
				}

			}
 ],
		"dependency_cache" : [ 			{
				"name" : "o.io.gl.maxpat",
				"bootpath" : "/Users/adrian2013/CNMAT-odot/abstractions/io/graphics",
				"patcherrelativepath" : "../../../abstractions/io/graphics",
				"type" : "JSON",
				"implicit" : 1
			}
, 			{
				"name" : "o.io.gl.platohelper.maxpat",
				"bootpath" : "/Users/adrian2013/CNMAT-odot/abstractions/io/graphics",
				"patcherrelativepath" : "../../../abstractions/io/graphics",
				"type" : "JSON",
				"implicit" : 1
			}
, 			{
				"name" : "o.listiter.maxpat",
				"bootpath" : "/Users/adrian2013/CNMAT-odot/abstractions/programming",
				"patcherrelativepath" : "../../../abstractions/programming",
				"type" : "JSON",
				"implicit" : 1
			}
, 			{
				"name" : "o.oscbundle.maxpat",
				"bootpath" : "/Users/adrian2013/CNMAT-odot/abstractions",
				"patcherrelativepath" : "../../../abstractions",
				"type" : "JSON",
				"implicit" : 1
			}
, 			{
				"name" : "o.io.gltexthelper.maxpat",
				"bootpath" : "/Users/adrian2013/CNMAT-odot/abstractions/io/graphics",
				"patcherrelativepath" : "../../../abstractions/io/graphics",
				"type" : "JSON",
				"implicit" : 1
			}
, 			{
				"name" : "o.out.maxpat",
				"bootpath" : "/Users/adrian2013/CNMAT-odot/abstractions",
				"patcherrelativepath" : "../../../abstractions",
				"type" : "JSON",
				"implicit" : 1
			}
, 			{
				"name" : "o.port.maxpat",
				"bootpath" : "/Users/adrian2013/CNMAT-odot/abstractions",
				"patcherrelativepath" : "../../../abstractions",
				"type" : "JSON",
				"implicit" : 1
			}
, 			{
				"name" : "o.aspect.joinpoint.maxpat",
				"bootpath" : "/Users/adrian2013/CNMAT-odot/abstractions/aspect",
				"patcherrelativepath" : "../../../abstractions/aspect",
				"type" : "JSON",
				"implicit" : 1
			}
, 			{
				"name" : "o.pong.bats.maxpat",
				"bootpath" : "/Users/adrian2013/CNMAT-odot/testing/demos/pong",
				"patcherrelativepath" : ".",
				"type" : "JSON",
				"implicit" : 1
			}
, 			{
				"name" : "o.in.maxpat",
				"bootpath" : "/Users/adrian2013/CNMAT-odot/abstractions",
				"patcherrelativepath" : "../../../abstractions",
				"type" : "JSON",
				"implicit" : 1
			}
, 			{
				"name" : "o.pong.engine.maxpat",
				"bootpath" : "/Users/adrian2013/CNMAT-odot/testing/demos/pong",
				"patcherrelativepath" : ".",
				"type" : "JSON",
				"implicit" : 1
			}
, 			{
				"name" : "o.remember.maxpat",
				"bootpath" : "/Users/adrian2013/CNMAT-odot/abstractions/time",
				"patcherrelativepath" : "../../../abstractions/time",
				"type" : "JSON",
				"implicit" : 1
			}
, 			{
				"name" : "o.pong.visualize.maxpat",
				"bootpath" : "/Users/adrian2013/CNMAT-odot/testing/demos/pong",
				"patcherrelativepath" : ".",
				"type" : "JSON",
				"implicit" : 1
			}
, 			{
				"name" : "o.pong.sonify.maxpat",
				"bootpath" : "/Users/adrian2013/CNMAT-odot/testing/demos/pong",
				"patcherrelativepath" : ".",
				"type" : "JSON",
				"implicit" : 1
			}
, 			{
				"name" : "v.sdif.resonance.maxpat",
				"bootpath" : "/Users/adrian2013/Documents/Max/Packages/CompletelyUnfinished/patchers",
				"patcherrelativepath" : "../../../../Documents/Max/Packages/CompletelyUnfinished/patchers",
				"type" : "JSON",
				"implicit" : 1
			}
, 			{
				"name" : "c.parentsize.js",
				"bootpath" : "/Users/adrian2013/Documents/Max/Packages/vdot/javascript",
				"patcherrelativepath" : "../../../../Documents/Max/Packages/vdot/javascript",
				"type" : "TEXT",
				"implicit" : 1
			}
, 			{
				"name" : "o.restransformmap.maxpat",
				"bootpath" : "/Users/adrian2013/Documents/Max/Packages/CompletelyUnfinished/patchers",
				"patcherrelativepath" : "../../../../Documents/Max/Packages/CompletelyUnfinished/patchers",
				"type" : "JSON",
				"implicit" : 1
			}
, 			{
				"name" : "o.iterate.mxo",
				"type" : "iLaX"
			}
, 			{
				"name" : "o.route.mxo",
				"type" : "iLaX"
			}
, 			{
				"name" : "o.cond.mxo",
				"type" : "iLaX"
			}
, 			{
				"name" : "o.union.mxo",
				"type" : "iLaX"
			}
, 			{
				"name" : "o.message.mxo",
				"type" : "iLaX"
			}
, 			{
				"name" : "o.expr.mxo",
				"type" : "iLaX"
			}
, 			{
				"name" : "o.if.mxo",
				"type" : "iLaX"
			}
, 			{
				"name" : "o.select.mxo",
				"type" : "iLaX"
			}
, 			{
				"name" : "o.atomize.mxo",
				"type" : "iLaX"
			}
, 			{
				"name" : "o.var.mxo",
				"type" : "iLaX"
			}
, 			{
				"name" : "o.print.mxo",
				"type" : "iLaX"
			}
, 			{
				"name" : "o.pack.mxo",
				"type" : "iLaX"
			}
, 			{
				"name" : "o.context.mxo",
				"type" : "iLaX"
			}
, 			{
				"name" : "o.collect.mxo",
				"type" : "iLaX"
			}
, 			{
				"name" : "o.pak.mxo",
				"type" : "iLaX"
			}
, 			{
				"name" : "o.prepend.mxo",
				"type" : "iLaX"
			}
, 			{
				"name" : "o.timetag.mxo",
				"type" : "iLaX"
			}
, 			{
				"name" : "o.difference.mxo",
				"type" : "iLaX"
			}
, 			{
				"name" : "o.intersection.mxo",
				"type" : "iLaX"
			}
, 			{
				"name" : "SDIF-buffer.mxo",
				"type" : "iLaX"
			}
, 			{
				"name" : "SDIF-tuples.mxo",
				"type" : "iLaX"
			}
, 			{
				"name" : "resonators~.mxo",
				"type" : "iLaX"
			}
, 			{
				"name" : "resdisplay.mxo",
				"type" : "iLaX"
			}
, 			{
				"name" : "res-transform.mxo",
				"type" : "iLaX"
			}
, 			{
				"name" : "SDIF-fileinfo.mxo",
				"type" : "iLaX"
			}
, 			{
				"name" : "OSC-route.mxo",
				"type" : "iLaX"
			}
 ]
	}

}
