#N canvas 440 145 807 514 10;
#X msg 143 285 /bar 1 \, /foo 11;
#X obj 265 260 bng 15 250 50 0 empty empty empty 17 7 0 10 -262144
-1 -1;
#X floatatom 451 426 5 0 0 0 - - -, f 5;
#X floatatom 501 426 5 0 0 0 - - -, f 5;
#X msg 26 285 /bar 11 \, /foo 1;
#X obj 517 264 + 1;
#X obj 594 285 + 1;
#X obj 265 348 o.collect;
#X obj 451 380 o.route /foo /bar;
#X obj 436 264 o.pack /foo;
#X obj 517 290 o.pack /bar;
#X obj 594 311 o.pack /steve;
#X obj 30 39 o.display 642 131;
#N canvas 750 23 450 300 doc-text 0;
#X obj 36 179 outlet;
#X obj 36 58 loadbang;
#X msg 36 85 doc;
#X obj 36 149 o.route /doc;
#X obj 36 110 o.collect;
#X connect 1 0 2 0;
#X connect 2 0 4 0;
#X connect 3 0 0 0;
#X connect 4 0 3 0;
#X restore 30 12 pd doc-text;
#X obj 264 401 o.display 153 27;
#X obj 417 236 t b f f;
#X floatatom 417 193 5 0 0 0 - - -, f 5;
#X text 73 230 bang triggers output and clears the internal buffer
;
#X text 48 457 messages in the resulting bundle are in the order they
were received;
#X connect 0 0 7 0;
#X connect 1 0 7 0;
#X connect 4 0 7 0;
#X connect 5 0 6 0;
#X connect 5 0 10 0;
#X connect 6 0 11 0;
#X connect 7 0 8 0;
#X connect 7 0 14 0;
#X connect 8 0 2 0;
#X connect 8 1 3 0;
#X connect 9 0 7 0;
#X connect 10 0 7 0;
#X connect 11 0 7 0;
#X connect 13 0 12 0;
#X connect 15 0 1 0;
#X connect 15 1 9 0;
#X connect 15 2 5 0;
#X connect 16 0 15 0;
