#N canvas 473 80 734 604 10;
#X obj 29 42 o.display 642 118;
#N canvas 750 23 450 300 doc-text 0;
#X obj 36 179 outlet;
#X obj 36 58 loadbang;
#X msg 36 85 doc;
#X obj 36 149 o.route /doc;
#X obj 36 110 o.flatten;
#X connect 1 0 2 0;
#X connect 2 0 4 0;
#X connect 3 0 0 0;
#X connect 4 0 3 0;
#X restore 29 15 pd doc-text;
#X text 31 458 addresses are created by concatenating the addresses
of each sub-bundle;
#X obj 399 321 o.flatten;
#X obj 399 231 o.compose 256 83 binhex b#2F666F6F2F626172203A207B0A092F62
b#6C6F6F203A205B312C20322C20335D0A b#7D2C0A2F666F6F203A207B0A092F6261
b#722F626C6F6F203A205B2261222C2022 b#72222C202273225D0A7D;
#X obj 399 357 o.display 201 27;
#X obj 44 328 o.flatten;
#X obj 44 238 o.compose 256 70 binhex b#2F666F6F203A205B2261222C207B0A09
b#2F626172203A205B312C20322C207B0A b#09092F626C6F6F203A205B2261222C20
b#2262222C20335D0A097D5D0A7D2C2022 b#76225D;
#X obj 44 364 o.display 201 27;
#X text 391 401 duplicate addresses are discarded.;
#X connect 1 0 0 0;
#X connect 3 0 5 0;
#X connect 4 0 3 0;
#X connect 6 0 8 0;
#X connect 7 0 6 0;
