#N canvas 623 46 800 479 10;
#X obj 29 42 o.display 642 157;
#N canvas 750 23 450 300 doc-text 0;
#X obj 36 139 o.helpfilehelper;
#X obj 36 101 o.compose 217 23 binhex b#2F6F626A203A20226F2E696E74657273
b#656374696F6E22;
#X obj 36 179 outlet;
#X obj 36 68 loadbang;
#X connect 0 0 2 0;
#X connect 1 0 0 0;
#X connect 3 0 1 0;
#X restore 29 15 pd doc-text;
#X obj 73 354 o.display 138 27;
#X obj 73 256 o.compose 131 31 binhex b#2F666F6F203A205B312C20322C20335D
b#2C0A2F626172203A205B342C20352C20 b#365D;
#X obj 221 255 o.compose 222 31 binhex b#2F666F6F203A205B2271222C20226522
b#2C202272222C202274222C202279225D b#2C0A2F626C6F6F203A205B2261222C20
b#2262222C202263225D;
#X obj 73 315 o.intersection;
#X connect 1 0 0 0;
#X connect 3 0 5 0;
#X connect 4 0 5 1;
#X connect 5 0 2 0;
