#N canvas 624 93 758 444 10;
#X obj 29 42 o.display 642 131;
#N canvas 750 23 450 300 doc-text 0;
#X obj 36 139 o.helpfilehelper;
#X obj 36 101 o.compose 217 23 binhex b#2F6F626A203A20226F2E7072696E7422
b#;
#X obj 36 179 outlet;
#X obj 36 68 loadbang;
#X obj 57 344 o.messageiterate;
#X connect 0 0 2 0;
#X connect 1 0 0 0;
#X connect 3 0 1 0;
#X restore 29 15 pd doc-text;
#X obj 88 244 o.compose 152 23 binhex b#2F666F6F203A205B312C20322C202262
b#6172225D;
#X obj 88 287 o.print;
#X obj 88 331 o.display 152 27;
#X obj 309 249 o.compose 152 23 binhex b#2F666F6F203A205B312C20322C202262
b#6172225D;
#X obj 309 292 o.print foo;
#X text 261 336 input is passed through to the outlet unchanged;
#X connect 1 0 0 0;
#X connect 2 0 3 0;
#X connect 3 0 4 0;
#X connect 5 0 6 0;
