#N canvas 368 23 961 587 10;
#X obj 24 35 o.display 858 144;
#N canvas 216 32 450 300 doc-text 0;
#X obj 36 139 o.helpfilehelper;
#X obj 36 99 o.compose 123 23 binhex b#2F6F626A203A20226F2E726F75746522
b#;
#X obj 36 68 loadbang;
#X obj 36 179 outlet;
#X connect 0 0 3 0;
#X connect 1 0 0 0;
#X connect 2 0 1 0;
#X restore 24 8 pd doc-text;
#X floatatom 62 229 5 0 0 0 - - -, f 5;
#X obj 62 248 o.pack /mysynth/2/gain /mysynth/2/freq 440 /nada rien
;
#X obj 173 304 o.route /mysynth;
#X obj 56 342 o.display 100 40;
#X obj 266 349 o.display 100 27;
#X obj 173 390 o.route /1 /2, f 54;
#X floatatom 411 229 5 0 0 0 - - -, f 5;
#X obj 411 248 o.pack /mysynth/*/freq /mysynth/*/gain 0.5 /nada rien
;
#X obj 207 431 o.display 100 40;
#X obj 362 431 o.display 100 40;
#X obj 174 489 o.route /freq /gain;
#X floatatom 174 520 5 0 0 0 - - -, f 5;
#X floatatom 229 520 5 0 0 0 - - -, f 5;
#X obj 333 489 o.route /freq /gain;
#X floatatom 333 520 5 0 0 0 - - -, f 5;
#X floatatom 388 520 5 0 0 0 - - -, f 5;
#X text 288 306 o.route strips off the portion of the address that
matched;
#X text 379 353 unmatched (delegation);
#X connect 1 0 0 0;
#X connect 2 0 3 0;
#X connect 3 0 4 0;
#X connect 4 0 5 0;
#X connect 4 0 7 0;
#X connect 4 1 6 0;
#X connect 7 0 10 0;
#X connect 7 0 12 0;
#X connect 7 1 11 0;
#X connect 7 1 15 0;
#X connect 8 0 9 0;
#X connect 9 0 4 0;
#X connect 12 0 13 0;
#X connect 12 1 14 0;
#X connect 15 0 16 0;
#X connect 15 1 17 0;
