#N canvas 201 65 921 687 10;
#X obj 246 224 o.schedule /time/activate;
#X obj 246 306 o.timetag /time/activated;
#X obj 246 338 o.expr /time/diff = /time/activated - /time/activate
;
#X obj 246 153 o.timetag /time/acquired;
#X msg 154 144 clear;
#X obj 773 258 o.print queue-full;
#X text 441 303 late bundles come out second outlet (from left) \,
here /time/diff tells us how late the bundle is;
#X obj 249 63 hsl 128 15 0 127 0 0 empty empty empty -2 -8 0 10 -262144
-1 -1 6400 1;
#X obj 246 90 o.pack /slider;
#X obj 246 261 o.expr /late = fase;
#X obj 379 261 o.expr /late = true;
#X obj 509 261 o.expr /late = true \, /immediate = false;
#X obj 246 455 o.route /slider;
#X obj 249 487 hsl 128 15 0 127 0 0 empty empty empty -2 -8 0 10 -262144
-1 -1 6400 1;
#X obj 380 379 o.compose 310 88 binhex b#2F736C69646572203A2036342E2C0A2F
b#74696D652F6163717569726564203A20 b#323031342D30372D32395430303A3534
b#3A34362E3937313238335A2C0A2F7469 b#6D652F6163746976617465203A203230
b#31342D30372D32395430303A35343A34 b#362E3937313238335A2C0A2F6C617465
b#203A20747275652C0A2F74696D652F61 b#6374697661746564203A20323031342D
b#30372D32395430303A35343A34362E39 b#37313332315A2C0A2F74696D652F6469
b#6666203A20332E3730303033652D3035 b#;
#X obj 246 184 o.expr /time/activate = /time/acquired + 0.5;
#X connect 0 0 9 0;
#X connect 0 1 10 0;
#X connect 0 2 11 0;
#X connect 0 3 5 0;
#X connect 1 0 2 0;
#X connect 2 0 12 0;
#X connect 2 0 14 1;
#X connect 3 0 15 0;
#X connect 4 0 0 0;
#X connect 7 0 8 0;
#X connect 8 0 3 0;
#X connect 9 0 1 0;
#X connect 10 0 1 0;
#X connect 11 0 1 0;
#X connect 12 0 13 0;
#X connect 15 0 0 0;
