#N canvas 462 226 796 511 10;
#X floatatom 251 185 5 0 0 0 - - -, f 5;
#X msg 309 184 testo;
#X floatatom 375 140 5 0 0 0 - - -, f 5;
#X msg 384 180 /foo/10 \$1;
#X msg 142 144 1 2 3 foo 5 6;
#X msg 476 183 /bar \$1;
#X floatatom 472 156 5 0 0 0 - - -, f 5;
#X floatatom 210 50 5 0 0 0 - - -, f 5;
#X obj 111 262 print;
#X obj 214 31 bng 15 250 50 0 empty empty empty 17 7 0 10 -262144 -1
-1;
#X obj 208 82 o.pack /postbar;
#X obj 162 269 o.print pack_monitor;
#X obj 252 232 o.pack /foo;
#X floatatom 546 154 5 0 0 0 - - -, f 5;
#X msg 550 181 /bob \$1;
#X obj 333 270 o.select /foo /bar;
#X obj 448 316 o.print unmatched;
#X obj 222 332 o.compose 100 23 binhex b#2F666F6F2F3130203A2033372E
;
#X obj 336 335 o.compose 100 23 binhex b#2F626172203A20352E;
#X msg 453 239 set 2 /bob;
#X msg 539 238 set 2 /bar;
#X connect 0 0 12 0;
#X connect 1 0 12 0;
#X connect 2 0 3 0;
#X connect 3 0 15 0;
#X connect 4 0 12 0;
#X connect 5 0 15 0;
#X connect 6 0 5 0;
#X connect 7 0 10 0;
#X connect 9 0 7 0;
#X connect 10 0 12 0;
#X connect 12 0 8 0;
#X connect 12 0 11 0;
#X connect 12 0 15 0;
#X connect 13 0 14 0;
#X connect 14 0 15 0;
#X connect 15 0 17 1;
#X connect 15 1 18 1;
#X connect 15 2 16 0;
#X connect 19 0 15 0;
#X connect 20 0 15 0;
