#N canvas 34 45 1434 753 10;
#X obj 693 570 omessage 350 10 binhex b#2f73746174652031343420383920353520333420323120313320382035203320322031203120300a2f66756e6374696f6e20222f73746174653d5b2f73746174655b5b315d5d202b202f73746174655b5b305d5d2c2f7374617465205d220a2f70686920312e363137393820;
#X obj 698 513 oexpr /phi= float64(/state[[0]]) / /state[[1]];
#X obj 787 196 omessage 438 10 binhex b#2f7374617465203120300a2f66756e6374696f6e20222f73746174653d5b73756d282f73746174655b5b302c315d5d292c2f7374617465205d2220;
#X obj 784 128 omessage 448 10 binhex b#2f7374617465203120300a2f66756e6374696f6e20222f73746174653d5b2f73746174655b5b315d5d202b202f73746174655b5b305d5d2c2f7374617465205d2220;
#X obj 258 511 omessage 287 10 binhex b#2f73746174652031343420383920353520333420323120313320382035203320322031203120300a2f66756e6374696f6e20222f73746174653d5b2f73746174655b5b315d5d202b202f73746174655b5b305d5d2c2f7374617465205d2220;
#X obj 468 415 oexpr eval(/function);
#X obj 236 122 omessage 398 10 binhex b#2f7374617465203020310a2f66756e6374696f6e20222f73746174653d5b73756d282f7374617465292c6669727374282f737461746529205d2220;
#X connect 6 0 5 0;
#X connect 3 0 5 0;
#X connect 2 0 5 0;
#X connect 5 0 1 0;
#X connect 5 0 4 1;
#X connect 1 0 0 1;
#X connect 4 0 5 0;