#N canvas 0 22 1406 804 10;
#X obj 2645 1126 prepend set, f 16;
#X obj 2552 1126 o.prepend, f 13;
#X obj 2552 1240 s #0_forward, f 17;
#X obj 1638 1421 o.message 1128 88 binhex b#2F37394133323944335F394439365F34
b#3534375F384437315F37413733464645 b#44444635462F63686172616374657269
b#737469632F7065726970686572616C2F b#6E616D652F53656E736F725461672F63
b#686172616374657269737469632F6630 b#3030616135315F303435315F34303030
b#5F623030305F30303030303030303030 b#30302022626C6F622832382C2220222D
b#322C222022382C222022302C22202231 b#30312C222022302C222022302C222022
b#3029220A2F37394133323944335F3944 b#39365F343534375F384437315F374137
b#3346464544444635462F706572697068 b#6572616C2F6E616D65202253656E736F
b#72546167220A2F37394133323944335F b#394439365F343534375F384437315F37
b#41373346464544444635462F63686172 b#616374657269737469632F7575696420
b#2266303030616135315F303435315F34 b#3030305F623030305F30303030303030
b#3030303030220A2F3739413332394433 b#5F394439365F343534375F384437315F
b#3741373346464544444635462F677972 b#6F73636F70652F7820302E3130393830
b#340A2F37394133323944335F39443936 b#5F343534375F384437315F3741373346
b#464544444635462F6779726F73636F70 b#652F7920302E303331333732350A2F37
b#394133323944335F394439365F343534 b#375F384437315F374137334646454444
b#463546;
#N canvas 25 25 25 480 id 0;
#X obj 78 160 t l l, f 8;
#X obj 184 242 outlet;
#X obj 78 132 o.route /self, f 18;
#X obj 50 192 o.route /self, f 18;
#X obj 50 100 t l l, f 8;
#X obj 50 40 inlet;
#X obj 50 242 outlet;
#X connect 0 0 3 1;
#X connect 0 1 1 0;
#X connect 2 0 0 0;
#X connect 3 0 6 0;
#X connect 4 0 3 0;
#X connect 4 1 2 0;
#X connect 5 0 4 0;
#X restore 2552 866 pd id;
#X obj 2552 1198 t l l, f 8;
#X obj 2552 1168 o.union, f 11;
#N canvas 0 22 450 300 process 0;
#X obj 50 264 o.expr /irtemperature/object = ((/irtemperature/object[[0]]
< 0 ? /irtemperature/object[[0]] + 256 : /irtemperature/object[[0]])
* 256) + (/irtemperature/object[[1]] < 0 ? /irtemperature/object[[1]]
+ 256 : /irtemperature/object[[0]])\\\; /irtemperature/ambient = ((/irtemperature/ambient[[0]]
< 0 ? /irtemperature/ambient[[0]] + 256 : /irtemperature/ambient[[0]])
* 256) + (/irtemperature/ambient[[1]] < 0 ? /irtemperature/ambient[[1]]
+ 256 : /irtemperature/ambient[[0]])\\\;, f 105;
#X obj 50 132 o.expr /irtemperature/object = [int8(/characteristic/peripheral/name/SensorTag/characteristic/f000aa01_0451_4000_b000_000000000000[[0]])\\\,
uint8(/characteristic/peripheral/name/SensorTag/characteristic/f000aa01_0451_4000_b000_000000000000[[1]])]\\\;
/irtemperature/ambient = [int8(/characteristic/peripheral/name/SensorTag/characteristic/f000aa01_0451_4000_b000_000000000000[[2]])\\\,
uint8(/characteristic/peripheral/name/SensorTag/characteristic/f000aa01_0451_4000_b000_000000000000[[3]])]\\\;
, f 109;
#X obj 50 100 o.cond /characteristic/uuid == f000aa01_0451_4000_b000_000000000000
, f 89;
#X obj 50 40 inlet;
#X obj 45 414 outlet;
#X connect 0 0 4 0;
#X connect 1 0 0 0;
#X connect 2 0 1 0;
#X connect 2 1 4 0;
#X connect 3 0 2 0;
#X restore 2552 1092 pd process ir temperature;
#N canvas 0 22 450 300 process 0;
#X obj 672 544 o.expr /accelerometer/x = int32(/accelerometer/x)\\\;
/accelerometer/y = int32(/accelerometer/y)\\\; /accelerometer/z = int32(/accelerometer/z)
, f 109;
#X obj 672 472 o.expr if(/accelerometer/x < 0\\\, /accelerometer/x
= 255 + /accelerometer/x)\\\; if(/accelerometer/y < 0\\\, /accelerometer/y
= 255 + /accelerometer/y)\\\; if(/accelerometer/z < 0\\\, /accelerometer/z
= 255 + /accelerometer/z)\\\;, f 97;
#X obj 160 616 o.message 568 10 binhex b#2F63686172616374657269737469632F
b#7065726970686572616C2F6E616D652F b#53656E736F725461672F636861726163
b#74657269737469632F66303030616131 b#315F303435315F343030305F62303030
b#5F303030303030303030303030202262 b#6C6F6228312C222022302C2220222D31
b#362C2220223029220A2F706572697068 b#6572616C2F6E616D65202253656E736F
b#72546167220A2F636861726163746572 b#69737469632F75756964202266303030
b#616131315F303435315F343030305F62 b#3030305F303030303030303030303030
b#220A2F616363656C65726F6D65746572 b#2F7820310A2F616363656C65726F6D65
b#7465722F7920300A2F616363656C6572 b#6F6D657465722F7A2032333920;
#X obj 50 136 o.expr /accelerometer/x = int32(/characteristic/peripheral/name/SensorTag/characteristic/f000aa11_0451_4000_b000_000000000000[[0]])\\\;
/accelerometer/y = int32(/characteristic/peripheral/name/SensorTag/characteristic/f000aa11_0451_4000_b000_000000000000[[1]])\\\;
/accelerometer/z = int32(/characteristic/peripheral/name/SensorTag/characteristic/f000aa11_0451_4000_b000_000000000000[[2]])\\\;
, f 109;
#X obj 50 100 o.cond /characteristic/uuid == f000aa11_0451_4000_b000_000000000000
, f 89;
#X obj 50 40 inlet;
#X obj 50 520 outlet;
#X connect 1 0 0 0;
#X connect 3 0 6 0;
#X connect 4 0 3 0;
#X connect 4 1 6 0;
#X connect 5 0 4 0;
#X restore 2552 1060 pd process accelerometer;
#N canvas 0 22 450 300 process 0;
#X obj 50 376 o.expr /humidity/temperature /= 16383.\\\; /humidity/humidity
/= 4095.\\\;, f 90;
#X obj 50 264 o.expr /humidity/temperature = ((/humidity/temperature[[0]]
< 0 ? /humidity/temperature[[0]] + 256 : /humidity/temperature[[0]])
* 256) + (/humidity/temperature[[1]] < 0 ? /humidity/temperature[[1]]
+ 256 : /humidity/temperature[[0]])\\\; /humidity/humidity = ((/humidity/humidity[[0]]
< 0 ? /humidity/humidity[[0]] + 256 : /humidity/humidity[[0]]) * 256)
+ (/humidity/humidity[[1]] < 0 ? /humidity/humidity[[1]] + 256 : /humidity/humidity[[0]])\\\;
, f 109;
#X obj 50 132 o.expr /humidity/temperature = [int8(/characteristic/peripheral/name/SensorTag/characteristic/f000aa21_0451_4000_b000_000000000000[[0]])\\\,
uint8(/characteristic/peripheral/name/SensorTag/characteristic/f000aa21_0451_4000_b000_000000000000[[1]])]\\\;
/humidity/humidity = [int8(/characteristic/peripheral/name/SensorTag/characteristic/f000aa21_0451_4000_b000_000000000000[[2]])\\\,
uint8(/characteristic/peripheral/name/SensorTag/characteristic/f000aa21_0451_4000_b000_000000000000[[3]])]\\\;
, f 109;
#X obj 50 100 o.cond /characteristic/uuid == f000aa21_0451_4000_b000_000000000000
, f 89;
#X obj 50 40 inlet;
#X obj 45 414 outlet;
#X connect 0 0 5 0;
#X connect 1 0 0 0;
#X connect 2 0 1 0;
#X connect 3 0 2 0;
#X connect 3 1 5 0;
#X connect 4 0 3 0;
#X restore 2552 1028 pd process humidity;
#N canvas 0 22 450 300 process 0;
#X obj 50 432 o.expr /magnetometer/x /= 65535.\\\; /magnetometer/y
/= 65535.\\\; /magnetometer/z /= 65535.\\\;, f 106;
#X obj 50 308 o.expr /magnetometer/x = ((/magnetometer/x[[0]] < 0 ?
/magnetometer/x[[0]] + 256 : /magnetometer/x[[0]]) * 256) + (/magnetometer/x[[1]]
< 0 ? /magnetometer/x[[1]] + 256 : /magnetometer/x[[0]])\\\; /magnetometer/y
= ((/magnetometer/y[[0]] < 0 ? /magnetometer/y[[0]] + 256 : /magnetometer/y[[0]])
* 256) + (/magnetometer/y[[1]] < 0 ? /magnetometer/y[[1]] + 256 : /magnetometer/y[[0]])\\\;
/magnetometer/z = ((/magnetometer/z[[0]] < 0 ? /magnetometer/z[[0]]
+ 256 : /magnetometer/z[[0]]) * 256) + (/magnetometer/z[[1]] < 0 ?
/magnetometer/z[[1]] + 256 : /magnetometer/z[[0]]), f 111;
#X obj 50 132 o.expr /magnetometer/x = [int8(/characteristic/peripheral/name/SensorTag/characteristic/f000aa31_0451_4000_b000_000000000000[[0]])\\\,
uint8(/characteristic/peripheral/name/SensorTag/characteristic/f000aa31_0451_4000_b000_000000000000[[1]])]\\\;
/magnetometer/y = [int8(/characteristic/peripheral/name/SensorTag/characteristic/f000aa31_0451_4000_b000_000000000000[[2]])\\\,
uint8(/characteristic/peripheral/name/SensorTag/characteristic/f000aa31_0451_4000_b000_000000000000[[3]])]\\\;
/magnetometer/z = [int8(/characteristic/peripheral/name/SensorTag/characteristic/f000aa31_0451_4000_b000_000000000000[[4]])\\\,
int8(/characteristic/peripheral/name/SensorTag/characteristic/f000aa31_0451_4000_b000_000000000000[[5]])]
, f 109;
#X obj 50 100 o.cond /characteristic/uuid == f000aa31_0451_4000_b000_000000000000
, f 89;
#X obj 50 40 inlet;
#X obj 45 470 outlet;
#X connect 0 0 5 0;
#X connect 1 0 0 0;
#X connect 2 0 1 0;
#X connect 3 0 2 0;
#X connect 3 1 5 0;
#X connect 4 0 3 0;
#X restore 2552 996 pd process magnetometer;
#N canvas 0 22 450 300 process 0;
#X obj 50 368 o.expr /barometer/temperature /= 65535.\\\; /barometer/pressure
/= 65535.\\\;, f 94;
#X obj 50 264 o.expr /barometer/temperature = ((/barometer/temperature[[0]]
< 0 ? /barometer/temperature[[0]] + 256 : /barometer/temperature[[0]])
* 256) + (/barometer/temperature[[1]] < 0 ? /barometer/temperature[[1]]
+ 256 : /barometer/temperature[[0]])\\\; /barometer/pressure = ((/barometer/pressure[[0]]
< 0 ? /barometer/pressure[[0]] + 256 : /barometer/pressure[[0]]) *
256) + (/barometer/pressure[[1]] < 0 ? /barometer/pressure[[1]] + 256
: /barometer/pressure[[0]])\\\;, f 110;
#X obj 50 132 o.expr /barometer/temperature = [int8(/characteristic/peripheral/name/SensorTag/characteristic/f000aa41_0451_4000_b000_000000000000[[0]])\\\,
uint8(/characteristic/peripheral/name/SensorTag/characteristic/f000aa41_0451_4000_b000_000000000000[[1]])]\\\;
/barometer/pressure = [int8(/characteristic/peripheral/name/SensorTag/characteristic/f000aa41_0451_4000_b000_000000000000[[2]])\\\,
uint8(/characteristic/peripheral/name/SensorTag/characteristic/f000aa41_0451_4000_b000_000000000000[[3]])]\\\;
, f 109;
#X obj 50 100 o.cond /characteristic/uuid == f000aa41_0451_4000_b000_000000000000
, f 89;
#X obj 50 40 inlet;
#X obj 45 414 outlet;
#X connect 0 0 5 0;
#X connect 1 0 0 0;
#X connect 2 0 1 0;
#X connect 3 0 2 0;
#X connect 3 1 5 0;
#X connect 4 0 3 0;
#X restore 2552 964 pd process barometer;
#N canvas 0 22 450 300 process 0;
#X obj 50 416 o.expr /gyroscope/x /= 65535.\\\; /gyroscope/y /= 65535.\\\;
/gyroscope/z /= 65535, f 102;
#X obj 50 308 o.expr /gyroscope/x = ((/gyroscope/x[[0]] < 0 ? /gyroscope/x[[0]]
+ 256 : /gyroscope/x[[0]]) * 256) + (/gyroscope/x[[1]] < 0 ? /gyroscope/x[[1]]
+ 256 : /gyroscope/x[[0]])\\\; /gyroscope/y = ((/gyroscope/y[[0]] <
0 ? /gyroscope/y[[0]] + 256 : /gyroscope/y[[0]]) * 256) + (/gyroscope/y[[1]]
< 0 ? /gyroscope/y[[1]] + 256 : /gyroscope/y[[0]])\\\; /gyroscope/z
= ((/gyroscope/z[[0]] < 0 ? /gyroscope/z[[0]] + 256 : /gyroscope/z[[0]])
* 256) + (/gyroscope/z[[1]] < 0 ? /gyroscope/z[[1]] + 256 : /gyroscope/z[[0]])
, f 110;
#X obj 50 132 o.expr /gyroscope/x = [int8(/characteristic/peripheral/name/SensorTag/characteristic/f000aa51_0451_4000_b000_000000000000[[0]])\\\,
uint8(/characteristic/peripheral/name/SensorTag/characteristic/f000aa51_0451_4000_b000_000000000000[[1]])]\\\;
/gyroscope/y = [int8(/characteristic/peripheral/name/SensorTag/characteristic/f000aa51_0451_4000_b000_000000000000[[2]])\\\,
uint8(/characteristic/peripheral/name/SensorTag/characteristic/f000aa51_0451_4000_b000_000000000000[[3]])]\\\;
/gyroscope/z = [int8(/characteristic/peripheral/name/SensorTag/characteristic/f000aa51_0451_4000_b000_000000000000[[4]])\\\,
int8(/characteristic/peripheral/name/SensorTag/characteristic/f000aa51_0451_4000_b000_000000000000[[5]])]
, f 109;
#X obj 50 100 o.cond /characteristic/uuid == f000aa51_0451_4000_b000_000000000000
, f 89;
#X obj 50 40 inlet;
#X obj 50 528 outlet;
#X connect 0 0 5 0;
#X connect 1 0 0 0;
#X connect 2 0 1 0;
#X connect 3 0 2 0;
#X connect 3 1 5 0;
#X connect 4 0 3 0;
#X restore 2552 932 pd process gyroscope;
#N canvas 0 22 450 300 process 0;
#X obj 50 486 o.expr /testservice/allpassed = bitand(/characteristic/peripheral/name/SensorTag/characteristic/f000aa61_0451_4000_b000_000000000000[[0]]\\\,
128) == 0 ? false : true, f 109;
#X obj 50 430 o.expr /testservice/gyroscope = bitand(/characteristic/peripheral/name/SensorTag/characteristic/f000aa61_0451_4000_b000_000000000000[[0]]\\\,
32) == 0 ? failed : passed, f 109;
#X obj 50 374 o.expr /testservice/barometer = bitand(/characteristic/peripheral/name/SensorTag/characteristic/f000aa61_0451_4000_b000_000000000000[[0]]\\\,
16) == 0 ? failed : passed, f 109;
#X obj 50 316 o.expr /testservice/accelerometer = bitand(/characteristic/peripheral/name/SensorTag/characteristic/f000aa61_0451_4000_b000_000000000000[[0]]\\\,
8) == 0 ? failed : passed, f 109;
#X obj 50 262 o.expr /testservice/magnetometer = bitand(/characteristic/peripheral/name/SensorTag/characteristic/f000aa61_0451_4000_b000_000000000000[[0]]\\\,
4) == 0 ? failed : passed, f 109;
#X obj 50 206 o.expr /testservice/humidity = bitand(/characteristic/peripheral/name/SensorTag/characteristic/f000aa61_0451_4000_b000_000000000000[[0]]\\\,
2) == 0 ? failed : passed, f 109;
#X obj 50 142 o.expr /testservice/irtemp = bitand(/characteristic/peripheral/name/SensorTag/characteristic/f000aa61_0451_4000_b000_000000000000[[0]]\\\,
1) == 0 ? failed : passed, f 109;
#X obj 50 100 o.cond /characteristic/uuid == f000aa61_0451_4000_b000_000000000000
, f 89;
#X obj 50 40 inlet;
#X obj 50 588 outlet;
#X connect 0 0 9 0;
#X connect 1 0 0 0;
#X connect 2 0 1 0;
#X connect 3 0 2 0;
#X connect 4 0 3 0;
#X connect 5 0 4 0;
#X connect 6 0 5 0;
#X connect 7 0 6 0;
#X connect 7 1 9 0;
#X connect 8 0 7 0;
#X restore 2552 898 pd process test service;
#X obj 1029 332 o.route /discover/characteristic/peripheral/name/SensorTag/service/uuid/1800
/discover/characteristic/peripheral/name/SensorTag/service/uuid/1801
/discover/characteristic/peripheral/name/SensorTag/service/uuid/180a
/discover/characteristic/peripheral/name/SensorTag/service/uuid/f000aa00_0451_4000_b000_000000000000
/discover/characteristic/peripheral/name/SensorTag/service/uuid/f000aa10_0451_4000_b000_000000000000
/discover/characteristic/peripheral/name/SensorTag/service/uuid/f000aa20_0451_4000_b000_000000000000
/discover/characteristic/peripheral/name/SensorTag/service/uuid/f000aa30_0451_4000_b000_000000000000
/discover/characteristic/peripheral/name/SensorTag/service/uuid/f000aa40_0451_4000_b000_000000000000
/discover/characteristic/peripheral/name/SensorTag/service/uuid/f000aa50_0451_4000_b000_000000000000
/discover/characteristic/peripheral/name/SensorTag/service/uuid/ffe0
/discover/characteristic/peripheral/name/SensorTag/service/uuid/f000aa60_0451_4000_b000_000000000000
/discover/characteristic/peripheral/name/SensorTag/service/uuid/f000ccc0_0451_4000_b000_000000000000
/discover/characteristic/peripheral/name/SensorTag/service/uuid/f000ffc0_0451_4000_b000_000000000000
, f 133;
#X obj 48 1584 o.expr /read = true, f 26;
#X text 2106 548 Connection Control Service: ccc1: ConnInterval, f
112;
#X obj 1636 548 o.select /characteristic/uuid/f000ccc1_0451_4000_b000_000000000000
/characteristic/uuid/f000ccc2_0451_4000_b000_000000000000 /characteristic/uuid/f000ccc3_0451_4000_b000_000000000000
, f 77;
#X text 2051 620 Test Service: aa61: Self-test results (high bit indicates
PASSED): Bit 0:IR temp;
#X obj 1581 620 o.select /characteristic/uuid/f000aa61_0451_4000_b000_000000000000
/characteristic/uuid/f000aa62_0451_4000_b000_000000000000, f 77;
#X text 1719 684 Characteristics: 2803: Key Press State, f 29;
#X obj 1526 684 o.select /characteristic/uuid/2803, f 35;
#X obj 359 1584 o.expr /write = blob(int8(7)), f 39;
#X text 1943 740 Gyroscope Characteristics: aa51: XLSB:XMSB:YLSB:YMSB:
ZLSB:ZMSB aa52: Write 0 to turn off gyroscope, f 102;
#X obj 1471 740 o.select /characteristic/uuid/f000aa51_0451_4000_b000_000000000000
/characteristic/uuid/f000aa52_0451_4000_b000_000000000000 /characteristic/uuid/f000aa53_0451_4000_b000_000000000000
, f 77;
#X text 1885 836 Barometer Characteristics: aa41: TempLSB:TempMSB:PressureLSB:PressureMSB
aa42: Write "01" to start Sensor and Measurements, f 114;
#X obj 1416 836 o.select /characteristic/uuid/f000aa41_0451_4000_b000_000000000000
/characteristic/uuid/f000aa42_0451_4000_b000_000000000000 /characteristic/uuid/f000aa43_0451_4000_b000_000000000000
/characteristic/uuid/f000aa43_0451_4000_b000_000000000000, f 77;
#X text 1834 940 Magnetometer Characteristics: aa31: XLSB:XMSB:YLSB:YMSB:
ZLSB:ZMSB Coordinates aa32: Write "01" to start Sensor and Measurements
, f 96;
#X obj 1360 940 o.select /characteristic/uuid/f000aa31_0451_4000_b000_000000000000
/characteristic/uuid/f000aa32_0451_4000_b000_000000000000 /characteristic/uuid/f000aa33_0451_4000_b000_000000000000
, f 77;
#X text 1778 1028 Humidity Characteristics: aa21: TempLSB:TempMSB:HumidityLSB:HumidityMSB
aa22: Write "01" to start measurements, f 89;
#X obj 1305 1028 o.select /characteristic/uuid/f000aa21_0451_4000_b000_000000000000
/characteristic/uuid/f000aa22_0451_4000_b000_000000000000 /characteristic/uuid/f000aa23_0451_4000_b000_000000000000
, f 77;
#X obj 801 1584 o.expr /write = blob(int8(10)), f 41;
#X text 1721 1108 Accelerometer Characteristics: aa11: X : Y : Z Coordinates
aa12: Write "01" to select range 2G, f 110;
#X obj 1250 1108 o.select /characteristic/uuid/f000aa11_0451_4000_b000_000000000000
/characteristic/uuid/f000aa12_0451_4000_b000_000000000000 /characteristic/uuid/f000aa13_0451_4000_b000_000000000000
, f 77;
#X text 1671 1196 IR Temperature Characteristics: aa01: ObjectLSB:ObjectMSB:AmbientLSB:AmbientMSB
aa02: Write "01" to start Sensor and Measurements, f 96;
#X obj 1195 1196 o.select /characteristic/uuid/f000aa01_0451_4000_b000_000000000000
/characteristic/uuid/f000aa02_0451_4000_b000_000000000000 /characteristic/uuid/f000aa03_0451_4000_b000_000000000000
, f 77;
#X text 1359 1281 Device Information Characteristics: 2a23: System
ID 2a24: Model Number String 2a25: Serial Number String (N.A.) 2a26:
Firmware Revision String 2a27: Hardware Revision String 2a28: Software
Revision String 2a29: Manufacturer Name String 2a2a: IEEE 11073-20601
Regulatory 2a50: PnP ID, f 51;
#X obj 1140 1284 o.select /characteristic/uuid/2a23 /characteristic/uuid/2a24
/characteristic/uuid/2a25 /characteristic/uuid/2a26 /characteristic/uuid/2a27
/characteristic/uuid/2a28 /characteristic/uuid/2a29 /characteristic/uuid/2a2a
/characteristic/uuid/2a50, f 35;
#X text 1305 1433 GA Characteristics: 2a05: Service Changed, f 29
;
#X obj 1085 1436 o.select /characteristic/uuid/2a05;
#X text 1253 1485 GAP Characteristics: 2a00: Device Name 2a01: Appearance
2a02: Peripheral Privacy Flag 2a03: Reconnection Address 2a04: Peripheral
Preferred Connection, f 50;
#X obj 1030 1488 o.select /characteristic/uuid/2a00 /characteristic/uuid/2a01
/characteristic/uuid/2a02 /characteristic/uuid/2a03 /characteristic/uuid/2a04
, f 35;
#X obj 579 1584 o.expr /write = blob(int8(1)), f 40;
#X obj 195 1584 o.expr /notify = true, f 29;
#X obj 166 20 inlet;
#X obj 505 500 r #0_forward, f 17;
#X obj 637 500 r #0_delegate, f 19;
#X obj 1746 524 s #0_delegate, f 19;
#X obj 505 532 outlet;
#X obj 637 532 outlet;
#X obj 849 332 s #0_delegate, f 19;
#X obj 1746 500 o.select /discover/characteristic, f 45;
#X obj 849 308 o.select /discover/service, f 36;
#X obj 183 132 o.select /discover/service/peripheral/name/SensorTag/service/uuid/1800
/discover/service/peripheral/name/SensorTag/service/uuid/1801 /discover/service/peripheral/name/SensorTag/service/uuid/180a
/discover/service/peripheral/name/SensorTag/service/uuid/f000aa00_0451_4000_b000_000000000000
/discover/service/peripheral/name/SensorTag/service/uuid/f000aa10_0451_4000_b000_000000000000
/discover/service/peripheral/name/SensorTag/service/uuid/f000aa20_0451_4000_b000_000000000000
/discover/service/peripheral/name/SensorTag/service/uuid/f000aa30_0451_4000_b000_000000000000
/discover/service/peripheral/name/SensorTag/service/uuid/f000aa40_0451_4000_b000_000000000000
/discover/service/peripheral/name/SensorTag/service/uuid/f000aa50_0451_4000_b000_000000000000
/discover/service/peripheral/name/SensorTag/service/uuid/ffe0 /discover/service/peripheral/name/SensorTag/service/uuid/f000aa60_0451_4000_b000_000000000000
/discover/service/peripheral/name/SensorTag/service/uuid/f000ccc0_0451_4000_b000_000000000000
/discover/service/peripheral/name/SensorTag/service/uuid/f000ffc0_0451_4000_b000_000000000000
, f 124;
#X text 934 124 Services: 1800: Generic Access Protocol (GAP) 1801:
Generic Attribute 180a: Device Information f000aa00_0451_4000_b000_000000000000:
IR Temperature Service f000aa10_0451_4000_b000_000000000000: Accelerometer
Service f000aa20_0451_4000_b000_000000000000: Humidity Service f000aa30_0451_4000_b000_000000000000:
Magnetometer Service f000aa40_0451_4000_b000_000000000000: Barometer
Service f000aa50_0451_4000_b000_000000000000: Gyroscope Service ffe0:
Simple Keys Service f000aa60_0451_4000_b000_000000000000: Test Service
f000ccc0_0451_4000_b000_000000000000: Connection Control Service f000ffc0_0451_4000_b000_000000000000:
OAD Service, f 96;
#X obj 166 308 o.expr /discover/services = true, f 44;
#X obj 437 308 o.expr /discover/characteristics = true, f 53;
#X obj 166 106 o.select /discover/peripheral, f 50;
#X obj 166 79 o.io.bluetoothle, f 22;
#X connect 0 0 1 0;
#X connect 1 0 6 0;
#X connect 4 0 13 0;
#X connect 4 1 0 0;
#X connect 5 0 3 1;
#X connect 5 0 2 0;
#X connect 5 1 6 1;
#X connect 6 0 5 0;
#X connect 7 0 1 0;
#X connect 8 0 7 0;
#X connect 9 0 8 0;
#X connect 10 0 9 0;
#X connect 11 0 10 0;
#X connect 12 0 11 0;
#X connect 13 0 12 0;
#X connect 14 0 41 0;
#X connect 14 1 39 0;
#X connect 14 2 37 0;
#X connect 14 3 35 0;
#X connect 14 4 33 0;
#X connect 14 5 30 0;
#X connect 14 6 28 0;
#X connect 14 7 26 0;
#X connect 14 8 24 0;
#X connect 14 9 21 0;
#X connect 14 10 19 0;
#X connect 14 11 17 0;
#X connect 14 13 51 0;
#X connect 15 0 58 0;
#X connect 19 0 15 0;
#X connect 21 0 15 0;
#X connect 22 0 58 0;
#X connect 24 0 43 0;
#X connect 24 1 22 0;
#X connect 24 2 31 0;
#X connect 26 0 43 0;
#X connect 26 1 42 0;
#X connect 26 3 31 0;
#X connect 28 0 43 0;
#X connect 28 1 42 0;
#X connect 28 2 42 0;
#X connect 30 0 43 0;
#X connect 30 1 42 0;
#X connect 30 2 31 0;
#X connect 31 0 58 0;
#X connect 33 0 43 0;
#X connect 33 1 42 0;
#X connect 33 2 31 0;
#X connect 35 0 43 0;
#X connect 35 1 42 0;
#X connect 35 2 31 0;
#X connect 41 0 15 0;
#X connect 42 0 58 0;
#X connect 43 0 58 0;
#X connect 44 0 58 0;
#X connect 45 0 48 0;
#X connect 46 0 49 0;
#X connect 51 0 47 0;
#X connect 51 1 4 0;
#X connect 52 0 50 0;
#X connect 52 1 14 0;
#X connect 53 0 56 0;
#X connect 53 1 56 0;
#X connect 53 2 56 0;
#X connect 53 3 56 0;
#X connect 53 4 56 0;
#X connect 53 5 56 0;
#X connect 53 6 56 0;
#X connect 53 7 56 0;
#X connect 53 8 56 0;
#X connect 53 9 56 0;
#X connect 53 10 56 0;
#X connect 53 11 56 0;
#X connect 53 12 56 0;
#X connect 53 13 52 0;
#X connect 55 0 58 0;
#X connect 56 0 58 0;
#X connect 57 0 55 0;
#X connect 57 1 53 0;
#X connect 58 0 57 0;
