#N canvas 588 44 1440 779 10;
#X text 309 725 Adrian Freed
John MacCallum 2014, f 27.2727272727;
#X obj 145 604 o.expr.codebox;
#X obj 145 110 o.expr.codebox;
#X msg 213 437 reset, f 6.72727272727;
#X obj 146 324 o.uniform /r, f 12.9090909091;
#X obj 145 405 o.righttoleft, f 20.6363636364;
#X obj 145 497 o.expr /emptyqueue = false, f 28.3636363636;
#X obj 145 381 o.if /emptyqueue==true, f 24.3636363636;
#X obj 268 82 o.init, f 7.27272727273;
#X obj 270 22 patcherargs, f 14.1818181818;
#X obj 269 54 o.arguments, f 14.7272727273;
#X obj 143 733 outlet;
#X obj 144 699 o.out @name main, f 20.3636363636;
#X obj 145 77 o.in @name main, f 19.0909090909;
#X obj 145 557 o.righttoleft, f 20.6363636364;
#X obj 15 325 o.expr /refill=true \;, f 19.4545454545;
#X obj 145 530 o.if bound(/refill), f 45.6363636364;
#X obj 145 300 o.forward, f 11.0909090909;
#X obj 145 349 o.expr /time_to_next_event += (-1. * /mu) * log(/r), f 49.4545454545;
#X obj 145 186 o.timetag /time_to_next_event, f 31.0909090909;
#X obj 145 220 o.uniform /r, f 12.9090909091;
#X obj 145 37 inlet;
#X obj 145 464 o.schedule /time_to_next_event, f 32.7272727273;
#X obj 145 256 o.expr /time_to_next_event += (-1. * /mu) * log(/r), f 49.4545454545;
#X connect 20 0 23 0;
#X connect 12 0 11 0;
#X connect 9 1 10 1;
#X connect 9 0 10 0;
#X connect 16 0 14 0;
#X connect 16 1 1 0;
#X connect 15 0 7 0;
#X connect 14 0 1 0;
#X connect 14 5 17 0;
#X connect 4 0 18 0;
#X connect 1 0 12 0;
#X connect 8 0 2 0;
#X connect 19 0 20 0;
#X connect 22 1 6 0;
#X connect 22 0 6 0;
#X connect 3 0 22 0;
#X connect 7 1 22 0;
#X connect 7 0 5 0;
#X connect 6 0 16 0;
#X connect 5 0 22 0;
#X connect 5 5 3 0;
#X connect 17 0 4 0;
#X connect 10 0 8 0;
#X connect 13 0 2 0;
#X connect 21 0 13 0;
#X connect 18 0 7 0;
#X connect 23 0 15 0;
#X connect 23 0 17 0;
#X connect 2 0 19 0;
