#N canvas 337 67 270 329 10;
#X obj 142 106 o.init, f 6.0;
#X obj 142 69 o.arguments, f 12.8333333333;
#X obj 26 215 o.union, f 8.33333333333;
#X obj 20 54 o.in @name main, f 17.5;
#X obj 26 246 o.out @name main, f 18.6666666667;
#X obj 142 35 patcherargs, f 12.8333333333;
#X obj 79 139 o.intersection, f 13.6666666667;
#X obj 79 172 o.prepend /was, f 15.5;
#X obj 26 278 outlet;
#X obj 19 17 inlet;
#X obj 20 84 o.righttoleft, f 18.9166666667;
#X connect 0 0 6 1;
#X connect 5 1 1 1;
#X connect 5 0 1 0;
#X connect 4 0 8 0;
#X connect 6 0 7 0;
#X connect 3 0 10 0;
#X connect 2 0 4 0;
#X connect 1 0 0 0;
#X connect 10 1 6 0;
#X connect 10 3 2 0;
#X connect 9 0 3 0;
#X connect 7 0 2 1;
