#N canvas 59 69 559 292 10;
#X text 45 30 testing bangs and comments, f 167;
#X obj 495 210 bng 20 250 50 0 empty empty empty 17 7 0 10 -262144 -1 -1;
#X obj 405 225 bng 20 250 50 0 empty empty empty 17 7 0 10 -262144 -1 -1;
#X obj 315 210 bng 20 250 50 0 empty empty empty 17 7 0 10 -262144 -1 -1;
#X obj 225 225 bng 20 250 50 0 empty empty empty 17 7 0 10 -262144 -1 -1;
#X obj 135 210 bng 20 250 50 0 empty empty empty 17 7 0 10 -262144 -1 -1;
#X obj 45 225 bng 20 250 50 0 empty empty empty 17 7 0 10 -262144 -1 -1;
#X obj 495 90 bng 20 250 50 0 empty empty empty 17 7 0 10 -262144 -1 -1;
#X obj 405 75 bng 20 250 50 0 empty empty empty 17 7 0 10 -262144 -1 -1;
#X obj 315 90 bng 20 250 50 0 empty empty empty 17 7 0 10 -262144 -1 -1;
#X obj 225 75 bng 20 250 50 0 empty empty empty 17 7 0 10 -262144 -1 -1;
#X obj 135 90 bng 20 250 50 0 empty empty empty 17 7 0 10 -262144 -1 -1;
#X obj 45 75 bng 20 250 50 0 empty empty empty 17 7 0 10 -262144 -1 -1;
#X connect 8 0 3 0;
#X connect 7 0 1 0;
#X connect 12 0 5 0;
#X connect 11 0 3 0;
#X connect 10 0 6 0;
#X connect 9 0 5 0;
