#N canvas 651 89 804 569 10;
#X msg 45 17 o.flatten takes messages out of nested bundles and inserts
them into the top level bundle.;
#X obj 36 75 omessage 100 75 binhex b#2F666F6F20226122205B0A2F62617220
b#312032205B0A2F626C6F6F2022612220 b#2262222033200A5D0A5D22762220;
#X obj 36 173 oflatten;
#X obj 38 217 omessage 100 23 binhex b#0A0A;
#X obj 192 175 oflatten @level 1;
#X obj 188 214 omessage 100 23 binhex b#0A;
#X obj 330 174 oflatten @level 1 @sep :;
#X obj 493 173 oflatten @level 1 @sep /bundle;
#X obj 326 226 omessage 100 23 binhex b#0A;
#X obj 505 229 omessage 100 23 binhex b#0A;
#X msg 229 126 the sep attribute places a separator between address
levels;
#X msg 32 299 addresses are created by concatenating the addresses
of each sub-bundle;
#X obj 34 339 omessage 100 101 binhex b#2F666F6F2F626172205B0A2F626C6F6F
b#203120322033200A5D0A2F666F6F205B b#0A2F6261722F626C6F6F202261222022
b#722220227322200A5D;
#X obj 36 450 oflatten;
#X obj 34 489 omessage 100 36 binhex b#0A;
#X msg 151 451 duplicate addresses are discarded.;
#X connect 1 0 2 0;
#X connect 1 0 4 0;
#X connect 1 0 6 0;
#X connect 1 0 7 0;
#X connect 2 0 3 1;
#X connect 4 0 5 1;
#X connect 6 0 8 1;
#X connect 7 0 9 1;
#X connect 12 0 13 0;
#X connect 13 0 14 1;
