#N canvas 738 376 762 300 10;
#X floatatom 100 52 5 0 0 0 - - -;
#X floatatom 199 55 5 0 0 0 - - -;
#X obj 94 93 opack /foo/1;
#X obj 193 96 opack /foo/1 /bar;
#X obj 98 137 odifference;
#X obj 97 197 oprint diff;
#X obj 217 194 oprint inter;
#X obj 210 145 ointersection;
#X obj 361 142 ounion;
#X obj 360 172 oprint union;
#X connect 0 0 2 0;
#X connect 1 0 3 0;
#X connect 1 0 3 1;
#X connect 2 0 4 0;
#X connect 2 0 7 0;
#X connect 2 0 8 0;
#X connect 3 0 4 1;
#X connect 3 0 7 1;
#X connect 3 0 8 1;
#X connect 4 0 5 0;
#X connect 7 0 6 0;
#X connect 8 0 9 0;
