#N canvas 694 28 450 300 10;
#X obj 163 149 oiterate;
#X obj 163 75 omessage 100 49 binhex b#2F666F6F2F3120310A2F666F6F2F3220320A2F666F6F2F3320330A
;
#X obj 128 199 oprint;
#X obj 179 223 omessage 100 23 binhex b#2F666F6F2F3120310A2F666F6F2F3220320A2F666F6F2F3320330A
;
#X connect 0 0 2 0;
#X connect 0 0 3 1;
#X connect 1 0 0 0;
