#N canvas 464 133 463 586 10;
#X obj 215 44 bng 15 250 50 0 empty empty empty 17 7 0 10 -262144 -1
-1;
#X obj 288 171 t a;
#X obj 262 236 print;
#X obj 210 75 opack /bob 3;
#X obj 210 107 opack /foo 1 /bar 2 /steve 3;
#X obj 210 168 omappatch;
#X obj 57 277 omessage 118 75 binhex b#2F666F6F205B0A2F626F6220332E200A
b#5D0A2F62617220322E200A2F73746576 b#6520332E20;
#X obj 210 327 oprint;
#X obj 34 167 omessage 118 75 binhex b#2F666F6F205B0A2F626F6220332E200A
b#5D0A2F62617220322E200A2F73746576 b#6520332E20;
#X msg 48 -75 o.mappatch takes an OSC bundle in the right inlet and
outputs each of the messages contained in it in sequence out the right
outlet as OSC-style Max-messages. After processing each message \,
it should be sent back into the right inlet (or not if it is to be
excluded from the bundle). After all messages have been processed \,
the resulting bundle with any modifications will come out the left
outlet.;
#X connect 0 0 3 0;
#X connect 1 0 5 1;
#X connect 3 0 4 0;
#X connect 4 0 5 0;
#X connect 4 0 8 1;
#X connect 5 0 6 1;
#X connect 5 0 7 0;
#X connect 5 1 1 0;
#X connect 5 1 2 0;
