#N canvas 666 281 606 300 10;
#X obj 115 44 omessage 100 62 binhex b#2F666F6F202231220A2F626172202232220A2F7374657665202233220A2F6269
b#6C6C79202234220A;
#X obj 115 136 omenu;
#X obj 115 191 print L;
#X obj 215 191 print R;
#X obj 245 9 loadbang;
#X msg 245 100 displaymode 1;
#X msg 345 100 displaymode 0;
#X connect 0 0 1 0;
#X connect 1 0 2 0;
#X connect 1 1 3 0;
#X connect 4 0 5 0;
#X connect 4 0 0 0;
#X connect 5 0 1 0;
#X connect 6 0 1 0;
