#N canvas 310 114 806 478 10;
#X floatatom -4044 96 5 0 0 0 - - -;
#X msg -3823 156 /foo \$1;
#X floatatom -3823 120 5 0 0 0 - - -;
#X msg -3914 96 testo;
#X msg -4001 99 testo;
#X obj -4134 137 bng 15 250 50 0 empty empty empty 17 7 0 10 -262144
-1 -1;
#X floatatom -3949 98 5 0 0 0 - - -;
#X obj -4222 102 opack /subbundle;
#X floatatom -4221 78 5 0 0 0 - - -;
#X obj -4002 160 opack /foo 11 /bar sam;
#X msg -4140 193 version;
#X obj -3815 230 oroute /foo /bar;
#X obj -3815 332 print fooout;
#X floatatom -3762 124 5 0 0 0 - - -;
#X msg -3762 160 /ringo \$1;
#X obj -3790 284 print 2out;
#X msg -3683 173 /ringo;
#X obj -3714 258 oprint unmatched;
#X obj -4074 230 print;
#X obj -4002 218 oprint pack;
#X obj -4168 325 opak /foo 1 /bar 2;
#X floatatom -4065 293 5 0 0 0 - - -;
#X obj -4162 380 omessage 100 36 binhex b#2F666F6F20312E200A2F626172203135
b#2E20;
#X msg -4224 11 o.pack takes a OSC addresses as arguments and creates
an inlet for each one. Anything sent into an inlet is bound to the
corresponding address. Output is triggered when data is recieved in
the leftmost inlet.;
#X connect 0 0 9 0;
#X connect 1 0 11 0;
#X connect 2 0 1 0;
#X connect 3 0 9 1;
#X connect 4 0 9 0;
#X connect 5 0 9 0;
#X connect 6 0 9 1;
#X connect 7 0 9 0;
#X connect 8 0 7 0;
#X connect 9 0 18 0;
#X connect 9 0 19 0;
#X connect 10 0 9 0;
#X connect 11 0 12 0;
#X connect 11 1 15 0;
#X connect 11 2 17 0;
#X connect 13 0 14 0;
#X connect 14 0 11 0;
#X connect 16 0 11 1;
#X connect 20 0 22 1;
#X connect 21 0 20 1;
