#N canvas 15 511 450 300 10;
#X floatatom 161 56 5 0 0 0 - - -;
#X msg 219 55 testo;
#X floatatom 292 44 5 0 0 0 - - -;
#X obj 297 175 print unmatched;
#X obj 243 214 print foooooo;
#X msg 301 84 /foo/10 \$1;
#X msg 52 15 1 2 3 foo 5 6;
#X obj 162 103 opack /foo;
#X obj 72 140 oprint pack_monitor;
#X obj 243 141 oroute /foo/*;
#X connect 0 0 7 0;
#X connect 1 0 7 0;
#X connect 2 0 5 0;
#X connect 5 0 9 0;
#X connect 6 0 7 0;
#X connect 7 0 8 0;
#X connect 7 0 9 0;
#X connect 9 0 4 0;
#X connect 9 1 3 0;
