#N canvas 15 511 450 300 10;
#X floatatom 161 56 5 0 0 0 - - -;
#X msg 219 55 testo;
#X msg 52 15 1 2 3 foo 5 6;
#X obj 162 103 opack /foo;
#X obj 162 144 oprintbytes pack_monitor;
#X connect 0 0 3 0;
#X connect 1 0 3 0;
#X connect 2 0 3 0;
#X connect 3 0 4 0;
