#N canvas 462 226 796 511 10;
#X floatatom 251 185 5 0 0 0 - - -;
#X msg 309 184 testo;
#X floatatom 375 140 5 0 0 0 - - -;
#X msg 384 180 /foo/10 \$1;
#X msg 142 144 1 2 3 foo 5 6;
#X msg 476 183 /bar \$1;
#X floatatom 472 156 5 0 0 0 - - -;
#X floatatom 210 50 5 0 0 0 - - -;
#X obj 111 262 print;
#X obj 214 31 bng 15 250 50 0 empty empty empty 17 7 0 10 -262144 -1
-1;
#X obj 208 82 opack /postbar;
#X obj 162 269 oprint pack_monitor;
#X obj 252 232 opack /foo;
#X floatatom 546 154 5 0 0 0 - - -;
#X msg 550 181 /bob \$1;
#X msg 499 238 /bob;
#X msg 539 238 /bar;
#X obj 333 270 oselect /foo /bar;
#X obj 201 335 omessage 100 23 binhex b#2F666F6F205B0A2F706F7374626172202D352E0A5D0A
;
#X obj 316 336 omessage 100 23 binhex b#0A0A0A0A;
#X obj 448 316 oprint unmatched;
#X connect 0 0 12 0;
#X connect 1 0 12 0;
#X connect 2 0 3 0;
#X connect 3 0 17 0;
#X connect 4 0 12 0;
#X connect 5 0 17 0;
#X connect 6 0 5 0;
#X connect 7 0 10 0;
#X connect 9 0 7 0;
#X connect 10 0 12 0;
#X connect 12 0 8 0;
#X connect 12 0 11 0;
#X connect 12 0 17 0;
#X connect 13 0 14 0;
#X connect 14 0 17 0;
#X connect 15 0 17 1;
#X connect 16 0 17 1;
#X connect 17 0 18 1;
#X connect 17 1 19 1;
#X connect 17 2 20 0;
