#N canvas 512 245 762 300 10;
#X obj 351 109 bng 15 250 50 0 empty empty empty 17 7 0 10 -262144
-1 -1;
#X floatatom 411 97 5 0 0 0 - - -;
#X floatatom 268 96 5 0 0 0 - - -;
#X msg 197 137 /fooM \$1;
#X floatatom 216 91 5 0 0 0 - - -;
#X obj 262 137 opack /foo0;
#X obj 352 186 ovar;
#X obj 352 208 oprint;
#X obj 405 138 opack /foo1;
#X msg 132 -6 o.var copies an OSC packet and stores it for later use.
Since FullPacket messages are references to data stored in memory \,
objects wishing to store a packet must make a copy of it rather than
just save the FullPacket message. Use o.var or o.message to store a
packet \, not zl reg or any other normal Max object.;
#X connect 0 0 6 0;
#X connect 1 0 8 0;
#X connect 2 0 5 0;
#X connect 3 0 6 0;
#X connect 4 0 3 0;
#X connect 5 0 6 0;
#X connect 6 0 7 0;
#X connect 8 0 6 1;
