#N canvas 782 345 450 300 10;
#X obj 128 166 bng 15 250 50 0 empty empty empty 17 7 0 10 -262144
-1 -1;
#X floatatom 149 50 5 0 0 0 - - -;
#X obj 151 165 oprint yes;
#X obj 151 110 owhen /foo > 3;
#X obj 151 83 opack /foo;
#X connect 1 0 4 0;
#X connect 3 0 0 0;
#X connect 3 0 2 0;
#X connect 4 0 3 0;
