#N canvas 397 243 450 300 10;
#N canvas 337 132 450 300 test 0;
#X obj 50 40 inlet;
#X obj 50 70 + 2;
#X obj 50 104 outlet;
#X connect 0 0 1 0;
#X connect 1 0 2 0;
#X restore 43 68 pd test;
#X msg 43 29 4;
#X msg 43 145 6;
#X msg 43 105 set \$1;
#X connect 0 0 3 0;
#X connect 1 0 0 0;
#X connect 3 0 2 0;
