{
	"patcher" : 	{
		"fileversion" : 1,
		"appversion" : 		{
			"major" : 6,
			"minor" : 0,
			"revision" : 3
		}
,
		"rect" : [ 217.0, 61.0, 900.0, 749.0 ],
		"bglocked" : 0,
		"openinpresentation" : 0,
		"default_fontsize" : 12.0,
		"default_fontface" : 0,
		"default_fontname" : "Arial",
		"gridonopen" : 0,
		"gridsize" : [ 15.0, 15.0 ],
		"gridsnaponopen" : 0,
		"statusbarvisible" : 2,
		"toolbarvisible" : 1,
		"boxanimatetime" : 200,
		"imprint" : 0,
		"enablehscroll" : 1,
		"enablevscroll" : 1,
		"devicewidth" : 0.0,
		"description" : "",
		"digest" : "",
		"tags" : "",
		"boxes" : [ 			{
				"box" : 				{
					"fontname" : "Arial",
					"fontsize" : 12.0,
					"id" : "obj-7",
					"maxclass" : "flonum",
					"numinlets" : 1,
					"numoutlets" : 2,
					"outlettype" : [ "float", "bang" ],
					"parameter_enable" : 0,
					"patching_rect" : [ 740.666687, 581.0, 50.0, 20.0 ],
					"presentation_rect" : [ 770.666687, 579.0, 0.0, 0.0 ]
				}

			}
, 			{
				"box" : 				{
					"fontname" : "Arial",
					"fontsize" : 12.0,
					"id" : "obj-8",
					"maxclass" : "flonum",
					"numinlets" : 1,
					"numoutlets" : 2,
					"outlettype" : [ "float", "bang" ],
					"parameter_enable" : 0,
					"patching_rect" : [ 703.333313, 542.0, 50.0, 20.0 ],
					"presentation_rect" : [ 733.333313, 540.0, 0.0, 0.0 ]
				}

			}
, 			{
				"box" : 				{
					"fontname" : "Arial",
					"fontsize" : 12.0,
					"id" : "obj-9",
					"maxclass" : "flonum",
					"numinlets" : 1,
					"numoutlets" : 2,
					"outlettype" : [ "float", "bang" ],
					"parameter_enable" : 0,
					"patching_rect" : [ 666.0, 513.0, 50.0, 20.0 ],
					"presentation_rect" : [ 696.0, 511.0, 0.0, 0.0 ]
				}

			}
, 			{
				"box" : 				{
					"fontname" : "Arial",
					"fontsize" : 12.0,
					"id" : "obj-11",
					"maxclass" : "newobj",
					"numinlets" : 4,
					"numoutlets" : 4,
					"outlettype" : [ "", "", "", "FullPacket" ],
					"patching_rect" : [ 666.0, 483.0, 131.0, 20.0 ],
					"presentation_rect" : [ 696.0, 481.0, 0.0, 0.0 ],
					"text" : "o.route /x /y /z"
				}

			}
, 			{
				"box" : 				{
					"fontname" : "Arial",
					"fontsize" : 12.0,
					"id" : "obj-14",
					"maxclass" : "flonum",
					"numinlets" : 1,
					"numoutlets" : 2,
					"outlettype" : [ "float", "bang" ],
					"parameter_enable" : 0,
					"patching_rect" : [ 582.666687, 581.0, 50.0, 20.0 ]
				}

			}
, 			{
				"box" : 				{
					"fontname" : "Arial",
					"fontsize" : 12.0,
					"id" : "obj-12",
					"maxclass" : "flonum",
					"numinlets" : 1,
					"numoutlets" : 2,
					"outlettype" : [ "float", "bang" ],
					"parameter_enable" : 0,
					"patching_rect" : [ 545.333313, 542.0, 50.0, 20.0 ]
				}

			}
, 			{
				"box" : 				{
					"fontname" : "Arial",
					"fontsize" : 12.0,
					"id" : "obj-10",
					"maxclass" : "flonum",
					"numinlets" : 1,
					"numoutlets" : 2,
					"outlettype" : [ "float", "bang" ],
					"parameter_enable" : 0,
					"patching_rect" : [ 508.0, 513.0, 50.0, 20.0 ]
				}

			}
, 			{
				"box" : 				{
					"fontname" : "Arial",
					"fontsize" : 12.0,
					"id" : "obj-6",
					"maxclass" : "newobj",
					"numinlets" : 4,
					"numoutlets" : 4,
					"outlettype" : [ "", "", "", "FullPacket" ],
					"patching_rect" : [ 508.0, 483.0, 131.0, 20.0 ],
					"text" : "o.route /x /y /z"
				}

			}
, 			{
				"box" : 				{
					"fontname" : "Arial",
					"fontsize" : 12.0,
					"id" : "obj-3",
					"maxclass" : "newobj",
					"numinlets" : 3,
					"numoutlets" : 3,
					"outlettype" : [ "", "", "FullPacket" ],
					"patching_rect" : [ 582.666687, 437.0, 101.0, 20.0 ],
					"text" : "o.route /left /right"
				}

			}
, 			{
				"box" : 				{
					"fontname" : "Arial",
					"fontsize" : 12.0,
					"id" : "obj-38",
					"maxclass" : "comment",
					"numinlets" : 1,
					"numoutlets" : 0,
					"patching_rect" : [ 14.0, 7.0, 214.0, 20.0 ],
					"text" : "o.io.gametrak.display.maxhelp"
				}

			}
, 			{
				"box" : 				{
					"id" : "obj-5",
					"maxclass" : "gswitch",
					"numinlets" : 3,
					"numoutlets" : 1,
					"outlettype" : [ "" ],
					"parameter_enable" : 0,
					"patching_rect" : [ 58.0, 59.0, 41.0, 32.0 ]
				}

			}
, 			{
				"box" : 				{
					"id" : "obj-4",
					"maxclass" : "bpatcher",
					"name" : "o.io.gametrak.display.maxpat",
					"numinlets" : 1,
					"numoutlets" : 1,
					"outlettype" : [ "" ],
					"patching_rect" : [ 58.0, 468.0, 423.0, 283.0 ]
				}

			}
, 			{
				"box" : 				{
					"fontname" : "Arial",
					"fontsize" : 12.0,
					"id" : "obj-2",
					"maxclass" : "newobj",
					"numinlets" : 0,
					"numoutlets" : 1,
					"outlettype" : [ "" ],
					"patching_rect" : [ 65.0, 29.0, 83.0, 20.0 ],
					"text" : "o.io.gametrak"
				}

			}
, 			{
				"box" : 				{
					"id" : "obj-1",
					"maxclass" : "bpatcher",
					"name" : "o.io.gametrak.display.maxpat",
					"numinlets" : 1,
					"numoutlets" : 1,
					"outlettype" : [ "" ],
					"patching_rect" : [ 58.0, 120.0, 423.0, 283.0 ]
				}

			}
 ],
		"lines" : [ 			{
				"patchline" : 				{
					"destination" : [ "obj-3", 0 ],
					"disabled" : 0,
					"hidden" : 0,
					"source" : [ "obj-1", 0 ]
				}

			}
, 			{
				"patchline" : 				{
					"destination" : [ "obj-4", 0 ],
					"disabled" : 0,
					"hidden" : 0,
					"source" : [ "obj-1", 0 ]
				}

			}
, 			{
				"patchline" : 				{
					"destination" : [ "obj-7", 0 ],
					"disabled" : 0,
					"hidden" : 0,
					"source" : [ "obj-11", 2 ]
				}

			}
, 			{
				"patchline" : 				{
					"destination" : [ "obj-8", 0 ],
					"disabled" : 0,
					"hidden" : 0,
					"source" : [ "obj-11", 1 ]
				}

			}
, 			{
				"patchline" : 				{
					"destination" : [ "obj-9", 0 ],
					"disabled" : 0,
					"hidden" : 0,
					"source" : [ "obj-11", 0 ]
				}

			}
, 			{
				"patchline" : 				{
					"destination" : [ "obj-5", 1 ],
					"disabled" : 0,
					"hidden" : 0,
					"source" : [ "obj-2", 0 ]
				}

			}
, 			{
				"patchline" : 				{
					"destination" : [ "obj-11", 0 ],
					"disabled" : 0,
					"hidden" : 0,
					"source" : [ "obj-3", 1 ]
				}

			}
, 			{
				"patchline" : 				{
					"destination" : [ "obj-6", 0 ],
					"disabled" : 0,
					"hidden" : 0,
					"source" : [ "obj-3", 0 ]
				}

			}
, 			{
				"patchline" : 				{
					"destination" : [ "obj-1", 0 ],
					"disabled" : 0,
					"hidden" : 0,
					"source" : [ "obj-5", 0 ]
				}

			}
, 			{
				"patchline" : 				{
					"destination" : [ "obj-10", 0 ],
					"disabled" : 0,
					"hidden" : 0,
					"source" : [ "obj-6", 0 ]
				}

			}
, 			{
				"patchline" : 				{
					"destination" : [ "obj-12", 0 ],
					"disabled" : 0,
					"hidden" : 0,
					"source" : [ "obj-6", 1 ]
				}

			}
, 			{
				"patchline" : 				{
					"destination" : [ "obj-14", 0 ],
					"disabled" : 0,
					"hidden" : 0,
					"source" : [ "obj-6", 2 ]
				}

			}
 ],
		"dependency_cache" : [ 			{
				"name" : "o.io.gametrak.display.maxpat",
				"bootpath" : "/Users/Yotam/Software/svn/cnmat/trunk/max/externals/odot/patches/abstractions",
				"patcherrelativepath" : "",
				"type" : "JSON",
				"implicit" : 1
			}
, 			{
				"name" : "o.io.gametrak.maxpat",
				"bootpath" : "/Users/Yotam/Software/svn/cnmat/trunk/max/externals/odot/patches/abstractions",
				"patcherrelativepath" : "",
				"type" : "JSON",
				"implicit" : 1
			}
, 			{
				"name" : "o.maxplatform.maxpat",
				"bootpath" : "/Users/Yotam/Software/svn/cnmat/trunk/max/externals/odot/patches/abstractions",
				"patcherrelativepath" : "",
				"type" : "JSON",
				"implicit" : 1
			}
, 			{
				"name" : "o.route.mxo",
				"type" : "iLaX"
			}
, 			{
				"name" : "o.var.mxo",
				"type" : "iLaX"
			}
, 			{
				"name" : "o.collect.mxo",
				"type" : "iLaX"
			}
, 			{
				"name" : "o.message.mxo",
				"type" : "iLaX"
			}
, 			{
				"name" : "o.prepend.mxo",
				"type" : "iLaX"
			}
, 			{
				"name" : "o.pack.mxo",
				"type" : "iLaX"
			}
 ]
	}

}
